<svg width="128" height="55" viewBox="0 0 128 55" fill="none" xmlns="http://www.w3.org/2000/svg">
<path d="M123.723 26.8127C124.792 26.8127 125.403 27.4323 125.403 28.5166H122.043C122.043 27.4323 122.654 26.8127 123.723 26.8127ZM123.723 33.6282C126.473 33.6282 127.695 32.8537 127.695 31.4596C127.695 31.3048 127.695 31.1499 127.542 31.1499C127.389 30.995 127.389 30.995 127.236 30.995H126.167C125.862 30.995 125.556 31.1499 125.251 31.4596C124.945 31.7694 124.487 31.9243 123.876 31.9243C123.265 31.9243 122.807 31.7694 122.501 31.4596C122.196 31.1499 122.043 30.8401 122.043 30.2205H127.542C127.695 30.2205 127.847 30.2205 127.847 30.0656C128 29.9107 128 29.9107 128 29.7558V29.2911C128 27.897 127.695 26.8127 126.931 26.1931C126.167 25.4186 125.098 25.1088 123.723 25.1088C122.348 25.1088 121.279 25.4186 120.516 26.1931C119.752 26.9676 119.446 28.0519 119.446 29.2911C119.446 30.6852 119.752 31.7694 120.516 32.389C121.279 33.1635 122.348 33.6282 123.723 33.6282ZM116.391 33.6282C117.155 33.6282 117.919 33.6282 118.377 33.4733C118.53 33.4733 118.683 33.4733 118.683 33.3184C118.835 33.1635 118.835 33.1635 118.835 33.0086V32.2341C118.835 32.0792 118.835 31.9243 118.683 31.9243C118.53 31.7694 118.53 31.7694 118.377 31.7694H118.072C117.919 31.7694 117.766 31.7694 117.613 31.7694C117.461 31.7694 117.155 31.7694 117.155 31.7694C116.697 31.7694 116.391 31.6145 116.239 31.3048C115.933 30.995 115.933 30.6852 115.933 30.0656V27.2774H117.919C118.072 27.2774 118.224 27.2774 118.224 27.1225C118.377 26.9676 118.377 26.9676 118.377 26.8127V25.8833C118.377 25.7284 118.377 25.5735 118.224 25.5735C118.072 25.4186 118.072 25.4186 117.919 25.4186H115.933V23.2501C115.933 23.0952 115.933 22.9403 115.78 22.9403C115.628 22.7854 115.628 22.7854 115.475 22.7854H113.795C113.642 22.7854 113.489 22.7854 113.489 22.9403C113.337 23.0952 113.337 23.0952 113.337 23.2501V30.2205C113.184 32.5439 114.253 33.6282 116.391 33.6282ZM103.103 33.3184C103.255 33.4733 103.255 33.4733 103.408 33.4733H105.088C105.241 33.4733 105.394 33.4733 105.394 33.3184C105.547 33.1635 105.547 33.1635 105.547 33.0086V28.0519C106.31 27.2774 106.921 26.9676 107.532 26.9676C108.449 26.9676 108.907 27.5872 108.907 28.8264V33.1635C108.907 33.3184 108.907 33.4733 109.06 33.4733C109.212 33.6282 109.212 33.6282 109.365 33.6282H111.045C111.198 33.6282 111.351 33.6282 111.351 33.4733C111.504 33.3184 111.504 33.3184 111.504 33.1635V28.6715C111.504 27.4323 111.198 26.5029 110.587 26.0382C109.976 25.4186 109.212 25.1088 108.143 25.1088C107.227 25.1088 106.463 25.4186 105.547 26.1931V25.7284C105.547 25.5735 105.547 25.4186 105.394 25.4186C105.241 25.2637 105.241 25.2637 105.088 25.2637H103.408C103.255 25.2637 103.103 25.2637 103.103 25.4186C102.95 25.5735 102.95 25.5735 102.95 25.7284V33.0086C102.95 33.1635 102.95 33.1635 103.103 33.3184ZM97.1456 26.8127C97.7566 26.8127 98.2148 26.9676 98.5203 27.4323C98.8258 27.897 98.9786 28.5166 98.9786 29.446C98.9786 30.3754 98.8258 30.995 98.5203 31.4596C98.2148 31.9243 97.7566 32.0792 97.1456 32.0792C96.5346 32.0792 96.0764 31.9243 95.7709 31.4596C95.4654 30.995 95.3127 30.3754 95.3127 29.446C95.3127 28.5166 95.4654 27.897 95.7709 27.4323C95.9237 26.9676 96.5346 26.8127 97.1456 26.8127ZM97.1456 33.6282C98.5203 33.6282 99.7423 33.3184 100.506 32.5439C101.27 31.7694 101.728 30.8401 101.728 29.446C101.728 28.0519 101.27 26.9676 100.506 26.348C99.7423 25.5735 98.6731 25.2637 97.1456 25.2637C95.7709 25.2637 94.549 25.5735 93.7852 26.348C93.0215 27.1225 92.5633 28.0519 92.5633 29.446C92.5633 30.8401 92.8688 31.9243 93.7852 32.5439C94.549 33.1635 95.6182 33.6282 97.1456 33.6282ZM78.0525 33.3184C78.2053 33.4733 78.2053 33.4733 78.358 33.4733H80.0382C80.191 33.4733 80.3437 33.4733 80.3437 33.3184C80.4965 33.1635 80.4965 33.1635 80.4965 33.0086V28.0519C80.9547 27.2774 81.5657 26.9676 82.0239 26.9676C82.9404 26.9676 83.2459 27.5872 83.2459 28.8264V33.1635C83.2459 33.3184 83.2459 33.4733 83.3986 33.4733C83.5513 33.6282 83.5513 33.6282 83.7041 33.6282H85.3843C85.537 33.6282 85.6898 33.6282 85.6898 33.4733C85.8425 33.3184 85.8425 33.3184 85.8425 33.1635V28.6715C85.8425 28.5166 85.8425 28.2068 85.8425 28.0519C86.4535 27.2774 86.9117 26.9676 87.5227 26.9676C88.4392 26.9676 88.7447 27.5872 88.7447 28.8264V33.1635C88.7447 33.3184 88.7447 33.4733 88.8974 33.4733C89.0502 33.6282 89.0502 33.6282 89.2029 33.6282H90.8831C91.0358 33.6282 91.1886 33.6282 91.1886 33.4733C91.3413 33.3184 91.3413 33.3184 91.3413 33.1635V28.6715C91.3413 27.4323 91.0358 26.5029 90.5776 25.8833C89.9666 25.2637 89.2029 24.9539 88.2864 24.9539C87.37 24.9539 86.4535 25.4186 85.537 26.348C84.926 25.4186 84.0096 24.9539 82.9404 24.9539C82.4821 24.9539 82.0239 25.1088 81.7184 25.2637C81.4129 25.4186 80.9547 25.7284 80.6492 26.0382V25.5735C80.6492 25.4186 80.6492 25.2637 80.4965 25.2637C80.3437 25.1088 80.3437 25.1088 80.191 25.1088H78.5108C78.358 25.1088 78.2053 25.1088 78.2053 25.2637C78.0525 25.4186 77.8998 25.5735 77.8998 25.7284V33.0086C77.8998 33.1635 78.0525 33.1635 78.0525 33.3184ZM72.2482 26.8127C73.3175 26.8127 73.9284 27.4323 73.9284 28.5166H70.5681C70.5681 27.4323 71.179 26.8127 72.2482 26.8127ZM72.2482 33.6282C74.9977 33.6282 76.2196 32.8537 76.2196 31.4596C76.2196 31.3048 76.2196 31.1499 76.0669 31.1499C75.9141 30.995 75.9141 30.995 75.7614 30.995H74.6922C74.3867 30.995 74.0812 31.1499 73.7757 31.4596C73.4702 31.7694 73.012 31.9243 72.401 31.9243C71.79 31.9243 71.3318 31.7694 71.0263 31.4596C70.7208 31.1499 70.5681 30.8401 70.5681 30.2205H76.0669C76.2196 30.2205 76.3724 30.2205 76.3724 30.0656C76.5251 29.9107 76.5251 29.9107 76.5251 29.7558V29.2911C76.5251 27.897 76.2196 26.8127 75.4559 26.1931C74.6922 25.4186 73.6229 25.1088 72.2482 25.1088C70.8735 25.1088 69.8043 25.4186 69.0406 26.1931C68.2769 26.9676 67.9714 28.0519 67.9714 29.2911C67.9714 30.6852 68.2769 31.7694 69.0406 32.389C69.8043 33.1635 70.8735 33.6282 72.2482 33.6282ZM64.1528 33.3184C64.3055 33.4733 64.3055 33.4733 64.4583 33.4733H66.1385C66.2912 33.4733 66.444 33.4733 66.444 33.3184C66.5967 33.1635 66.5967 33.1635 66.5967 33.0086V25.8833C66.5967 25.7284 66.5967 25.5735 66.444 25.5735C66.2912 25.4186 66.2912 25.4186 66.1385 25.4186H64.4583C64.3055 25.4186 64.1528 25.4186 64.1528 25.5735C64 25.7284 64 25.7284 64 25.8833V33.0086C64 33.1635 64.1528 33.1635 64.1528 33.3184ZM64.3055 24.3344C64.4583 24.4893 64.611 24.6442 64.9165 24.6442H65.833C66.1385 24.6442 66.2912 24.4893 66.444 24.3344C66.5967 24.1795 66.5967 24.0246 66.5967 23.7148V23.405C66.5967 23.0952 66.5967 22.9403 66.444 22.7854C66.2912 22.6305 66.1385 22.4756 65.833 22.4756H64.9165C64.611 22.4756 64.4583 22.6305 64.3055 22.7854C64.1528 22.9403 64.1528 23.0952 64.1528 23.405V23.7148C64 24.0246 64.1528 24.1795 64.3055 24.3344ZM54.8354 24.7991H57.5848C58.3485 24.7991 59.1122 24.9539 59.4177 25.2637C59.8759 25.5735 60.0287 26.0382 60.0287 26.9676C60.0287 27.7421 59.8759 28.3617 59.4177 28.6715C58.9595 28.9813 58.3485 29.1362 57.5848 29.1362H54.8354V24.7991ZM52.2387 33.3184C52.3914 33.4733 52.5442 33.4733 52.6969 33.4733H54.0716C54.2244 33.4733 54.3771 33.4733 54.5299 33.3184C54.6826 33.1635 54.6826 33.0086 54.6826 32.8537V31.1499H58.1957C61.0979 31.1499 62.6253 29.7558 62.6253 26.9676C62.6253 24.1795 61.0979 22.7854 58.1957 22.7854H52.5442C52.3914 22.7854 52.2387 22.7854 52.086 22.9403C51.9332 23.0952 51.9332 23.2501 51.9332 23.405V32.6988C52.086 33.0086 52.086 33.1635 52.2387 33.3184ZM37.8807 33.3184C38.0334 33.4733 38.0335 33.4733 38.1862 33.4733H39.8664C40.0191 33.4733 40.1719 33.4733 40.1719 33.3184C40.3246 33.1635 40.3246 33.1635 40.3246 33.0086V28.0519C41.0883 27.2774 41.6993 26.9676 42.3103 26.9676C43.2268 26.9676 43.685 27.5872 43.685 28.8264V33.1635C43.685 33.3184 43.685 33.4733 43.8377 33.4733C43.9905 33.6282 43.9905 33.6282 44.1432 33.6282H45.8234C45.9762 33.6282 46.1289 33.6282 46.1289 33.4733C46.2817 33.3184 46.2817 33.3184 46.2817 33.1635V28.6715C46.2817 27.4323 45.9762 26.5029 45.3652 26.0382C44.7542 25.4186 43.9905 25.1088 42.9213 25.1088C42.0048 25.1088 41.2411 25.4186 40.3246 26.1931V25.7284C40.3246 25.5735 40.3246 25.4186 40.1719 25.4186C40.0191 25.2637 40.0191 25.2637 39.8664 25.2637H38.1862C38.0335 25.2637 37.8807 25.2637 37.8807 25.4186C37.728 25.5735 37.728 25.5735 37.728 25.7284V33.0086C37.8807 33.1635 37.8807 33.1635 37.8807 33.3184ZM33.6039 33.3184C33.7566 33.4733 33.7566 33.4733 33.9093 33.4733H35.5895C35.7423 33.4733 35.895 33.4733 35.895 33.3184C36.0478 33.1635 36.0478 33.1635 36.0478 33.0086V25.8833C36.0478 25.7284 36.0478 25.5735 35.895 25.5735C35.7423 25.4186 35.7423 25.4186 35.5895 25.4186H33.9093C33.7566 25.4186 33.6039 25.4186 33.6039 25.5735C33.4511 25.7284 33.4511 25.7284 33.4511 25.8833V33.0086C33.4511 33.1635 33.4511 33.1635 33.6039 33.3184ZM33.6039 24.3344C33.7566 24.4893 33.9093 24.6442 34.2148 24.6442H35.1313C35.4368 24.6442 35.5895 24.4893 35.7423 24.3344C35.895 24.1795 35.895 24.0246 35.895 23.7148V23.405C35.895 23.0952 35.895 22.9403 35.7423 22.7854C35.5895 22.6305 35.4368 22.4756 35.1313 22.4756H34.2148C33.9093 22.4756 33.7566 22.6305 33.6039 22.7854C33.4511 22.9403 33.4511 23.0952 33.4511 23.405V23.7148C33.4511 24.0246 33.4511 24.1795 33.6039 24.3344Z" fill="#1961AC"/>
<path d="M107.838 19.8422C107.99 19.9971 107.99 19.9971 108.143 19.9971H109.823C109.976 19.9971 110.129 19.9971 110.129 19.8422C110.282 19.6873 110.282 19.6873 110.282 19.5324V12.0973C110.282 11.9424 110.282 11.7875 110.129 11.7875C110.129 11.6326 109.976 11.6326 109.823 11.6326H108.143C107.99 11.6326 107.838 11.6326 107.838 11.7875C107.685 11.9424 107.685 11.9424 107.685 12.0973V19.3775C107.685 19.5324 107.685 19.6873 107.838 19.8422ZM107.838 10.3934C107.99 10.5483 108.143 10.7032 108.449 10.7032H109.365C109.671 10.7032 109.823 10.5483 109.976 10.3934C110.129 10.2385 110.282 9.92875 110.282 9.77385V9.46405C110.282 9.15426 110.129 8.99936 109.976 8.84446C109.976 8.68957 109.823 8.53467 109.518 8.53467H108.449C108.143 8.53467 107.99 8.68957 107.838 8.84446C107.685 8.99936 107.532 9.30916 107.532 9.46405V9.77385C107.685 10.0836 107.685 10.2385 107.838 10.3934ZM98.3676 15.1953C98.8258 15.66 99.284 15.8149 99.7423 16.1247C100.353 16.2796 100.811 16.4344 101.422 16.5893C102.033 16.7442 102.492 16.8991 102.95 17.054C103.408 17.2089 103.561 17.3638 103.561 17.6736C103.561 18.1383 102.95 18.4481 101.728 18.4481C100.964 18.4481 100.506 18.2932 100.2 17.9834C100.048 17.6736 99.7422 17.5187 99.284 17.5187H98.2148C98.0621 17.5187 97.9093 17.5187 97.9093 17.6736C97.7566 17.5187 97.7566 17.6736 97.7566 17.8285C97.7566 19.3775 99.1313 19.9971 102.033 19.9971C104.936 19.9971 106.31 19.2226 106.31 17.5187C106.31 16.8991 106.158 16.4344 105.699 15.9698C105.241 15.5051 104.783 15.3502 104.172 15.0404C103.561 14.8855 103.103 14.7306 102.492 14.5757C101.881 14.4208 101.422 14.2659 100.964 14.111C100.506 13.9561 100.353 13.8012 100.353 13.4914C100.353 13.0267 100.811 12.7169 101.881 12.7169C102.644 12.7169 103.103 12.8718 103.408 13.1816C103.561 13.4914 103.866 13.6463 104.325 13.6463H105.547C105.699 13.6463 105.852 13.6463 105.852 13.4914C106.005 13.3365 106.005 13.3365 106.005 13.1816C106.005 11.6326 104.63 11.013 101.728 11.013C98.9785 11.013 97.7566 11.7875 97.7566 13.4914C97.7566 14.2659 97.9093 14.8855 98.3676 15.1953ZM90.5776 19.8422C90.7303 19.9971 90.7303 19.9971 90.8831 19.9971H92.5632C92.716 19.9971 92.8687 19.9971 92.8687 19.8422C93.1742 19.6873 93.1742 19.5324 93.1742 19.3775V14.4208C93.7852 13.6463 94.5489 13.1816 95.1599 13.1816C95.3127 13.1816 95.4654 13.1816 95.7709 13.1816C96.0764 13.1816 96.2291 13.1816 96.3819 13.1816H96.6874C96.8401 13.1816 96.9928 13.1816 96.9928 13.0267C97.1456 12.8718 97.1456 12.8718 97.1456 12.7169V11.6326C97.1456 11.4777 97.1456 11.3228 96.9928 11.3228C96.8401 11.1679 96.8401 11.1679 96.6874 11.1679C95.9236 11.1679 95.3127 11.3228 94.7017 11.4777C94.2434 11.6326 93.7852 11.9424 93.1742 12.2522V11.7875C93.1742 11.6326 93.1742 11.6326 93.0215 11.4777C92.8687 11.3228 92.8687 11.3228 92.716 11.3228H91.0358C90.8831 11.3228 90.7303 11.3228 90.7303 11.4777C90.5776 11.6326 90.5776 11.6326 90.5776 11.7875V19.3775C90.5776 19.5324 90.5776 19.6873 90.5776 19.8422ZM84.6205 13.0267C85.6897 13.0267 86.3007 13.6463 86.4535 14.8855H82.9403C82.7876 13.6463 83.3986 13.0267 84.6205 13.0267ZM84.6205 19.9971C87.3699 19.9971 88.8974 19.2226 88.8974 17.8285C88.8974 17.6736 88.8974 17.5187 88.7446 17.5187C88.5919 17.3638 88.5919 17.3638 88.4391 17.3638H87.2172C86.9117 17.3638 86.6062 17.5187 86.3007 17.8285C85.9952 18.1383 85.537 18.2932 84.7733 18.2932C84.1623 18.2932 83.7041 18.1383 83.3986 17.8285C83.0931 17.5187 82.9403 17.054 82.7876 16.5893H88.5919C88.7446 16.5893 88.8974 16.5893 88.8974 16.4344C89.0501 16.2796 89.0501 16.2796 89.0501 16.1247V15.66C89.0501 14.2659 88.5919 13.1816 87.8282 12.4071C87.0644 11.6326 85.9952 11.1679 84.6205 11.1679C83.2458 11.1679 82.1766 11.4777 81.2602 12.2522C80.4964 13.0267 80.0382 14.111 80.0382 15.5051C80.0382 16.8991 80.4964 17.9834 81.2602 18.7579C82.0239 19.6873 83.0931 19.9971 84.6205 19.9971ZM69.6516 11.7875C69.6516 11.9424 69.6516 11.9424 69.8043 12.0973L73.1647 19.2226C73.1647 19.3775 73.3174 19.5324 73.6229 19.6873C73.7757 19.8422 74.0811 19.8422 74.2339 19.8422H75.3031C75.4559 19.8422 75.7613 19.8422 75.9141 19.6873C76.0668 19.5324 76.2196 19.3775 76.3723 19.2226L79.7327 12.0973C79.7327 11.9424 79.7327 11.9424 79.7327 11.7875V11.6326C79.7327 11.4777 79.58 11.4777 79.4272 11.4777H77.8998C77.747 11.4777 77.4415 11.4777 77.2888 11.6326C77.136 11.7875 76.9833 11.9424 76.8306 12.0973L74.6921 16.8991L72.5537 12.0973C72.401 11.9424 72.401 11.7875 72.0955 11.6326C71.9427 11.4777 71.6372 11.4777 71.4845 11.4777H69.957C69.8043 11.4777 69.6516 11.4777 69.6516 11.6326C69.8043 11.6326 69.6516 11.6326 69.6516 11.7875ZM64.7637 13.0267C65.5275 13.0267 65.9857 13.1816 66.2912 13.6463C66.5967 14.111 66.7494 14.7306 66.7494 15.66C66.7494 16.5893 66.5967 17.2089 66.2912 17.6736C65.9857 18.1383 65.5275 18.2932 64.7637 18.2932C64 18.2932 63.5418 18.1383 63.2363 17.6736C62.9308 17.2089 62.778 16.5893 62.778 15.66C62.778 14.7306 62.9308 14.111 63.2363 13.6463C63.5418 13.1816 64 13.0267 64.7637 13.0267ZM64.7637 19.9971C66.2912 19.9971 67.3604 19.6873 68.2769 18.9128C69.0406 18.1383 69.4988 17.054 69.4988 15.66C69.4988 14.2659 69.0406 13.0267 68.2769 12.4071C67.5131 11.6326 66.2912 11.3228 64.7637 11.3228C63.2363 11.3228 62.1671 11.6326 61.2506 12.4071C60.4869 13.1816 60.0286 14.2659 60.0286 15.66C60.0286 17.054 60.4869 18.2932 61.2506 18.9128C62.0143 19.6873 63.2363 19.9971 64.7637 19.9971ZM50.7112 19.0677C51.3222 19.6873 52.2387 19.9971 53.3079 19.9971C54.2243 19.9971 55.1408 19.6873 56.0573 18.9128V19.3775C56.0573 19.5324 56.0573 19.6873 56.21 19.6873C56.3628 19.8422 56.3628 19.8422 56.5155 19.8422H58.1957C58.3484 19.8422 58.5012 19.8422 58.5012 19.6873C58.6539 19.5324 58.6539 19.5324 58.6539 19.3775V11.7875C58.6539 11.6326 58.6539 11.4777 58.5012 11.4777C58.3485 11.3228 58.3484 11.3228 58.1957 11.3228H56.5155C56.3628 11.3228 56.21 11.3228 56.21 11.4777C56.0573 11.6326 56.0573 11.6326 56.0573 11.7875V17.054C55.2936 17.8285 54.6826 18.1383 53.9189 18.1383C53.0024 18.1383 52.3914 17.5187 52.3914 16.2796V11.7875C52.3914 11.6326 52.3914 11.4777 52.2387 11.4777C52.0859 11.3228 52.0859 11.3228 51.9332 11.3228H50.253C50.1002 11.3228 49.9475 11.3228 49.9475 11.4777C49.7948 11.6326 49.7948 11.6326 49.7948 11.7875V16.2796C49.7948 17.5187 50.1002 18.4481 50.7112 19.0677ZM33.7566 19.6873C33.9093 19.8422 34.0621 19.8422 34.2148 19.8422H35.5895C35.7422 19.8422 35.895 19.8422 36.0477 19.6873C36.2005 19.5324 36.2005 19.3775 36.2005 19.2226V11.4777L38.9499 19.2226C39.1026 19.3775 39.1026 19.5324 39.4081 19.6873C39.5609 19.8422 39.7136 19.8422 40.0191 19.8422H41.2411C41.3938 19.8422 41.6993 19.8422 41.852 19.6873C42.0048 19.5324 42.1575 19.3775 42.1575 19.2226L44.9069 11.4777V19.0677C44.9069 19.2226 44.9069 19.5324 45.0597 19.5324C45.2124 19.6873 45.3652 19.6873 45.5179 19.6873H46.8926C47.0454 19.6873 47.1981 19.6873 47.3508 19.5324C47.5036 19.3775 47.5036 19.2226 47.5036 19.0677V9.46405C47.5036 9.30916 47.5036 8.99936 47.3508 8.99936C47.1981 8.84446 47.0454 8.84446 46.8926 8.84446H43.685C43.5322 8.84446 43.2267 8.84446 43.074 8.99936C42.9212 9.15426 42.7685 9.30916 42.7685 9.46405L40.4773 16.1247L38.1862 9.46405C38.1862 9.30916 38.0334 9.15426 37.8807 8.99936C37.7279 8.84446 37.5752 8.84446 37.2697 8.84446H34.0621C33.9093 8.84446 33.7566 8.84446 33.6038 8.99936C33.6038 8.99936 33.6038 9.30916 33.6038 9.46405V19.2226C33.6038 19.3775 33.6038 19.5324 33.7566 19.6873Z" fill="#1961AC"/>
<path d="M30.8544 38.8946C31.7709 38.8946 32.5346 38.1201 32.5346 37.1907C32.5346 36.2613 31.7709 35.4868 30.8544 35.4868C29.938 35.4868 29.1742 36.2613 29.1742 37.1907C29.0215 38.1201 29.7852 38.8946 30.8544 38.8946Z" fill="#C6C6C6"/>
<path d="M22.4534 13.0269C23.3699 13.0269 24.1336 12.2524 24.1336 11.323C24.1336 10.3936 23.3699 9.61914 22.4534 9.61914C21.537 9.61914 20.7733 10.3936 20.7733 11.323C20.7733 12.2524 21.537 13.0269 22.4534 13.0269Z" fill="#C6C6C6"/>
<path d="M22.4534 17.3638C23.3699 17.3638 24.1336 16.5893 24.1336 15.6599C24.1336 14.7305 23.3699 13.9561 22.4534 13.9561C21.537 13.9561 20.7733 14.7305 20.7733 15.6599C20.7733 16.5893 21.537 17.3638 22.4534 17.3638Z" fill="#C6C6C6"/>
<path d="M22.4534 21.7012C23.3699 21.7012 24.1336 20.9267 24.1336 19.9973C24.1336 19.0679 23.3699 18.2935 22.4534 18.2935C21.537 18.2935 20.7733 19.0679 20.7733 19.9973C20.7733 20.9267 21.537 21.7012 22.4534 21.7012Z" fill="#C6C6C6"/>
<path d="M22.4534 26.0381C23.3699 26.0381 24.1336 25.2636 24.1336 24.3342C24.1336 23.4049 23.3699 22.6304 22.4534 22.6304C21.537 22.6304 20.7733 23.4049 20.7733 24.3342C20.7733 25.1087 21.537 26.0381 22.4534 26.0381Z" fill="#C6C6C6"/>
<path d="M18.3294 26.0382C19.2458 26.0382 20.0096 25.2637 20.0096 24.3344C20.1623 23.2501 19.3986 22.4756 18.3294 22.4756C17.4129 22.4756 16.6492 23.2501 16.6492 24.1795C16.6492 25.1088 17.4129 26.0382 18.3294 26.0382Z" fill="#C6C6C6"/>
<path d="M22.4534 30.2202C23.3699 30.2202 24.1336 29.4458 24.1336 28.5164C24.1336 27.587 23.3699 26.8125 22.4534 26.8125C21.537 26.8125 20.7733 27.587 20.7733 28.5164C20.7733 29.4458 21.537 30.2202 22.4534 30.2202Z" fill="#C6C6C6"/>
<path d="M18.3294 30.2202C19.2458 30.2202 20.0096 29.4458 20.0096 28.5164C20.0096 27.587 19.2458 26.8125 18.3294 26.8125C17.4129 26.8125 16.6492 27.587 16.6492 28.5164C16.6492 29.4458 17.4129 30.2202 18.3294 30.2202Z" fill="#C6C6C6"/>
<path d="M22.4534 38.8946C23.3699 38.8946 24.1336 38.1201 24.1336 37.1907C24.1336 36.2613 23.3699 35.4868 22.4534 35.4868C21.537 35.4868 20.7733 36.2613 20.7733 37.1907C20.7733 38.1201 21.537 38.8946 22.4534 38.8946Z" fill="#C6C6C6"/>
<path d="M22.4534 43.232C23.3699 43.232 24.1336 42.4575 24.1336 41.5281C24.1336 40.5987 23.3699 39.8242 22.4534 39.8242C21.537 39.8242 20.7733 40.5987 20.7733 41.5281C20.7733 42.3026 21.537 43.232 22.4534 43.232Z" fill="#C6C6C6"/>
<path d="M18.3294 17.3638C19.2458 17.3638 20.0096 16.5893 20.0096 15.6599C20.0096 14.7305 19.2458 13.9561 18.3294 13.9561C17.4129 13.9561 16.6492 14.7305 16.6492 15.6599C16.6492 16.5893 17.4129 17.3638 18.3294 17.3638Z" fill="#C6C6C6"/>
<path d="M18.3294 21.7012C19.2458 21.7012 20.0096 20.9267 20.0096 19.9973C20.0096 19.0679 19.2458 18.2935 18.3294 18.2935C17.4129 18.2935 16.6492 19.0679 16.6492 19.9973C16.6492 20.9267 17.4129 21.7012 18.3294 21.7012Z" fill="#C6C6C6"/>
<path d="M1.68019 34.5574C2.59666 34.5574 3.36038 33.7829 3.36038 32.8535C3.36038 31.9241 2.59666 31.1496 1.68019 31.1496C0.763723 30.9947 0 31.7692 0 32.8535C0 33.7829 0.763723 34.5574 1.68019 34.5574Z" fill="#C6C6C6"/>
<path d="M14.2053 47.4141C15.1217 47.4141 15.8855 46.6396 15.8855 45.7102C15.8855 44.7808 15.1217 44.0063 14.2053 44.0063C13.2888 44.0063 12.5251 44.7808 12.5251 45.7102C12.5251 46.6396 13.2888 47.4141 14.2053 47.4141Z" fill="#C6C6C6"/>
<path d="M10.0812 30.2202C10.9977 30.2202 11.7614 29.4458 11.7614 28.5164C11.7614 27.587 10.9977 26.8125 10.0812 26.8125C9.16472 26.8125 8.40099 27.587 8.40099 28.5164C8.24825 29.4458 9.01197 30.2202 10.0812 30.2202Z" fill="#C6C6C6"/>
<path d="M10.0812 38.8946C10.9977 38.8946 11.7614 38.1201 11.7614 37.1907C11.7614 36.2613 10.9977 35.4868 10.0812 35.4868C9.16472 35.4868 8.40099 36.2613 8.40099 37.1907C8.24825 38.1201 9.01197 38.8946 10.0812 38.8946Z" fill="#C6C6C6"/>
<path d="M14.2053 38.8946C15.1217 38.8946 15.8855 38.1201 15.8855 37.1907C15.8855 36.2613 15.1217 35.4868 14.2053 35.4868C13.2888 35.4868 12.5251 36.2613 12.5251 37.1907C12.5251 38.1201 13.2888 38.8946 14.2053 38.8946Z" fill="#C6C6C6"/>
<path d="M10.0812 43.232C10.9977 43.232 11.7614 42.4575 11.7614 41.5281C11.7614 40.5987 10.9977 39.8242 10.0812 39.8242C9.16472 39.8242 8.40099 40.5987 8.40099 41.5281C8.24825 42.3026 9.01197 43.232 10.0812 43.232Z" fill="#C6C6C6"/>
<path d="M14.2053 43.232C15.1217 43.232 15.8855 42.4575 15.8855 41.5281C15.8855 40.5987 15.1217 39.8242 14.2053 39.8242C13.2888 39.8242 12.5251 40.5987 12.5251 41.5281C12.5251 42.3026 13.2888 43.232 14.2053 43.232Z" fill="#C6C6C6"/>
<path d="M10.0812 47.4141C10.9977 47.4141 11.7614 46.6396 11.7614 45.7102C11.7614 44.7808 10.9977 44.0063 10.0812 44.0063C9.16472 44.0063 8.40099 44.7808 8.40099 45.7102C8.24825 46.6396 9.01197 47.4141 10.0812 47.4141Z" fill="#C6C6C6"/>
<path d="M5.9571 30.2202C6.87357 30.2202 7.63729 29.4458 7.63729 28.5164C7.63729 27.587 6.87357 26.8125 5.9571 26.8125C5.04063 26.8125 4.27691 27.587 4.27691 28.5164C4.12416 29.4458 4.88789 30.2202 5.9571 30.2202Z" fill="#C6C6C6"/>
<path d="M5.9571 38.8946C6.87357 38.8946 7.63729 38.1201 7.63729 37.1907C7.63729 36.2613 6.87357 35.4868 5.9571 35.4868C5.04063 35.4868 4.27691 36.2613 4.27691 37.1907C4.12416 38.1201 4.88789 38.8946 5.9571 38.8946Z" fill="#C6C6C6"/>
<path d="M5.9571 43.232C6.87357 43.232 7.63729 42.4575 7.63729 41.5281C7.63729 40.5987 6.87357 39.8242 5.9571 39.8242C5.04063 39.8242 4.27691 40.5987 4.27691 41.5281C4.12416 42.3026 4.88789 43.232 5.9571 43.232Z" fill="#C6C6C6"/>
<path d="M5.9571 47.4141C6.87357 47.4141 7.63729 46.6396 7.63729 45.7102C7.63729 44.7808 6.87357 44.0063 5.9571 44.0063C5.04063 44.0063 4.27691 44.7808 4.27691 45.7102C4.12416 46.6396 4.88789 47.4141 5.9571 47.4141Z" fill="#C6C6C6"/>
<path d="M26.7304 26.0381C27.6468 26.0381 28.4105 25.2636 28.4105 24.3342C28.4105 23.4049 27.6468 22.6304 26.7304 22.6304C25.8139 22.6304 25.0502 23.4049 25.0502 24.3342C24.8974 25.1087 25.6611 26.0381 26.7304 26.0381Z" fill="#C6C6C6"/>
<path d="M26.7304 30.2202C27.6468 30.2202 28.4105 29.4458 28.4105 28.5164C28.4105 27.587 27.6468 26.8125 26.7304 26.8125C25.8139 26.8125 25.0502 27.587 25.0502 28.5164C24.8974 29.4458 25.6611 30.2202 26.7304 30.2202Z" fill="#C6C6C6"/>
<path d="M26.7304 38.8946C27.6468 38.8946 28.4105 38.1201 28.4105 37.1907C28.4105 36.2613 27.6468 35.4868 26.7304 35.4868C25.8139 35.4868 25.0502 36.2613 25.0502 37.1907C24.8974 38.1201 25.6611 38.8946 26.7304 38.8946Z" fill="#C6C6C6"/>
<path d="M26.7304 43.232C27.6468 43.232 28.4105 42.4575 28.4105 41.5281C28.4105 40.5987 27.6468 39.8242 26.7304 39.8242C25.8139 39.8242 25.0502 40.5987 25.0502 41.5281C24.8974 42.3026 25.6611 43.232 26.7304 43.232Z" fill="#C6C6C6"/>
<path d="M15.7327 22.6304H12.6778V30.3753C12.6778 30.3753 12.6778 31.3046 11.7613 31.3046H4.27686V34.5575H13.2888C13.2888 34.5575 15.8854 34.5575 15.8854 31.4595C15.8854 28.3616 15.7327 22.6304 15.7327 22.6304Z" fill="#1961AC"/>
<path d="M16.8019 43.077H19.8568V35.6419C19.8568 35.6419 19.8568 34.4028 20.7733 34.4028H28.2578V31.1499H19.2458C19.2458 31.1499 16.6492 31.1499 16.6492 34.2479C16.8019 37.5007 16.8019 43.077 16.8019 43.077Z" fill="#C61532"/>
</svg>
