<?xml version="1.0" encoding="UTF-8" standalone="no"?>
<svg
   width="40"
   height="40"
   viewBox="0 0 40 40"
   fill="none"
   version="1.1"
   id="svg888"
   sodipodi:docname="logo-icon.svg"
   inkscape:version="1.1.1 (c3084ef, 2021-09-22)"
   xmlns:inkscape="http://www.inkscape.org/namespaces/inkscape"
   xmlns:sodipodi="http://sodipodi.sourceforge.net/DTD/sodipodi-0.dtd"
   xmlns="http://www.w3.org/2000/svg"
   xmlns:svg="http://www.w3.org/2000/svg">
  <defs
     id="defs892" />
  <sodipodi:namedview
     id="namedview890"
     pagecolor="#ffffff"
     bordercolor="#666666"
     borderopacity="1.0"
     inkscape:pageshadow="2"
     inkscape:pageopacity="0.0"
     inkscape:pagecheckerboard="0"
     showgrid="false"
     inkscape:zoom="8.9296875"
     inkscape:cx="30.124234"
     inkscape:cy="28.836395"
     inkscape:window-width="1312"
     inkscape:window-height="969"
     inkscape:window-x="0"
     inkscape:window-y="0"
     inkscape:window-maximized="0"
     inkscape:current-layer="svg888" />
  <g
     id="g1164"
     transform="translate(3.7326998,-8.51662)">
    <path
       d="m 31.705443,39.500074 c 0.969971,0 1.778227,-0.819686 1.778227,-1.803309 0,-0.983624 -0.808256,-1.80331 -1.778227,-1.80331 -0.969865,0 -1.778226,0.819686 -1.778226,1.80331 -0.161609,0.983623 0.646647,1.803309 1.778226,1.803309 z"
       fill="#c6c6c6"
       id="path828"
       style="stroke-width:1.05834" />
    <path
       d="m 22.814311,12.123196 c 0.96997,0 1.778226,-0.819686 1.778226,-1.803309 0,-0.9836233 -0.808256,-1.803267 -1.778226,-1.803267 -0.969865,0 -1.778121,0.8196437 -1.778121,1.803267 0,0.983623 0.808256,1.803309 1.778121,1.803309 z"
       fill="#c6c6c6"
       id="path830"
       style="stroke-width:1.05834" />
    <path
       d="m 22.814311,16.71312 c 0.96997,0 1.778226,-0.819686 1.778226,-1.803309 0,-0.983623 -0.808256,-1.803203 -1.778226,-1.803203 -0.969865,0 -1.778121,0.81958 -1.778121,1.803203 0,0.983623 0.808256,1.803309 1.778121,1.803309 z"
       fill="#c6c6c6"
       id="path832"
       style="stroke-width:1.05834" />
    <path
       d="m 22.814311,21.303574 c 0.96997,0 1.778226,-0.819686 1.778226,-1.80331 0,-0.983623 -0.808256,-1.803203 -1.778226,-1.803203 -0.969865,0 -1.778121,0.81958 -1.778121,1.803203 0,0.983624 0.808256,1.80331 1.778121,1.80331 z"
       fill="#c6c6c6"
       id="path834"
       style="stroke-width:1.05834" />
    <path
       d="m 22.814311,25.893498 c 0.96997,0 1.778226,-0.819686 1.778226,-1.803309 0,-0.983518 -0.808256,-1.803204 -1.778226,-1.803204 -0.969865,0 -1.778121,0.819686 -1.778121,1.803204 0,0.819686 0.808256,1.803309 1.778121,1.803309 z"
       fill="#c6c6c6"
       id="path836"
       style="stroke-width:1.05834" />
    <path
       d="m 18.449707,25.893604 c 0.969865,0 1.778227,-0.819686 1.778227,-1.803204 0.161609,-1.14756 -0.646647,-1.967246 -1.778227,-1.967246 -0.96997,0 -1.778226,0.819686 -1.778226,1.803309 0,0.983517 0.808256,1.967141 1.778226,1.967141 z"
       fill="#c6c6c6"
       id="path838"
       style="stroke-width:1.05834" />
    <path
       d="m 22.814311,30.319591 c 0.96997,0 1.778226,-0.819581 1.778226,-1.803204 0,-0.983623 -0.808256,-1.803309 -1.778226,-1.803309 -0.969865,0 -1.778121,0.819686 -1.778121,1.803309 0,0.983623 0.808256,1.803204 1.778121,1.803204 z"
       fill="#c6c6c6"
       id="path840"
       style="stroke-width:1.05834" />
    <path
       d="m 18.449707,30.319591 c 0.969865,0 1.778227,-0.819581 1.778227,-1.803204 0,-0.983623 -0.808362,-1.803309 -1.778227,-1.803309 -0.96997,0 -1.778226,0.819686 -1.778226,1.803309 0,0.983623 0.808256,1.803204 1.778226,1.803204 z"
       fill="#c6c6c6"
       id="path842"
       style="stroke-width:1.05834" />
    <path
       d="m 22.814311,39.500074 c 0.96997,0 1.778226,-0.819686 1.778226,-1.803309 0,-0.983624 -0.808256,-1.80331 -1.778226,-1.80331 -0.969865,0 -1.778121,0.819686 -1.778121,1.80331 0,0.983623 0.808256,1.803309 1.778121,1.803309 z"
       fill="#c6c6c6"
       id="path844"
       style="stroke-width:1.05834" />
    <path
       d="m 22.814311,44.090527 c 0.96997,0 1.778226,-0.819686 1.778226,-1.803309 0,-0.983623 -0.808256,-1.803309 -1.778226,-1.803309 -0.969865,0 -1.778121,0.819686 -1.778121,1.803309 0,0.819686 0.808256,1.803309 1.778121,1.803309 z"
       fill="#c6c6c6"
       id="path846"
       style="stroke-width:1.05834" />
    <path
       d="m 18.449707,16.71312 c 0.969865,0 1.778227,-0.819686 1.778227,-1.803309 0,-0.983623 -0.808362,-1.803203 -1.778227,-1.803203 -0.96997,0 -1.778226,0.81958 -1.778226,1.803203 0,0.983623 0.808256,1.803309 1.778226,1.803309 z"
       fill="#c6c6c6"
       id="path848"
       style="stroke-width:1.05834" />
    <path
       d="m 18.449707,21.303574 c 0.969865,0 1.778227,-0.819686 1.778227,-1.80331 0,-0.983623 -0.808362,-1.803203 -1.778227,-1.803203 -0.96997,0 -1.778226,0.81958 -1.778226,1.803203 0,0.983624 0.808256,1.80331 1.778226,1.80331 z"
       fill="#c6c6c6"
       id="path850"
       style="stroke-width:1.05834" />
    <path
       d="m 0.82914634,34.909832 c 0.96993886,0 1.77821596,-0.819686 1.77821596,-1.803309 0,-0.983623 -0.8082771,-1.803309 -1.77821596,-1.803309 -0.96993567,-0.163937 -1.77821593,0.655749 -1.77821593,1.803309 0,0.983623 0.80828026,1.803309 1.77821593,1.803309 z"
       fill="#c6c6c6"
       id="path852"
       style="stroke-width:1.05834" />
    <path
       d="m 14.084998,48.51662 c 0.969865,0 1.778227,-0.819686 1.778227,-1.803309 0,-0.983623 -0.808362,-1.803309 -1.778227,-1.803309 -0.96997,0 -1.778226,0.819686 -1.778226,1.803309 0,0.983623 0.808256,1.803309 1.778226,1.803309 z"
       fill="#c6c6c6"
       id="path854"
       style="stroke-width:1.05834" />
    <path
       d="m 9.7202895,30.319591 c 0.9699705,0 1.7782265,-0.819581 1.7782265,-1.803204 0,-0.983623 -0.808256,-1.803309 -1.7782265,-1.803309 -0.9699494,0 -1.7782371,0.819686 -1.7782371,1.803309 -0.1616512,0.983623 0.6466259,1.803204 1.7782371,1.803204 z"
       fill="#c6c6c6"
       id="path856"
       style="stroke-width:1.05834" />
    <path
       d="m 9.7202895,39.500074 c 0.9699705,0 1.7782265,-0.819686 1.7782265,-1.803309 0,-0.983624 -0.808256,-1.80331 -1.7782265,-1.80331 -0.9699494,0 -1.7782371,0.819686 -1.7782371,1.80331 -0.1616512,0.983623 0.6466259,1.803309 1.7782371,1.803309 z"
       fill="#c6c6c6"
       id="path858"
       style="stroke-width:1.05834" />
    <path
       d="m 14.084998,39.500074 c 0.969865,0 1.778227,-0.819686 1.778227,-1.803309 0,-0.983624 -0.808362,-1.80331 -1.778227,-1.80331 -0.96997,0 -1.778226,0.819686 -1.778226,1.80331 0,0.983623 0.808256,1.803309 1.778226,1.803309 z"
       fill="#c6c6c6"
       id="path860"
       style="stroke-width:1.05834" />
    <path
       d="m 9.7202895,44.090527 c 0.9699705,0 1.7782265,-0.819686 1.7782265,-1.803309 0,-0.983623 -0.808256,-1.803309 -1.7782265,-1.803309 -0.9699494,0 -1.7782371,0.819686 -1.7782371,1.803309 -0.1616512,0.819686 0.6466259,1.803309 1.7782371,1.803309 z"
       fill="#c6c6c6"
       id="path862"
       style="stroke-width:1.05834" />
    <path
       d="m 14.084998,44.090527 c 0.969865,0 1.778227,-0.819686 1.778227,-1.803309 0,-0.983623 -0.808362,-1.803309 -1.778227,-1.803309 -0.96997,0 -1.778226,0.819686 -1.778226,1.803309 0,0.819686 0.808256,1.803309 1.778226,1.803309 z"
       fill="#c6c6c6"
       id="path864"
       style="stroke-width:1.05834" />
    <path
       d="m 9.7202895,48.51662 c 0.9699705,0 1.7782265,-0.819686 1.7782265,-1.803309 0,-0.983623 -0.808256,-1.803309 -1.7782265,-1.803309 -0.9699494,0 -1.7782371,0.819686 -1.7782371,1.803309 -0.1616512,0.983623 0.6466259,1.803309 1.7782371,1.803309 z"
       fill="#c6c6c6"
       id="path866"
       style="stroke-width:1.05834" />
    <path
       d="m 5.3555806,30.319591 c 0.9699388,0 1.7782159,-0.819581 1.7782159,-1.803204 0,-0.983623 -0.8082771,-1.803309 -1.7782159,-1.803309 -0.9699389,0 -1.778216,0.819686 -1.778216,1.803309 -0.1616617,0.983623 0.6466259,1.803204 1.778216,1.803204 z"
       fill="#c6c6c6"
       id="path868"
       style="stroke-width:1.05834" />
    <path
       d="m 5.3555806,39.500074 c 0.9699388,0 1.7782159,-0.819686 1.7782159,-1.803309 0,-0.983624 -0.8082771,-1.80331 -1.7782159,-1.80331 -0.9699389,0 -1.778216,0.819686 -1.778216,1.80331 -0.1616617,0.983623 0.6466259,1.803309 1.778216,1.803309 z"
       fill="#c6c6c6"
       id="path870"
       style="stroke-width:1.05834" />
    <path
       d="m 5.3555806,44.090527 c 0.9699388,0 1.7782159,-0.819686 1.7782159,-1.803309 0,-0.983623 -0.8082771,-1.803309 -1.7782159,-1.803309 -0.9699389,0 -1.778216,0.819686 -1.778216,1.803309 -0.1616617,0.819686 0.6466259,1.803309 1.778216,1.803309 z"
       fill="#c6c6c6"
       id="path872"
       style="stroke-width:1.05834" />
    <path
       d="m 5.3555806,48.51662 c 0.9699388,0 1.7782159,-0.819686 1.7782159,-1.803309 0,-0.983623 -0.8082771,-1.803309 -1.7782159,-1.803309 -0.9699389,0 -1.778216,0.819686 -1.778216,1.803309 -0.1616617,0.983623 0.6466259,1.803309 1.778216,1.803309 z"
       fill="#c6c6c6"
       id="path874"
       style="stroke-width:1.05834" />
    <path
       d="m 27.34084,25.893498 c 0.969865,0 1.778121,-0.819686 1.778121,-1.803309 0,-0.983518 -0.808256,-1.803204 -1.778121,-1.803204 -0.969971,0 -1.778227,0.819686 -1.778227,1.803204 -0.161714,0.819686 0.646542,1.803309 1.778227,1.803309 z"
       fill="#c6c6c6"
       id="path876"
       style="stroke-width:1.05834" />
    <path
       d="m 27.34084,30.319591 c 0.969865,0 1.778121,-0.819581 1.778121,-1.803204 0,-0.983623 -0.808256,-1.803309 -1.778121,-1.803309 -0.969971,0 -1.778227,0.819686 -1.778227,1.803309 -0.161714,0.983623 0.646542,1.803204 1.778227,1.803204 z"
       fill="#c6c6c6"
       id="path878"
       style="stroke-width:1.05834" />
    <path
       d="m 27.34084,39.500074 c 0.969865,0 1.778121,-0.819686 1.778121,-1.803309 0,-0.983624 -0.808256,-1.80331 -1.778121,-1.80331 -0.969971,0 -1.778227,0.819686 -1.778227,1.80331 -0.161714,0.983623 0.646542,1.803309 1.778227,1.803309 z"
       fill="#c6c6c6"
       id="path880"
       style="stroke-width:1.05834" />
    <path
       d="m 27.34084,44.090527 c 0.969865,0 1.778121,-0.819686 1.778121,-1.803309 0,-0.983623 -0.808256,-1.803309 -1.778121,-1.803309 -0.969971,0 -1.778227,0.819686 -1.778227,1.803309 -0.161714,0.819686 0.646542,1.803309 1.778227,1.803309 z"
       fill="#c6c6c6"
       id="path882"
       style="stroke-width:1.05834" />
    <path
       d="m 15.70151,22.286985 h -3.233129 v 8.196754 c 0,0 0,0.983518 -0.969971,0.983518 H 3.5773117 v 3.442681 h 9.5377163 c 0,0 2.748091,0 2.748091,-3.278744 0,-3.278638 -0.161609,-9.344209 -0.161609,-9.344209 z"
       fill="#1961ac"
       id="path884"
       style="stroke-width:1.05834" />
    <path
       d="m 16.83309,43.926484 h 3.233129 v -7.86888 c 0,0 0,-1.311391 0.969971,-1.311391 h 7.921162 v -3.442682 h -9.53778 c 0,0 -2.748091,0 -2.748091,3.278744 0.161609,3.442576 0.161609,9.344209 0.161609,9.344209 z"
       fill="#c61532"
       id="path886"
       style="stroke-width:1.05834" />
  </g>
</svg>
