<svg width="102" height="31" viewBox="0 0 102 31" fill="none" xmlns="http://www.w3.org/2000/svg">
<path fill-rule="evenodd" clip-rule="evenodd" d="M35.509 23.7591V27.0477C35.509 27.7589 35.5719 28.1996 35.6947 28.3732C35.8637 28.6172 36.1187 28.7395 36.4625 28.7395H36.8086V29.0481H32.9363V28.7395H33.2766C33.6591 28.7395 33.9325 28.5832 34.0963 28.2723C34.1851 28.0987 34.2296 27.6926 34.2296 27.0477V19.753C34.2296 19.0412 34.1701 18.6005 34.0496 18.428C33.8771 18.184 33.6181 18.0611 33.2766 18.0611H32.9363V17.7537H36.2491C37.0572 17.7537 37.694 17.8592 38.1607 18.0692C38.6268 18.2751 39.0202 18.6247 39.3403 19.119C39.6599 19.6128 39.8203 20.1994 39.8203 20.8761C39.8203 21.799 39.5757 22.5478 39.0871 23.1246C38.6031 23.7008 37.9178 23.9898 37.0289 23.9898C36.8115 23.9898 36.5761 23.9714 36.3223 23.9316C36.0697 23.8935 35.7974 23.837 35.509 23.7591ZM35.509 23.2844C35.7443 23.3409 35.9537 23.3813 36.1354 23.409C36.3177 23.4378 36.4729 23.4505 36.6021 23.4505C37.0641 23.4505 37.461 23.2273 37.7933 22.7848C38.1319 22.3349 38.3003 21.7534 38.3003 21.0451C38.3049 20.5813 38.224 20.1205 38.0615 19.6861C37.9011 19.265 37.6756 18.9506 37.3814 18.7441C37.0908 18.5345 36.7406 18.4239 36.3823 18.4286C36.155 18.4286 35.8637 18.4816 35.509 18.5866V23.2844ZM44.5111 28.7395V29.0481H40.6388V28.7395H40.9589C41.3327 28.7395 41.6038 28.6045 41.7717 28.3305C41.8778 28.1535 41.9315 27.7254 41.9315 27.0477V19.753C41.9315 19.1808 41.9038 18.8035 41.8444 18.6189C41.7949 18.4734 41.6993 18.3481 41.5721 18.2619C41.3934 18.1332 41.1792 18.063 40.9589 18.0611H40.6388V17.7537H44.5111V18.0611H44.1846C43.8154 18.0611 43.5466 18.1967 43.3788 18.4695C43.2669 18.6478 43.2115 19.0746 43.2115 19.753V27.0477C43.2115 27.6193 43.2403 27.9971 43.2986 28.1811C43.343 28.3196 43.4353 28.439 43.5784 28.5394C43.7544 28.6681 43.9665 28.7381 44.1846 28.7395H44.5111ZM47.6947 18.3703V22.8339H49.6807C50.1958 22.8339 50.5408 22.7375 50.7127 22.5426C50.9434 22.287 51.0732 21.8371 51.0992 21.1916H51.3472V25.1233H51.0992C51.038 24.5736 50.9763 24.2229 50.9123 24.0671C50.8353 23.8753 50.6975 23.7139 50.52 23.608C50.3372 23.4972 50.0574 23.4407 49.6801 23.4407H47.6941V27.1636C47.6941 27.6626 47.7125 27.9683 47.7483 28.0808C47.7818 28.1837 47.8468 28.2735 47.934 28.3375C48.0235 28.3986 48.1936 28.4298 48.4411 28.4298H49.9732C50.4837 28.4298 50.8552 28.3859 51.0865 28.2971C51.316 28.2094 51.5393 28.0335 51.751 27.7722C52.0279 27.4278 52.3088 26.9098 52.5984 26.2159H52.8654L52.0844 29.0475H45.122V28.7389H45.4421C45.6555 28.7389 45.8563 28.6749 46.0484 28.5474C46.1897 28.4574 46.2849 28.3254 46.3351 28.1465C46.3881 27.9683 46.4152 27.6072 46.4152 27.0557V19.7195C46.4152 19.0025 46.357 18.5607 46.241 18.3934C46.0824 18.173 45.8153 18.0611 45.4421 18.0611H45.122V17.7537H52.0844L52.1859 20.2271H51.9258C51.8323 19.633 51.7273 19.2257 51.6125 19.0025C51.5048 18.7839 51.3294 18.6059 51.1124 18.4949C50.9348 18.4107 50.6215 18.3697 50.1739 18.3697H47.6947V18.3703ZM58.7619 29.0481L55.2714 19.543V27.0903C55.2714 27.7831 55.3303 28.2169 55.4514 28.3882C55.6146 28.6224 55.8759 28.7389 56.2301 28.7389H56.5503V29.0475H53.4059V28.7389H53.7261C54.1079 28.7389 54.3785 28.5936 54.5383 28.3057C54.6363 28.1263 54.6836 27.7226 54.6836 27.0903V19.7109C54.6836 19.2102 54.6409 18.8502 54.5515 18.6281C54.4886 18.4666 54.3721 18.3334 54.2054 18.2272C54.0399 18.1165 53.7739 18.0617 53.4053 18.0617V17.7542H55.9654L59.2418 26.5908L62.4686 17.7542H65.0252V18.0617H64.7131C64.3255 18.0617 64.0538 18.2065 63.8928 18.4955C63.7948 18.6737 63.7452 19.0787 63.7452 19.7109V27.0903C63.7452 27.7831 63.808 28.2169 63.9321 28.3882C64.0965 28.6224 64.3578 28.7389 64.7131 28.7389H65.0252V29.0475H61.188V28.7389H61.5093C61.8947 28.7389 62.1664 28.5936 62.3204 28.3057C62.4184 28.1263 62.4657 27.7226 62.4692 27.0903V19.543L58.9822 29.0481H58.7619ZM70.3021 17.4964C71.4736 17.4964 72.49 18.0542 73.3483 19.1698C74.2067 20.2796 74.6405 21.6687 74.6405 23.3351C74.6405 25.0489 74.2067 26.4731 73.3403 27.6078C72.4739 28.7395 71.4263 29.3048 70.1948 29.3048C68.9511 29.3048 67.9053 28.7511 67.0574 27.6481C66.2134 26.5435 65.7912 25.1129 65.7912 23.3576C65.7912 21.5666 66.2804 20.102 67.2581 18.9696C68.106 17.9855 69.1213 17.4964 70.3021 17.4964ZM70.1757 18.1044C69.367 18.1044 68.7181 18.4776 68.2289 19.2269C67.6227 20.1602 67.3187 21.5268 67.3187 23.3248C67.3187 25.1683 67.633 26.5873 68.2641 27.5812C68.7475 28.3375 69.386 28.713 70.1827 28.713C71.03 28.713 71.7309 28.3011 72.2806 27.4739C72.8361 26.6456 73.1141 25.3414 73.1141 23.5595C73.1141 21.6271 72.8102 20.185 72.2027 19.2373C71.7124 18.4816 71.0364 18.1044 70.1757 18.1044ZM74.9866 17.7542H77.4381L82.9608 26.2239V19.7114C82.9608 19.0175 82.9002 18.5849 82.7739 18.4113C82.6118 18.1782 82.3505 18.0623 81.9951 18.0623H81.6819V17.7548H84.8274V18.0623H84.5073C84.1242 18.0623 83.8549 18.2071 83.6939 18.496C83.5959 18.6743 83.5474 19.0792 83.5474 19.7114V29.2304H83.3063L77.3522 20.1354V27.0909C77.3522 27.7837 77.411 28.2175 77.5304 28.3888C77.7006 28.623 77.9584 28.7395 78.3115 28.7395H78.6316V29.0481H75.4861V28.7395H75.8005C76.1858 28.7395 76.4598 28.5942 76.6196 28.3063C76.7153 28.1269 76.7661 27.7231 76.7661 27.0909V19.2373C76.5036 18.8525 76.3029 18.601 76.1656 18.4787C76.0329 18.357 75.8345 18.2434 75.5732 18.1367C75.4434 18.0876 75.2496 18.0623 74.9871 18.0623V17.7542H74.9866ZM92.917 17.7542L93.015 20.4025H92.7635C92.7128 19.9353 92.6476 19.6024 92.5616 19.4034C92.4255 19.081 92.2392 18.8439 92.0096 18.6956C91.7818 18.5393 91.4824 18.462 91.1103 18.462H89.8372V27.0909C89.8372 27.7837 89.8972 28.2175 90.0172 28.3888C90.1851 28.623 90.4464 28.7395 90.7959 28.7395H91.1103V29.0481H87.2772V28.7395H87.5985C87.9804 28.7395 88.2509 28.5942 88.4107 28.3063C88.5088 28.1269 88.5584 27.7231 88.5584 27.0909V18.462H87.4711C87.0488 18.462 86.75 18.5001 86.5718 18.578C86.341 18.6847 86.1438 18.8877 85.9794 19.1883C85.8138 19.4871 85.7157 19.892 85.6852 20.4025H85.4325L85.5398 17.7542H92.917ZM96.2055 18.3703V22.8339H98.1939C98.7067 22.8339 99.0511 22.7375 99.2247 22.5426C99.4543 22.287 99.5864 21.8371 99.6112 21.1916H99.8581V25.1233H99.6112C99.5494 24.5736 99.4883 24.2229 99.4243 24.0671C99.348 23.8745 99.2095 23.7129 99.0309 23.608C98.8509 23.4972 98.57 23.4407 98.1939 23.4407H96.2055V27.1636C96.2055 27.6626 96.2234 27.9683 96.2597 28.0808C96.2942 28.1838 96.3599 28.2736 96.4478 28.3375C96.5366 28.3986 96.7045 28.4298 96.9537 28.4298H98.4858C98.9986 28.4298 99.3677 28.3859 99.5991 28.2971C99.8286 28.2094 100.051 28.0335 100.265 27.7722C100.541 27.4278 100.823 26.9098 101.11 26.2159H101.378L100.599 29.0475H93.6357V28.7389H93.9547C94.1687 28.7389 94.3706 28.6749 94.5621 28.5474C94.7058 28.4557 94.8087 28.3121 94.8494 28.1465C94.9013 27.9683 94.9284 27.6072 94.9284 27.0557V19.7195C94.9284 19.0025 94.8707 18.5607 94.7559 18.3934C94.595 18.173 94.3279 18.0611 93.9547 18.0611H93.6357V17.7537H100.599L100.697 20.2271H100.438C100.345 19.633 100.24 19.2257 100.125 19.0025C100.018 18.7834 99.8425 18.6052 99.625 18.4949C99.4468 18.4107 99.1335 18.3697 98.6853 18.3697H96.2055V18.3703ZM43.3355 14.4467H40.5569L37.0324 8.36218C36.7717 8.3766 36.5594 8.38179 36.3956 8.38179H36.1804C36.1037 8.3766 36.0247 8.3691 35.9428 8.36218V12.1433C35.9428 12.9625 36.0149 13.4718 36.1579 13.6702C36.3523 13.9506 36.6436 14.0919 37.0324 14.0919H37.4402V14.4461H32.9795V14.0919H33.3718C33.8119 14.0919 34.1275 13.9119 34.3167 13.5537C34.4234 13.3553 34.477 12.8852 34.477 12.1428V3.73768C34.477 2.91972 34.4049 2.41038 34.263 2.21137C34.0628 1.93045 33.7669 1.7897 33.3724 1.7897H32.9801V1.43552H36.7722C37.8786 1.43552 38.692 1.53647 39.214 1.74182C39.7412 1.94025 40.1866 2.31174 40.5488 2.85569C40.918 3.39331 41.1026 4.03533 41.1026 4.78406C41.1026 5.58413 40.8926 6.27807 40.4727 6.86529C40.0579 7.45482 39.4136 7.87187 38.5379 8.11471L40.6872 11.8463C41.1799 12.704 41.6015 13.2739 41.954 13.5549C42.3076 13.8364 42.7685 14.0158 43.3361 14.0931V14.4467H43.3355ZM35.9428 7.75823C36.0408 7.75823 36.1239 7.76111 36.1966 7.76804H36.3725C37.3647 7.76804 38.1122 7.49866 38.6147 6.96277C39.1217 6.42516 39.3738 5.73988 39.3738 4.90808C39.3738 4.09647 39.1696 3.43715 38.7606 2.93184C38.3551 2.42076 37.8181 2.16407 37.1489 2.16407C36.8513 2.16407 36.4492 2.22406 35.9433 2.34577V7.75823H35.9428ZM46.4839 2.14445V7.28868H48.7716C49.3646 7.28868 49.7609 7.1762 49.9605 6.95239C50.2276 6.65878 50.3758 6.13905 50.4064 5.39839H50.6913V9.92772H50.4064C50.3343 9.29377 50.2639 8.88768 50.1918 8.70886C50.1021 8.48833 49.9432 8.3029 49.739 8.18048C49.5284 8.05357 49.2066 7.98897 48.7716 7.98897H46.4839V12.2795C46.4839 12.8546 46.5035 13.2059 46.545 13.3339C46.5848 13.4551 46.6575 13.5549 46.7602 13.6316C46.8629 13.7025 47.0567 13.7377 47.3434 13.7377H49.1091C49.6986 13.7377 50.1255 13.6864 50.3914 13.5843C50.6573 13.4816 50.9128 13.2803 51.1597 12.9792C51.4764 12.5823 51.8006 11.9841 52.1352 11.1846H52.4415L51.5433 14.4472H43.5195V14.0931H43.8887C44.1389 14.092 44.3829 14.015 44.5884 13.8721C44.7516 13.7694 44.8618 13.616 44.9178 13.4112C44.9795 13.2059 45.0101 12.7877 45.0101 12.1537V3.69903C45.0101 2.87415 44.9437 2.36654 44.8105 2.1733C44.6253 1.91718 44.3179 1.7897 43.8887 1.7897H43.5195V1.43552H51.5439L51.6598 4.28452H51.3593C51.2509 3.60097 51.1315 3.12911 50.9982 2.87415C50.874 2.62253 50.6721 2.41748 50.4225 2.28924C50.2183 2.19291 49.8572 2.14503 49.3404 2.14503H46.4839V2.14445ZM62.4519 1.13672L62.7224 5.24438H62.4519C62.1802 4.22107 61.8312 3.44983 61.4009 2.93126C60.7802 2.18425 59.9859 1.80931 59.0134 1.80931C57.6884 1.80931 56.6789 2.4646 55.9884 3.77517C55.4116 4.88212 55.1197 6.20019 55.1197 7.72939C55.1197 8.97016 55.3124 10.1036 55.6954 11.1264C56.0807 12.1497 56.5808 12.9019 57.2004 13.3812C57.8245 13.856 58.4642 14.0925 59.1212 14.0925C59.5031 14.0925 59.8752 14.0319 60.2345 13.9102C60.6039 13.7822 60.9528 13.6011 61.2699 13.3726V9.60988C61.2699 8.95747 61.2296 8.53177 61.1471 8.33449C61.0797 8.14318 60.9494 7.98045 60.7773 7.87302C60.6152 7.76458 60.3234 7.71035 59.9028 7.71035V7.3458H63.9326V7.71035H63.7423C63.3425 7.71035 63.0674 7.87706 62.9197 8.20989C62.817 8.44755 62.7663 8.91306 62.7663 9.60988V13.5935C62.1779 13.9904 61.5982 14.2817 61.0236 14.4668C60.4503 14.652 59.8146 14.7449 59.112 14.7449C57.1023 14.7449 55.5743 13.9379 54.5302 12.3262C53.7474 11.1172 53.354 9.72351 53.354 8.14356C53.354 6.99681 53.5749 5.90082 54.0145 4.85213C54.5359 3.60327 55.2535 2.64342 56.1661 1.97198C56.9264 1.41591 57.8268 1.1373 58.868 1.1373C59.2464 1.1373 59.5879 1.17537 59.8953 1.25324C60.2086 1.32938 60.647 1.49782 61.2146 1.76201C61.5018 1.89469 61.6945 1.96333 61.7914 1.96333C61.8895 1.96333 61.9708 1.9091 62.0383 1.79893C62.1092 1.68472 62.1531 1.46379 62.1681 1.1373H62.4519V1.13672ZM69.0076 14.0925V14.4467H64.5493V14.0925H64.9167C65.347 14.0925 65.6591 13.9356 65.8541 13.6224C65.9758 13.4176 66.0364 12.9255 66.0364 12.1433V3.73768C66.0364 3.07778 66.0035 2.64457 65.9371 2.4323C65.8841 2.27193 65.7808 2.1358 65.6228 2.01928C65.4163 1.87214 65.1696 1.79199 64.9161 1.7897H64.5487V1.43552H69.0071V1.7897H68.631C68.2076 1.7897 67.8984 1.94602 67.7028 2.25982C67.5742 2.4646 67.5113 2.95722 67.5113 3.73768V12.1433C67.5113 12.8027 67.5454 13.237 67.6117 13.4493C67.6613 13.6091 67.7692 13.747 67.933 13.8617C68.1551 14.0152 68.3858 14.0925 68.6315 14.0925H69.0076ZM75.1429 1.13672C76.4927 1.13672 77.6631 1.77989 78.6512 3.06682C79.6428 4.34509 80.1406 5.94466 80.1406 7.86437C80.1406 9.84061 79.6405 11.4817 78.642 12.7877C77.6458 14.0925 76.4362 14.7449 75.0189 14.7449C73.5872 14.7449 72.3804 14.1075 71.4032 12.835C70.4295 11.5619 69.9444 9.91387 69.9444 7.89321C69.9444 5.82641 70.508 4.14147 71.6334 2.83608C72.6117 1.70318 73.7821 1.13672 75.1429 1.13672ZM74.9969 1.83758C74.0642 1.83758 73.3183 2.26848 72.7548 3.13373C72.0528 4.2078 71.7026 5.78199 71.7026 7.85399C71.7026 9.97905 72.0655 11.6132 72.7934 12.7583C73.3512 13.6287 74.0878 14.0631 75.0039 14.0631C75.9828 14.0631 76.7886 13.586 77.4237 12.6325C78.0623 11.6807 78.3813 10.1769 78.3836 8.12279C78.3836 5.89678 78.0334 4.23664 77.3314 3.14238C76.7678 2.27194 75.9891 1.83758 74.9969 1.83758ZM80.5398 1.43552H83.3651L89.7294 11.1933V3.6898C89.7294 2.88915 89.6573 2.39192 89.5142 2.19233C89.325 1.92295 89.0251 1.7897 88.6149 1.7897H88.2544V1.43552H91.8775V1.7897H91.5101C91.0682 1.7897 90.7573 1.9564 90.5727 2.28924C90.4602 2.49402 90.4025 2.96068 90.4025 3.69038V14.6595H90.1262L83.2642 4.17896V12.1924C83.2642 12.993 83.334 13.4903 83.4724 13.6893C83.6662 13.9575 83.9656 14.0925 84.3706 14.0925H84.7391V14.4467H81.1149V14.0925H81.4766C81.9225 14.0925 82.238 13.9258 82.4208 13.5929C82.5333 13.3882 82.5887 12.9215 82.591 12.1918V3.14238C82.2882 2.70053 82.0569 2.41038 81.8994 2.26848C81.7459 2.12773 81.5187 1.99736 81.2153 1.87565C81.0687 1.81797 80.8415 1.7897 80.5404 1.7897V1.43552H80.5398ZM95.3876 2.14445V7.28868H97.6759C98.2683 7.28868 98.6663 7.1762 98.8647 6.95239C99.1318 6.65878 99.2795 6.13905 99.3095 5.39839H99.5944V9.92772H99.3095C99.2385 9.29377 99.1664 8.88768 99.0955 8.70886C99.0065 8.48789 98.8474 8.30225 98.6427 8.18048C98.4333 8.05357 98.1085 7.98897 97.6759 7.98897H95.3876V12.2795C95.3876 12.8546 95.4078 13.2059 95.4493 13.3339C95.4885 13.4551 95.5618 13.5549 95.6633 13.6316C95.766 13.7025 95.9609 13.7377 96.247 13.7377H98.0133C98.6006 13.7377 99.0286 13.6864 99.2945 13.5843C99.5604 13.4816 99.8159 13.2803 100.064 12.9792C100.38 12.5823 100.705 11.9841 101.038 11.1846H101.345L100.446 14.4472H92.4244V14.0931H92.7918C93.042 14.0917 93.2859 14.0147 93.4915 13.8721C93.6547 13.7694 93.7655 13.616 93.8203 13.4112C93.8832 13.2059 93.9137 12.7877 93.9137 12.1537V3.69903C93.9137 2.87415 93.8463 2.36654 93.713 2.1733C93.5284 1.91718 93.2215 1.7897 92.7912 1.7897H92.4238V1.43552H100.445L100.561 4.28452H100.261C100.153 3.60097 100.033 3.12911 99.9002 2.87415C99.7756 2.62277 99.5739 2.41781 99.3245 2.28924C99.1197 2.19291 98.7592 2.14503 98.2441 2.14503H95.3876V2.14445Z" fill="#222222"/>
<path fill-rule="evenodd" clip-rule="evenodd" d="M0 0H30.6468V30.2615H0V0Z" fill="#BDBDBD"/>
<path fill-rule="evenodd" clip-rule="evenodd" d="M19.0858 18.9882H29.1839V28.8319H19.0858V18.9882ZM1.50671 18.9882H11.6048V28.8319H1.50671V18.9882ZM1.50671 1.5498H11.6048V11.3918H1.50671V1.5498ZM19.0743 1.5498H29.173V11.3918H19.0743V1.5498Z" fill="#B9141B"/>
<path fill-rule="evenodd" clip-rule="evenodd" d="M7.69386 3.27148H23.0493L23.9791 6.18683H21.1578L21.6389 4.84106H9.03962L9.52012 6.15626H6.66766L7.69386 3.27148Z" fill="#0061B2"/>
<path fill-rule="evenodd" clip-rule="evenodd" d="M14.4261 4.90633L13.9774 6.16673H16.7335L16.2536 4.87402L14.4261 4.90633Z" fill="#0061B2"/>
</svg>
