<svg width="470" height="478" viewBox="0 0 470 478" fill="none" xmlns="http://www.w3.org/2000/svg">
<g clip-path="url(#clip0)">
<path d="M135.648 185.594C133.928 185.883 131.418 186.589 129.624 188.598C127.067 191.453 129.15 194.131 126.481 197.135C123.869 200.064 118.207 200.455 117.547 204.295C117.258 206.006 118.207 207.801 117.686 209.456C117.342 210.554 116.412 211.372 115.445 212.014C110.453 215.343 103.554 215.538 99.2493 219.685C96.5903 222.243 94.8702 226.288 91.2071 226.948C88.7805 227.385 86.4282 226.111 84.0946 225.33C81.761 224.549 78.6835 224.484 77.3633 226.52C76.6846 227.562 76.6474 228.957 75.7921 229.868C73.3097 232.528 69.3118 227.99 65.6301 227.943C61.8088 227.897 59.9959 233.206 61.8832 236.471C63.7706 239.735 67.6197 241.288 71.1806 242.664C74.7415 244.04 78.572 245.733 80.2641 249.099C80.3757 249.322 80.5337 249.759 80.7104 250.522C82.5234 258.268 76.4801 263.792 76.573 273.612C76.6009 276.16 77.0193 277.099 76.229 278.568C74.2952 282.158 68.7819 282.083 65.1373 282.957C54.9381 285.394 56.8255 295.865 46.6727 303.155C34.0655 312.213 5.07637 314.807 2.03613 316.165C0.799583 316.723 0.316121 317.644 0.316121 317.644C0.316121 317.644 1.03505e-05 318.239 1.03505e-05 318.936C-0.00928701 320.973 6.24783 323.456 6.99162 323.753C16.1495 327.436 23.5409 335.898 22.2858 339.218C21.7465 340.641 19.8685 340.445 18.8829 342.677C17.9439 344.807 18.7621 347.039 19.0224 347.764C20.2311 351.056 23.4758 353.539 26.7764 354.348C32.4571 355.733 34.1213 351.13 40.3041 351.381C47.7977 351.679 48.9134 358.588 56.2211 358.765C62.7944 358.932 65.7416 353.436 69.2374 355.11C73.6258 357.212 71.2457 366.958 74.4068 367.915C78.2094 369.069 84.5502 355.873 87.3673 357.054C88.5201 357.537 88.827 360.299 88.1761 362.28C87.3208 364.856 85.1359 365.219 85.1359 366.651C85.1452 369.394 93.1037 370.166 93.2897 372.444C93.5593 375.829 76.2104 376.257 72.8355 385.007C70.9388 389.917 75.4016 392.363 73.2818 398.705C71.2736 404.694 66.597 404.545 64.8956 410.804C63.4917 415.937 65.0536 421.832 67.6197 422.651C69.1352 423.134 70.3996 421.646 72.5845 422.372C73.1609 422.567 73.7281 422.883 75.6433 425.078C78.1164 427.914 79.7156 430.295 81.0637 432.61C82.6256 435.307 82.6535 435.893 82.607 436.339C82.4118 438.004 80.9707 438.571 78.7021 440.822C76.322 443.165 74.4532 445.025 74.3417 447.415C74.2208 449.963 76.1175 452.79 78.4976 453.515C80.729 454.194 81.5843 452.483 84.8012 452.167C89.1989 451.739 94.2287 454.315 96.5252 457.979C98.3289 460.852 97.1574 462.331 99.0169 464.014C99.5375 464.488 101.555 466.106 109.569 464.897C117.035 463.772 117.212 462.08 120.392 462.228C128.183 462.61 128.778 472.923 136.569 474.429C144.713 476.001 149.576 465.79 156.902 468.245C161.393 469.751 160.826 474.02 167.204 476.624C171.518 478.381 177.124 478.604 178.574 476.354C179.625 474.727 177.542 473.053 178.612 470.867C179.922 468.189 184.469 467.752 186.663 467.548C189.815 467.25 190.363 467.92 194.054 467.938C195.998 467.947 200.935 469.352 203.324 466.515C206.011 463.335 208.27 458.695 212.482 458.685C218.804 458.657 222.16 469.426 228.139 467.427C231.616 466.264 232.164 461.624 234.73 459.039C239.481 454.268 247.458 458.537 254.227 459.169C265.161 460.192 273.947 450.958 280.827 442.57C282.147 440.961 283.458 439.362 284.778 437.753C285.829 436.469 286.907 435.14 287.428 433.568C289.101 428.519 285.578 420.856 290.617 418.903C289.715 415.286 283.83 415.072 282.398 411.622C281.412 409.232 283.263 406.442 285.68 405.429C288.097 404.406 290.849 404.675 293.462 404.954C290.384 404.117 290.301 399.589 292.197 397.069C294.094 394.548 297.134 393.005 298.919 390.401C302.517 385.147 300.742 376.285 306.599 373.616C304.498 371.496 302.927 368.864 302.062 366.028C304.591 363.219 309.202 364.763 312.772 366.093C316.343 367.423 321.679 367.497 322.6 363.861C322.99 362.327 322.33 360.625 322.916 359.146C324.812 354.404 333.375 359.899 337.206 356.459C338.74 355.073 339.037 352.516 340.925 351.632C343.658 350.349 347.201 353.781 349.702 352.097C351.394 350.954 351.068 348.499 351.078 346.481C351.105 338.232 360.803 332.234 369.04 333.908C377.975 335.721 385.664 344.174 394.552 342.156C394.208 339.432 394.31 336.158 396.365 333.982C399.108 331.072 403.319 332.271 404.621 330.095C405.56 328.524 404.881 325.371 398.801 318.601C397.574 314.528 401.534 310.4 405.792 309.609C410.051 308.819 414.355 310.325 418.483 311.636C422.602 312.948 427.13 314.073 431.193 312.594C433.145 311.878 434.884 310.586 436.939 310.223C441.606 309.395 447.389 313.31 450.606 309.897C451.889 308.54 452.186 306.345 453.795 305.369C455.849 304.132 459.048 305.517 460.647 303.76C461.716 302.579 461.316 300.756 460.851 299.25C459.001 293.252 457.16 287.254 455.31 281.256C454.79 279.554 453.999 277.601 452.242 277.173C450.95 276.866 449.639 277.536 448.309 277.648C444.237 277.973 441.913 273.351 438.845 270.72C432.773 265.512 422.695 267.948 416.215 263.243C410.227 258.891 408.024 249.043 400.595 248.448C396.216 248.095 391.075 251.294 387.867 248.346C386.51 247.1 386.147 245.165 385.692 243.398C384.753 239.744 383.135 236.257 380.941 233.151C380.02 231.849 378.561 230.463 377.008 230.937C373.81 231.923 376.45 238.042 373.438 239.483C373.075 235.364 371.169 229.924 366.985 230.454C363.499 230.891 362.355 235.159 361.611 238.526C360.951 241.501 359.901 244.57 357.567 246.588C355.233 248.606 351.319 249.127 349.106 246.988C348.307 246.225 347.814 245.212 347.154 244.328C344.662 240.999 340.209 239.8 336.072 239.028C331.934 238.265 327.49 237.596 324.348 234.852C321.196 232.109 320.378 226.409 323.901 224.14C321.596 223.563 317.691 222.261 314.065 219.053C312.763 217.9 307.175 212.962 308.551 209.586C309.992 206.053 318.193 206.387 319.281 206.425C328.987 206.815 333.989 212.739 336.378 210.879C338.786 209.01 333.552 203.133 336.044 197.042C338.824 190.253 347.656 191.862 350.138 185.455C352.556 179.234 347.377 169.572 341.957 168.335C339.976 167.889 338.145 168.512 335.458 167.2C333.766 166.382 332.594 164.829 331.488 163.332C328.271 158.98 325.045 154.628 321.828 150.276C320.638 148.667 319.411 146.984 319.067 145.022C318.527 141.999 320.117 138.587 318.472 135.983C316.807 133.342 312.949 133.277 309.816 133.723C306.683 134.17 303.029 134.653 300.742 132.496C299.896 131.687 299.375 130.617 298.64 129.706C296.827 127.437 293.638 126.321 290.775 126.944C291.547 123.168 292.309 119.393 293.081 115.618C293.443 113.851 293.797 112.028 293.397 110.28C292.709 107.267 289.854 104.57 290.682 101.585C291.444 98.8603 294.894 97.6978 296.167 95.1684C297.032 93.4481 296.753 91.4023 297.078 89.5052C297.813 85.2741 301.467 82.2053 303.689 78.5042C305.911 74.8031 305.827 68.7586 301.625 67.5404C299.356 66.8801 296.939 68.0147 294.587 67.8287C290.952 67.5404 288.041 64.1927 284.397 64.2485C281.877 64.2856 279.739 65.9409 277.545 67.1591C275.351 68.3773 272.394 69.1306 270.469 67.5497C268.126 65.6247 269.056 61.9608 268.285 59.0688C266.871 53.8147 260.391 52.0943 255.203 50.1694C249.16 47.9283 243.293 43.7157 241.713 37.5689C240.755 33.8678 241.471 29.9714 241.899 26.168C242.326 22.3646 242.373 18.273 240.309 15.0275C238.421 12.0704 233.605 11.3171 230.305 12.4702C226.986 13.6326 227.413 16.0969 223.062 20.6536C217.493 26.4842 212.761 26.6516 212.463 30.3806C212.259 32.8635 214.23 33.9608 213.495 36.6855C213.133 38.0153 212.473 38.3779 210.148 40.9724C210.148 40.9724 207.796 43.5948 205.258 47.0262C202.459 50.811 202.887 51.1458 200.628 53.8426C198.694 56.1488 197.541 57.5065 195.477 58.641C192.502 60.2684 190.921 59.5988 189.815 61.1611C188.606 62.8629 189.015 65.6898 190.326 67.466C191.963 69.6699 193.859 68.7121 196.5 70.9997C197.848 72.1621 198.685 74.0499 200.358 77.8161C202.087 81.6938 202.943 83.6281 202.413 84.6324C201.018 87.2734 195.412 84.5673 192.121 87.664C190.01 89.6447 191.563 91.4674 189.545 99.0183C187.825 105.453 185.743 107.76 185.166 108.355C184.06 109.526 182.2 111.554 179.244 112.14C175.488 112.884 172.819 110.735 171.267 112.14C170.3 113.014 170.997 114.148 170.755 117.942C170.439 122.741 169.203 122.778 169.472 125.763C169.816 129.65 172.168 129.864 171.787 133.333C171.555 135.444 170.634 136.411 170.504 139.386C170.411 141.442 170.765 143.041 171.016 144.185C171.927 148.258 173.163 148.342 173.331 151.001C173.535 154.228 171.806 155.474 172.819 157.055C173.544 158.199 174.623 157.817 177.198 159.073C178.658 159.789 181.661 161.258 182.6 163.871C183.325 165.889 182.024 166.382 182.089 170.176C182.145 173.608 183.223 173.942 182.86 176.481C182.433 179.41 180.638 181.41 180.025 182.033C178.082 184.013 177.087 183.363 174.102 185.315C169.881 188.077 170.309 190.411 167.157 191.369C164.898 192.057 164.452 190.932 160.723 191.369C157.181 191.788 156.967 192.876 154.262 193.238C151.045 193.675 147.456 192.308 142.91 189.853C141.236 188.951 138.94 187.566 136.402 185.557" fill="#A7DBEF"/>
<path d="M130.098 30.6884L126.295 26.885C126.081 26.6711 125.737 26.6711 125.524 26.885L121.712 30.6884C121.498 30.9023 121.498 31.2464 121.712 31.4603L125.514 35.2636C125.728 35.4775 126.072 35.4775 126.286 35.2636L130.089 31.4603C130.312 31.2464 130.312 30.9023 130.098 30.6884ZM128.378 30.9023L126.946 32.2228C126.862 32.3065 126.714 32.2414 126.714 32.1205V31.2092H125.077V32.2972C125.077 32.3716 125.012 32.4367 124.938 32.4367H124.389C124.315 32.4367 124.25 32.3716 124.25 32.2972V30.9395C124.25 30.6419 124.492 30.3908 124.798 30.3908H126.704V29.4795C126.704 29.3586 126.844 29.3028 126.937 29.3772L128.369 30.6977C128.434 30.7628 128.434 30.8465 128.378 30.9023Z" fill="#E9E9E9"/>
<path d="M96.8599 70.5712L93.0573 66.7678C92.8434 66.554 92.4994 66.554 92.2856 66.7678L88.483 70.5712C88.2691 70.7851 88.2691 71.1292 88.483 71.3431L92.2856 75.1465C92.4994 75.3603 92.8434 75.3603 93.0573 75.1465L96.8599 71.3431C97.0737 71.1292 97.0737 70.7851 96.8599 70.5712ZM95.1399 70.7851L93.7081 72.1056C93.6244 72.1893 93.4756 72.1242 93.4756 72.0033V71.092H91.8393V72.18C91.8393 72.2544 91.7742 72.3195 91.6998 72.3195H91.1513C91.0769 72.3195 91.0118 72.2544 91.0118 72.18V70.8223C91.0118 70.5247 91.2536 70.2736 91.5604 70.2736H93.4663V69.3623C93.4663 69.2414 93.6058 69.1856 93.6988 69.26L95.1306 70.5805C95.1956 70.6363 95.1957 70.7293 95.1399 70.7851Z" fill="#E9E9E9"/>
<path d="M152.142 127.427L148.339 123.623C148.126 123.409 147.782 123.409 147.568 123.623L143.765 127.427C143.551 127.641 143.551 127.985 143.765 128.199L147.568 132.002C147.782 132.216 148.126 132.216 148.339 132.002L152.142 128.199C152.356 127.985 152.356 127.641 152.142 127.427ZM150.431 127.641L148.999 128.961C148.916 129.045 148.767 128.98 148.767 128.859V127.947H147.131V129.035C147.131 129.11 147.066 129.175 146.991 129.175H146.443C146.368 129.175 146.303 129.11 146.303 129.035V127.678C146.303 127.38 146.545 127.129 146.852 127.129H148.758V126.218C148.758 126.097 148.897 126.041 148.99 126.115L150.422 127.436C150.487 127.492 150.487 127.585 150.431 127.641Z" fill="#E9E9E9"/>
<path d="M38.5654 149.495L34.7628 145.692C34.549 145.478 34.205 145.478 33.9911 145.692L30.1885 149.495C29.9747 149.709 29.9747 150.053 30.1885 150.267L33.9911 154.07C34.205 154.284 34.549 154.284 34.7628 154.07L38.5654 150.267C38.7793 150.053 38.7793 149.709 38.5654 149.495ZM36.8454 149.709L35.4136 151.029C35.33 151.113 35.1812 151.048 35.1812 150.927V150.016H33.5449V151.104C33.5449 151.178 33.4798 151.243 33.4054 151.243H32.8569C32.7825 151.243 32.7174 151.178 32.7174 151.104V149.746C32.7174 149.449 32.9591 149.197 33.2659 149.197H35.1719V148.286C35.1719 148.165 35.3114 148.109 35.4043 148.184L36.8361 149.504C36.9012 149.56 36.9012 149.653 36.8454 149.709Z" fill="#E9E9E9"/>
<path d="M469.842 266.581L466.039 262.778C465.826 262.564 465.482 262.564 465.268 262.778L461.465 266.581C461.251 266.795 461.251 267.139 461.465 267.353L465.268 271.156C465.482 271.37 465.826 271.37 466.039 271.156L469.842 267.353C470.056 267.139 470.056 266.795 469.842 266.581ZM468.122 266.795L466.69 268.115C466.606 268.199 466.458 268.134 466.458 268.013V267.102H464.821V268.19C464.821 268.264 464.756 268.329 464.682 268.329H464.133C464.059 268.329 463.994 268.264 463.994 268.19V266.832C463.994 266.535 464.236 266.283 464.542 266.283H466.448V265.372C466.448 265.251 466.588 265.195 466.681 265.27L468.113 266.59C468.187 266.655 468.187 266.748 468.122 266.795Z" fill="#E9E9E9"/>
<path d="M436.213 149.31L432.411 145.506C432.197 145.292 431.853 145.292 431.639 145.506L427.837 149.31C427.623 149.523 427.623 149.867 427.837 150.081L431.639 153.885C431.853 154.099 432.197 154.099 432.411 153.885L436.213 150.081C436.427 149.867 436.427 149.523 436.213 149.31ZM434.503 149.523L433.071 150.844C432.987 150.928 432.838 150.862 432.838 150.742V149.83H431.202V150.918C431.202 150.993 431.137 151.058 431.063 151.058H430.514C430.44 151.058 430.375 150.993 430.375 150.918V149.561C430.375 149.263 430.616 149.012 430.923 149.012H432.829V148.101C432.829 147.98 432.969 147.924 433.062 147.998L434.493 149.319C434.558 149.375 434.558 149.468 434.503 149.523Z" fill="#E9E9E9"/>
<path d="M347.191 113.786L343.389 109.983C343.175 109.769 342.831 109.769 342.617 109.983L338.814 113.786C338.6 114 338.6 114.344 338.814 114.558L342.617 118.361C342.831 118.575 343.175 118.575 343.389 118.361L347.191 114.558C347.405 114.353 347.405 114 347.191 113.786ZM345.471 114L344.039 115.32C343.956 115.404 343.807 115.339 343.807 115.218V114.307H342.171V115.395C342.171 115.469 342.106 115.534 342.031 115.534H341.483C341.408 115.534 341.343 115.469 341.343 115.395V114.037C341.343 113.74 341.585 113.488 341.892 113.488H343.798V112.577C343.798 112.456 343.937 112.4 344.03 112.475L345.462 113.795C345.527 113.86 345.527 113.953 345.471 114Z" fill="#E9E9E9"/>
<path d="M381.777 50.7275L377.975 46.9241C377.761 46.7102 377.417 46.7102 377.203 46.9241L373.4 50.7275C373.187 50.9414 373.187 51.2854 373.4 51.4993L377.203 55.3027C377.417 55.5166 377.761 55.5166 377.975 55.3027L381.777 51.4993C381.991 51.2854 381.991 50.9414 381.777 50.7275ZM380.067 50.9414L378.635 52.2619C378.551 52.3455 378.402 52.2805 378.402 52.1596V51.2482H376.766V52.3362C376.766 52.4106 376.701 52.4757 376.627 52.4757H376.078C376.004 52.4757 375.939 52.4106 375.939 52.3362V50.9786C375.939 50.681 376.18 50.4299 376.487 50.4299H378.402V49.5186C378.402 49.3977 378.542 49.3419 378.635 49.4163L380.067 50.7368C380.122 50.7926 380.122 50.8856 380.067 50.9414Z" fill="#E9E9E9"/>
<path d="M203.594 0.158459L199.791 3.96185C199.577 4.17573 199.577 4.51981 199.791 4.73369L203.594 8.53708C203.807 8.75097 204.151 8.75097 204.365 8.53708L208.168 4.73369C208.382 4.51981 208.382 4.17573 208.168 3.96185L204.365 0.158459C204.151 -0.0554238 203.807 -0.0554238 203.594 0.158459ZM203.807 1.87882L205.128 3.3109C205.211 3.3946 205.146 3.54339 205.025 3.54339H204.114V5.18005H205.202C205.276 5.18005 205.341 5.24515 205.341 5.31954V5.8682C205.341 5.94259 205.276 6.00769 205.202 6.00769H203.845C203.547 6.00769 203.296 5.76591 203.296 5.45903V3.53409H202.385C202.264 3.53409 202.208 3.3946 202.283 3.30161L203.603 1.86952C203.659 1.82302 203.752 1.82302 203.807 1.87882Z" fill="#E9E9E9"/>
<path d="M284.778 41.0657L288.581 44.8691C288.795 45.083 289.139 45.083 289.352 44.8691L293.155 41.0657C293.369 40.8518 293.369 40.5078 293.155 40.2939L289.352 36.4905C289.139 36.2766 288.795 36.2766 288.581 36.4905L284.778 40.2939C284.564 40.5078 284.564 40.8518 284.778 41.0657ZM286.498 40.8518L287.93 39.5313C288.014 39.4476 288.162 39.5127 288.162 39.6336V40.545H289.799V39.4569C289.799 39.3826 289.864 39.3175 289.938 39.3175H290.487C290.561 39.3175 290.626 39.3826 290.626 39.4569V40.8146C290.626 41.1122 290.384 41.3633 290.078 41.3633H288.172V42.2746C288.172 42.3955 288.032 42.4513 287.939 42.3769L286.507 41.0564C286.433 41.0006 286.433 40.9076 286.498 40.8518Z" fill="#E9E9E9"/>
<path d="M359.529 196.54L363.331 200.344C363.545 200.558 363.889 200.558 364.103 200.344L367.906 196.54C368.12 196.326 368.12 195.982 367.906 195.769L364.103 191.965C363.889 191.751 363.545 191.751 363.331 191.965L359.529 195.769C359.315 195.982 359.315 196.326 359.529 196.54ZM361.249 196.326L362.681 195.006C362.764 194.922 362.913 194.987 362.913 195.108V196.02H364.549V194.932C364.549 194.857 364.614 194.792 364.689 194.792H365.237C365.312 194.792 365.377 194.857 365.377 194.932V196.289C365.377 196.587 365.135 196.838 364.828 196.838H362.922V197.749C362.922 197.87 362.783 197.926 362.69 197.852L361.258 196.531C361.193 196.466 361.193 196.373 361.249 196.326Z" fill="#E9E9E9"/>
<path d="M104.558 174.277L108.361 170.474C108.575 170.26 108.575 169.916 108.361 169.702L104.558 165.899C104.344 165.685 104 165.685 103.786 165.899L99.9837 169.702C99.7699 169.916 99.7699 170.26 99.9837 170.474L103.786 174.277C104 174.482 104.344 174.482 104.558 174.277ZM104.344 172.557L103.024 171.125C102.94 171.041 103.005 170.892 103.126 170.892H104.037V169.256H102.95C102.875 169.256 102.81 169.191 102.81 169.116V168.568C102.81 168.493 102.875 168.428 102.95 168.428H104.307C104.605 168.428 104.856 168.67 104.856 168.977V170.883H105.767C105.888 170.883 105.943 171.023 105.869 171.116L104.549 172.548C104.493 172.613 104.4 172.613 104.344 172.557Z" fill="#E9E9E9"/>
<path d="M188.987 167.088C188.411 169.376 187.221 172.807 184.562 176.136C182.47 178.75 180.313 180.247 179.327 180.916C171.118 186.496 162.639 190.755 158.38 193.461C155.972 194.986 141.487 204.574 140.734 218.104C140.334 225.302 143.96 232.583 149.948 236.6C146.405 237.344 143.44 239.92 141.552 243.007C139.665 246.095 138.717 249.666 138.038 253.218C137.322 256.984 136.931 261.085 138.726 264.47C141.366 269.454 147.224 271.324 149.985 272.105C226.465 293.791 264.705 304.633 285.717 290.182C305.939 276.271 322.776 246.764 314.939 230.872C313.925 228.826 312.661 227.31 311.629 226.269C312.056 225.655 315.134 221.126 313.553 215.602C312.233 210.99 308.189 207.512 303.205 206.694C287.437 184.999 279.181 176.992 274.532 174.044C273.575 173.44 270.488 171.608 267.68 168.009C263.71 162.922 264.668 159.891 262.641 157.491C257.118 150.935 239.016 160.384 215.308 164.717C204.263 166.735 195.012 167.098 188.987 167.088Z" fill="#B9141B"/>
<path d="M213.83 239.028C210.474 238.163 205.406 237.224 199.298 237.531C176.994 238.674 161.839 255.525 155.015 263.113C146.564 272.514 142.584 280.679 136.039 294.126C134.44 297.418 125.366 316.36 122.037 339.069C121.907 339.971 120.782 348.043 122.26 358.263C123.413 366.223 125.356 370.091 128.034 372.956C128.434 373.383 130.098 375.122 132.952 376.74C140.827 381.223 149.39 380.07 152.942 379.586C170.216 377.252 182.293 362.475 184.599 359.565C193.413 363.591 201.576 365.47 208.847 366.121C276.466 372.174 328.225 277.796 331.302 272.031C330.558 270.673 329.824 269.111 329.21 267.335C327.118 261.318 327.341 255.85 327.843 252.326C323.241 251.321 317.951 250.466 312.075 250.038C303.438 249.406 295.805 249.861 289.548 250.671C288.106 249.062 286.042 246.932 283.328 244.691C280.325 242.208 276.857 239.335 271.808 237.298C269.633 236.415 262.223 233.541 252.897 235.41C248.146 236.368 244.548 238.219 242.326 239.595C242.587 242.385 241.88 244.124 241.229 245.165C237.733 250.754 226.363 251.21 219.492 246.272C216.331 244.003 214.676 241.018 213.83 239.028Z" fill="#A7DBEF"/>
<path d="M192.241 181.371C191.73 179.949 191.07 177.54 191.209 174.536C191.368 171.049 192.53 168.417 193.264 167.023C191.842 166.66 190.661 166.632 189.871 166.669C188.876 166.716 188.225 166.762 187.602 167.209C186.663 167.878 186.431 168.994 186.366 169.403C186.207 168.938 184.45 163.721 187.407 160.197C188.606 158.765 190.605 157.584 192.744 157.333C195.747 156.97 198.062 158.551 199.465 157.258C199.94 156.831 200.107 156.254 200.172 155.91C199.121 155.659 197.764 155.147 196.965 153.939C196.202 152.795 196.62 152.051 196.053 149.921C195.849 149.159 195.272 147.076 193.72 145.346C191.953 143.365 190.094 143.189 190.196 142.584C190.326 141.812 193.459 141.301 196.277 141.924C200.228 142.807 202.785 145.783 204.077 147.662C205.063 146.248 206.783 144.165 209.488 142.398C211.468 141.106 215.094 138.734 216.498 139.757C218.934 141.524 214.025 152.953 209.739 160.402C206.643 165.767 201.325 173.513 192.241 181.371Z" fill="#0061B2"/>
<path d="M205.816 185.352C204.867 186.403 202.413 188.095 200.609 191.397C199.633 193.182 199.94 193.331 198.285 197.032C196.546 200.9 195.821 201.57 196.025 203.076C196.369 205.578 198.843 207.094 199.4 207.456C203.761 210.265 208.893 207.605 209.135 207.475C209.395 209.902 210.66 221.582 210.818 223.088C211.831 232.443 212.361 237.167 213.709 239.492C217.512 246.058 226.465 251.46 234.786 249.359C238.607 248.392 241.239 246.104 242.707 244.56C242.456 241.175 242.419 237.028 242.977 232.35C243.47 228.203 244.325 224.595 245.227 221.619C247.449 220.68 251.122 218.746 253.883 214.896C256.468 211.297 257.063 207.68 257.369 205.615C260.624 183.78 262.251 172.863 256.291 166.512C249.783 159.575 239.221 159.723 234.963 159.788C230.044 159.854 221.844 159.974 216.359 165.517C210.79 171.134 213.458 176.89 205.816 185.352Z" fill="#F7B374" stroke="#222222" stroke-miterlimit="10"/>
<path d="M208.586 195.84C207.136 194.25 204.904 193.59 202.794 193.878C200.665 194.167 198.815 195.45 197.532 197.133C196.128 198.974 195.179 201.485 195.681 203.81C196.165 206.06 198.127 207.604 200.237 208.255C203.073 209.129 206.485 208.924 209.246 207.902C209.804 207.697 209.562 206.795 208.995 207.009C206.801 207.818 204.356 208.022 202.041 207.697C199.995 207.418 197.829 206.479 196.89 204.517C195.951 202.573 196.667 200.192 197.736 198.444C198.731 196.817 200.256 195.459 202.115 194.938C204.161 194.371 206.466 194.892 207.917 196.482C208.335 196.938 208.986 196.277 208.586 195.84Z" fill="#222222"/>
<path d="M200.088 200.835C202.524 199.385 205.537 200.389 207.973 201.338C208.53 201.551 208.772 200.659 208.224 200.445C205.537 199.403 202.301 198.446 199.624 200.036C199.112 200.333 199.577 201.142 200.088 200.835Z" fill="#222222"/>
<path d="M208.382 158.216C208.066 154.71 206.885 151.307 204.96 148.359C203.984 146.871 202.822 145.485 201.511 144.286C200.2 143.086 198.675 141.868 196.946 141.347C194.649 140.659 192.26 141.403 190.075 142.138C189.694 142.268 189.62 142.77 189.964 142.984C191.284 143.83 192.651 144.704 193.627 145.95C194.575 147.168 194.9 148.666 195.198 150.144C195.477 151.548 195.737 153.018 196.509 154.254C197.206 155.352 198.275 156.142 199.521 156.496C200.934 156.895 202.459 156.737 203.733 155.993C203.965 155.854 204.068 155.454 203.826 155.259C202.794 154.459 201.883 153.51 201.148 152.422C200.804 151.902 200.488 151.362 200.228 150.795C200.079 150.479 199.921 150.144 199.884 149.791C199.847 149.465 199.968 148.87 200.442 148.991C201.027 149.131 201.269 148.238 200.693 148.098C199.986 147.931 199.289 148.34 199.038 149.028C198.722 149.902 199.196 150.842 199.586 151.604C200.442 153.287 201.678 154.766 203.166 155.919C203.194 155.677 203.231 155.435 203.259 155.184C201.855 156.012 200.051 155.956 198.666 155.119C197.095 154.171 196.593 152.367 196.249 150.674C195.905 148.982 195.644 147.215 194.64 145.755C193.58 144.221 191.99 143.17 190.438 142.175C190.401 142.454 190.363 142.742 190.326 143.021C192.186 142.398 194.212 141.71 196.193 142.1C197.922 142.444 199.438 143.653 200.721 144.806C203.147 146.982 205.044 149.754 206.206 152.804C206.866 154.543 207.294 156.356 207.461 158.207C207.508 158.802 208.437 158.811 208.382 158.216Z" fill="#222222"/>
<path d="M207.22 158.087C206.773 156.906 205.695 156.255 204.523 155.929C203.324 155.594 201.911 155.446 200.711 155.818C199.475 156.19 198.629 157.185 198.508 158.477C198.396 159.705 198.963 160.969 199.902 161.751C201.13 162.783 202.738 163.127 204.309 163.192C204.904 163.22 204.904 162.29 204.309 162.262C202.292 162.178 199.698 161.425 199.447 159.054C199.345 158.068 199.791 157.166 200.73 156.794C201.678 156.413 202.822 156.515 203.798 156.71C204.765 156.915 205.936 157.324 206.327 158.338C206.532 158.886 207.433 158.645 207.22 158.087Z" fill="#222222"/>
<path d="M198.508 157.584C196.555 157.045 194.501 156.505 192.455 156.747C190.559 156.97 188.969 157.937 187.714 159.36C186.496 160.755 185.361 162.466 184.989 164.307C184.571 166.381 185.278 168.39 186.114 170.268C186.356 170.817 187.146 170.342 186.914 169.803C186.598 169.068 187.016 168.213 187.602 167.757C188.337 167.181 189.341 167.134 190.233 167.218C191.99 167.395 193.617 168.111 195.412 167.887C198.285 167.525 200.795 165.432 201.641 162.661C201.818 162.085 200.916 161.843 200.748 162.41C200.274 163.954 199.214 165.256 197.829 166.083C196.295 166.995 194.631 167.171 192.902 166.809C191.144 166.437 189.229 165.832 187.518 166.716C186.226 167.376 185.519 168.91 186.105 170.277C186.375 170.119 186.644 169.961 186.905 169.812C186.152 168.12 185.482 166.251 185.91 164.382C186.291 162.717 187.342 161.145 188.476 159.899C189.657 158.597 191.135 157.751 192.92 157.649C194.733 157.547 196.509 158.021 198.238 158.495C198.843 158.644 199.084 157.742 198.508 157.584Z" fill="#222222"/>
<path d="M199.075 160.485C196.304 159.676 193.227 160.746 191.498 163.033C191.135 163.507 191.944 163.972 192.297 163.498C193.776 161.545 196.49 160.69 198.824 161.378C199.41 161.555 199.651 160.653 199.075 160.485Z" fill="#222222"/>
<path d="M192.688 181.241C191.953 178.86 191.609 176.377 191.693 173.885C191.73 172.648 191.87 171.421 192.121 170.212C192.334 169.198 192.641 168.073 193.506 167.413C193.971 167.05 193.515 166.241 193.041 166.613C191.126 168.082 190.931 171.021 190.8 173.244C190.633 176.024 190.986 178.832 191.804 181.492C191.963 182.059 192.864 181.817 192.688 181.241Z" fill="#222222"/>
<path d="M204.672 147.597C207.433 143.598 211.822 140.91 216.619 140.194C217.205 140.111 216.954 139.209 216.368 139.302C211.329 140.055 206.755 142.947 203.863 147.132C203.528 147.624 204.337 148.089 204.672 147.597Z" fill="#222222"/>
<path d="M209.023 207.364C209.367 215.789 210.306 224.195 211.812 232.49C212.249 234.871 212.733 237.242 213.263 239.604C213.393 240.19 214.285 239.939 214.155 239.353C212.324 231.16 211.05 222.856 210.381 214.487C210.185 212.115 210.046 209.735 209.953 207.354C209.925 206.768 208.995 206.768 209.023 207.364Z" fill="#222222"/>
<path d="M210.808 208.768C215.355 215.473 221.844 221.182 229.803 223.293C237.687 225.386 246.529 223.758 252.209 217.63C255.017 214.599 256.849 210.721 257.137 206.573C257.174 205.978 256.244 205.978 256.207 206.573C255.714 213.827 250.164 220.001 243.386 222.196C235.558 224.735 227.014 222.494 220.515 217.732C217.01 215.157 214.044 211.883 211.617 208.294C211.282 207.801 210.474 208.266 210.808 208.768Z" fill="#222222"/>
<path d="M244.865 221.739C242.968 228.76 241.722 235.939 241.127 243.183C241.081 243.778 242.01 243.778 242.057 243.183C242.642 236.023 243.888 228.927 245.757 221.99C245.915 221.413 245.013 221.162 244.865 221.739Z" fill="#222222"/>
<path d="M265.784 165.256C266.211 167.265 267.634 168.809 269.075 170.185C270.888 171.914 272.719 173.635 274.542 175.355C274.979 175.764 275.639 175.113 275.202 174.695C273.454 173.049 271.706 171.394 269.958 169.748C268.554 168.418 267.094 166.977 266.676 165.014C266.555 164.429 265.663 164.67 265.784 165.256Z" fill="#222222"/>
<path d="M304.126 207.252C306.952 208.74 309.899 210.404 311.778 213.082C313.46 215.491 314.009 218.578 313.414 221.433C313.07 223.079 312.363 224.632 311.303 225.934C311.117 226.157 311.117 226.501 311.396 226.668C314.715 228.566 315.599 233.048 313.144 236.024C312.763 236.479 313.423 237.139 313.804 236.684C315.18 235.01 315.794 232.806 315.376 230.667C314.976 228.649 313.646 226.882 311.871 225.869C311.898 226.111 311.936 226.352 311.964 226.603C313.953 224.167 314.855 220.968 314.502 217.843C314.12 214.486 312.335 211.706 309.714 209.632C308.133 208.386 306.376 207.391 304.6 206.461C304.07 206.164 303.596 206.973 304.126 207.252Z" fill="#222222"/>
<path d="M284.183 168.018C283.941 167.925 279.869 166.511 277.024 168.882C274.393 171.077 274.765 174.862 274.913 176.322C275.099 178.2 275.732 179.642 276.187 180.507L272.654 200.695C273.035 203.95 274.672 207.037 277.145 209.185C279.618 211.334 282.909 212.515 286.182 212.44C288.525 216.513 290.914 221.414 292.922 227.133C294.624 231.987 295.6 236.116 296.167 238.906C297.143 243.76 298.045 250.4 297.85 258.388C299.849 259.253 302.638 260.192 306.041 260.601C311.192 261.215 315.422 260.341 317.979 259.587C317.691 257.532 317.17 254.138 316.222 250.009C310.987 227.105 302.489 223.292 302.564 209.334C302.601 201.597 304.014 200.453 305.474 188.039C306.125 182.478 305.558 176.155 301.671 171.793C298.771 168.529 292.578 167.078 289.631 169.524C288.571 170.408 288.097 171.672 287.874 172.723C287.865 172.788 288.06 171.7 288.664 170.752C289.603 169.273 290.97 168.641 291.556 168.408C291.091 168.12 289.817 167.404 288.06 167.469C286.433 167.534 285.289 168.222 284.824 168.538" fill="#F7B374"/>
<path d="M284.304 167.562C282.063 166.753 279.218 166.781 277.21 168.148C274.709 169.85 274.16 172.937 274.393 175.764C274.532 177.512 274.969 179.177 275.787 180.73C275.769 180.609 275.76 180.488 275.741 180.367C275.053 184.282 274.374 188.197 273.686 192.112C273.286 194.409 272.887 196.706 272.478 199.012C272.394 199.505 272.273 200.007 272.217 200.509C272.152 201.076 272.338 201.718 272.468 202.267C272.729 203.355 273.119 204.415 273.63 205.41C276.011 210.069 280.957 212.97 286.182 212.886C286.052 212.812 285.912 212.728 285.782 212.654C291.798 223.144 295.656 234.851 296.92 246.884C297.32 250.697 297.469 254.528 297.376 258.36C297.376 258.509 297.46 258.704 297.608 258.76C304.089 261.531 311.341 261.977 318.1 260.006C318.36 259.931 318.462 259.69 318.425 259.429C317.216 250.716 315.041 242.105 311.573 234.005C310.327 231.085 308.895 228.258 307.491 225.422C306.292 223.013 305.13 220.568 304.312 218.001C302.629 212.673 302.75 206.954 303.754 201.504C304.358 198.24 305.009 194.985 305.465 191.693C306.088 187.221 306.599 182.71 305.483 178.265C304.498 174.313 302.229 170.593 298.408 168.892C295.414 167.562 290.868 166.957 288.59 169.905C287.986 170.686 287.632 171.607 287.428 172.556C287.735 172.593 288.032 172.639 288.339 172.677C288.33 172.881 288.376 172.584 288.395 172.509C288.45 172.295 288.516 172.091 288.59 171.886C288.822 171.263 289.176 170.696 289.631 170.212C290.198 169.608 290.905 169.124 291.677 168.817C292.039 168.669 292.151 168.194 291.788 167.971C289.594 166.604 286.73 166.651 284.583 168.101C284.09 168.436 284.555 169.236 285.048 168.901C286.935 167.627 289.38 167.571 291.314 168.771C291.351 168.492 291.388 168.204 291.426 167.925C290.449 168.315 289.548 168.901 288.85 169.701C288.172 170.473 287.465 171.626 287.409 172.686C287.381 173.207 288.209 173.318 288.32 172.807C288.739 170.882 289.873 169.412 291.825 168.929C293.536 168.501 295.386 168.78 297.032 169.338C298.78 169.933 300.379 170.947 301.578 172.36C302.992 174.034 303.931 176.052 304.498 178.163C305.678 182.571 305.176 187.09 304.554 191.535C304.107 194.744 303.475 197.915 302.88 201.104C301.885 206.442 301.662 212.05 303.14 217.322C304.628 222.641 307.594 227.449 309.872 232.443C313.479 240.347 315.803 248.763 317.179 257.328C317.309 258.109 317.421 258.89 317.533 259.68C317.644 259.485 317.746 259.299 317.858 259.104C311.35 261.001 304.321 260.629 298.083 257.96C298.157 258.09 298.241 258.23 298.315 258.36C298.612 245.889 296.279 233.447 291.435 221.953C290.022 218.605 288.404 215.341 286.591 212.189C286.507 212.05 286.349 211.957 286.191 211.957C282.937 212.012 279.702 210.85 277.275 208.655C276.131 207.623 275.192 206.386 274.486 205.019C274.133 204.34 273.844 203.634 273.621 202.908C273.51 202.555 273.417 202.192 273.333 201.83C273.268 201.513 273.119 201.104 273.119 200.797C273.11 200.174 273.352 199.458 273.463 198.845C273.723 197.347 273.984 195.841 274.253 194.344C274.867 190.838 275.481 187.332 276.094 183.826C276.262 182.841 276.438 181.855 276.615 180.869C276.68 180.497 276.634 180.293 276.448 179.921C275.834 178.684 275.49 177.345 275.369 175.968C275.137 173.43 275.416 170.5 277.712 168.929C279.525 167.692 282.072 167.711 284.09 168.436C284.62 168.669 284.862 167.767 284.304 167.562Z" fill="#222222"/>
<path d="M282.249 174.09C282.258 172.035 283.318 170.017 285.066 168.92C286.944 167.729 289.399 167.711 291.323 168.799C291.844 169.096 292.318 168.287 291.788 167.999C289.585 166.762 286.749 166.762 284.592 168.12C282.565 169.403 281.319 171.709 281.319 174.099C281.319 174.685 282.249 174.685 282.249 174.09Z" fill="#222222"/>
<path d="M213.951 238.581C202.506 235.326 190.205 237.298 179.588 242.338C168.914 247.415 160.119 255.673 152.969 264.963C145.364 274.839 139.293 285.961 134.254 297.334C131.613 303.294 129.27 309.385 127.253 315.588C125.31 321.577 123.59 327.658 122.418 333.852C120.271 345.169 119.834 357.397 124.678 368.11C125.273 369.431 125.951 370.705 126.695 371.941C127.002 372.453 127.811 371.988 127.495 371.476C121.423 361.396 120.968 349.205 122.669 337.841C123.562 331.89 125.049 326.04 126.76 320.275C128.601 314.1 130.758 308.028 133.213 302.076C137.945 290.638 143.737 279.479 150.877 269.352C157.562 259.858 165.781 251.144 175.925 245.314C185.966 239.539 197.987 236.498 209.525 238.525C210.929 238.767 212.324 239.092 213.69 239.483C214.276 239.641 214.527 238.748 213.951 238.581Z" fill="#222222"/>
<path d="M130.498 351.854C133.278 345.019 138.14 339.179 144.053 334.818C149.938 330.475 156.837 327.518 164.015 326.142C168.031 325.37 172.15 325.119 176.231 325.426C176.826 325.472 176.826 324.542 176.231 324.496C168.784 323.938 161.216 325.24 154.308 328.048C147.372 330.866 141.004 335.199 136.132 340.909C133.408 344.108 131.195 347.707 129.605 351.603C129.373 352.161 130.275 352.403 130.498 351.854Z" fill="#222222"/>
<path d="M180.75 291.094C181.884 299.454 181.252 308 178.983 316.119C178.825 316.695 179.718 316.946 179.876 316.37C182.191 308.075 182.795 299.38 181.642 290.852C181.568 290.257 180.666 290.508 180.75 291.094Z" fill="#222222"/>
<path d="M289.138 250.901C291.361 256.016 296.502 259.15 301.783 260.303C304.888 260.982 308.096 261.084 311.266 260.917C314.502 260.749 317.812 260.377 320.833 259.141C323.613 258.006 326.123 256.146 327.657 253.524C327.955 253.003 327.155 252.538 326.858 253.059C323.864 258.192 317.616 259.587 312.122 259.94C306.441 260.312 300.398 259.922 295.479 256.76C293.071 255.216 291.091 253.068 289.947 250.427C289.706 249.879 288.906 250.353 289.138 250.901Z" fill="#222222"/>
<path d="M326.886 252.577C327.685 258.212 327.75 263.931 327.1 269.585C327.035 270.18 327.964 270.171 328.029 269.585C328.689 263.847 328.597 258.054 327.788 252.326C327.704 251.74 326.802 251.991 326.886 252.577Z" fill="#222222"/>
<path d="M316.807 252.075C320.424 251.108 324.255 251.359 327.713 252.772C328.271 252.995 328.504 252.103 327.964 251.879C324.357 250.41 320.322 250.178 316.566 251.182C315.98 251.34 316.222 252.233 316.807 252.075Z" fill="#222222"/>
<path d="M289.455 251.013C291.593 250.437 293.852 250.604 295.898 251.45C296.13 251.543 296.409 251.348 296.474 251.125C296.548 250.855 296.381 250.651 296.149 250.548C293.954 249.646 291.5 249.498 289.213 250.111C288.627 250.269 288.878 251.162 289.455 251.013Z" fill="#222222"/>
<path d="M288.869 249.879C288.265 254.129 288.45 258.425 289.455 262.6C289.594 263.186 290.496 262.935 290.347 262.349C289.39 258.351 289.176 254.194 289.761 250.121C289.845 249.544 288.953 249.293 288.869 249.879Z" fill="#222222"/>
<path d="M217.103 258.36C222.542 261.159 228.408 264.516 234.535 268.524C240.616 272.504 245.999 276.522 250.722 280.353C253.818 276.698 257.816 272.569 262.873 268.524C270.376 262.517 277.684 258.686 283.421 256.24C288.199 258.379 294.633 261.894 301.169 267.594C306.71 272.43 310.634 277.359 313.312 281.292C317.328 275.685 322.628 269.194 329.498 262.61C336.471 255.924 343.277 250.846 349.116 247.043C344.235 288.601 339.363 330.16 334.482 371.709C330.688 373.569 325.984 376.312 321.094 380.32C316.026 384.467 312.317 388.708 309.714 392.148C306.088 388.364 300.518 383.389 292.764 379.074C285.327 374.936 278.465 372.834 273.463 371.709C268.629 372.267 261.73 373.643 254.162 377.205C248.295 379.966 243.786 383.212 240.56 385.927C235.316 381.11 227.971 375.28 218.358 370.044C208.874 364.874 200.107 361.879 193.273 360.075C201.213 326.17 209.153 292.265 217.103 258.36Z" fill="#0061B2" stroke="#222222" stroke-miterlimit="10"/>
<path d="M275.081 202.127L261.646 198.556C261.256 196.724 260.865 194.13 260.856 190.996C260.847 187.769 261.256 185.1 261.646 183.231C266.128 182.041 270.609 180.85 275.081 179.66V202.127Z" fill="#0061B2"/>
<path d="M299.868 190.894C299.868 184.654 296.595 179.242 291.798 176.545V174.713H284.415V174.741C276.364 175.01 269.912 182.134 269.912 190.903C269.912 199.672 276.364 206.795 284.415 207.065V207.093H291.798V205.261C296.595 202.555 299.868 197.143 299.868 190.894Z" fill="#0061B2"/>
<path d="M291.1 207.083C299.372 207.083 306.078 199.835 306.078 190.893C306.078 181.952 299.372 174.703 291.1 174.703C282.828 174.703 276.122 181.952 276.122 190.893C276.122 199.835 282.828 207.083 291.1 207.083Z" fill="#009FE3"/>
<path d="M291.1 204.042C297.817 204.042 303.261 198.155 303.261 190.893C303.261 183.631 297.817 177.744 291.1 177.744C284.384 177.744 278.939 183.631 278.939 190.893C278.939 198.155 284.384 204.042 291.1 204.042Z" fill="#A7DBEF"/>
<path d="M296.874 190.4C296.214 189.386 295.303 188.605 294.252 188.103C294.717 187.48 295.154 186.829 295.526 186.141C295.637 185.927 295.582 185.62 295.358 185.509C295.145 185.397 294.847 185.443 294.726 185.676C294.512 186.067 294.289 186.448 294.048 186.82C293.927 187.006 293.806 187.192 293.676 187.368C293.611 187.461 293.545 187.545 293.48 187.638C293.452 187.685 293.415 187.722 293.387 187.768C292.857 187.61 292.3 187.517 291.732 187.508C291.705 186.652 291.686 185.797 291.658 184.932C291.649 184.69 291.454 184.458 291.193 184.467C290.952 184.476 290.719 184.672 290.728 184.932C290.756 185.806 290.775 186.68 290.803 187.554C290.775 187.554 290.756 187.554 290.728 187.564C289.938 187.675 289.222 187.954 288.553 188.326C288.32 188.084 288.097 187.843 287.883 187.582C287.828 187.517 287.772 187.443 287.716 187.378C287.688 187.35 287.67 187.313 287.642 187.275C287.632 187.257 287.623 187.248 287.604 187.229C287.493 187.08 287.381 186.922 287.27 186.773C287.13 186.578 286.851 186.466 286.638 186.606C286.442 186.736 286.321 187.024 286.47 187.238C286.861 187.796 287.298 188.326 287.763 188.828C287.642 188.921 287.511 189.005 287.391 189.098C286.479 189.842 285.503 190.763 285.271 191.972C285.159 192.557 286.052 192.808 286.163 192.223C286.359 191.228 287.158 190.502 287.902 189.879C288.748 189.163 289.734 188.642 290.84 188.484C292.904 188.187 294.94 189.154 296.074 190.884C296.39 191.367 297.199 190.902 296.874 190.4ZM287.632 187.275C287.623 187.275 287.623 187.266 287.632 187.275C287.642 187.285 287.66 187.313 287.632 187.275Z" fill="#0061B2"/>
<path d="M290.933 191.208C290.208 191.422 289.659 192.092 289.594 192.854C289.51 193.775 290.143 194.677 291.091 194.9C291.983 195.105 292.997 194.556 293.313 193.691C293.666 192.715 293.062 191.757 292.346 191.366C292.244 191.31 291.649 190.994 290.933 191.208Z" fill="#0061B2"/>
<path d="M240.551 202.127L227.116 198.556C226.725 196.724 226.335 194.13 226.326 190.996C226.316 187.769 226.725 185.1 227.116 183.231C231.597 182.041 236.078 180.85 240.551 179.66V202.127Z" fill="#0061B2"/>
<path d="M265.337 190.894C265.337 184.654 262.065 179.242 257.267 176.545V174.713H249.885V174.741C241.834 175.01 235.381 182.134 235.381 190.903C235.381 199.672 241.834 206.795 249.885 207.065V207.093H257.267V205.261C262.065 202.555 265.337 197.143 265.337 190.894Z" fill="#0061B2"/>
<path d="M256.57 207.083C264.842 207.083 271.548 199.835 271.548 190.893C271.548 181.952 264.842 174.703 256.57 174.703C248.298 174.703 241.592 181.952 241.592 190.893C241.592 199.835 248.298 207.083 256.57 207.083Z" fill="#009FE3"/>
<path d="M256.57 204.042C263.286 204.042 268.731 198.155 268.731 190.893C268.731 183.631 263.286 177.744 256.57 177.744C249.854 177.744 244.409 183.631 244.409 190.893C244.409 198.155 249.854 204.042 256.57 204.042Z" fill="#A7DBEF"/>
<path d="M262.343 190.4C261.683 189.386 260.772 188.605 259.722 188.103C260.186 187.48 260.623 186.829 260.995 186.141C261.107 185.927 261.051 185.62 260.828 185.509C260.614 185.397 260.317 185.443 260.196 185.676C259.982 186.067 259.759 186.448 259.517 186.82C259.396 187.006 259.275 187.192 259.145 187.368C259.08 187.461 259.015 187.545 258.95 187.638C258.922 187.685 258.885 187.722 258.857 187.768C258.327 187.61 257.769 187.517 257.202 187.508C257.174 186.652 257.156 185.797 257.128 184.932C257.118 184.69 256.923 184.458 256.663 184.467C256.421 184.476 256.189 184.672 256.198 184.932C256.226 185.806 256.244 186.68 256.272 187.554C256.244 187.554 256.226 187.554 256.198 187.564C255.408 187.675 254.692 187.954 254.022 188.326C253.79 188.084 253.567 187.843 253.353 187.582C253.297 187.517 253.241 187.443 253.186 187.378C253.158 187.35 253.139 187.313 253.111 187.275C253.102 187.257 253.093 187.248 253.074 187.229C252.962 187.08 252.851 186.922 252.739 186.773C252.6 186.578 252.321 186.466 252.107 186.606C251.912 186.736 251.791 187.024 251.94 187.238C252.33 187.796 252.767 188.326 253.232 188.828C253.111 188.921 252.981 189.005 252.86 189.098C251.949 189.842 250.973 190.763 250.74 191.972C250.629 192.557 251.521 192.808 251.633 192.223C251.828 191.228 252.628 190.502 253.372 189.879C254.218 189.163 255.203 188.642 256.309 188.484C258.373 188.187 260.41 189.154 261.544 190.884C261.86 191.367 262.669 190.902 262.343 190.4ZM253.102 187.275C253.093 187.275 253.093 187.266 253.102 187.275C253.111 187.285 253.13 187.313 253.102 187.275Z" fill="#0061B2"/>
<path d="M256.403 191.208C255.677 191.422 255.129 192.092 255.064 192.854C254.98 193.775 255.612 194.677 256.561 194.9C257.453 195.105 258.467 194.556 258.783 193.691C259.136 192.715 258.532 191.757 257.816 191.366C257.713 191.31 257.118 190.994 256.403 191.208Z" fill="#0061B2"/>
<path d="M188.523 167.088C188.774 170.436 186.672 173.328 184.441 175.606C182.107 177.977 179.458 180.032 176.706 181.901C171.239 185.603 165.316 188.569 159.719 192.066C154.55 195.292 149.66 199.124 145.922 203.978C142.352 208.618 139.962 214.291 140.269 220.224C140.576 226.138 143.43 231.913 147.995 235.707C148.544 236.163 149.12 236.6 149.715 237C149.753 236.721 149.79 236.432 149.827 236.153C143.282 237.585 139.786 243.983 138.27 249.981C137.443 253.255 136.727 256.779 137.043 260.173C137.331 263.27 138.67 266.023 141.06 268.031C143.607 270.179 146.777 271.407 149.864 272.551C150.422 272.755 150.673 271.862 150.115 271.658C147.503 270.691 144.844 269.659 142.566 268.031C140.186 266.329 138.568 263.939 138.094 261.029C137.573 257.886 138.187 254.612 138.865 251.534C139.572 248.363 140.585 245.192 142.445 242.495C144.267 239.864 146.908 237.743 150.078 237.055C150.496 236.962 150.496 236.414 150.19 236.209C145.243 232.861 141.915 227.235 141.283 221.293C140.66 215.342 142.873 209.595 146.396 204.88C154.085 194.576 166.386 189.908 176.761 182.98C179.746 180.981 182.637 178.777 185.157 176.201C187.528 173.774 189.713 170.649 189.443 167.097C189.406 166.493 188.476 166.493 188.523 167.088Z" fill="#222222"/>
<path d="M198.043 197.014C192.511 192.029 191.498 183.316 194.185 176.369C196.872 169.432 202.627 164.076 208.912 160.086C208.707 159.482 208.465 158.598 208.335 157.501C207.898 153.8 209.181 150.861 210.371 148.23C210.948 146.956 212.073 144.287 214.388 141.757C219.036 136.68 225.907 134.216 232.676 132.914C237.334 132.021 242.317 131.612 246.659 133.509C252.6 136.113 256.031 142.473 257.667 148.75C257.834 149.401 258.039 150.127 258.597 150.499C259.062 150.815 259.666 150.806 260.224 150.815C263.069 150.889 266.09 151.959 267.587 154.376C269.642 157.696 268.08 162.067 265.867 165.285C263.115 169.283 259.173 172.733 254.413 173.654C249.653 174.574 244.111 172.38 242.28 167.888C242.698 171.385 239.714 174.658 236.274 175.402C232.834 176.155 229.226 174.853 226.353 172.826C224.215 171.32 222.374 169.404 220.942 167.219C221.156 169.953 221.175 174.984 218.832 180.563C215.243 189.1 208.503 193.266 206.169 194.568C205.509 194.373 203.724 193.935 201.604 194.614C199.661 195.256 198.499 196.474 198.043 197.014Z" fill="#B9141B"/>
<path d="M198.368 196.678C194.296 192.959 192.79 187.277 193.329 181.902C193.915 176.099 197.067 170.929 201.102 166.846C203.519 164.41 206.253 162.317 209.135 160.476C209.302 160.374 209.414 160.151 209.349 159.955C208.651 157.835 208.512 155.594 208.977 153.4C209.376 151.53 210.157 149.782 210.938 148.043C211.692 146.379 212.556 144.77 213.663 143.31C214.983 141.571 216.638 140.074 218.432 138.837C221.919 136.428 225.944 134.95 230.035 133.955C234.396 132.895 239.147 132.067 243.6 133.025C247.626 133.89 250.908 136.4 253.214 139.767C254.339 141.413 255.25 143.198 255.975 145.058C256.337 145.979 256.654 146.918 256.932 147.866C257.183 148.713 257.304 149.717 257.862 150.433C258.494 151.242 259.452 151.242 260.382 151.279C261.377 151.316 262.362 151.484 263.31 151.791C265.226 152.414 266.946 153.678 267.671 155.613C269.158 159.583 266.462 164.019 263.998 166.958C261.423 170.017 257.992 172.593 253.967 173.253C250.452 173.83 246.51 172.677 244.121 169.98C243.535 169.32 243.061 168.567 242.717 167.758C242.54 167.33 241.741 167.302 241.806 167.878C242.15 171.189 239.472 174.109 236.385 174.89C232.62 175.848 228.65 174.1 225.74 171.784C224.029 170.426 222.551 168.799 221.342 166.976C221.11 166.623 220.44 166.716 220.478 167.209C220.859 172.119 220.003 177.103 217.874 181.558C215.95 185.584 213.04 189.09 209.507 191.805C208.372 192.67 207.182 193.461 205.936 194.158C206.057 194.14 206.178 194.13 206.299 194.112C203.212 193.219 199.819 194.214 197.727 196.65C197.336 197.106 197.997 197.766 198.387 197.311C199.252 196.297 200.377 195.506 201.65 195.088C202.552 194.79 203.501 194.67 204.449 194.725C205.007 194.763 205.518 194.939 206.067 195.014C206.411 195.06 206.755 194.781 207.043 194.604C207.368 194.418 207.684 194.214 207.991 194.019C208.828 193.479 209.637 192.903 210.408 192.28C215.317 188.411 218.953 183.027 220.552 176.973C221.389 173.802 221.668 170.482 221.417 167.209C221.128 167.283 220.84 167.367 220.552 167.441C222.848 170.919 226.186 173.904 230.156 175.318C233.838 176.638 238.115 176.248 240.848 173.235C242.168 171.775 242.968 169.859 242.754 167.869C242.447 167.906 242.15 167.953 241.843 167.99C243.321 171.514 246.789 173.672 250.499 174.183C254.617 174.751 258.587 173.114 261.73 170.529C263.394 169.162 264.835 167.534 266.081 165.786C267.345 163.991 268.396 161.955 268.824 159.788C269.224 157.752 269.028 155.576 267.81 153.837C266.657 152.191 264.835 151.177 262.92 150.693C261.907 150.442 260.893 150.377 259.861 150.321C259.229 150.294 258.736 150.154 258.439 149.55C258.197 149.047 258.095 148.471 257.946 147.941C257.379 145.942 256.644 143.979 255.715 142.129C253.911 138.549 251.233 135.257 247.598 133.425C243.219 131.221 238.17 131.453 233.475 132.281C229.059 133.053 224.652 134.29 220.682 136.4C216.721 138.502 213.337 141.543 211.18 145.504C210.343 147.048 209.618 148.694 208.977 150.331C208.14 152.47 207.656 154.739 207.842 157.045C207.935 158.114 208.149 159.165 208.484 160.188C208.558 160.011 208.623 159.835 208.698 159.667C203.473 163.006 198.592 167.218 195.468 172.649C192.567 177.689 191.47 183.724 193.004 189.397C193.822 192.419 195.412 195.209 197.727 197.32C198.155 197.738 198.815 197.087 198.368 196.678Z" fill="#222222"/>
<path d="M219.176 205.438C219.985 204.154 220.933 202.964 222.002 201.895C222.43 201.467 221.77 200.816 221.342 201.234C220.217 202.36 219.213 203.615 218.367 204.963C218.06 205.475 218.86 205.94 219.176 205.438Z" fill="#222222"/>
<path d="M221.063 205.969C221.342 205.513 221.64 205.058 221.947 204.621C222.272 204.174 222.532 203.83 222.886 203.402C223.044 203.217 223.081 202.928 222.886 202.742C222.709 202.584 222.393 202.547 222.225 202.742C221.5 203.607 220.84 204.528 220.254 205.495C220.124 205.699 220.199 206.016 220.422 206.127C220.654 206.248 220.924 206.192 221.063 205.969Z" fill="#222222"/>
<path d="M223.434 206.787C223.834 205.848 224.317 204.936 224.884 204.081C225.015 203.876 224.931 203.56 224.717 203.449C224.485 203.328 224.224 203.402 224.085 203.616C223.527 204.471 223.044 205.383 222.634 206.322C222.542 206.545 222.56 206.833 222.802 206.954C222.997 207.057 223.332 207.029 223.434 206.787Z" fill="#222222"/>
<path d="M249.95 289.476C247.905 300.44 246.166 311.459 244.744 322.516C243.312 333.573 242.196 344.667 241.397 355.789C240.941 362.047 240.588 368.315 240.337 374.592C240.309 375.187 241.239 375.187 241.266 374.592C241.722 363.489 242.475 352.404 243.544 341.347C244.623 330.253 246.008 319.196 247.7 308.177C248.649 302.011 249.699 295.855 250.843 289.727C250.954 289.141 250.062 288.89 249.95 289.476Z" fill="#222222"/>
<path d="M283.012 263.66C281.933 274.001 281.003 284.351 280.232 294.711C279.46 305.079 278.846 315.448 278.391 325.835C278.13 331.684 277.926 337.524 277.768 343.374C277.749 343.969 278.679 343.969 278.698 343.374C278.977 332.986 279.413 322.599 280.009 312.221C280.604 301.843 281.357 291.474 282.258 281.124C282.77 275.294 283.328 269.472 283.941 263.651C283.997 263.065 283.067 263.065 283.012 263.66Z" fill="#222222"/>
<path d="M312.81 286.704C312.326 296.366 311.843 306.019 311.359 315.681C310.876 325.38 310.383 335.079 309.899 344.778C309.63 350.227 309.351 355.677 309.081 361.126C309.053 361.721 309.983 361.721 310.011 361.126C310.495 351.464 310.978 341.811 311.461 332.15C311.945 322.45 312.438 312.751 312.921 303.052C313.191 297.603 313.47 292.154 313.739 286.704C313.767 286.109 312.837 286.109 312.81 286.704Z" fill="#222222"/>
<path d="M126.481 372.165C129.596 375.448 133.426 377.996 137.75 379.372C141.822 380.664 146.173 380.897 150.394 380.339C159.347 379.177 167.78 374.88 174.911 369.477C178.779 366.548 182.358 363.228 185.454 359.499C185.836 359.044 185.175 358.383 184.794 358.839C179.299 365.479 172.271 370.984 164.572 374.843C157.014 378.628 148.116 380.99 139.702 378.953C134.84 377.772 130.553 375.122 127.123 371.505C126.723 371.068 126.063 371.728 126.481 372.165Z" fill="#222222"/>
<path d="M242.559 239.976C248.239 236.489 255.027 235.54 261.59 236.089C264.919 236.368 268.229 237.028 271.427 238.004C274.728 239.009 277.963 240.431 280.706 242.561C283.523 244.737 285.81 247.648 286.879 251.061C287.056 251.628 287.958 251.386 287.772 250.809C285.699 244.216 279.776 239.966 273.51 237.716C266.992 235.382 259.722 234.396 252.851 235.382C249.048 235.931 245.357 237.158 242.085 239.167C241.573 239.492 242.047 240.292 242.559 239.976Z" fill="#222222"/>
<path d="M212.882 238.99C214.667 243.416 218.376 246.792 222.811 248.466C225.359 249.433 228.129 249.824 230.853 249.731C233.215 249.647 235.595 249.247 237.752 248.252C239.862 247.276 241.703 245.648 242.326 243.351C242.484 242.775 241.582 242.524 241.434 243.1C240.309 247.248 235.214 248.531 231.486 248.764C226.707 249.061 221.788 247.787 218.107 244.635C216.238 243.035 214.722 241.027 213.793 238.739C213.551 238.2 212.658 238.432 212.882 238.99Z" fill="#222222"/>
<path d="M177.04 338.045C177.71 345.94 180.164 353.631 184.301 360.391C184.618 360.903 185.417 360.438 185.101 359.926C181.047 353.315 178.621 345.782 177.97 338.055C177.914 337.459 176.984 337.45 177.04 338.045Z" fill="#222222"/>
<path d="M180.954 352.943C183.883 352.273 188.132 350.832 192.111 347.484C193.171 346.601 194.073 345.69 194.845 344.806C198.285 341.589 200.126 336.669 199.41 331.992C201.901 332.075 205.825 331.899 210.325 330.374C214.704 328.886 217.865 326.719 219.789 325.175C222.235 317.931 204.942 321.372 201.948 322.386C207.638 318.331 215.159 318.499 220.97 314.714C224.447 312.445 224.624 309.794 220.059 309.367C215.68 308.957 211.022 309.664 206.838 310.929C209.693 309.515 211.022 309.674 206.838 310.929C211.97 308.651 217.549 305.861 223.127 303.071C224.057 302.141 224.987 301.211 224.057 300.281C222.198 298.421 219.408 297.492 216.619 298.421C209.181 301.211 200.814 304.001 194.305 309.581C189.657 315.16 189.657 323.529 187.862 330.374L187.788 329.314C187.723 333.08 185.445 336.409 183.167 339.403C181.624 341.43 180.043 342.993 178.667 344.118C178.835 345.169 179.048 346.275 179.318 347.419C179.792 349.446 180.359 351.297 180.954 352.943Z" fill="#F7B376"/>
<path d="M181.085 353.389C184.924 352.506 188.56 350.85 191.674 348.433C192.595 347.716 193.459 346.945 194.268 346.117C194.993 345.373 195.756 344.62 196.416 343.82C197.708 342.267 198.694 340.482 199.307 338.557C200.005 336.399 200.181 334.112 199.856 331.871C199.707 332.066 199.558 332.261 199.41 332.456C203.938 332.596 208.475 331.75 212.658 329.973C214.657 329.127 216.573 328.076 218.358 326.83C218.674 326.607 218.99 326.375 219.306 326.142C219.585 325.938 220.013 325.705 220.199 325.408C220.459 324.998 220.515 324.273 220.496 323.799C220.431 321.688 218.376 320.786 216.573 320.46C213.988 319.995 211.292 320.219 208.707 320.544C206.411 320.842 204.031 321.195 201.827 321.93C201.948 322.209 202.069 322.497 202.19 322.776C207.285 319.186 213.774 318.917 219.269 316.201C220.533 315.578 221.816 314.834 222.811 313.821C223.443 313.179 224.048 312.324 224.001 311.375C223.88 308.901 220.087 308.836 218.376 308.78C214.434 308.66 210.483 309.338 206.708 310.464C206.829 310.743 206.95 311.031 207.071 311.31C207.619 311.04 208.177 310.789 208.754 310.585C208.921 310.519 209.098 310.473 209.274 310.417C209.321 310.408 209.404 310.399 209.442 310.38C209.497 310.343 209.423 310.436 209.265 310.324C209.191 310.231 209.125 310.138 209.051 310.045V310.055C209.07 309.934 209.079 309.813 209.098 309.692C209.191 309.515 209.191 309.608 209.023 309.673C208.874 309.729 208.726 309.794 208.577 309.85C207.963 310.082 207.331 310.278 206.708 310.464C206.829 310.743 206.95 311.031 207.071 311.31C209.72 310.129 212.342 308.892 214.946 307.627C216.312 306.967 217.67 306.288 219.027 305.619C220.431 304.921 221.9 304.289 223.257 303.508C223.759 303.22 224.234 302.624 224.55 302.141C224.857 301.676 225.005 301.118 224.81 300.579C224.447 299.584 223.081 298.793 222.179 298.365C221.119 297.854 219.966 297.575 218.785 297.584C217.512 297.594 216.377 298.012 215.197 298.449C210.39 300.234 205.546 301.992 201.037 304.447C198.759 305.684 196.583 307.097 194.584 308.734C192.827 310.175 191.749 312.491 190.949 314.574C189.034 319.605 188.755 325.063 187.407 330.243C187.714 330.28 188.011 330.327 188.318 330.364C188.29 330.011 188.271 329.657 188.244 329.304C188.206 328.709 187.332 328.699 187.314 329.304C187.212 332.921 185.101 336.046 183 338.836C181.912 340.268 180.722 341.625 179.402 342.844C178.946 343.262 178.147 343.643 178.23 344.322C178.351 345.252 178.565 346.182 178.77 347.093C179.225 349.111 179.802 351.101 180.508 353.045C180.713 353.603 181.605 353.361 181.401 352.794C180.369 349.93 179.606 346.973 179.114 343.969C179.076 344.118 179.03 344.266 178.993 344.425C181.326 342.5 183.26 340.156 184.98 337.673C186.719 335.181 188.16 332.391 188.244 329.285C187.937 329.285 187.621 329.285 187.314 329.285C187.342 329.639 187.36 329.992 187.388 330.345C187.425 330.848 188.16 331.006 188.299 330.466C189.415 326.161 189.806 321.697 190.986 317.41C191.572 315.281 192.362 313.198 193.562 311.329C193.841 310.901 194.138 310.482 194.454 310.082C194.826 309.617 195.375 309.245 195.84 308.883C196.844 308.102 197.885 307.386 198.963 306.707C203.045 304.149 207.508 302.299 211.998 300.606C213.086 300.197 214.174 299.797 215.262 299.388C216.387 298.97 217.465 298.523 218.683 298.496C219.873 298.468 221.054 298.775 222.095 299.36C222.579 299.63 223.044 299.956 223.453 300.337C223.667 300.532 223.955 300.755 223.964 301.081C223.973 301.453 223.639 301.806 223.415 302.066C222.82 302.755 222.03 303.08 221.221 303.48C220.533 303.824 219.845 304.168 219.157 304.512C217.726 305.219 216.294 305.935 214.862 306.632C212.119 307.971 209.367 309.273 206.587 310.519C206.104 310.733 206.448 311.524 206.95 311.366C207.768 311.115 208.605 310.873 209.386 310.519C209.748 310.361 210.25 309.934 209.767 309.552C209.479 309.32 209.023 309.515 208.716 309.608C207.982 309.85 207.275 310.166 206.587 310.51C206.113 310.743 206.448 311.505 206.95 311.356C210.074 310.426 213.3 309.813 216.563 309.71C218.07 309.664 219.687 309.645 221.166 309.989C221.872 310.157 222.969 310.501 223.053 311.366C223.137 312.184 222.365 312.956 221.816 313.458C220.794 314.379 219.52 315.048 218.283 315.625C215.736 316.806 212.984 317.485 210.297 318.256C207.285 319.121 204.291 320.144 201.706 321.958C201.306 322.237 201.53 322.99 202.069 322.804C203.779 322.237 205.602 321.92 207.378 321.641C209.851 321.251 212.398 320.99 214.908 321.167C216.377 321.269 218.897 321.52 219.455 323.194C219.576 323.557 219.576 323.957 219.511 324.338C219.492 324.45 219.464 324.561 219.436 324.673C219.418 324.747 219.315 324.943 219.362 324.887C219.129 325.156 218.73 325.38 218.451 325.584C216.898 326.728 215.234 327.723 213.495 328.551C209.116 330.643 204.254 331.638 199.41 331.489C199.075 331.48 198.917 331.796 198.963 332.075C199.521 335.925 198.313 339.961 195.867 342.974C195.272 343.708 194.584 344.369 193.943 345.057C193.208 345.838 192.437 346.573 191.609 347.252C189.945 348.619 188.095 349.753 186.142 350.655C184.441 351.436 182.647 352.022 180.824 352.45C180.257 352.626 180.499 353.528 181.085 353.389Z" fill="#222222"/>
<path d="M176.12 324.524C175.99 329.592 176.501 334.66 177.617 339.598C177.747 340.184 178.649 339.933 178.509 339.347C177.403 334.483 176.919 329.508 177.04 324.514C177.068 323.929 176.138 323.929 176.12 324.524Z" fill="#222222"/>
<path d="M176.445 324.999C178.658 329.602 180.322 334.438 181.429 339.422C181.559 340.008 182.451 339.757 182.321 339.171C181.196 334.112 179.485 329.202 177.245 324.525C176.984 323.985 176.185 324.46 176.445 324.999Z" fill="#222222"/>
<path d="M185.64 358.642C185.696 357.322 185.891 356.02 186.198 354.737C186.338 354.151 185.445 353.909 185.306 354.486C184.971 355.843 184.776 357.238 184.711 358.633C184.701 358.884 184.934 359.098 185.175 359.098C185.436 359.107 185.622 358.903 185.64 358.642Z" fill="#222222"/>
<path d="M249.978 181.985C247.933 182.59 246.668 185.184 246.966 186.691C247.003 186.867 247.133 187.63 247.44 187.593C247.589 187.574 247.7 187.462 247.802 187.36C249.048 186.133 250.164 184.775 251.14 183.324C251.633 182.59 251.559 182.227 251.419 182.05C251.122 181.641 250.099 181.948 249.978 181.985Z" fill="white"/>
<path d="M246.092 191.377C246.213 191.851 246.399 192.223 246.547 192.465C247.291 191.842 247.18 190.698 247.003 189.74C246.975 189.61 246.956 189.471 246.863 189.378C246.677 189.173 246.306 189.275 246.148 189.508C245.989 189.74 245.98 190.038 245.98 190.317C245.98 190.587 245.989 190.949 246.092 191.377Z" fill="white"/>
<path d="M282.863 183.502C282.733 184.273 282.919 184.934 283.105 185.362C284.378 184.608 285.299 183.399 286.182 182.218C286.461 181.846 286.749 181.335 286.479 180.954C286.247 180.628 285.531 180.814 285.336 180.861C284.285 181.121 283.105 182.097 282.863 183.502Z" fill="white"/>
<path d="M280.538 188.123C280.353 188.523 280.167 188.923 280.353 189.137C280.529 189.341 280.994 189.304 281.245 189.099C281.366 188.997 281.422 188.895 281.505 188.662C281.589 188.421 281.682 188.16 281.654 187.9C281.636 187.667 281.422 187.351 281.199 187.333C280.91 187.314 280.697 187.779 280.538 188.123Z" fill="white"/>
<path d="M197.392 188.031C196.081 182.916 197.281 177.281 200.6 173.17C200.972 172.705 200.321 172.045 199.94 172.51C196.407 176.89 195.096 182.814 196.5 188.272C196.639 188.858 197.541 188.616 197.392 188.031Z" fill="white"/>
<path d="M152.439 234.229C149.12 230.407 146.08 226.055 145.215 220.959C144.797 218.495 144.927 215.919 145.783 213.567C146.582 211.353 148.06 209.493 149.799 207.94C151.779 206.174 154.067 204.788 156.335 203.43C156.846 203.123 156.382 202.314 155.87 202.631C151.761 205.086 147.289 207.838 145.262 212.395C143.096 217.277 144.109 222.884 146.517 227.478C147.93 230.175 149.799 232.602 151.789 234.89C152.179 235.336 152.83 234.676 152.439 234.229Z" fill="white"/>
<path d="M247.877 137.767C251.819 141.45 254.301 146.555 254.748 151.939C254.775 152.293 255.119 152.516 255.445 152.339C257.09 151.484 259.21 152.32 259.935 153.985C260.177 154.534 260.977 154.059 260.735 153.52C259.796 151.372 257.025 150.479 254.971 151.539C255.203 151.67 255.436 151.809 255.668 151.939C255.203 146.313 252.646 140.975 248.528 137.116C248.091 136.698 247.44 137.358 247.877 137.767Z" fill="white"/>
<path d="M143.44 244.765C141.608 247.545 140.939 250.911 140.874 254.203C140.818 257.058 141.273 260.015 142.612 262.563C143.347 263.967 144.369 265.186 145.643 266.134C146.117 266.497 146.582 265.688 146.108 265.334C143.328 263.233 142.138 259.708 141.868 256.351C141.562 252.567 142.119 248.456 144.239 245.239C144.565 244.737 143.765 244.272 143.44 244.765Z" fill="white"/>
<path d="M213.04 293.605C215.299 284.194 217.567 274.792 219.827 265.381C219.966 264.795 219.074 264.554 218.934 265.13C216.675 274.541 214.406 283.943 212.147 293.353C212.008 293.939 212.9 294.19 213.04 293.605Z" fill="white"/>
<path d="M265.365 275.387C268.563 271.137 272.45 267.436 276.838 264.432C277.331 264.097 276.866 263.288 276.373 263.632C271.845 266.729 267.866 270.542 264.566 274.922C264.203 275.396 265.012 275.861 265.365 275.387Z" fill="white"/>
<path d="M318.379 282.64C322.665 276.809 327.843 271.648 333.682 267.37C334.156 267.017 333.701 266.217 333.217 266.571C327.239 270.941 321.967 276.205 317.579 282.175C317.217 282.649 318.025 283.114 318.379 282.64Z" fill="white"/>
<path d="M179.922 248.846C186.049 244.829 193.692 243.35 200.869 244.82C201.455 244.941 201.706 244.039 201.12 243.927C193.701 242.411 185.798 243.899 179.458 248.047C178.955 248.372 179.42 249.181 179.922 248.846Z" fill="white"/>
<path d="M188.281 164.884C188.476 163.312 189.452 161.871 190.8 161.062C191.312 160.755 190.847 159.955 190.336 160.262C188.681 161.248 187.593 162.978 187.351 164.884C187.323 165.135 187.583 165.349 187.816 165.349C188.095 165.349 188.253 165.135 188.281 164.884Z" fill="white"/>
<path d="M193.115 169.227C192.799 170.566 192.623 171.933 192.576 173.3C192.558 173.895 193.487 173.895 193.506 173.3C193.552 172.007 193.72 170.733 194.017 169.468C194.147 168.892 193.246 168.641 193.115 169.227Z" fill="white"/>
<path d="M126.435 344.146C126.035 337.209 127.746 330.253 131.325 324.293C131.632 323.781 130.832 323.307 130.526 323.828C126.872 329.919 125.105 337.06 125.514 344.146C125.533 344.742 126.463 344.751 126.435 344.146Z" fill="white"/>
<path d="M137.898 351.204C140.334 344.704 145.913 339.543 152.57 337.599C153.146 337.432 152.895 336.53 152.319 336.706C145.327 338.752 139.553 344.146 136.997 350.962C136.792 351.511 137.685 351.753 137.898 351.204Z" fill="white"/>
<path d="M299.682 214.422C299.812 219.099 301.123 223.684 303.512 227.72C303.819 228.231 304.619 227.766 304.312 227.255C302.006 223.368 300.732 218.95 300.611 214.431C300.593 213.827 299.663 213.827 299.682 214.422Z" fill="white"/>
<path d="M236.33 187.045C236.59 184.636 237.752 182.376 239.518 180.73C239.955 180.321 239.295 179.661 238.858 180.07C236.906 181.902 235.688 184.394 235.4 187.045C235.372 187.296 235.632 187.51 235.865 187.51C236.134 187.51 236.302 187.296 236.33 187.045Z" fill="white"/>
<path d="M273.063 182.236C274.068 180.367 275.629 178.861 277.517 177.894C278.047 177.624 277.582 176.824 277.052 177.094C275.034 178.117 273.342 179.772 272.264 181.771C271.976 182.292 272.775 182.766 273.063 182.236Z" fill="white"/>
</g>
<defs>
<clipPath id="clip0">
<rect width="470" height="478" fill="white"/>
</clipPath>
</defs>
</svg>
