<svg width="35" height="37" viewBox="0 0 35 37" fill="none" xmlns="http://www.w3.org/2000/svg">
<path d="M22.1571 29.4412C22.1571 28.9796 22.2908 28.5284 22.5411 28.1447C22.7915 27.7609 23.1473 27.4618 23.5637 27.2852C23.98 27.1087 24.4381 27.0625 24.88 27.1526C25.3219 27.2427 25.7278 27.4651 26.0464 27.7915C26.365 28.1179 26.5819 28.5338 26.6696 28.9865C26.7574 29.4392 26.7122 29.9084 26.5396 30.3348C26.367 30.7612 26.0749 31.1255 25.7002 31.3818C25.3254 31.6381 24.8849 31.7748 24.4343 31.7746C23.8302 31.7743 23.251 31.5284 22.824 31.0908C22.397 30.6532 22.1571 30.0599 22.1571 29.4412ZM8.48865 29.4412C8.48865 28.9796 8.62229 28.5284 8.87265 28.1447C9.12301 27.7609 9.47885 27.4618 9.89517 27.2852C10.3115 27.1087 10.7696 27.0625 11.2115 27.1526C11.6535 27.2427 12.0594 27.4651 12.3779 27.7915C12.6965 28.1179 12.9134 28.5338 13.0012 28.9865C13.089 29.4392 13.0437 29.9084 12.8711 30.3348C12.6986 30.7612 12.4064 31.1255 12.0317 31.3818C11.6569 31.6381 11.2164 31.7748 10.7658 31.7746C10.1616 31.7746 9.58215 31.5288 9.15493 31.0912C8.72771 30.6536 8.48769 30.06 8.48769 29.4412H8.48865ZM20.7143 28.6643H14.4858C14.3107 27.7861 13.8448 26.9968 13.1669 26.43C12.4891 25.8631 11.6408 25.5535 10.7658 25.5535C9.89071 25.5535 9.0425 25.8631 8.36464 26.43C7.68678 26.9968 7.22089 27.7861 7.04577 28.6643H4.64001V23.9955H7.72833V22.4398H4.64001V14.6646H21.8423L19.8791 16.6755V22.4418H30.56V23.9974H28.9904V25.5531H30.56V28.6633H28.1543C27.9791 27.7851 27.5133 26.9958 26.8354 26.429C26.1575 25.8621 25.3093 25.5525 24.4343 25.5525C23.5592 25.5525 22.711 25.8621 22.0331 26.429C21.3553 26.9958 20.8894 27.7851 20.7143 28.6633V28.6643ZM10.7658 20.8842H12.2835V22.4398H13.8032V20.8842H15.3219V19.3295H13.8032V17.7739H12.2835V19.3295H10.7658V20.8842ZM21.3968 20.8842V17.3196L23.9888 14.6646H24.1885L26.6183 20.8881L21.3968 20.8842ZM13.8032 13.106V12.2761C13.8032 11.6571 14.0433 11.0634 14.4706 10.6257C14.8979 10.188 15.4775 9.94215 16.0818 9.94215C16.6861 9.94215 17.2656 10.188 17.693 10.6257C18.1203 11.0634 18.3603 11.6571 18.3603 12.2761V13.106H13.8032ZM19.3415 9.39296L21.6195 7.05951L22.6938 8.15986L20.4147 10.4933L19.3415 9.39296ZM9.46882 8.15986L10.5431 7.05951L12.8221 9.39296L11.744 10.4933L9.46882 8.15986ZM15.3248 8.38799V5.22461H16.8435V8.38799H15.3248Z" fill="white"/>
</svg>
