<svg width="24" height="24" viewBox="0 0 24 24" fill="none" xmlns="http://www.w3.org/2000/svg">
<path fill="white"
     d="M13.2502 16.5625C13.2502 15.6972 13.5068 14.8513 13.9875 14.1319C14.4683 13.4124 15.1515 12.8517 15.951 12.5205C16.7504 12.1894 17.6301 12.1028 18.4787 12.2716C19.3274 12.4404 20.1069 12.8571 20.7188 13.4689C21.3307 14.0808 21.7473 14.8603 21.9161 15.709C22.085 16.5576 21.9983 17.4373 21.6672 18.2367C21.3361 19.0362 20.7753 19.7194 20.0558 20.2002C19.3364 20.6809 18.4905 20.9375 17.6252 20.9375C17.0491 20.9432 16.4776 20.834 15.9442 20.6161C15.4108 20.3983 14.9263 20.0763 14.5188 19.6689C14.1114 19.2615 13.7894 18.7769 13.5716 18.2435C13.3537 17.7101 13.2445 17.1386 13.2502 16.5625ZM1.00021 16.5625C0.994484 15.9864 1.10373 15.4149 1.32157 14.8815C1.5394 14.3481 1.86145 13.8635 2.26885 13.4561C2.67625 13.0487 3.16083 12.7267 3.69422 12.5089C4.22761 12.291 4.79909 12.1818 5.37521 12.1875C6.53554 12.1875 7.64833 12.6484 8.46881 13.4689C9.28928 14.2894 9.75021 15.4022 9.75021 16.5625C9.75021 17.7228 9.28928 18.8356 8.46881 19.6561C7.64833 20.4766 6.53554 20.9375 5.37521 20.9375C4.79912 20.9431 4.22769 20.8338 3.69436 20.6159C3.16102 20.398 2.67649 20.076 2.26912 19.6686C1.86174 19.2612 1.53969 18.7767 1.32181 18.2434C1.10393 17.71 0.994603 17.1386 1.00021 16.5625ZM10.6252 18.3125V13.9375L7.82521 11.4875C7.64728 11.3392 7.50696 11.1509 7.41571 10.938C7.32447 10.7251 7.28489 10.4936 7.30021 10.2625C7.30213 10.0337 7.34954 9.80757 7.43967 9.59727C7.5298 9.38696 7.66086 9.19668 7.82521 9.0375L10.2752 6.5875C10.4234 6.40946 10.6117 6.26906 10.8246 6.1778C11.0376 6.08655 11.2691 6.04704 11.5002 6.0625C12.0148 6.06373 12.5117 6.25009 12.9002 6.5875L14.5627 8.25C14.9721 8.6699 15.4622 9.00265 16.0036 9.2282C16.5449 9.45376 17.1263 9.56748 17.7127 9.5625V11.3125C16.8832 11.3244 16.06 11.1676 15.2929 10.8518C14.5258 10.5359 13.8308 10.0675 13.2502 9.475L12.5502 8.775L10.4502 10.875L12.3752 12.8875V18.3125H10.6252ZM12.8127 4.75C12.8127 4.40388 12.9153 4.06554 13.1076 3.77775C13.2999 3.48997 13.5732 3.26566 13.893 3.13321C14.2128 3.00076 14.5647 2.9661 14.9041 3.03363C15.2436 3.10115 15.5554 3.26782 15.8001 3.51256C16.0449 3.75731 16.2116 4.06913 16.2791 4.40859C16.3466 4.74806 16.312 5.09993 16.1795 5.4197C16.047 5.73947 15.8227 6.01278 15.535 6.20507C15.2472 6.39736 14.9088 6.5 14.5627 6.5C14.099 6.49862 13.6547 6.3138 13.3268 5.98591C12.9989 5.65802 12.8141 5.2137 12.8127 4.75Z" />
</svg>
