<svg width="24" height="24" viewBox="0 0 24 24" fill="none" xmlns="http://www.w3.org/2000/svg">
<path d="M5.74998 20.0002C5.64996 20.006 5.54985 19.9906 5.45623 19.955C5.3626 19.9193 5.27757 19.8643 5.20673 19.7935C5.1359 19.7226 5.08085 19.6376 5.04522 19.544C5.00958 19.4503 4.99416 19.3502 4.99998 19.2502V7.25022C4.99416 7.15021 5.00958 7.0501 5.04522 6.95647C5.08085 6.86284 5.1359 6.77782 5.20673 6.70698C5.27757 6.63614 5.3626 6.58109 5.45623 6.54546C5.54985 6.50982 5.64996 6.49441 5.74998 6.50022H7.24998V5.75022C7.24416 5.65021 7.25958 5.5501 7.29522 5.45647C7.33085 5.36284 7.3859 5.27782 7.45673 5.20698C7.52757 5.13614 7.6126 5.08109 7.70623 5.04546C7.79985 5.00982 7.89996 4.99441 7.99998 5.00022C8.09999 4.99441 8.2001 5.00982 8.29372 5.04546C8.38735 5.08109 8.47238 5.13614 8.54322 5.20698C8.61406 5.27782 8.6691 5.36284 8.70474 5.45647C8.74037 5.5501 8.75579 5.65021 8.74998 5.75022V6.50022H16.25V5.75022C16.25 5.55131 16.329 5.36054 16.4696 5.21989C16.6103 5.07924 16.8011 5.00022 17 5.00022C17.1989 5.00022 17.3897 5.07924 17.5303 5.21989C17.671 5.36054 17.75 5.55131 17.75 5.75022V6.50022H19.25C19.4487 6.50075 19.6392 6.57993 19.7797 6.72047C19.9203 6.86101 19.9994 7.05147 20 7.25022V19.2502C19.9994 19.449 19.9203 19.6394 19.7797 19.78C19.6392 19.9205 19.4487 19.9997 19.25 20.0002H5.74998ZM6.49998 18.5002H18.5V9.50022H6.49998V18.5002ZM14.75 16.2502V14.7502H16.25V16.2502H14.75ZM11.75 16.2502V14.7502H13.25V16.2502H11.75ZM8.74998 16.2502V14.7502H10.25V16.2502H8.74998ZM14.75 13.2502V11.7502H16.25V13.2502H14.75ZM11.75 13.2502V11.7502H13.25V13.2502H11.75ZM8.74998 13.2502V11.7502H10.25V13.2502H8.74998Z" fill="#222222"/>
</svg>
