<svg width="31" height="31" viewBox="0 0 31 31" fill="none" xmlns="http://www.w3.org/2000/svg">
<path d="M20.7538 12.2795C20.6331 12.1588 20.4694 12.0909 20.2987 12.0909C20.128 12.0909 19.9643 12.1588 19.8436 12.2795L15.6913 16.431L11.5404 12.2795C11.4186 12.1637 11.2563 12.1001 11.0883 12.1022C10.9203 12.1044 10.7597 12.1721 10.6409 12.2909C10.5221 12.4097 10.4544 12.5703 10.4522 12.7383C10.4501 12.9063 10.5137 13.0686 10.6295 13.1904L15.6913 18.2522L20.7531 13.1904C20.8737 13.0695 20.9414 12.9057 20.9414 12.7349C20.9414 12.5642 20.8737 12.4004 20.7531 12.2795" fill="#909090"/>
</svg>
