<svg width="44" height="44" viewBox="0 0 44 44" fill="none" xmlns="http://www.w3.org/2000/svg">
<path d="M17.2765 14.891C17.0995 15.068 17 15.3081 17 15.5585C17 15.8088 17.0995 16.049 17.2765 16.226L23.3655 22.316L17.2765 28.404C17.1067 28.5826 17.0134 28.8206 17.0165 29.067C17.0197 29.3135 17.119 29.5489 17.2933 29.7232C17.4675 29.8975 17.703 29.9968 17.9495 29.9999C18.1959 30.0031 18.4338 29.9098 18.6125 29.74L26.0365 22.316L18.6125 14.892C18.4351 14.7151 18.1949 14.6158 17.9445 14.6158C17.694 14.6158 17.4538 14.7151 17.2765 14.892" fill="#001729"/>
</svg>
