<svg width="44" height="44" viewBox="0 0 44 44" fill="none" xmlns="http://www.w3.org/2000/svg">
<path d="M26.7235 29.109C26.9005 28.932 27 28.6919 27 28.4415C27 28.1912 26.9005 27.951 26.7235 27.774L20.6345 21.684L26.7235 15.596C26.8933 15.4174 26.9866 15.1794 26.9835 14.933C26.9803 14.6865 26.881 14.4511 26.7067 14.2768C26.5325 14.1025 26.297 14.0032 26.0505 14.0001C25.8041 13.9969 25.5662 14.0902 25.3875 14.26L17.9635 21.684L25.3875 29.108C25.5649 29.2849 25.8051 29.3842 26.0555 29.3842C26.306 29.3842 26.5462 29.2849 26.7235 29.108" fill="#B5B5B5"/>
</svg>
