<svg width="44" height="44" viewBox="0 0 44 44" fill="none" xmlns="http://www.w3.org/2000/svg">
<path d="M29.109 17.2765C28.932 17.0995 28.6919 17 28.4415 17C28.1912 17 27.951 17.0995 27.774 17.2765L21.684 23.3655L15.596 17.2765C15.4174 17.1067 15.1794 17.0134 14.933 17.0165C14.6865 17.0197 14.4511 17.119 14.2768 17.2933C14.1025 17.4675 14.0032 17.703 14.0001 17.9495C13.9969 18.1959 14.0902 18.4338 14.26 18.6125L21.684 26.0365L29.108 18.6125C29.2849 18.4351 29.3842 18.1949 29.3842 17.9445C29.3842 17.694 29.2849 17.4538 29.108 17.2765" fill="#001729"/>
</svg>
