<svg width="24" height="24" viewBox="0 0 24 24" fill="none" xmlns="http://www.w3.org/2000/svg">
<path d="M10.0726 9.3283C9.976 9.42486 9.92175 9.55583 9.92175 9.69239C9.92175 9.82895 9.976 9.95992 10.0726 10.0565L13.3938 13.3783L10.0726 16.699C9.97995 16.7965 9.92907 16.9263 9.93078 17.0607C9.93249 17.1951 9.98665 17.3235 10.0817 17.4186C10.1768 17.5137 10.3052 17.5678 10.4396 17.5695C10.5741 17.5712 10.7038 17.5204 10.8013 17.4278L14.8507 13.3783L10.8013 9.32885C10.7046 9.23239 10.5735 9.17822 10.4369 9.17822C10.3003 9.17822 10.1693 9.23239 10.0726 9.32885" fill="#DA3463"/>
</svg>
