<svg width="14" height="14" viewBox="0 0 14 14" fill="none" xmlns="http://www.w3.org/2000/svg">
<path d="M3.63955 6.00176C4.92771 6.00176 5.97197 4.9575 5.97197 3.66934C5.97197 2.38117 4.92771 1.33691 3.63955 1.33691C2.35139 1.33691 1.30713 2.38117 1.30713 3.66934C1.30713 4.9575 2.35139 6.00176 3.63955 6.00176Z" fill="url(#paint0_linear)"/>
<path d="M6.84964 1.99313C6.77855 1.85641 6.60902 1.80445 6.4723 1.87555L5.97738 2.13531C5.84066 2.20641 5.78871 2.37594 5.8598 2.51266C5.9309 2.64938 6.10043 2.70133 6.23715 2.63024L6.73207 2.37047C6.86878 2.29938 6.92074 2.12985 6.84964 1.99313Z" fill="url(#paint1_linear)"/>
<path d="M1.41642 4.84249C1.34532 4.70577 1.17579 4.65382 1.03907 4.72491L0.544152 4.98468C0.407433 5.05577 0.35548 5.2253 0.426574 5.36202C0.497668 5.49874 0.667199 5.5507 0.803918 5.4796L1.29884 5.21984C1.43282 5.14874 1.48751 4.97921 1.41642 4.84249Z" fill="url(#paint2_linear)"/>
<path d="M7.10127 4.75759C7.14775 4.60993 7.06572 4.45407 6.91806 4.40759L6.38486 4.24079C6.2372 4.19431 6.08134 4.27634 6.03486 4.424C5.98838 4.57165 6.07041 4.72751 6.21806 4.774L6.75127 4.94079C6.89892 4.98728 7.05478 4.90525 7.10127 4.75759Z" fill="url(#paint3_linear)"/>
<path d="M1.24148 2.93117C1.28796 2.78352 1.20593 2.62766 1.05827 2.58117L0.52507 2.41438C0.380148 2.36789 0.221554 2.44992 0.177804 2.59758C0.13132 2.74524 0.213351 2.9011 0.361007 2.94758L0.89421 3.11438C1.03913 3.15813 1.19499 3.07883 1.24148 2.93117Z" fill="url(#paint4_linear)"/>
<path d="M1.95516 0.467577C1.81844 0.538671 1.76649 0.708202 1.83758 0.844921L2.09735 1.33984C2.16844 1.47656 2.33797 1.52851 2.47469 1.45742C2.61141 1.38633 2.66337 1.2168 2.59227 1.08008L2.33251 0.585155C2.25868 0.448436 2.09188 0.393749 1.95516 0.467577Z" fill="url(#paint5_linear)"/>
<path d="M4.80441 5.9007C4.66769 5.97179 4.61573 6.14132 4.68683 6.27804L4.94659 6.77296C5.01769 6.90968 5.18722 6.96163 5.32394 6.89054C5.46066 6.81944 5.51261 6.64991 5.44152 6.51319L5.18175 6.01827C5.11066 5.88155 4.94112 5.8296 4.80441 5.9007Z" fill="url(#paint6_linear)"/>
<path d="M2.55949 7.13923C2.70715 7.18572 2.86301 7.10368 2.90949 6.95603L3.07629 6.42282C3.12277 6.27517 3.04074 6.11931 2.89309 6.07282C2.74543 6.02634 2.58957 6.10837 2.54309 6.25603L2.37629 6.78923C2.32981 6.93689 2.41184 7.09275 2.55949 7.13923Z" fill="url(#paint7_linear)"/>
<path d="M4.38603 1.2823C4.53369 1.32878 4.68955 1.24675 4.73603 1.09909L4.90283 0.56589C4.94931 0.418234 4.86728 0.262374 4.71962 0.21589C4.57197 0.169406 4.41611 0.251437 4.36963 0.399093L4.20283 0.932296C4.15634 1.07995 4.23838 1.23581 4.38603 1.2823Z" fill="url(#paint8_linear)"/>
<path opacity="0.5" d="M3.53557 5.99097C4.13987 6.01011 4.83987 5.79136 5.25549 5.33472C4.81252 5.56167 4.23284 5.8269 3.56838 5.80503C2.90393 5.78315 2.54846 5.63003 2.17932 5.46597C2.48557 5.71753 2.92307 5.97183 3.53557 5.99097Z" fill="#D58128"/>
<path opacity="0.2" d="M3.7407 1.31781C3.14187 1.29866 2.45007 1.51741 2.03992 1.97406C2.47742 1.7471 3.05164 1.48187 3.71062 1.50101C4.3696 1.52288 4.71687 1.67601 5.08328 1.84007C4.77703 1.59124 4.34773 1.33695 3.7407 1.31781Z" fill="#D58128"/>
<path d="M11.3941 4.85078C11.066 4.85078 10.7516 4.91914 10.4645 5.03672C9.81914 3.77344 8.51758 2.89844 7 2.89844C5.48242 2.89844 4.18086 3.77344 3.53555 5.03672C3.24844 4.91914 2.93672 4.85078 2.60586 4.85078C1.25781 4.85078 0.164062 5.94453 0.164062 7.29258C0.164062 8.64063 1.25781 9.73438 2.60586 9.73438C3.12813 9.73438 3.61211 9.56758 4.00859 9.28594C4.725 10.15 5.79141 10.7105 7 10.7105C8.20859 10.7105 9.275 10.15 9.99141 9.28594C10.3879 9.56484 10.8719 9.73438 11.3941 9.73438C12.7422 9.73438 13.8359 8.64063 13.8359 7.29258C13.8359 5.94453 12.7422 4.85078 11.3941 4.85078Z" fill="#BEC6D2"/>
<path opacity="0.05" d="M7.32263 6.96172C4.69216 6.69648 2.22849 7.06289 0.281616 7.8832C0.524976 8.97695 1.49841 9.79453 2.66326 9.79453C3.18552 9.79453 3.66951 9.62774 4.06599 9.3461C4.7824 10.2102 5.8488 10.7707 7.0574 10.7707C8.26599 10.7707 9.3324 10.2102 10.0488 9.3461C10.4453 9.625 10.9293 9.79453 11.4515 9.79453C12.2336 9.79453 12.9281 9.42539 13.3765 8.85117C11.7195 7.8832 9.63318 7.19414 7.32263 6.96172Z" fill="#A7A9AC"/>
<path d="M11.3941 5.24165C11.066 5.24165 10.7516 5.31001 10.4645 5.42759C9.81641 4.16431 8.51758 3.28931 7 3.28931C5.48242 3.28931 4.18086 4.16431 3.53555 5.42759C3.24844 5.31001 2.93672 5.24165 2.60586 5.24165C1.25781 5.24165 0.164062 6.3354 0.164062 7.68345C0.164062 9.03149 1.25781 10.1252 2.60586 10.1252C3.12813 10.1252 3.61211 9.95845 4.00859 9.67681C4.725 10.5409 5.79141 11.1014 7 11.1014C8.20859 11.1014 9.275 10.5409 9.99141 9.67681C10.3879 9.95571 10.8719 10.1252 11.3941 10.1252C12.7422 10.1252 13.8359 9.03149 13.8359 7.68345C13.8359 6.3354 12.7422 5.24165 11.3941 5.24165Z" fill="#D3DEE2"/>
<path d="M4.27109 6.76743C4.47617 6.76743 4.66758 6.80845 4.84531 6.88227C5.24453 6.10024 6.04844 5.56157 6.98633 5.56157C7.92422 5.56157 8.72812 6.10298 9.12734 6.88227C9.30508 6.80845 9.49922 6.76743 9.70156 6.76743C10.4645 6.76743 11.0934 7.33345 11.1945 8.06899C11.2027 8.00063 11.2109 7.93227 11.2109 7.86391C11.2109 7.02993 10.5355 6.35454 9.70156 6.35454C9.49922 6.35454 9.30508 6.39556 9.12734 6.46938C8.72812 5.68735 7.92422 5.14868 6.98633 5.14868C6.04844 5.14868 5.24453 5.69009 4.84531 6.46938C4.66758 6.39556 4.47617 6.35454 4.27109 6.35454C3.43711 6.35454 2.76172 7.02993 2.76172 7.86391C2.76172 7.93501 2.76719 8.00337 2.77812 8.06899C2.87656 7.33345 3.50547 6.76743 4.27109 6.76743Z" fill="#BEC6D2"/>
<path fill-rule="evenodd" clip-rule="evenodd" d="M9.84917 12.5454C9.99683 12.92 10.4207 13.1032 10.7953 12.9555C11.1699 12.8079 11.3531 12.384 11.2054 12.0094C11.0578 11.6348 9.99136 10.9211 9.99136 10.9211C9.99136 10.9211 9.70152 12.1708 9.84917 12.5454Z" fill="#00ADEE"/>
<path fill-rule="evenodd" clip-rule="evenodd" d="M3.25396 12.5454C3.40161 12.92 3.82544 13.1032 4.20005 12.9555C4.57466 12.8079 4.75786 12.384 4.61021 12.0094C4.46255 11.6348 3.39614 10.9211 3.39614 10.9211C3.39614 10.9211 3.1063 12.1708 3.25396 12.5454Z" fill="#00ADEE"/>
<path fill-rule="evenodd" clip-rule="evenodd" d="M6.55156 13.0922C6.69922 13.4668 7.12305 13.6501 7.49766 13.5024C7.87227 13.3547 8.05547 12.9309 7.90781 12.5563C7.76016 12.1817 6.69375 11.468 6.69375 11.468C6.69375 11.468 6.40391 12.7176 6.55156 13.0922Z" fill="#00ADEE"/>
<defs>
<linearGradient id="paint0_linear" x1="4.33435" y1="1.44215" x2="2.94475" y2="5.89652" gradientUnits="userSpaceOnUse">
<stop stop-color="#FEDA00"/>
<stop offset="1" stop-color="#E2A025"/>
</linearGradient>
<linearGradient id="paint1_linear" x1="6.49679" y1="1.79751" x2="6.21319" y2="2.70657" gradientUnits="userSpaceOnUse">
<stop stop-color="#FEDA00"/>
<stop offset="1" stop-color="#E7A423"/>
</linearGradient>
<linearGradient id="paint2_linear" x1="1.06267" y1="4.64809" x2="0.779072" y2="5.55715" gradientUnits="userSpaceOnUse">
<stop stop-color="#FEDA00"/>
<stop offset="1" stop-color="#E7A423"/>
</linearGradient>
<linearGradient id="paint3_linear" x1="6.65101" y1="4.32491" x2="6.48489" y2="4.8574" gradientUnits="userSpaceOnUse">
<stop stop-color="#FEDA00"/>
<stop offset="1" stop-color="#E7A423"/>
</linearGradient>
<linearGradient id="paint4_linear" x1="0.792763" y1="2.49788" x2="0.626493" y2="3.03086" gradientUnits="userSpaceOnUse">
<stop stop-color="#FEDA00"/>
<stop offset="1" stop-color="#E7A423"/>
</linearGradient>
<linearGradient id="paint5_linear" x1="2.35715" y1="0.506599" x2="2.07356" y2="1.41566" gradientUnits="userSpaceOnUse">
<stop stop-color="#FEDA00"/>
<stop offset="1" stop-color="#E7A423"/>
</linearGradient>
<linearGradient id="paint6_linear" x1="5.20619" y1="5.94036" x2="4.9226" y2="6.84943" gradientUnits="userSpaceOnUse">
<stop stop-color="#FEDA00"/>
<stop offset="1" stop-color="#E7A423"/>
</linearGradient>
<linearGradient id="paint7_linear" x1="2.89214" y1="6.0744" x2="2.5599" y2="7.1394" gradientUnits="userSpaceOnUse">
<stop stop-color="#FEDA00"/>
<stop offset="1" stop-color="#E7A423"/>
</linearGradient>
<linearGradient id="paint8_linear" x1="4.71921" y1="0.215759" x2="4.38697" y2="1.28075" gradientUnits="userSpaceOnUse">
<stop stop-color="#FEDA00"/>
<stop offset="1" stop-color="#E7A423"/>
</linearGradient>
</defs>
</svg>
