<svg width="44" height="44" viewBox="0 0 44 44" fill="none" xmlns="http://www.w3.org/2000/svg">
<path d="M41.1144 39.7847L28.8172 16.6094L17.7025 39.7847H41.1144Z" fill="white"/>
<path d="M17.3126 10.4497C19.152 10.4497 20.6432 8.95853 20.6432 7.11908C20.6432 5.27963 19.152 3.78845 17.3126 3.78845H15.5391C13.5078 3.78845 13.1199 5.69657 13.1199 5.69657H8.0375C7.38139 5.69657 6.78723 5.9631 6.35689 6.39257C5.92742 6.82291 5.66089 7.41706 5.66089 8.07318C5.66089 9.38541 6.72527 10.4497 8.03742 10.4497H17.3126Z" fill="#008BFF"/>
<path d="M31.164 12.7361C30.0919 12.7361 29.2227 11.8008 29.2227 10.647C29.2227 9.49324 30.0918 8.55798 31.164 8.55798H32.1976C33.3815 8.55798 33.6076 9.7548 33.6076 9.7548H36.5699C36.9523 9.7548 37.2986 9.922 37.5495 10.1914C37.7998 10.4613 37.9551 10.8339 37.9551 11.2454C37.9551 12.0685 37.3347 12.7361 36.5699 12.7361H31.164Z" fill="#008BFF"/>
<path d="M2.79626 39.9331L11.9407 15.7318L19.9027 34.6514L17.5772 39.9331H2.79626Z" fill="white"/>
<path d="M11.9672 15.9681L8.73511 24.3243L11.9409 27.0571L15.5934 24.2717L11.9672 15.9681Z" fill="#008BFF"/>
<path d="M28.7322 16.9927L25.2242 24.2452L28.7322 27.0437L32.6738 23.8904L28.7322 16.9927Z" fill="#008BFF"/>
<path d="M8.03728 11.2379H17.3124C19.5836 11.2379 21.4313 9.39016 21.4313 7.11894C21.4313 4.84773 19.5836 3 17.3124 3H15.5389C13.8652 3 12.9542 4.03908 12.558 4.90812H8.03728C7.193 4.90812 6.39838 5.23708 5.79879 5.83557C5.2014 6.43413 4.87244 7.22868 4.87244 8.07304C4.87236 9.81813 6.29219 11.2379 8.03728 11.2379ZM6.91354 6.9504C7.21436 6.65013 7.61349 6.48474 8.0372 6.48474H13.1197C13.4945 6.48474 13.8175 6.22082 13.8922 5.85346C13.9028 5.80135 14.1675 4.57663 15.5388 4.57663H17.3123C18.7141 4.57663 19.8546 5.71708 19.8546 7.11894C19.8546 8.5208 18.7141 9.66126 17.3123 9.66126H8.03728C7.16154 9.66126 6.44907 8.94878 6.44907 8.07304C6.44899 7.64924 6.61438 7.25012 6.91354 6.9504Z" fill="black"/>
<path d="M31.1638 13.5242H36.5699C37.7683 13.5242 38.7433 12.5019 38.7433 11.2453C38.7433 10.6482 38.5246 10.0835 38.1263 9.654C37.7133 9.21057 37.1605 8.96635 36.5699 8.96635H34.151C33.8444 8.38371 33.236 7.76953 32.1975 7.76953H31.1638C29.6587 7.76953 28.4342 9.06032 28.4342 10.6469C28.4342 12.2334 29.6587 13.5242 31.1638 13.5242ZM31.1638 9.34616H32.1975C32.6542 9.34616 32.7939 9.73196 32.8336 9.90539C32.896 10.286 33.2212 10.5429 33.6074 10.5429H36.5698C36.7698 10.5429 36.9079 10.6591 36.9713 10.7271C37.0973 10.863 37.1667 11.047 37.1667 11.2452C37.1667 11.6325 36.899 11.9475 36.5699 11.9475H31.1638C30.5281 11.9475 30.0108 11.364 30.0108 10.6468C30.0108 9.92959 30.528 9.34616 31.1638 9.34616Z" fill="black"/>
<path d="M36.8118 32.4438C37.2471 32.4438 37.6001 32.0909 37.6001 31.6555C37.6001 31.2201 37.2471 30.8672 36.8118 30.8672C36.3764 30.8672 36.0234 31.2201 36.0234 31.6555C36.0234 32.0909 36.3764 32.4438 36.8118 32.4438Z" fill="black"/>
<path d="M41.8287 40.6312C42.02 40.3916 42.0547 40.0521 41.9144 39.7789L39.1737 34.445C38.9747 34.0577 38.4994 33.905 38.1122 34.1042C37.725 34.3031 37.5723 34.7783 37.7714 35.1656L39.9219 39.351H18.6739L25.4785 25.3073L28.2979 27.607C28.4428 27.7252 28.6195 27.7845 28.7962 27.7845C28.9659 27.7845 29.1358 27.7299 29.2777 27.6204L32.461 25.1647L34.4467 28.9104C34.6506 29.295 35.1279 29.4415 35.5124 29.2376C35.8971 29.0337 36.0436 28.5565 35.8397 28.1719L29.5138 16.2396C29.3746 15.9771 29.0976 15.8158 28.8029 15.8206C28.506 15.826 28.2373 15.9979 28.1079 16.2651L20.0335 32.9293L12.6672 15.4253C12.5421 15.128 12.2521 14.9377 11.926 14.9429C11.6035 14.9488 11.3172 15.1507 11.2032 15.4524L7.9603 24.0349C7.94934 24.0599 7.93965 24.0853 7.93145 24.1111L2.05874 39.6537C1.95713 39.9225 1.98811 40.2033 2.14577 40.4595C2.32874 40.7387 2.57871 40.9275 2.91438 40.9275H41.2116C41.4496 40.9275 41.6801 40.8169 41.8287 40.6312ZM28.849 18.3514L31.7118 23.7515L28.81 25.9901L26.1852 23.849L28.849 18.3514ZM16.9933 39.2039C16.97 39.2519 16.9522 39.3011 16.9393 39.351H3.85854L9.03391 25.6542L11.4281 27.6071C11.573 27.7253 11.7496 27.7846 11.9264 27.7846C12.096 27.7846 12.2658 27.73 12.4078 27.6204L15.1866 25.4769L19.118 34.8188L16.9933 39.2039ZM11.98 17.8571L14.554 23.9735L11.94 25.9901L9.62151 24.0989L11.98 17.8571Z" fill="black"/>
</svg>
