<svg width="24" height="24" viewBox="0 0 24 24" fill="none" xmlns="http://www.w3.org/2000/svg">
<path d="M10.3281 5H12.6719C13.0615 5 13.375 5.31348 13.375 5.70312V10.625H15.9443C16.4658 10.625 16.7266 11.2549 16.3574 11.624L11.9014 16.083C11.6816 16.3027 11.3213 16.3027 11.1016 16.083L6.63965 11.624C6.27051 11.2549 6.53125 10.625 7.05273 10.625H9.625V5.70312C9.625 5.31348 9.93848 5 10.3281 5ZM19 16.0156V19.2969C19 19.6865 18.6865 20 18.2969 20H4.70312C4.31348 20 4 19.6865 4 19.2969V16.0156C4 15.626 4.31348 15.3125 4.70312 15.3125H9.00098L10.4365 16.748C11.0254 17.3369 11.9746 17.3369 12.5635 16.748L13.999 15.3125H18.2969C18.6865 15.3125 19 15.626 19 16.0156ZM15.3672 18.5938C15.3672 18.2715 15.1035 18.0078 14.7812 18.0078C14.459 18.0078 14.1953 18.2715 14.1953 18.5938C14.1953 18.916 14.459 19.1797 14.7812 19.1797C15.1035 19.1797 15.3672 18.916 15.3672 18.5938ZM17.2422 18.5938C17.2422 18.2715 16.9785 18.0078 16.6562 18.0078C16.334 18.0078 16.0703 18.2715 16.0703 18.5938C16.0703 18.916 16.334 19.1797 16.6562 19.1797C16.9785 19.1797 17.2422 18.916 17.2422 18.5938Z" fill="#DA3463"/>
</svg>
