<svg width="44" height="44" viewBox="0 0 44 44" fill="none" xmlns="http://www.w3.org/2000/svg">
<path fill-rule="evenodd" clip-rule="evenodd" d="M7.43909 8.72315H5.31238C3.95176 8.72315 2.849 7.62038 2.849 6.25977C2.849 5.57989 3.12493 4.96403 3.57075 4.51813C4.01577 4.07224 4.63163 3.79639 5.31238 3.79639H8.77104C9.93216 3.79639 10.9052 4.59949 11.1647 5.68004H12.4974C13.6387 5.68004 14.5642 6.60543 14.5642 7.74689C14.5642 8.31761 14.3326 8.83492 13.959 9.20932C13.5846 9.58294 13.0681 9.81452 12.4974 9.81452H9.2612C8.4729 9.81444 7.7873 9.37269 7.43909 8.72315Z" fill="#008BFF"/>
<path fill-rule="evenodd" clip-rule="evenodd" d="M32.4484 37.9383H28.5102C27.2556 37.9383 26.2382 36.9209 26.2382 35.6662C26.2382 35.0389 26.4927 34.4707 26.9041 34.0601C27.3147 33.6487 27.8829 33.3942 28.5102 33.3942H33.6202C35.7609 33.3942 35.8907 35.7582 35.8873 35.8034H37.6166C38.2439 35.8034 38.8122 36.0571 39.2227 36.4686C39.6342 36.88 39.8887 37.4474 39.8887 38.0747C39.8887 39.3293 38.8713 40.3468 37.6166 40.3468H34.7155C34.0882 40.3468 33.4629 40.2088 33.0674 39.7829C32.55 39.2255 32.4484 37.9383 32.4484 37.9383Z" fill="#008BFF"/>
<path fill-rule="evenodd" clip-rule="evenodd" d="M24.6954 20.8894H17.4682C17.4682 20.8894 15.4307 17.8921 13.3346 14.8089C12.9993 14.3158 13.0734 13.6503 13.5089 13.2438C13.9444 12.8374 14.6102 12.812 15.075 13.1843C19.5154 16.7406 24.6954 20.8894 24.6954 20.8894Z" fill="white"/>
<path d="M14.3791 27.3619H17.7929L14.2681 34.9939C13.961 35.6588 14.1924 36.4483 14.8098 36.8423C15.4271 37.2363 16.2407 37.1137 16.7144 36.5552L24.5126 27.3619H41.2025C41.2025 27.3619 41.4794 20.8927 34.5084 20.8892H6.51963C6.31321 18.8285 5.94867 16.7748 4.56759 16.0368C4.19494 15.8366 3.74458 15.8471 3.38156 16.0642C3.01854 16.2813 2.79626 16.6731 2.79626 17.0961V24.9608C2.79626 26.2869 3.87132 27.362 5.19747 27.362H7.22745" fill="white"/>
<path d="M40.0611 22.1631C38.7468 20.7907 36.8787 20.0943 34.5082 20.0931H24.9748L15.5727 12.5628C14.8053 11.9481 13.6845 11.9908 12.9655 12.6617C12.2376 13.3412 12.116 14.4324 12.6762 15.2563L15.9644 20.0931H7.23135C6.97397 18.0448 6.45762 16.1442 4.94407 15.3354C4.15998 14.9143 3.20936 15.0563 2.57869 15.6889C2.21089 16.0577 2 16.5789 2 17.1185V24.9734C2 26.7293 3.42853 28.1578 5.18441 28.1578H7.22729C7.66689 28.1578 8.02339 27.8014 8.02339 27.3617C8.02339 26.9221 7.66689 26.5656 7.22729 26.5656H5.18441C4.30647 26.5656 3.5922 25.8514 3.5922 24.9734V17.1185C3.5922 16.997 3.63376 16.8856 3.70629 16.813C3.83645 16.6824 4.03126 16.6524 4.19223 16.7389C5.22429 17.2903 5.54003 19.0976 5.72735 20.9685C5.76811 21.3754 6.11052 21.6852 6.51947 21.6852H17.4682H24.6953H34.5078C36.4209 21.6862 37.8991 22.2141 38.9013 23.2542C39.9275 24.319 40.256 25.7152 40.36 26.5657H24.5123C24.2784 26.5657 24.0565 26.6686 23.9052 26.8468L16.1071 36.0402C15.8797 36.3081 15.4802 36.3532 15.1971 36.1431C14.9455 35.9564 14.8654 35.5987 15.0066 35.2927L18.5154 27.6955C18.6293 27.4491 18.6096 27.1615 18.4633 26.9327C18.317 26.704 18.0642 26.5656 17.7927 26.5656H14.3788C13.9392 26.5656 13.5827 26.9221 13.5827 27.3617C13.5827 27.8014 13.9392 28.1578 14.3788 28.1578H16.5481L13.5611 34.6251C13.1055 35.6118 13.3944 36.7879 14.2481 37.4215C14.6512 37.7207 15.1245 37.8661 15.5949 37.866C16.2388 37.866 16.8772 37.5934 17.3212 37.07L24.8809 28.1578H41.2022C41.6286 28.1578 41.9794 27.8217 41.9976 27.3957C42.003 27.2703 42.1056 24.2981 40.0611 22.1631ZM17.8896 20.093L13.993 14.361C13.879 14.1935 13.9045 13.9633 14.052 13.8255C14.1994 13.688 14.4202 13.6796 14.5774 13.8054L22.4278 20.093H17.8896Z" fill="black"/>
<path d="M5.31209 9.51904H7.01193C7.54914 10.202 8.37335 10.6103 9.261 10.6103H12.4971C13.2609 10.6103 13.9796 10.3128 14.5222 9.77141C15.0624 9.22998 15.3599 8.51094 15.3599 7.7466C15.3599 6.16801 14.0756 4.88374 12.497 4.88374H11.7268C11.2028 3.74929 10.0633 3 8.77068 3H5.31209C4.44076 3 3.62205 3.3393 3.00754 3.955C2.39175 4.57087 2.05261 5.38926 2.05261 6.25956C2.05261 8.05684 3.51481 9.51904 5.31209 9.51904ZM4.13394 5.08037C4.44816 4.7656 4.8666 4.59228 5.31217 4.59228H8.77084C9.54433 4.59228 10.2103 5.11596 10.3904 5.86581C10.4763 6.22374 10.7964 6.47602 11.1645 6.47602H12.4972C13.1979 6.47602 13.7679 7.04603 13.7679 7.74668C13.7679 8.0863 13.6356 8.40593 13.3964 8.64564C13.1557 8.8859 12.8363 9.01821 12.4972 9.01821H9.261C8.79178 9.01821 8.36252 8.76099 8.14057 8.34694C8.00196 8.08829 7.73232 7.92692 7.43896 7.92692H5.31209C4.39276 7.92692 3.64482 7.17898 3.64482 6.25964C3.64482 5.81454 3.81837 5.39595 4.13394 5.08037Z" fill="black"/>
<path d="M37.6165 35.007H36.5616C36.44 34.5383 36.2046 33.963 35.7634 33.488C35.2226 32.9056 34.4814 32.5978 33.6201 32.5978H28.5101C27.6899 32.5978 26.9195 32.9173 26.3416 33.4963C25.7615 34.0753 25.4419 34.8458 25.4419 35.666C25.4419 37.3577 26.8183 38.7341 28.5101 38.7341H31.7643C31.8734 39.2439 32.0837 39.8932 32.4839 40.3242C32.9881 40.8672 33.7389 41.1425 34.7154 41.1425H37.6164C39.3082 41.1425 40.6846 39.7661 40.6846 38.0743C40.6846 37.2553 40.3653 36.485 39.7861 35.9058C39.2076 35.3263 38.4371 35.007 37.6165 35.007ZM37.6165 39.5504H34.7155C34.2141 39.5504 33.8361 39.4404 33.6507 39.2408C33.4387 39.0125 33.2771 38.3004 33.2419 37.8741C33.2085 37.4607 32.8632 37.142 32.4483 37.142H28.5101C27.6962 37.142 27.0341 36.4799 27.0341 35.666C27.0341 35.2718 27.1876 34.9015 27.4674 34.6223C27.7456 34.3435 28.1158 34.1901 28.5101 34.1901H33.6201C34.1794 34.1901 34.5597 34.4103 34.817 34.883C35.0472 35.306 35.0452 36.1144 35.2832 36.3627C35.4358 36.5219 35.6658 36.5993 35.8872 36.5993H37.6166C38.0113 36.5993 38.3816 36.7525 38.6598 37.0313C38.9389 37.3103 39.0926 37.6808 39.0926 38.0745C39.0925 38.8882 38.4303 39.5504 37.6165 39.5504Z" fill="black"/>
<path d="M14.7071 24.6216C15.1606 24.6216 15.5282 24.254 15.5282 23.8005C15.5282 23.347 15.1606 22.9794 14.7071 22.9794C14.2536 22.9794 13.886 23.347 13.886 23.8005C13.886 24.254 14.2536 24.6216 14.7071 24.6216Z" fill="black"/>
<path d="M17.9915 24.6216C18.445 24.6216 18.8126 24.254 18.8126 23.8005C18.8126 23.347 18.445 22.9794 17.9915 22.9794C17.538 22.9794 17.1704 23.347 17.1704 23.8005C17.1704 24.254 17.538 24.6216 17.9915 24.6216Z" fill="black"/>
<path d="M21.2759 24.6216C21.7294 24.6216 22.097 24.254 22.097 23.8005C22.097 23.347 21.7294 22.9794 21.2759 22.9794C20.8225 22.9794 20.4548 23.347 20.4548 23.8005C20.4548 24.254 20.8225 24.6216 21.2759 24.6216Z" fill="black"/>
<path d="M24.5608 24.6217C25.0143 24.6217 25.3819 24.2541 25.3819 23.8006C25.3819 23.3471 25.0143 22.9795 24.5608 22.9795C24.1073 22.9795 23.7396 23.3471 23.7396 23.8006C23.7396 24.2541 24.1073 24.6217 24.5608 24.6217Z" fill="black"/>
<path d="M27.8453 24.6216C28.2988 24.6216 28.6664 24.254 28.6664 23.8005C28.6664 23.347 28.2988 22.9794 27.8453 22.9794C27.3918 22.9794 27.0242 23.347 27.0242 23.8005C27.0242 24.254 27.3918 24.6216 27.8453 24.6216Z" fill="black"/>
<path d="M31.1296 24.6216C31.5831 24.6216 31.9507 24.254 31.9507 23.8005C31.9507 23.347 31.5831 22.9794 31.1296 22.9794C30.6761 22.9794 30.3085 23.347 30.3085 23.8005C30.3085 24.254 30.6761 24.6216 31.1296 24.6216Z" fill="black"/>
<path d="M11.0495 28.1544C11.4835 28.0228 11.7287 27.5644 11.5972 27.1304C11.4657 26.6964 11.0072 26.4513 10.5732 26.5828C10.1392 26.7143 9.89396 27.1727 10.0255 27.6067C10.157 28.0407 10.6154 28.2859 11.0495 28.1544Z" fill="black"/>
</svg>
