<svg width="25" height="25" viewBox="0 0 25 25" fill="none" xmlns="http://www.w3.org/2000/svg">
<path d="M10.6309 6.79078L5.15275 12.2158C5.07602 12.2923 5.01515 12.3832 4.97362 12.4833C4.93208 12.5834 4.91071 12.6907 4.91071 12.7991C4.91071 12.9075 4.93208 13.0148 4.97362 13.1149C5.01515 13.215 5.07602 13.3059 5.15275 13.3824L10.6309 18.8085C10.787 18.9634 10.9979 19.0503 11.2179 19.0503C11.4378 19.0503 11.6487 18.9634 11.8048 18.8085L12.3069 18.3199C12.3838 18.244 12.4448 18.1535 12.4863 18.0537C12.5278 17.9539 12.549 17.8468 12.5486 17.7387C12.5494 17.6288 12.5284 17.5199 12.4869 17.4182C12.4454 17.3165 12.3843 17.224 12.3069 17.146L9.10587 13.9741L19.258 13.9741C19.3659 13.9763 19.4732 13.9571 19.5737 13.9176C19.6741 13.878 19.7658 13.819 19.8433 13.7438C19.9208 13.6686 19.9826 13.5788 20.0252 13.4796C20.0677 13.3804 20.0902 13.2737 20.0913 13.1658L20.0913 12.4689C20.0905 12.2472 20.0028 12.0346 19.847 11.8768C19.6911 11.7191 19.4797 11.6287 19.258 11.6252L9.07045 11.6252L12.3069 8.43453C12.3835 8.3592 12.4443 8.26938 12.4859 8.1703C12.5274 8.07123 12.5488 7.96487 12.5488 7.85744C12.5488 7.75001 12.5274 7.64366 12.4859 7.54458C12.4443 7.4455 12.3835 7.35568 12.3069 7.28036L11.809 6.78869C11.6525 6.63281 11.4404 6.54546 11.2195 6.54585C10.9986 6.54624 10.7869 6.63434 10.6309 6.79078Z" fill="#008BFF"/>
</svg>
