<svg width="24" height="24" viewBox="0 0 24 24" fill="none" xmlns="http://www.w3.org/2000/svg">
<path d="M10.9217 20.6368C5.92709 13.2316 5 12.4715 5 9.75C5 6.02207 7.95491 3 11.6 3C15.2451 3 18.2 6.02207 18.2 9.75C18.2 12.4715 17.2729 13.2316 12.2783 20.6368C11.9505 21.1211 11.2494 21.121 10.9217 20.6368ZM11.6 12.5625C13.1188 12.5625 14.35 11.3033 14.35 9.75C14.35 8.19669 13.1188 6.9375 11.6 6.9375C10.0812 6.9375 8.85 8.19669 8.85 9.75C8.85 11.3033 10.0812 12.5625 11.6 12.5625Z" fill="#909090"/>
</svg>
