<svg width="24" height="24" viewBox="0 0 24 24" fill="none" xmlns="http://www.w3.org/2000/svg">
<path d="M14.3432 12.5L18.6075 8.23565C19.1308 7.71236 19.1308 6.86392 18.6075 6.3402L17.6598 5.39247C17.1365 4.86918 16.2881 4.86918 15.7643 5.39247L11.5 9.65682L7.23565 5.39247C6.71236 4.86918 5.86392 4.86918 5.3402 5.39247L4.39247 6.3402C3.86918 6.86349 3.86918 7.71193 4.39247 8.23565L8.65682 12.5L4.39247 16.7643C3.86918 17.2876 3.86918 18.1361 4.39247 18.6598L5.3402 19.6075C5.86349 20.1308 6.71236 20.1308 7.23565 19.6075L11.5 15.3432L15.7643 19.6075C16.2876 20.1308 17.1365 20.1308 17.6598 19.6075L18.6075 18.6598C19.1308 18.1365 19.1308 17.2881 18.6075 16.7643L14.3432 12.5Z" fill="#0061B2"/>
</svg>
