<svg width="24" height="24" viewBox="0 0 24 24" fill="none" xmlns="http://www.w3.org/2000/svg">
<path d="M4.88961 7.83239H18.5649C18.8554 7.83239 19.0909 7.59582 19.0909 7.30398V5.98295C19.0909 5.69111 18.8554 5.45455 18.5649 5.45455H4.88961C4.59911 5.45455 4.36364 5.69111 4.36364 5.98295V7.30398C4.36364 7.59582 4.59911 7.83239 4.88961 7.83239ZM4.88961 13.1165H18.5649C18.8554 13.1165 19.0909 12.8799 19.0909 12.5881V11.267C19.0909 10.9752 18.8554 10.7386 18.5649 10.7386H4.88961C4.59911 10.7386 4.36364 10.9752 4.36364 11.267V12.5881C4.36364 12.8799 4.59911 13.1165 4.88961 13.1165ZM4.88961 18.4006H18.5649C18.8554 18.4006 19.0909 18.164 19.0909 17.8722V16.5511C19.0909 16.2593 18.8554 16.0227 18.5649 16.0227H4.88961C4.59911 16.0227 4.36364 16.2593 4.36364 16.5511V17.8722C4.36364 18.164 4.59911 18.4006 4.88961 18.4006Z" fill="#0061B2"/>
</svg>
