<svg width="24" height="17" viewBox="0 0 24 17" fill="none" xmlns="http://www.w3.org/2000/svg">
<path d="M6.40701 16.597L5.43801 12.274H6.66301L7.23101 12.344L7.33101 12.358L7.38201 12.364L7.44101 12.371L7.49601 12.378L7.55701 12.386L7.61501 12.393L7.67901 12.402L7.74001 12.41L7.80701 12.419L7.86901 12.428L7.93901 12.438L8.00401 12.447L8.07801 12.459L8.14601 12.469L8.22201 12.481L8.29001 12.492L8.37201 12.506H8.37801L8.44201 12.516L8.53301 12.533L8.59901 12.543H8.60401L8.69101 12.558L8.74701 12.567H8.76501L8.85001 12.582L8.90501 12.591H8.92601H8.93301L9.83301 16.584L6.40701 16.597ZM17.653 14.097L17.433 13.973L17.354 13.931L17.211 13.853L17.118 13.804L16.988 13.736L16.888 13.686L16.762 13.622L16.662 13.571L16.54 13.511L16.433 13.461L16.312 13.403L16.203 13.353L16.083 13.298L15.973 13.249L15.853 13.195L15.742 13.147L15.622 13.096L15.51 13.049L15.391 13L15.278 12.954L15.16 12.907L15.044 12.861L14.927 12.816L14.813 12.772L14.695 12.727L14.579 12.684L14.462 12.641L14.346 12.599L14.231 12.558L14.114 12.517L14 12.477L13.883 12.437L13.769 12.398L13.653 12.36L13.539 12.322L13.424 12.285L13.311 12.248L13.195 12.212L13.083 12.177L12.967 12.141L12.857 12.108L12.741 12.073L12.631 12.042L12.517 12.008L12.409 11.978L12.295 11.945L12.188 11.916L12.075 11.886L11.968 11.858L11.856 11.828L11.756 11.802L11.643 11.773L11.543 11.748L11.431 11.72L11.331 11.696L11.219 11.668L11.126 11.646L11.009 11.619L10.924 11.599L10.803 11.572L10.758 11.562L10.465 11.497L10.403 11.483L10.291 11.46L10.195 11.433L10.085 11.411L10.002 11.394C9.96601 11.386 9.93001 11.379 9.89401 11.372L9.81201 11.355L9.71201 11.335L9.62801 11.319L9.52801 11.299L9.44601 11.284L9.34601 11.266L9.26401 11.25L9.17001 11.233L9.09101 11.219L8.99801 11.202L8.92201 11.189L8.83201 11.173L8.75701 11.16L8.67001 11.145L8.60501 11.135H8.59801L8.51401 11.121L8.44201 11.111L8.36301 11.098L8.29301 11.086L8.21501 11.074L8.14801 11.065L8.07401 11.053L8.00901 11.044L7.93301 11.04L7.87501 11.033L7.80801 11.024L7.74701 11.017L7.68301 11.008L7.62601 11.001L7.56401 10.994L7.51001 10.987L7.45201 10.98L7.39901 10.974H7.37401V4.55601L7.43301 4.54901L7.53301 4.53301H7.54401L7.64401 4.52001H7.66001L7.76001 4.50501H7.78201L7.88201 4.49001H7.90801L8.00801 4.47501H8.03701L8.14501 4.45901L8.17901 4.45401L8.28801 4.43701L8.32601 4.43201L8.43701 4.41401L8.47601 4.40801L8.59001 4.39001L8.63201 4.38301L8.74901 4.36401L8.79301 4.35701L8.91301 4.33601L8.95801 4.32901L9.08101 4.30801L9.12901 4.29901L9.25501 4.27701L9.30101 4.26901L9.43101 4.24501L9.47801 4.23601L9.63301 4.19801L9.67601 4.19001C9.72301 4.18101 9.77601 4.17201 9.81901 4.16201L9.85601 4.15501L10.009 4.12501L10.033 4.11801C10.333 4.05601 10.656 3.98701 10.984 3.91001H10.994L11.149 3.87301L11.204 3.86001L11.346 3.82501L11.416 3.80801L11.548 3.77401L11.631 3.75301L11.758 3.72001L11.848 3.69701L11.972 3.66301L12.072 3.63801L12.195 3.60401L12.295 3.57801L12.418 3.54301L12.518 3.51501L12.641 3.48001L12.741 3.45001L12.861 3.41401L12.967 3.38201L13.088 3.34501L13.195 3.31101L13.315 3.27401L13.424 3.23901L13.543 3.20001L13.654 3.16401L13.773 3.12401L13.884 3.08601L14.003 3.04501L14.116 3.00601L14.234 2.96501L14.348 2.92401L14.465 2.88101L14.579 2.83901L14.697 2.79501L14.813 2.75201L14.93 2.70701L15.045 2.66201L15.161 2.61601L15.278 2.56901L15.394 2.52301L15.511 2.47401L15.625 2.42601L15.743 2.37601L15.855 2.32701L15.974 2.27401L16.085 2.22501L16.205 2.17001L16.314 2.11901L16.433 2.06301L16.54 2.01201C16.581 1.99301 16.622 1.97201 16.663 1.95201L16.763 1.90201L16.887 1.83301L16.987 1.78301L17.118 1.71501L17.21 1.66601C17.258 1.64101 17.31 1.61501 17.353 1.58801L17.433 1.54901L17.653 1.42501L18.689 0.833008V14.689L17.653 14.097ZM20.075 11.352L19.299 10.575L20.075 9.79801L20.275 9.59801L22.342 11.665L21.361 12.646L20.075 11.352ZM5.12701 10.888H3.46001C2.63068 10.888 1.83531 10.5586 1.24888 9.97213C0.662459 9.3857 0.333008 8.59034 0.333008 7.76101C0.333008 6.93168 0.662459 6.13631 1.24888 5.54988C1.83531 4.96346 2.63068 4.63401 3.46001 4.63401H5.98901V10.888H5.12701ZM20.743 8.47501V7.08901H23.666V8.47501H20.743ZM20.075 5.76601L19.299 4.98901L20.075 4.21301L21.365 2.92201L22.346 3.90301L20.279 5.97001L20.075 5.76601Z" fill="white"/>
</svg>
