<svg width="24" height="24" viewBox="0 0 24 24" fill="none" xmlns="http://www.w3.org/2000/svg">
<path d="M20.865 17.652L13.2151 5.40195C13.0586 5.15148 12.7893 5 12.5 5C12.2107 5 11.9414 5.15148 11.7849 5.40195L4.13502 17.652C4.05247 17.7841 4.00601 17.9368 4.00055 18.0938C3.99508 18.2509 4.03079 18.4065 4.10394 18.5445C4.17712 18.6823 4.28503 18.7974 4.41631 18.8776C4.5476 18.9577 4.69743 19 4.85008 19H20.1499C20.461 19 20.747 18.8253 20.8961 18.5442C20.9692 18.4063 21.0049 18.2507 20.9995 18.0937C20.994 17.9367 20.9475 17.7841 20.865 17.652ZM12.5 7.4932L14.7682 11.125H12.5L10.8 12.875L9.78906 11.8343L12.5 7.4932Z" fill="#222222"/>
</svg>
