<?xml version="1.0" encoding="UTF-8" standalone="no"?>
<svg
   width="24"
   height="24"
   viewBox="0 0 24 24"
   fill="none"
   version="1.1"
   id="svg2453"
   sodipodi:docname="path-start.svg"
   inkscape:version="1.1.1 (c3084ef, 2021-09-22)"
   xmlns:inkscape="http://www.inkscape.org/namespaces/inkscape"
   xmlns:sodipodi="http://sodipodi.sourceforge.net/DTD/sodipodi-0.dtd"
   xmlns="http://www.w3.org/2000/svg"
   xmlns:svg="http://www.w3.org/2000/svg">
  <defs
     id="defs2457" />
  <sodipodi:namedview
     id="namedview2455"
     pagecolor="#ffffff"
     bordercolor="#666666"
     borderopacity="1.0"
     inkscape:pageshadow="2"
     inkscape:pageopacity="0.0"
     inkscape:pagecheckerboard="true"
     showgrid="false"
     inkscape:zoom="37.286493"
     inkscape:cx="4.4788337"
     inkscape:cy="7.8044348"
     inkscape:window-width="1792"
     inkscape:window-height="1120"
     inkscape:window-x="0"
     inkscape:window-y="0"
     inkscape:window-maximized="0"
     inkscape:current-layer="svg2453" />
  <path
     d="m 1.2000055,23.999997 c -0.31826123,0 -0.62348701,-0.126277 -0.84853338,-0.351361 C 0.12642805,23.423552 -2.2179801e-8,23.118271 -2.2179801e-8,22.80014 V 1.2000088 C -2.2179801e-8,0.88174775 0.12642805,0.57652186 0.35147212,0.3514755 0.57651849,0.12643143 0.88174427,3.3530766e-6 1.2000055,3.3530766e-6 H 10.800037 C 11.544542,8.3855308e-4 12.270549,0.2319351 12.878541,0.66161059 13.486534,1.0912863 13.946737,1.6985057 14.196058,2.400021 h 6.204031 c 0.919278,-0.00159 1.804328,0.3485701 2.47382,0.9786723 0.669271,0.6301023 1.07225,1.492422 1.126084,2.4101265 v 0.2112156 9.6000316 c 0.0017,0.9191 -0.348259,1.803994 -0.978096,2.473353 -0.629836,0.669337 -1.491913,1.072428 -2.409417,1.126662 h -0.212391 -4.800026 c -0.744372,-7.32e-4 -1.47029,-0.231819 -2.078105,-0.661518 -0.607815,-0.429697 -1.067754,-1.036981 -1.31672,-1.738485 H 2.4000178 v 6.000061 c 0,0.318131 -0.1264326,0.623412 -0.3514723,0.848496 -0.2250529,0.225084 -0.5302788,0.351361 -0.84854,0.351361 z M 14.400051,4.8000232 V 15.600067 c -2.21e-4,0.294315 0.107738,0.578439 0.303309,0.798361 0.195598,0.219923 0.465167,0.360312 0.75751,0.394451 l 0.139193,0.0072 h 4.800026 c 0.294294,2.21e-4 0.57844,-0.107739 0.798362,-0.303309 0.219922,-0.195598 0.36029,-0.465167 0.394429,-0.75751 l 0.0072,-0.139193 V 6.0000354 C 21.600301,5.7057204 21.492368,5.421574 21.29677,5.201652 21.101195,4.9817298 20.831604,4.8413625 20.539283,4.8072233 l -0.139194,-0.0072 z M 2.4000178,2.400021 V 14.400055 H 12.000049 V 3.6000111 C 12.000004,3.3060948 11.892093,3.0224137 11.696784,2.8027575 11.501474,2.5831234 11.232348,2.4428004 10.940448,2.4084175 l -0.140411,-0.0084 z"
     fill="#ffffff"
     id="path2451"
     style="stroke-width:2.2154" />
</svg>
