<svg width="24" height="24" viewBox="0 0 18 18" fill="#fff" xmlns="http://www.w3.org/2000/svg"><path d="M13.554 17.2a.704.704 0 0 1-.717-.718V4.004c0-.406.31-.717.717-.717.406 0 .717.31.717.717v12.478a.72.72 0 0 1-.717.717z"/><path d="M13.554 17.2a.651.651 0 0 1-.502-.216l-3.73-3.753c-.286-.287-.286-.74 0-1.004.287-.287.742-.287 1.005 0l3.227 3.251 3.227-3.25c.287-.288.74-.288 1.004 0 .287.286.287.74 0 1.003l-3.73 3.753a.651.651 0 0 1-.501.215zM4.47 14.713a.704.704 0 0 1-.717-.717V1.518c0-.406.31-.717.717-.717.406 0 .717.31.717.717v12.478a.736.736 0 0 1-.717.717z"/><path d="M.717 5.988a.688.688 0 0 1-.502-.215c-.287-.287-.287-.741 0-1.004l3.73-3.753a.688.688 0 0 1 .501-.215c.191 0 .383.072.502.215l3.73 3.753c.286.287.286.741 0 1.004-.288.287-.742.287-1.005 0L4.446 2.522 1.22 5.773a.651.651 0 0 1-.502.215z"/></svg>