<?xml version="1.0" encoding="UTF-8" standalone="no"?>
<svg
   width="24"
   height="24"
   viewBox="0 0 24 24"
   fill="none"
   version="1.1"
   id="svg826"
   sodipodi:docname="path-dest.svg"
   inkscape:version="1.1.1 (c3084ef, 2021-09-22)"
   xmlns:inkscape="http://www.inkscape.org/namespaces/inkscape"
   xmlns:sodipodi="http://sodipodi.sourceforge.net/DTD/sodipodi-0.dtd"
   xmlns="http://www.w3.org/2000/svg"
   xmlns:svg="http://www.w3.org/2000/svg">
  <defs
     id="defs830" />
  <sodipodi:namedview
     id="namedview828"
     pagecolor="#ffffff"
     bordercolor="#666666"
     borderopacity="1.0"
     inkscape:pageshadow="2"
     inkscape:pageopacity="0.0"
     inkscape:pagecheckerboard="true"
     showgrid="false"
     inkscape:zoom="19.937186"
     inkscape:cx="10.332451"
     inkscape:cy="11.611468"
     inkscape:window-width="1312"
     inkscape:window-height="969"
     inkscape:window-x="0"
     inkscape:window-y="0"
     inkscape:window-maximized="0"
     inkscape:current-layer="svg826" />
  <path
     d="M 12,24.000258 11.317,23.522636 C 4.5455207,18.856267 1.2535,14.675869 1.2535,10.746242 1.2535,7.896098 2.385713,5.1626852 4.4010687,3.1473105 6.4164434,1.1319586 9.1498563,-2.5815e-4 12,-2.5815e-4 c 2.850144,0 5.583557,1.13221685 7.59897,3.14756865 2.015374,2.0153747 3.14753,4.7487876 3.14753,7.5989315 0,3.840082 -3.145047,7.917773 -9.613332,12.46594 z M 12,2.4809892 C 9.7965185,2.4717616 7.6792765,3.33664 6.1124464,4.8860082 4.5456162,6.4353765 3.6570861,8.5427794 3.6416111,10.746242 3.7787078,12.520456 4.5088393,14.19691 5.7144916,15.505747 7.5490003,17.647978 9.66309,19.533917 12,21.112936 14.336681,19.535064 16.450751,17.65029 18.285508,15.50932 19.491982,14.199565 20.222171,12.521716 20.358389,10.746242 20.342914,8.5427794 19.454346,6.4353765 17.887554,4.8860082 16.320723,3.33664 14.203482,2.4717616 12,2.4809892 Z m 0,11.9668248 c -0.944641,0 -1.868076,-0.280116 -2.6535353,-0.804946 C 8.5610245,13.118056 7.9488465,12.372106 7.5873438,11.499376 7.2258411,10.626626 7.1312528,9.6662998 7.3155577,8.7397891 7.4998434,7.8132975 7.9547308,6.9622511 8.6226951,6.2942869 9.2906593,5.6263226 10.141706,5.1714352 11.068197,4.9871495 c 0.926511,-0.1843049 1.886837,-0.089717 2.759587,0.2717861 0.87273,0.3615027 1.618681,0.9736807 2.143492,1.7591208 0.52483,0.7854593 0.804946,1.7088942 0.804946,2.6535355 0,1.2667301 -0.503203,2.4815911 -1.398917,3.3773051 C 14.481591,13.94461 13.266731,14.447814 12,14.447814 Z m 0,-7.1643333 c -0.47233,0 -0.934038,0.1400579 -1.326758,0.4024635 C 10.280522,7.9483499 9.9744233,8.3213347 9.7936719,8.7577095 9.6129206,9.1940652 9.565636,9.6742474 9.6577788,10.137484 c 0.092143,0.463255 0.3195866,0.888778 0.6535782,1.222751 0.333973,0.333991 0.759496,0.561435 1.222751,0.653578 0.463236,0.09214 0.943419,0.04486 1.379774,-0.135893 0.436375,-0.180751 0.80936,-0.48685 1.071766,-0.87957 0.262405,-0.39272 0.402463,-0.854428 0.402463,-1.3267582 0,-0.6333652 -0.251611,-1.2407861 -0.699468,-1.688643 C 13.240786,7.535092 12.633365,7.2834807 12,7.2834807 Z"
     fill="#ffffff"
     id="path824"
     style="stroke-width:1.91049" />
</svg>
