<svg width="18" height="18" viewBox="0 0 18 18" fill="none" xmlns="http://www.w3.org/2000/svg">
<path d="M8.75035 17.5C8.41123 17.501 8.07529 17.4347 7.76198 17.3049C7.44867 17.1751 7.16422 16.9845 6.9251 16.744L0.756349 10.5744C0.516571 10.3348 0.326357 10.0504 0.196578 9.73724C0.0667986 9.42413 0 9.08851 0 8.74957C0 8.41063 0.0667986 8.07501 0.196578 7.7619C0.326357 7.44878 0.516571 7.16432 0.756349 6.92476L6.92597 0.756007C7.38908 0.292784 8.01102 0.0230167 8.66567 0.00140609C9.32033 -0.0202045 9.9587 0.207959 10.4513 0.639632L10.5747 0.756007L16.7443 6.92563C16.9841 7.16519 17.1743 7.44966 17.3041 7.76277C17.4339 8.07588 17.5007 8.4115 17.5007 8.75044C17.5007 9.08939 17.4339 9.42501 17.3041 9.73812C17.1743 10.0512 16.9841 10.3357 16.7443 10.5753L10.5747 16.7449C10.3357 16.9852 10.0514 17.1756 9.7382 17.3053C9.42504 17.4349 9.08927 17.5011 8.75035 17.5ZM8.75035 1.75001C8.641 1.74969 8.53267 1.77102 8.4316 1.81277C8.33053 1.85452 8.23872 1.91586 8.16147 1.99326L1.9936 8.16201C1.83806 8.31799 1.75071 8.52929 1.75071 8.74957C1.75071 8.96985 1.83806 9.18115 1.9936 9.33713L8.16322 15.5068C8.3191 15.6625 8.53043 15.75 8.75079 15.75C8.97114 15.75 9.18248 15.6625 9.33835 15.5068L15.508 9.33713C15.6635 9.18115 15.7509 8.96985 15.7509 8.74957C15.7509 8.52929 15.6635 8.31799 15.508 8.16201L9.35147 2.00638L9.29722 1.95476C9.14603 1.82206 8.95152 1.74923 8.75035 1.75001ZM9.62535 11.375C9.46164 11.375 9.30122 11.3291 9.16232 11.2424C9.02342 11.1558 8.91162 11.0319 8.83961 10.8849C8.7676 10.7379 8.73828 10.5736 8.75499 10.4107C8.77169 10.2479 8.83375 10.093 8.9341 9.96363L9.0076 9.88138L9.26135 9.62501H7.00035V10.5C7.00212 10.7244 6.91763 10.9409 6.76433 11.1047C6.61102 11.2686 6.40063 11.3673 6.17663 11.3804C5.95263 11.3936 5.73214 11.3202 5.56072 11.1754C5.38931 11.0305 5.28008 10.8254 5.2556 10.6024L5.25035 10.5V8.75001C5.25016 8.53554 5.32875 8.32847 5.47118 8.16813C5.61362 8.00779 5.80998 7.90535 6.02297 7.88026L6.12535 7.87501H9.26222L9.00672 7.61863C8.85594 7.46807 8.76528 7.26767 8.75175 7.05502C8.73821 6.84237 8.80274 6.63209 8.93322 6.46363L9.00672 6.38051C9.08783 6.29914 9.18426 6.23466 9.29045 6.1908C9.39663 6.14694 9.51046 6.12458 9.62535 6.12501C9.81958 6.12503 10.0083 6.18967 10.1617 6.30876L10.2448 6.38138L11.9948 8.13138C12.1456 8.28194 12.2363 8.48234 12.2498 8.69499C12.2634 8.90765 12.1988 9.11793 12.0683 9.28638L11.9948 9.36863L10.2448 11.1186C10.1637 11.2002 10.0671 11.2649 9.9608 11.3089C9.85445 11.3529 9.74044 11.3754 9.62535 11.375Z" fill="white"/>
</svg>
