<svg width="21" height="21" viewBox="0 0 21 21" fill="none" xmlns="http://www.w3.org/2000/svg">
<path d="M11.375 19.25C11.2018 19.2501 11.0324 19.1989 10.8884 19.1027C10.7443 19.0065 10.6321 18.8697 10.5658 18.7097C10.4996 18.5496 10.4823 18.3735 10.5163 18.2037C10.5502 18.0338 10.6337 17.8778 10.7564 17.7555L11.0355 17.479C10.85 17.4939 10.6671 17.5 10.5 17.5C8.72085 17.4998 7.00851 16.8222 5.71103 15.6049C4.41356 14.3875 3.6283 12.7218 3.51488 10.9463L3.50001 10.7249V10.5149C3.49804 10.4 3.51872 10.2858 3.56089 10.1789C3.60305 10.072 3.66586 9.9744 3.74573 9.89176C3.82561 9.80913 3.92098 9.74304 4.0264 9.69727C4.13182 9.65149 4.24522 9.62694 4.36013 9.625H4.37501C4.58705 9.62481 4.79194 9.70163 4.9516 9.84117C5.11125 9.9807 5.21481 10.1735 5.24301 10.3836L5.25001 10.4851V10.6811C5.29698 12.0419 5.87077 13.3312 6.85029 14.2769C7.82981 15.2226 9.13844 15.7508 10.5 15.75C10.6575 15.75 10.8211 15.743 10.9865 15.7281L10.7555 15.4936C10.5914 15.3294 10.4993 15.1068 10.4994 14.8747C10.4995 14.6426 10.5918 14.42 10.7559 14.2559C10.9201 14.0919 11.1428 13.9997 11.3749 13.9998C11.607 13.9999 11.8296 14.0922 11.9936 14.2564L13.7436 16.0064C13.825 16.0876 13.8895 16.1841 13.9336 16.2904C13.9776 16.3966 14.0003 16.5104 14.0003 16.6254C14.0003 16.7404 13.9776 16.8543 13.9336 16.9605C13.8895 17.0667 13.825 17.1632 13.7436 17.2445L11.9936 18.9945C11.9125 19.0758 11.8161 19.1403 11.7099 19.1841C11.6037 19.228 11.4899 19.2504 11.375 19.25ZM16.625 11.375C16.3929 11.375 16.1704 11.2828 16.0063 11.1187C15.8422 10.9546 15.75 10.7321 15.75 10.5C15.7484 9.10811 15.1947 7.7737 14.2105 6.78948C13.2263 5.80527 11.8919 5.25162 10.5 5.25C10.3399 5.25 10.1763 5.25788 10.0126 5.27275L10.2436 5.50638C10.4044 5.66289 10.499 5.87521 10.5077 6.09944C10.5164 6.32367 10.4386 6.54268 10.2904 6.7112C10.1422 6.87971 9.93497 6.98486 9.71147 7.0049C9.48797 7.02494 9.2653 6.95834 9.08951 6.81888L9.00726 6.74538L7.25726 4.99538C7.10647 4.84482 7.01581 4.64441 7.00228 4.43176C6.98874 4.21911 7.05327 4.00883 7.18376 3.84038L7.25726 3.75813L9.00726 2.00813C9.16344 1.84552 9.37636 1.74948 9.60162 1.74003C9.82688 1.73057 10.0471 1.80844 10.2164 1.95738C10.3856 2.10633 10.4908 2.31486 10.5101 2.5395C10.5294 2.76413 10.4612 2.98754 10.3198 3.16313L10.2463 3.24538L9.96801 3.52188C10.15 3.50613 10.3329 3.5 10.5 3.5C12.3559 3.50209 14.1351 4.24025 15.4475 5.55256C16.7598 6.86486 17.4979 8.64412 17.5 10.5C17.5 10.7321 17.4078 10.9546 17.2437 11.1187C17.0796 11.2828 16.8571 11.375 16.625 11.375Z" fill="white"/>
</svg>
