<?xml version="1.0" encoding="UTF-8" standalone="no"?>
<svg
   width="24"
   height="24"
   viewBox="0 0 24 24"
   fill="none"
   version="1.1"
   id="svg826"
   sodipodi:docname="path-search.svg"
   inkscape:version="1.1.1 (c3084ef, 2021-09-22)"
   xmlns:inkscape="http://www.inkscape.org/namespaces/inkscape"
   xmlns:sodipodi="http://sodipodi.sourceforge.net/DTD/sodipodi-0.dtd"
   xmlns="http://www.w3.org/2000/svg"
   xmlns:svg="http://www.w3.org/2000/svg">
  <defs
     id="defs830" />
  <sodipodi:namedview
     id="namedview828"
     pagecolor="#ffffff"
     bordercolor="#666666"
     borderopacity="1.0"
     inkscape:pageshadow="2"
     inkscape:pageopacity="0.0"
     inkscape:pagecheckerboard="true"
     showgrid="false"
     inkscape:zoom="22.416667"
     inkscape:cx="12"
     inkscape:cy="12.022305"
     inkscape:window-width="1312"
     inkscape:window-height="969"
     inkscape:window-x="0"
     inkscape:window-y="0"
     inkscape:window-maximized="0"
     inkscape:current-layer="svg826" />
  <path
     d="m 12,23.999982 c -0.465059,0.0014 -0.925757,-0.08955 -1.355422,-0.267566 C 10.214914,23.554404 9.8248283,23.29301 9.4969062,22.963182 L 1.037264,14.502023 C 0.70843964,14.173429 0.44758578,13.783395 0.26961071,13.353918 0.09163505,12.924511 2.9477154e-5,12.464232 2.9477154e-5,11.999401 c 0,-0.464832 0.09160577285,-0.92511 0.269581232846,-1.354518 C 0.44758578,10.215462 0.70843964,9.8253453 1.037264,9.4968061 L 9.4980993,1.0368087 C 10.133195,0.401532 10.986104,0.03156569 11.883872,0.00192833 c 0.897782,-0.02963716 1.773223,0.28327231 2.44876,0.87528052 l 0.169228,0.15959985 8.460806,8.4611906 c 0.328854,0.3285392 0.58969,0.7186687 0.767693,1.1480767 0.178004,0.429408 0.269612,0.889686 0.269612,1.354518 0,0.464845 -0.09161,0.925123 -0.269612,1.354531 -0.178003,0.429367 -0.438839,0.819538 -0.767693,1.148132 L 14.50186,22.964416 C 14.174102,23.29397 13.784222,23.55509 13.354709,23.732964 12.92525,23.910701 12.464785,24.00149 12,23.999982 Z M 12,2.4000118 c -0.14996,-4.389e-4 -0.29852,0.028814 -0.437124,0.08607 -0.138605,0.057257 -0.26451,0.1413804 -0.370449,0.2475289 L 2.7339934,11.193604 c -0.2133029,0.213916 -0.3330921,0.503699 -0.3330921,0.805797 0,0.302098 0.1197892,0.59188 0.3330921,0.805796 l 8.4608336,8.461254 c 0.213769,0.213532 0.503582,0.333532 0.805776,0.333532 0.302182,0 0.592008,-0.12 0.805763,-0.333532 l 8.460875,-8.461254 c 0.213248,-0.213916 0.333105,-0.503698 0.333105,-0.805796 0,-0.302098 -0.119857,-0.591881 -0.333105,-0.805797 l -8.442883,-8.4419993 -0.0744,-0.070793 C 12.542624,2.4988232 12.275878,2.398942 12,2.4000118 Z m 1.199949,13.1999762 c -0.224507,0 -0.444502,-0.06295 -0.634985,-0.181852 -0.190484,-0.118766 -0.343804,-0.288685 -0.442555,-0.490285 -0.09875,-0.2016 -0.138961,-0.426925 -0.116046,-0.650331 0.0229,-0.223268 0.10801,-0.435703 0.245626,-0.613124 l 0.100796,-0.1128 0.347985,-0.351593 H 9.6001019 v 1.199985 c 0.00243,0.307749 -0.1134397,0.604663 -0.3236708,0.829303 C 9.0661863,15.454067 8.7776637,15.589428 8.4704767,15.607393 8.1632897,15.625496 7.8609163,15.524833 7.625836,15.32625 7.3907694,15.127531 7.2409746,14.846252 7.2074035,14.540423 l -0.0072,-0.140435 v -2.399984 c -2.603e-4,-0.29413 0.1075157,-0.578112 0.30284,-0.798006 0.195338,-0.219895 0.4646203,-0.360383 0.7567085,-0.394793 l 0.1404008,-0.0072 H 12.701963 L 12.351578,10.448398 C 12.144803,10.241916 12.020475,9.9670824 12.00192,9.6754484 11.983352,9.3838143 12.071846,9.0954305 12.250782,8.8643999 l 0.100796,-0.1139931 c 0.111232,-0.1115931 0.243474,-0.2000228 0.389099,-0.2601735 0.145612,-0.060151 0.301715,-0.090816 0.459272,-0.090227 0.266361,2.74e-5 0.525167,0.088677 0.735534,0.2519998 l 0.113961,0.099593 2.399898,2.3999989 c 0.206804,0.206482 0.331186,0.481316 0.3497,0.77295 0.01865,0.291647 -0.06994,0.580031 -0.248904,0.811048 l -0.100796,0.1128 -2.399898,2.399957 c -0.111218,0.111908 -0.243692,0.20064 -0.389469,0.260984 -0.145845,0.06034 -0.302195,0.0912 -0.460026,0.09065 z"
     fill="#ffffff"
     id="path824"
     style="stroke-width:1.3714" />
</svg>
