<svg width="11" height="11" viewBox="0 0 11 11" fill="none" xmlns="http://www.w3.org/2000/svg">
<path d="M0.62498 10.9166C0.481321 10.9166 0.343546 10.8596 0.241963 10.758C0.140381 10.6564 0.083313 10.5186 0.083313 10.375V0.62498C0.083313 0.481321 0.140381 0.343546 0.241963 0.241963C0.343546 0.140381 0.481321 0.083313 0.62498 0.083313L4.95831 0.083313C5.29437 0.08369 5.62208 0.188004 5.89652 0.381954C6.17096 0.575904 6.37869 0.849995 6.49123 1.16665H9.29165C9.7066 1.16593 10.1061 1.32399 10.4083 1.60841C10.7104 1.89283 10.8923 2.28207 10.9166 2.69631V2.79165V7.12498C10.9174 7.53985 10.7594 7.93928 10.4751 8.24142C10.1908 8.54355 9.80167 8.7255 9.38752 8.74998H9.29165H7.12498C6.78898 8.74965 6.46131 8.64534 6.18695 8.45138C5.91259 8.25742 5.70498 7.9833 5.5926 7.66665H1.16665V10.375C1.16665 10.5186 1.10958 10.6564 1.008 10.758C0.906414 10.8596 0.768639 10.9166 0.62498 10.9166ZM6.58331 2.24998V7.12498C6.58321 7.25783 6.63194 7.38608 6.72022 7.48535C6.80851 7.58462 6.93019 7.64799 7.06215 7.6634L7.12498 7.66665H9.29165C9.42449 7.66675 9.55275 7.61802 9.65202 7.52974C9.75129 7.44145 9.81465 7.31977 9.83006 7.18781L9.83331 7.12498V2.79165C9.83341 2.6588 9.78469 2.53054 9.6964 2.43127C9.60812 2.332 9.48643 2.26864 9.35448 2.25323L9.29165 2.24998H6.58331ZM1.16665 1.16665V6.58331H5.49998V1.70831C5.49996 1.57564 5.45125 1.44759 5.36309 1.34844C5.27493 1.2493 5.15345 1.18596 5.02169 1.17044L4.95831 1.16665H1.16665Z" fill="white"/>
</svg>
