<svg width="13" height="13" viewBox="0 0 13 13" fill="none" xmlns="http://www.w3.org/2000/svg">
<path d="M6.5 12.75L6.1425 12.5C2.59813 10.0575 0.875 7.86937 0.875 5.8125C0.875 4.32066 1.46763 2.88992 2.52252 1.83502C3.57742 0.780132 5.00816 0.1875 6.5 0.1875C7.99184 0.1875 9.42258 0.780132 10.4775 1.83502C11.5324 2.88992 12.125 4.32066 12.125 5.8125C12.125 7.8225 10.4788 9.95687 7.09313 12.3375L6.5 12.75ZM6.5 1.48625C5.34664 1.48142 4.23842 1.93412 3.4183 2.7451C2.59818 3.55608 2.1331 4.65915 2.125 5.8125C2.19676 6.74117 2.57893 7.61867 3.21 8.30375C4.17023 9.42505 5.2768 10.4122 6.5 11.2387C7.72308 10.4128 8.82964 9.42626 9.79 8.30562C10.4215 7.62006 10.8037 6.74183 10.875 5.8125C10.8669 4.65915 10.4018 3.55608 9.5817 2.7451C8.76158 1.93412 7.65336 1.48142 6.5 1.48625ZM6.5 7.75C6.00555 7.75 5.5222 7.60338 5.11107 7.32867C4.69995 7.05397 4.37952 6.66352 4.1903 6.20671C4.00108 5.74989 3.95157 5.24723 4.04804 4.76227C4.1445 4.27732 4.3826 3.83186 4.73223 3.48223C5.08186 3.1326 5.52732 2.8945 6.01227 2.79804C6.49723 2.70157 6.99989 2.75108 7.45671 2.9403C7.91352 3.12952 8.30397 3.44995 8.57867 3.86107C8.85338 4.2722 9 4.75555 9 5.25C9 5.91304 8.73661 6.54893 8.26777 7.01777C7.79893 7.48661 7.16304 7.75 6.5 7.75ZM6.5 4C6.25277 4 6.0111 4.07331 5.80554 4.21066C5.59998 4.34801 5.43976 4.54324 5.34515 4.77165C5.25054 5.00005 5.22579 5.25139 5.27402 5.49386C5.32225 5.73634 5.4413 5.95907 5.61612 6.13388C5.79093 6.3087 6.01366 6.42775 6.25614 6.47598C6.49861 6.52421 6.74995 6.49946 6.97835 6.40485C7.20676 6.31024 7.40199 6.15002 7.53934 5.94446C7.67669 5.7389 7.75 5.49723 7.75 5.25C7.75 4.91848 7.6183 4.60054 7.38388 4.36612C7.14946 4.1317 6.83152 4 6.5 4Z" fill="white"/>
</svg>
