<?xml version="1.0" encoding="UTF-8" standalone="no"?>
<svg
   width="24"
   height="24"
   viewBox="0 0 24 24"
   fill="none"
   version="1.1"
   id="svg826"
   sodipodi:docname="position.svg"
   inkscape:version="1.1.1 (c3084ef, 2021-09-22)"
   xmlns:inkscape="http://www.inkscape.org/namespaces/inkscape"
   xmlns:sodipodi="http://sodipodi.sourceforge.net/DTD/sodipodi-0.dtd"
   xmlns="http://www.w3.org/2000/svg"
   xmlns:svg="http://www.w3.org/2000/svg">
  <defs
     id="defs830" />
  <sodipodi:namedview
     id="namedview828"
     pagecolor="#ffffff"
     bordercolor="#666666"
     borderopacity="1.0"
     inkscape:pageshadow="2"
     inkscape:pageopacity="0.0"
     inkscape:pagecheckerboard="true"
     showgrid="false"
     inkscape:zoom="29.958333"
     inkscape:cx="16.723227"
     inkscape:cy="11.599444"
     inkscape:window-width="1312"
     inkscape:window-height="969"
     inkscape:window-x="0"
     inkscape:window-y="0"
     inkscape:window-maximized="0"
     inkscape:current-layer="svg826" />
  <path
     fill-rule="evenodd"
     clip-rule="evenodd"
     d="M 10.5,1.5 C 10.5,0.67158 11.17155,0 12,0 c 0.82845,0 1.5,0.67158 1.5,1.5 V 2.40081 C 17.66385,3.046215 20.9538,6.336075 21.59925,10.5 H 22.5 c 0.82845,0 1.5,0.67155 1.5,1.5 0,0.82845 -0.67155,1.5 -1.5,1.5 H 21.59925 C 20.9538,17.664 17.664,20.9538 13.5,21.59925 V 22.5 c 0,0.82845 -0.67155,1.5 -1.5,1.5 -0.82845,0 -1.5,-0.67155 -1.5,-1.5 V 21.59925 C 6.336075,20.9538 3.046215,17.664 2.40081,13.5 H 1.5 C 0.67158,13.5 0,12.82845 0,12 0,11.17155 0.67158,10.5 1.5,10.5 H 2.40081 C 3.046215,6.336075 6.336075,3.046215 10.5,2.40081 Z M 19.4286,12 c 0,4.10265 -3.32595,7.4286 -7.4286,7.4286 -4.10268,0 -7.42857,-3.32595 -7.42857,-7.4286 0,-4.10268 3.32589,-7.42857 7.42857,-7.42857 4.10265,0 7.4286,3.32589 7.4286,7.42857 z M 12,17.1429 c 2.8404,0 5.1429,-2.3025 5.1429,-5.1429 C 17.1429,9.15975 14.8404,6.857145 12,6.857145 9.15975,6.857145 6.857145,9.15975 6.857145,12 c 0,2.8404 2.302605,5.1429 5.142855,5.1429 z"
     fill="#ffffff"
     id="path824"
     style="stroke-width:1.5" />
</svg>
