<svg width="25" height="24" viewBox="0 0 25 24" fill="none" xmlns="http://www.w3.org/2000/svg">
<path d="M14.2964 18.0533L19.5554 12.8453C19.629 12.7718 19.6875 12.6846 19.7273 12.5885C19.7672 12.4924 19.7877 12.3894 19.7877 12.2853C19.7877 12.1813 19.7672 12.0783 19.7273 11.9822C19.6875 11.8861 19.629 11.7988 19.5554 11.7253L14.2964 6.51632C14.1465 6.36762 13.944 6.28418 13.7329 6.28418C13.5218 6.28418 13.3192 6.36762 13.1694 6.51632L12.6874 6.98532C12.6135 7.05822 12.555 7.14512 12.5151 7.24094C12.4753 7.33675 12.455 7.43955 12.4554 7.54332C12.4546 7.64877 12.4747 7.75333 12.5146 7.85098C12.5544 7.94863 12.6131 8.03745 12.6874 8.11232L15.7604 11.1573L6.01436 11.1573C5.91074 11.1552 5.80772 11.1736 5.71127 11.2116C5.61482 11.2495 5.52685 11.3062 5.45246 11.3784C5.37806 11.4506 5.31871 11.5368 5.27784 11.632C5.23697 11.7273 5.2154 11.8297 5.21436 11.9333L5.21436 12.6023C5.21512 12.8152 5.29934 13.0193 5.44892 13.1707C5.5985 13.3222 5.80152 13.4089 6.01436 13.4123L15.7944 13.4123L12.6874 16.4753C12.6138 16.5476 12.5554 16.6339 12.5156 16.729C12.4757 16.8241 12.4552 16.9262 12.4552 17.0293C12.4552 17.1324 12.4757 17.2345 12.5156 17.3297C12.5554 17.4248 12.6138 17.511 12.6874 17.5833L13.1654 18.0553C13.3156 18.205 13.5192 18.2888 13.7313 18.2884C13.9434 18.2881 14.1466 18.2035 14.2964 18.0533Z" fill="white"/>
</svg>
