<svg width="25" height="24" viewBox="0 0 25 24" fill="none" xmlns="http://www.w3.org/2000/svg">
<path d="M14.2963 18.0533L19.5553 12.8453C19.629 12.7718 19.6874 12.6846 19.7273 12.5885C19.7672 12.4924 19.7877 12.3894 19.7877 12.2853C19.7877 12.1813 19.7672 12.0783 19.7273 11.9822C19.6874 11.8861 19.629 11.7988 19.5553 11.7253L14.2963 6.51632C14.1465 6.36762 13.9439 6.28418 13.7328 6.28418C13.5217 6.28418 13.3192 6.36762 13.1693 6.51632L12.6873 6.98532C12.6135 7.05822 12.5549 7.14512 12.5151 7.24094C12.4753 7.33675 12.4549 7.43955 12.4553 7.54332C12.4546 7.64877 12.4747 7.75333 12.5145 7.85098C12.5543 7.94863 12.6131 8.03745 12.6873 8.11232L15.7603 11.1573L6.01433 11.1573C5.91071 11.1552 5.80769 11.1736 5.71124 11.2116C5.61479 11.2495 5.52682 11.3062 5.45243 11.3784C5.37803 11.4506 5.31868 11.5368 5.27781 11.632C5.23694 11.7273 5.21537 11.8297 5.21433 11.9333L5.21433 12.6023C5.21509 12.8152 5.29931 13.0193 5.44889 13.1707C5.59847 13.3222 5.80149 13.4089 6.01433 13.4123L15.7943 13.4123L12.6873 16.4753C12.6138 16.5476 12.5554 16.6339 12.5155 16.729C12.4757 16.8241 12.4551 16.9262 12.4551 17.0293C12.4551 17.1324 12.4757 17.2345 12.5155 17.3297C12.5554 17.4248 12.6138 17.511 12.6873 17.5833L13.1653 18.0553C13.3156 18.205 13.5192 18.2888 13.7312 18.2884C13.9433 18.2881 14.1466 18.2035 14.2963 18.0533Z" fill="#DA3463"/>
</svg>
