<svg width="24" height="24" viewBox="0 0 24 24" fill="none" xmlns="http://www.w3.org/2000/svg">
<path d="M18.0001 21.9996C17.3958 21.9998 16.7993 21.863 16.2555 21.5996C15.7116 21.3362 15.2345 20.953 14.8599 20.4788C14.4854 20.0045 14.2231 19.4516 14.0929 18.8615C13.9627 18.2714 13.9679 17.6594 14.1081 17.0716L9.26912 14.3056C8.77941 14.9997 8.08144 15.5199 7.27633 15.7908C6.47123 16.0616 5.60078 16.0692 4.7911 15.8123C3.98141 15.5554 3.27452 15.0474 2.77284 14.362C2.27116 13.6765 2.00073 12.8491 2.00073 11.9996C2.00073 11.1501 2.27116 10.3227 2.77284 9.63724C3.27452 8.95175 3.98141 8.44377 4.7911 8.18688C5.60078 7.93 6.47123 7.93755 7.27633 8.20844C8.08144 8.47934 8.77941 8.99951 9.26912 9.6936L14.1081 6.9276C13.8829 5.98066 14.0106 4.98409 14.4675 4.1246C14.9243 3.26511 15.6789 2.60169 16.5897 2.25863C17.5006 1.91557 18.5054 1.91642 19.4157 2.26102C20.326 2.60562 21.0794 3.27032 21.5348 4.13059C21.9902 4.99085 22.1162 5.98763 21.8894 6.93418C21.6625 7.88073 21.0983 8.71209 20.3025 9.27249C19.5067 9.83289 18.5338 10.0839 17.5662 9.9784C16.5985 9.87294 15.7026 9.41828 15.0461 8.6996L10.0001 11.5796V12.4186L15.0461 15.2996C15.4951 14.8088 16.0595 14.4377 16.688 14.22C17.3166 14.0022 17.9895 13.9447 18.6459 14.0525C19.3023 14.1604 19.9215 14.4302 20.4473 14.8377C20.9732 15.2451 21.3891 15.7772 21.6574 16.3859C21.9258 16.9946 22.0381 17.6606 21.9842 18.3236C21.9304 18.9866 21.712 19.6257 21.3489 20.1831C20.9858 20.7404 20.4894 21.1984 19.9046 21.5156C19.3199 21.8328 18.6653 21.9991 18.0001 21.9996ZM18.0001 15.9996C17.6046 15.9996 17.2179 16.1169 16.889 16.3367C16.5601 16.5564 16.3037 16.8688 16.1524 17.2342C16.001 17.5997 15.9614 18.0018 16.0386 18.3898C16.1157 18.7777 16.3062 19.1341 16.5859 19.4138C16.8656 19.6935 17.222 19.884 17.6099 19.9612C17.9979 20.0383 18.4 19.9987 18.7655 19.8474C19.1309 19.696 19.4433 19.4396 19.6631 19.1107C19.8828 18.7818 20.0001 18.3952 20.0001 17.9996C20.0001 17.4692 19.7894 16.9605 19.4143 16.5854C19.0393 16.2103 18.5306 15.9996 18.0001 15.9996ZM6.00012 9.9996C5.60456 9.9996 5.21788 10.1169 4.88898 10.3367C4.56008 10.5564 4.30374 10.8688 4.15236 11.2342C4.00099 11.5997 3.96138 12.0018 4.03855 12.3898C4.11572 12.7777 4.3062 13.1341 4.58591 13.4138C4.86561 13.6935 5.22198 13.884 5.60994 13.9612C5.9979 14.0383 6.40004 13.9987 6.76549 13.8474C7.13094 13.696 7.4433 13.4396 7.66306 13.1107C7.88282 12.7818 8.00012 12.3952 8.00012 11.9996C8.00012 11.4692 7.78941 10.9605 7.41433 10.5854C7.03926 10.2103 6.53055 9.9996 6.00012 9.9996ZM18.0001 3.9996C17.6046 3.9996 17.2179 4.1169 16.889 4.33666C16.5601 4.55642 16.3037 4.86878 16.1524 5.23423C16.001 5.59968 15.9614 6.00182 16.0386 6.38978C16.1157 6.77774 16.3062 7.13411 16.5859 7.41381C16.8656 7.69352 17.222 7.884 17.6099 7.96117C17.9979 8.03834 18.4 7.99873 18.7655 7.84736C19.1309 7.69598 19.4433 7.43964 19.6631 7.11074C19.8828 6.78184 20.0001 6.39516 20.0001 5.9996C20.0001 5.46916 19.7894 4.96046 19.4143 4.58538C19.0393 4.21031 18.5306 3.9996 18.0001 3.9996Z" fill="#008BFF"/>
</svg>
