<svg width="24" height="24" viewBox="0 0 24 24" fill="none" xmlns="http://www.w3.org/2000/svg">
<path d="M20.7676 17.699L17.4572 14.3887C17.3078 14.2393 17.1053 14.1562 16.8928 14.1562H16.3516C17.268 12.9842 17.8125 11.51 17.8125 9.90625C17.8125 6.09121 14.7213 3 10.9062 3C7.09121 3 4 6.09121 4 9.90625C4 13.7213 7.09121 16.8125 10.9062 16.8125C12.51 16.8125 13.9842 16.268 15.1562 15.3516V15.8928C15.1562 16.1053 15.2393 16.3078 15.3887 16.4572L18.699 19.7676C19.0111 20.0797 19.5158 20.0797 19.8246 19.7676L20.7643 18.8279C21.0764 18.5158 21.0764 18.0111 20.7676 17.699ZM10.9062 14.1562C8.55879 14.1562 6.65625 12.257 6.65625 9.90625C6.65625 7.55879 8.55547 5.65625 10.9062 5.65625C13.2537 5.65625 15.1562 7.55547 15.1562 9.90625C15.1562 12.2537 13.257 14.1562 10.9062 14.1562Z" fill="#0061B2"/>
</svg>
