<svg width="44" height="44" viewBox="0 0 44 44" fill="none" xmlns="http://www.w3.org/2000/svg">
<path fill-rule="evenodd" clip-rule="evenodd" d="M42.9338 32.7891C42.9338 28.3981 39.6583 24.8385 35.6178 24.8385C30.5089 24.8385 24.5999 24.8385 24.5999 24.8385V32.7891H42.9338Z" fill="#008BFF"/>
<path fill-rule="evenodd" clip-rule="evenodd" d="M21.0333 24.8385H1.88892V32.7891H21.0333V24.8385Z" fill="#008BFF"/>
<path d="M17.5654 30.2718H5.1749C4.71147 30.2718 4.33582 29.896 4.33582 29.4327C4.33582 28.9694 4.71147 28.5936 5.1749 28.5936H17.5654C18.0288 28.5936 18.4044 28.9694 18.4044 29.4327C18.4044 29.896 18.0288 30.2718 17.5654 30.2718Z" fill="black"/>
<path d="M11.4121 30.1156C10.9487 30.1156 10.573 29.7399 10.573 29.2765V24.9133C10.573 24.45 10.9487 24.0742 11.4121 24.0742C11.8755 24.0742 12.2512 24.45 12.2512 24.9133V29.2765C12.2512 29.7399 11.8755 30.1156 11.4121 30.1156Z" fill="black"/>
<path fill-rule="evenodd" clip-rule="evenodd" d="M42.095 29.4865H37.278C35.9298 29.4865 34.8369 28.3936 34.8369 27.0454V25.1652C34.8369 25.1652 40.0252 24.2142 42.095 29.4865Z" fill="white"/>
<path fill-rule="evenodd" clip-rule="evenodd" d="M1.8186 24.9415H21.0056V29.4334H1.8186V24.9415Z" fill="white"/>
<path d="M1.88901 33.6287H7.46127C7.9247 33.6287 8.30035 33.253 8.30035 32.7896C8.30035 32.3263 7.9247 31.9506 7.46127 31.9506H2.72809V30.2724H20.1943V31.9506H15.1389C14.6755 31.9506 14.2998 32.3263 14.2998 32.7896C14.2998 33.253 14.6755 33.6287 15.1389 33.6287H21.0334C21.4969 33.6287 21.8725 33.253 21.8725 32.7896V30.2724H23.7605V32.7896C23.7605 33.2465 24.1427 33.6287 24.5995 33.6287L42.9335 33.6286C43.3968 33.6286 43.7726 33.2529 43.7726 32.7896C43.7726 27.9429 40.1142 24 35.6175 24H24.5995C24.1362 24 23.7605 24.3757 23.7605 24.8391V28.5942H21.8725V24.8391C21.8725 24.3757 21.4969 24 21.0334 24H1.88901C1.42558 24 1.04993 24.3757 1.04993 24.8391V32.7896C1.04993 33.253 1.42558 33.6287 1.88901 33.6287ZM40.8788 28.6474H37.2774C36.3941 28.6474 35.6754 27.9288 35.6754 27.0454V25.6797C37.8164 25.7005 39.7127 26.8669 40.8788 28.6474ZM25.4386 25.6782H33.9973V27.0454C33.9973 28.8542 35.4687 30.3256 37.2774 30.3256H41.6928C41.8671 30.842 41.9889 31.3861 42.0496 31.9506H25.4386V25.6782ZM20.1943 28.5942H12.251V25.6782H20.1943V28.5942ZM10.5728 25.6782V28.5942H2.72809V25.6782H10.5728Z" fill="black"/>
<path d="M42.7443 36.482H41.5906V36.052C41.5906 35.5886 41.2148 35.2129 40.7515 35.2129C40.2882 35.2129 39.9124 35.5886 39.9124 36.052V36.482H38.2343V36.052C38.2343 35.5886 37.8585 35.2129 37.3952 35.2129C36.9318 35.2129 36.5561 35.5886 36.5561 36.052V36.482H34.8779V36.052C34.8779 35.5886 34.5022 35.2129 34.0389 35.2129C33.5755 35.2129 33.1998 35.5886 33.1998 36.052V36.482H31.5216V36.052C31.5216 35.5886 31.1459 35.2129 30.6825 35.2129C30.2192 35.2129 29.8434 35.5886 29.8434 36.052V36.482H28.1653V36.052C28.1653 35.5886 27.7895 35.2129 27.3262 35.2129C26.8629 35.2129 26.4871 35.5886 26.4871 36.052V36.482H24.809V36.052C24.809 35.5886 24.4332 35.2129 23.9699 35.2129C23.5065 35.2129 23.1308 35.5886 23.1308 36.052V36.482H21.4526V36.052C21.4526 35.5886 21.077 35.2129 20.6135 35.2129C20.1501 35.2129 19.7745 35.5886 19.7745 36.052V36.482H18.0963V36.052C18.0963 35.5886 17.7206 35.2129 17.2572 35.2129C16.7938 35.2129 16.4181 35.5886 16.4181 36.052V36.482H14.74V36.052C14.74 35.5886 14.3643 35.2129 13.9009 35.2129C13.4375 35.2129 13.0618 35.5886 13.0618 36.052V36.482H11.3836V36.052C11.3836 35.5886 11.008 35.2129 10.5446 35.2129C10.0811 35.2129 9.70547 35.5886 9.70547 36.052V36.482H8.02731V36.052C8.02731 35.5886 7.65165 35.2129 7.18823 35.2129C6.7248 35.2129 6.34915 35.5886 6.34915 36.052V36.482H4.67098V36.052C4.67098 35.5886 4.29533 35.2129 3.8319 35.2129C3.36848 35.2129 2.99282 35.5886 2.99282 36.052V36.482H1.83908C1.37566 36.482 1 36.8577 1 37.3211C1 37.7844 1.37566 38.1602 1.83908 38.1602H2.99282V38.5902C2.99282 39.0535 3.36848 39.4293 3.8319 39.4293C4.29533 39.4293 4.67098 39.0535 4.67098 38.5902V38.1602H6.34915V38.5902C6.34915 39.0535 6.7248 39.4293 7.18823 39.4293C7.65165 39.4293 8.02731 39.0535 8.02731 38.5902V38.1602H9.70547V38.5902C9.70547 39.0535 10.0811 39.4293 10.5446 39.4293C11.008 39.4293 11.3836 39.0535 11.3836 38.5902V38.1602H13.0618V38.5902C13.0618 39.0535 13.4375 39.4293 13.9009 39.4293C14.3643 39.4293 14.74 39.0535 14.74 38.5902V38.1602H16.4181V38.5902C16.4181 39.0535 16.7938 39.4293 17.2572 39.4293C17.7206 39.4293 18.0963 39.0535 18.0963 38.5902V38.1602H19.7745V38.5902C19.7745 39.0535 20.1501 39.4293 20.6135 39.4293C21.077 39.4293 21.4526 39.0535 21.4526 38.5902V38.1602H23.1308V38.5902C23.1308 39.0535 23.5065 39.4293 23.9699 39.4293C24.4332 39.4293 24.809 39.0535 24.809 38.5902V38.1602H26.4871V38.5902C26.4871 39.0535 26.8629 39.4293 27.3262 39.4293C27.7895 39.4293 28.1653 39.0535 28.1653 38.5902V38.1602H29.8434V38.5902C29.8434 39.0535 30.2192 39.4293 30.6825 39.4293C31.1459 39.4293 31.5216 39.0535 31.5216 38.5902V38.1602H33.1998V38.5902C33.1998 39.0535 33.5755 39.4293 34.0389 39.4293C34.5022 39.4293 34.8779 39.0535 34.8779 38.5902V38.1602H36.5561V38.5902C36.5561 39.0535 36.9318 39.4293 37.3952 39.4293C37.8585 39.4293 38.2343 39.0535 38.2343 38.5902V38.1602H39.9124V38.5902C39.9124 39.0535 40.2882 39.4293 40.7515 39.4293C41.2148 39.4293 41.5906 39.0535 41.5906 38.5902V38.1602H42.7443C43.2077 38.1602 43.5834 37.7844 43.5834 37.3211C43.5834 36.8577 43.2077 36.482 42.7443 36.482Z" fill="black"/>
<path d="M11.3628 33.6608C11.8262 33.6608 12.2018 33.2852 12.2018 32.8217C12.2018 32.3583 11.8262 31.9827 11.3628 31.9827C10.8994 31.9827 10.5237 32.3583 10.5237 32.8217C10.5237 33.2852 10.8994 33.6608 11.3628 33.6608Z" fill="black"/>
</svg>
