<svg width="20" height="20" viewBox="0 0 20 20" fill="none" xmlns="http://www.w3.org/2000/svg">
<path d="M15.2116 7.49088C15.2166 7.59921 15.2191 7.7081 15.2191 7.81755C15.2256 8.76263 15.0441 9.69957 14.6854 10.5739C14.3267 11.4483 13.7978 12.2427 13.1294 12.911C12.4611 13.5792 11.6667 14.108 10.7923 14.4666C9.91784 14.8253 8.98088 15.0066 8.03579 15C6.66394 15.0012 5.32074 14.6075 4.16663 13.8659C4.3666 13.8894 4.56778 13.901 4.76913 13.9009C5.90638 13.9021 7.01095 13.5205 7.90496 12.8175C7.37857 12.8078 6.86835 12.6339 6.44556 12.3202C6.02276 12.0065 5.70849 11.5685 5.54663 11.0675C5.92493 11.1406 6.31496 11.1258 6.68663 11.0242C6.11514 10.909 5.60114 10.5995 5.23187 10.1484C4.86261 9.69723 4.66083 9.13221 4.66079 8.54921C4.66079 8.53755 4.66079 8.52755 4.66079 8.51671C5.01107 8.71224 5.40317 8.82083 5.80413 8.83338C5.26944 8.47641 4.89094 7.92905 4.74572 7.30277C4.60049 6.67649 4.69945 6.01841 5.02246 5.46255C5.65644 6.24254 6.44742 6.88046 7.344 7.33485C8.24058 7.78924 9.22272 8.04995 10.2266 8.10005C10.1003 7.55872 10.156 6.99081 10.3852 6.48438C10.6144 5.97795 11.0043 5.56127 11.4944 5.29894C11.9845 5.03661 12.5474 4.94329 13.0959 5.03344C13.6445 5.12358 14.1479 5.39217 14.5283 5.79755C15.0937 5.68611 15.6359 5.47897 16.1316 5.18505C15.9433 5.77051 15.5485 6.2675 15.0208 6.58338C15.5213 6.5242 16.0101 6.3902 16.4708 6.18588C16.1319 6.6922 15.7055 7.1341 15.2116 7.49088Z" fill="#001729"/>
</svg>
