<svg width="44" height="44" viewBox="0 0 44 44" fill="none" xmlns="http://www.w3.org/2000/svg">
<path d="M2.80347 8.30773L15.5749 6.78076V37.5033L2.80347 39.0303V8.30773Z" fill="#008BFF"/>
<path d="M15.5745 3.80347H28.3459V34.526H15.5745V3.80347Z" fill="white"/>
<path d="M41.1971 40.6312L28.4257 38.8631V8.14062L41.1971 9.90872V40.6312Z" fill="#008BFF"/>
<path d="M7.61208 29.2304C8.54253 29.2304 9.2968 28.4761 9.2968 27.5457C9.2968 26.6152 8.54253 25.861 7.61208 25.861C6.68164 25.861 5.92737 26.6152 5.92737 27.5457C5.92737 28.4761 6.68164 29.2304 7.61208 29.2304Z" fill="white"/>
<path d="M36.34 37.0748C37.2704 37.0748 38.0247 36.3205 38.0247 35.39C38.0247 34.4596 37.2704 33.7053 36.34 33.7053C35.4095 33.7053 34.6553 34.4596 34.6553 35.39C34.6553 36.3205 35.4095 37.0748 36.34 37.0748Z" fill="white"/>
<path d="M41.3047 9.1127L39.0069 8.80105C38.5672 8.74114 38.1625 9.04941 38.103 9.489C38.0434 9.92859 38.3514 10.3332 38.791 10.3928L40.3937 10.6103V39.7091L29.2286 38.1634V27.774C29.5456 27.8309 29.9346 27.9285 30.338 28.0961C31.6042 28.6219 32.4061 29.5753 32.7216 30.9299C33.0354 32.2764 33.4975 33.4106 34.0973 34.3124C33.9399 34.6386 33.8517 35.004 33.8517 35.3897C33.8517 36.7616 34.9678 37.8777 36.3397 37.8777C37.7115 37.8777 38.8276 36.7616 38.8276 35.3897C38.8276 34.0179 37.7115 32.9018 36.3397 32.9018C35.9542 32.9018 35.5889 32.9899 35.2629 33.1471C34.8533 32.448 34.5203 31.5705 34.2861 30.5655C33.8529 28.7047 32.7008 27.3378 30.9542 26.6125C30.3052 26.343 29.6873 26.2122 29.2287 26.1487V9.06258L31.6412 9.39655C32.0808 9.45711 32.4861 9.15053 32.5469 8.7111C32.6078 8.27174 32.3009 7.86613 31.8615 7.8054L29.1489 7.42983V3.8032C29.1489 3.35959 28.7893 3 28.3457 3H15.5741C15.1305 3 14.7709 3.35959 14.7709 3.8032V6.06759L2.70786 7.50983C2.30401 7.5581 2 7.90066 2 8.30733V39.0299C2 39.5037 2.42746 39.8837 2.89854 39.8274L15.67 38.3004C16.0738 38.2521 16.3778 37.9095 16.3778 37.5029V35.3289H27.6222V38.863C27.6222 39.2641 27.918 39.6037 28.3152 39.6587L41.0867 41.4268C41.5623 41.4928 42 41.1109 42 40.6312V9.90867C42 9.50667 41.7031 9.16667 41.3047 9.1127ZM37.2211 35.3897C37.2211 35.8758 36.8257 36.2712 36.3396 36.2712C35.8535 36.2712 35.4581 35.8758 35.4581 35.3897C35.4581 34.9036 35.8535 34.5082 36.3396 34.5082C36.8257 34.5082 37.2211 34.9037 37.2211 35.3897ZM27.5423 4.60641V23.2427C24.9499 23.0727 24.3727 21.1585 23.7725 18.1315C23.4657 16.5842 23.1759 15.1226 22.3418 14.1175C21.771 13.4296 21.0112 13.0462 20.1444 13.0089C18.7779 12.9498 17.3709 13.7479 16.3778 14.481V6.78036C16.3778 6.77714 16.3773 6.77401 16.3773 6.7708V4.60641H27.5423ZM3.60641 38.1249V9.02025L14.7709 7.68541V20.6399C14.0359 23.8659 11.7619 25.464 9.7379 26.2543C9.30088 25.5372 8.51133 25.0573 7.61182 25.0573C6.23995 25.0573 5.1239 26.1734 5.1239 27.5452C5.1239 28.9171 6.23995 30.0332 7.61182 30.0332C8.88353 30.0332 9.93476 29.0738 10.0815 27.8409C11.5115 27.3117 13.3927 26.3083 14.7709 24.4536V34.5257C14.7709 34.5291 14.7714 34.5324 14.7714 34.5358V36.79L3.60641 38.1249ZM8.49334 27.5452C8.49334 28.0312 8.09792 28.4267 7.61182 28.4267C7.12572 28.4267 6.7303 28.0313 6.7303 27.5452C6.7303 27.0591 7.12572 26.6637 7.61182 26.6637C8.09792 26.6637 8.49334 27.0591 8.49334 27.5452ZM16.3778 33.7225V16.5662C17.121 15.8703 18.7963 14.5595 20.0752 14.6137C20.4934 14.6317 20.8208 14.7999 21.1056 15.1431C21.6794 15.8347 21.9307 17.1021 22.1967 18.4439C22.4936 19.9409 22.8005 21.4889 23.6157 22.7263C24.4841 24.0444 25.8033 24.7565 27.5423 24.8507V33.7224H16.3778V33.7225Z" fill="black"/>
<path d="M35.3248 9.89144C35.7684 9.89144 36.128 9.53184 36.128 9.08824C36.128 8.64464 35.7684 8.28503 35.3248 8.28503C34.8812 8.28503 34.5216 8.64464 34.5216 9.08824C34.5216 9.53184 34.8812 9.89144 35.3248 9.89144Z" fill="black"/>
</svg>
