<svg width="37" height="37" viewBox="0 0 37 37" fill="none" xmlns="http://www.w3.org/2000/svg">
<g clip-path="url(#clip0)">
<path d="M17.164 35.7737C7.32609 20.9631 5.5 19.4431 5.5 14C5.5 6.54413 11.3203 0.5 18.5 0.5C25.6797 0.5 31.5 6.54413 31.5 14C31.5 19.4431 29.6739 20.9631 19.836 35.7737C19.1904 36.7421 17.8095 36.7421 17.164 35.7737Z" fill="#001729"/>
<path d="M14.0174 13.2385L13.745 14.2423C13.6789 14.4858 13.6653 14.7378 13.6921 14.9867L12.92 15.6141C12.7759 15.7312 12.5622 15.6047 12.5993 15.4242L12.938 13.7643C12.9612 13.6505 12.8796 13.5418 12.7625 13.5308L11.0546 13.3673C10.8688 13.3496 10.8082 13.1112 10.9638 13.0093L12.3929 12.072C12.4907 12.0077 12.5109 11.8739 12.4363 11.7843L11.3459 10.4766C11.2272 10.3344 11.3553 10.1238 11.5385 10.1601L13.2205 10.4944C13.3359 10.5173 13.446 10.4368 13.4574 10.3212L13.623 8.63577C13.641 8.4522 13.8825 8.39267 13.986 8.54615L14.9358 9.95622C15.001 10.0528 15.1366 10.0727 15.2274 9.99908L16.5523 8.92302C16.6964 8.80591 16.9098 8.93233 16.873 9.11286L16.6244 10.3285C16.565 10.3946 16.5053 10.4604 16.4509 10.532L15.7457 11.4622L15.5108 11.7722C14.7928 11.9618 14.2126 12.5196 14.0174 13.2385ZM24.866 16.107L24.5936 17.1105C24.5249 17.3633 24.3878 17.5783 24.2086 17.7461C24.149 17.8018 24.0847 17.8525 24.0165 17.8976L23.7096 19.0282C23.6846 19.1206 23.6416 19.2035 23.5857 19.2745C23.4174 19.4875 23.1307 19.5923 22.85 19.5181L22.1719 19.3388C21.7975 19.2399 21.5753 18.86 21.6755 18.4905L21.8571 17.8214L16.4329 16.3871L16.2513 17.0562C16.1511 17.4257 15.7661 17.645 15.3917 17.546L14.7136 17.3668C14.4329 17.2925 14.2376 17.0603 14.1999 16.7929C14.1874 16.7038 14.1922 16.6107 14.2172 16.5185L14.5241 15.3878C14.4878 15.3151 14.4578 15.2394 14.4344 15.1616C14.3642 14.9281 14.3543 14.6741 14.423 14.4213L14.6954 13.4176C14.8119 12.9889 15.1201 12.6636 15.5046 12.5038C15.6339 12.4501 15.7706 12.4156 15.9102 12.4017L16.3079 11.8772L17.0131 10.947C17.0888 10.8472 17.1708 10.7543 17.2588 10.6691C17.4343 10.4983 17.6324 10.3565 17.8454 10.2467C17.952 10.1917 18.0623 10.1448 18.1755 10.1062C18.4021 10.0287 18.6403 9.98436 18.8827 9.97549C19.1251 9.96661 19.3721 9.99324 19.616 10.0577L22.307 10.7693C22.551 10.8338 22.7782 10.9325 22.9838 11.06C23.2905 11.25 23.5504 11.5052 23.7447 11.8068C23.9382 12.1073 24.0658 12.4528 24.1106 12.824L24.2501 13.9776L24.3288 14.628C24.5566 14.7903 24.7303 15.0159 24.8277 15.2759C24.924 15.5331 24.9437 15.8212 24.866 16.107ZM16.4814 13.5314C16.0745 13.4238 15.731 13.6189 15.6222 14.0191C15.5134 14.4194 15.7124 14.7577 16.119 14.8653C16.5259 14.9729 17.118 15.201 17.2266 14.8008C17.3354 14.4005 16.8881 13.639 16.4814 13.5314ZM22.8561 14.1412L22.7166 12.9876C22.7039 12.8822 22.6751 12.7814 22.6328 12.6876C22.5056 12.4064 22.2555 12.1895 21.9436 12.1071L19.2525 11.3955C19.0493 11.3418 18.8343 11.3494 18.6355 11.4173C18.4366 11.4853 18.263 11.6105 18.1369 11.7767L17.4317 12.7069L21.2046 13.7044L22.8561 14.1412ZM23.2617 15.3242C22.8548 15.2166 22.0815 15.6556 21.973 16.0557C21.8644 16.4559 22.4926 16.5505 22.8995 16.6581C23.3064 16.7657 23.6499 16.5706 23.7587 16.1704C23.8673 15.7703 23.6686 15.4318 23.2617 15.3242Z" fill="white"/>
</g>
<defs>
<clipPath id="clip0">
<rect width="36" height="36" fill="white" transform="translate(0.5 0.5)"/>
</clipPath>
</defs>
</svg>
