<svg width="19" height="15" viewBox="0 0 19 15" fill="none" xmlns="http://www.w3.org/2000/svg">
<path d="M4.46935 6.22544L4.12522 7.49335C4.04182 7.80096 4.02464 8.11924 4.05844 8.43369L3.08312 9.2261C2.90108 9.37403 2.6312 9.21434 2.67803 8.9863L3.10584 6.88961C3.13521 6.74578 3.03214 6.60852 2.88418 6.59458L0.72683 6.38813C0.492143 6.36571 0.415669 6.06466 0.612119 5.93587L2.4173 4.75191C2.54087 4.6707 2.56636 4.50171 2.47216 4.38851L1.09479 2.7367C0.944892 2.55706 1.10671 2.291 1.33807 2.33694L3.46272 2.75912C3.60846 2.78811 3.74756 2.68639 3.76196 2.54038L3.97116 0.411422C3.99388 0.17955 4.29895 0.104356 4.42973 0.29822L5.62948 2.07937C5.71178 2.20132 5.88301 2.22647 5.99772 2.13351L7.67129 0.774268C7.85333 0.626341 8.12293 0.786026 8.07638 1.01407L7.76245 2.54967C7.68736 2.63307 7.61199 2.71619 7.54328 2.8067L6.65246 3.98164L6.35571 4.3732C5.44883 4.61273 4.71595 5.31737 4.46935 6.22544ZM18.1729 9.84871L17.8288 11.1163C17.742 11.4357 17.5689 11.7072 17.3425 11.9191C17.2672 11.9895 17.186 12.0536 17.0998 12.1106L16.7121 13.5387C16.6805 13.6555 16.6262 13.7602 16.5556 13.8499C16.3431 14.1189 15.9809 14.2513 15.6263 14.1575L14.7698 13.9311C14.2968 13.8061 14.0161 13.3262 14.1428 12.8595L14.3722 12.0143L7.52055 10.2025L7.29113 11.0477C7.16451 11.5145 6.67823 11.7915 6.20526 11.6665L5.3488 11.4401C4.99414 11.3463 4.74754 11.0529 4.69988 10.7152C4.68409 10.6026 4.69018 10.485 4.72177 10.3685L5.1094 8.94036C5.06355 8.84843 5.02564 8.75284 4.99608 8.65462C4.90741 8.35959 4.89494 8.03885 4.98167 7.71948L5.3258 6.45157C5.47293 5.91017 5.86223 5.4992 6.34795 5.29741C6.51128 5.22949 6.68395 5.18599 6.86027 5.16835L7.36262 4.50582L8.25343 3.33087C8.34902 3.20482 8.45265 3.08752 8.56376 2.97978C8.78543 2.76404 9.03563 2.58495 9.30467 2.44631C9.43933 2.37686 9.5787 2.31753 9.72168 2.26886C10.0079 2.17097 10.3088 2.11491 10.615 2.1037C10.9212 2.09249 11.2331 2.12612 11.5413 2.20761L14.9405 3.10638C15.2486 3.18787 15.5356 3.31255 15.7953 3.4736C16.1827 3.71367 16.5111 4.03593 16.7565 4.41695C17.0008 4.79648 17.1621 5.23288 17.2186 5.70181L17.3949 7.15894L17.4943 7.98061C17.782 8.18561 18.0014 8.47051 18.1244 8.799C18.246 9.12384 18.271 9.48778 18.1729 9.84871ZM7.58179 6.5954C7.06781 6.4595 6.6339 6.70586 6.49647 7.21144C6.35904 7.71702 6.61035 8.1444 7.12405 8.28029C7.63804 8.41619 8.38587 8.70439 8.52303 8.19881C8.66046 7.69323 8.0955 6.73129 7.58179 6.5954ZM15.634 7.36566L15.4578 5.90853C15.4417 5.77537 15.4054 5.64795 15.3519 5.52955C15.1912 5.17436 14.8754 4.90038 14.4814 4.7962L11.0821 3.89743C10.8254 3.82955 10.5539 3.83915 10.3027 3.92497C10.0515 4.0108 9.83217 4.16892 9.67291 4.37894L8.7821 5.55389L13.5479 6.81387L15.634 7.36566ZM16.1463 8.85997C15.6323 8.72408 14.6556 9.2786 14.5185 9.78391C14.3813 10.2895 15.1749 10.409 15.6889 10.5449C16.2029 10.6808 16.6368 10.4344 16.7742 9.92882C16.9114 9.42352 16.6603 8.99587 16.1463 8.85997Z" fill="#222222"/>
</svg>
