<svg width="19" height="19" viewBox="0 0 19 19" fill="none" xmlns="http://www.w3.org/2000/svg">
<path d="M9.5 18.1875C7.71997 18.1875 5.97991 17.6597 4.49987 16.6707C3.01983 15.6818 1.86628 14.2762 1.18509 12.6317C0.5039 10.9871 0.32567 9.17752 0.672937 7.43169C1.0202 5.68586 1.87737 4.08222 3.13604 2.82354C4.39472 1.56487 5.99836 0.707703 7.74419 0.360437C9.49002 0.0131695 11.2996 0.1914 12.9442 0.872588C14.5887 1.55378 15.9943 2.70733 16.9832 4.18737C17.9722 5.66741 18.5 7.40747 18.5 9.1875C18.4974 11.5736 17.5483 13.8613 15.861 15.5485C14.1738 17.2358 11.8861 18.1849 9.5 18.1875ZM3.045 8.1875L2.982 8.1925C2.82417 8.2518 2.69084 8.36242 2.60343 8.50659C2.51602 8.65077 2.47959 8.82014 2.5 8.9875V9.0805C2.532 9.4805 2.765 9.7875 3.042 9.7875H15.954L16.018 9.7825C16.1756 9.72291 16.3087 9.61223 16.3961 9.46813C16.4835 9.32403 16.5201 9.15482 16.5 8.9875V8.8935C16.464 8.4875 16.231 8.1875 15.954 8.1875H3.045Z" fill="#222222"/>
</svg>
