<svg width="19" height="18" viewBox="0 0 19 18" fill="none" xmlns="http://www.w3.org/2000/svg">
<path d="M0.772736 9.18773C0.772736 7.46163 1.28458 5.7743 2.24355 4.33911C3.20251 2.90392 4.56552 1.78532 6.16023 1.12478C7.75493 0.464231 9.50969 0.291402 11.2026 0.628145C12.8955 0.964889 14.4506 1.79608 15.6711 3.01661C16.8917 4.23714 17.7228 5.79219 18.0596 7.48512C18.3963 9.17804 18.2235 10.9328 17.563 12.5275C16.9024 14.1222 15.7838 15.4852 14.3486 16.4442C12.9134 17.4032 11.2261 17.915 9.50001 17.915C7.18619 17.9124 4.96788 16.9921 3.33176 15.356C1.69565 13.7199 0.775334 11.5015 0.772736 9.18773H0.772736Z" fill="#F47860"/>
</svg>
