<svg width="19" height="18" viewBox="0 0 19 18" fill="none" xmlns="http://www.w3.org/2000/svg">
<path d="M0.772705 9.18773C0.772705 7.46163 1.28455 5.7743 2.24352 4.33911C3.20248 2.90392 4.56549 1.78532 6.16019 1.12478C7.7549 0.464231 9.50966 0.291402 11.2026 0.628145C12.8955 0.964889 14.4506 1.79608 15.6711 3.01661C16.8916 4.23714 17.7228 5.79219 18.0596 7.48512C18.3963 9.17804 18.2235 10.9328 17.5629 12.5275C16.9024 14.1222 15.7838 15.4852 14.3486 16.4442C12.9134 17.4032 11.2261 17.915 9.49998 17.915C7.18616 17.9124 4.96785 16.9921 3.33173 15.356C1.69562 13.7199 0.775304 11.5015 0.772705 9.18773H0.772705Z" fill="#00B431"/>
</svg>
