<svg width="40" height="40" viewBox="0 0 40 40" fill="none" xmlns="http://www.w3.org/2000/svg">
<circle cx="19.1667" cy="20.8332" r="15.6667" fill="#00B431" stroke="#B9141B" stroke-width="3"/>
<path d="M26.5021 24.7744L19.7729 14.1002C19.6353 13.882 19.3984 13.75 19.1439 13.75C18.8895 13.75 18.6526 13.882 18.5149 14.1002L11.7858 24.7744C11.7131 24.8896 11.6723 25.0226 11.6675 25.1595C11.6627 25.2963 11.6941 25.4319 11.7584 25.5521C11.8228 25.6723 11.9177 25.7726 12.0332 25.8424C12.1487 25.9122 12.2805 25.9491 12.4148 25.9491H25.8731C26.1467 25.9491 26.3983 25.7968 26.5294 25.5519C26.5938 25.4317 26.6252 25.2961 26.6204 25.1593C26.6156 25.0225 26.5747 24.8896 26.5021 24.7744ZM19.1439 15.9225L21.1391 19.0871H19.1439L17.6486 20.612L16.7593 19.7051L19.1439 15.9225Z" fill="white"/>
</svg>