<svg width="40" height="40" viewBox="0 0 40 40" fill="none" xmlns="http://www.w3.org/2000/svg">
<circle cx="19.1667" cy="20.8332" r="14.1667" fill="#00B431"/>
<g clip-path="url(#clip0)">
<path d="M26.5226 24.7744L19.7934 14.1002C19.6558 13.882 19.4189 13.75 19.1644 13.75C18.91 13.75 18.6731 13.882 18.5354 14.1002L11.8063 24.7744C11.7337 24.8896 11.6928 25.0226 11.688 25.1595C11.6832 25.2963 11.7146 25.4319 11.7789 25.5521C11.8433 25.6723 11.9382 25.7726 12.0537 25.8424C12.1692 25.9122 12.301 25.9491 12.4353 25.9491H25.8936C26.1672 25.9491 26.4188 25.7968 26.5499 25.5519C26.6143 25.4317 26.6457 25.2961 26.6409 25.1593C26.6361 25.0225 26.5952 24.8896 26.5226 24.7744ZM19.1644 15.9225L21.1596 19.0871H19.1644L17.6691 20.612L16.7798 19.7051L19.1644 15.9225Z" fill="white"/>
</g>
<defs>
<clipPath id="clip0">
<rect width="14.9537" height="12.1991" fill="white" transform="translate(11.6895 13.75)"/>
</clipPath>
</defs>
</svg>