<svg width="40" height="40" viewBox="0 0 40 40" fill="none" xmlns="http://www.w3.org/2000/svg">
<circle cx="19.1667" cy="20.8332" r="14.1667" fill="#B9141B"/>
<path d="M24.8351 24.7744L18.1059 14.1002C17.9683 13.882 17.7314 13.75 17.4769 13.75C17.2225 13.75 16.9856 13.882 16.8479 14.1002L10.1188 24.7744C10.0462 24.8896 10.0053 25.0226 10.0005 25.1595C9.99567 25.2963 10.0271 25.4319 10.0914 25.5521C10.1558 25.6723 10.2507 25.7726 10.3662 25.8424C10.4817 25.9122 10.6135 25.9491 10.7478 25.9491H24.2061C24.4797 25.9491 24.7313 25.7968 24.8624 25.5519C24.9268 25.4317 24.9582 25.2961 24.9534 25.1593C24.9486 25.0225 24.9077 24.8896 24.8351 24.7744ZM17.4769 15.9225L19.4721 19.0871H17.4769L15.9816 20.612L15.0923 19.7051L17.4769 15.9225Z" fill="white"/>
<path d="M26.2425 14.9998L28.1377 13.1046C28.3703 12.872 28.3703 12.4949 28.1377 12.2621L27.7165 11.8409C27.484 11.6084 27.1069 11.6084 26.8741 11.8409L24.9788 13.7362L23.0836 11.8409C22.851 11.6084 22.4739 11.6084 22.2412 11.8409L21.8199 12.2621C21.5874 12.4947 21.5874 12.8718 21.8199 13.1046L23.7152 14.9998L21.8199 16.8951C21.5874 17.1277 21.5874 17.5048 21.8199 17.7375L22.2412 18.1587C22.4737 18.3913 22.851 18.3913 23.0836 18.1587L24.9788 16.2635L26.8741 18.1587C27.1067 18.3913 27.484 18.3913 27.7165 18.1587L28.1377 17.7375C28.3703 17.505 28.3703 17.1279 28.1377 16.8951L26.2425 14.9998Z" fill="white"/>
</svg>