<svg width="19" height="18" viewBox="0 0 19 18" fill="none" xmlns="http://www.w3.org/2000/svg">
<path d="M0.77272 9.18773C0.77272 7.46163 1.28457 5.7743 2.24353 4.33911C3.2025 2.90392 4.56551 1.78532 6.16021 1.12478C7.75491 0.464231 9.50967 0.291402 11.2026 0.628145C12.8955 0.964889 14.4506 1.79608 15.6711 3.01661C16.8916 4.23714 17.7228 5.79219 18.0596 7.48512C18.3963 9.17804 18.2235 10.9328 17.5629 12.5275C16.9024 14.1222 15.7838 15.4852 14.3486 16.4442C12.9134 17.4032 11.2261 17.915 9.49999 17.915C7.18617 17.9124 4.96787 16.9921 3.33175 15.356C1.69563 13.7199 0.775319 11.5015 0.77272 9.18773H0.77272Z" fill="#DA3463"/>
</svg>
