<svg width="19" height="13" viewBox="0 0 19 13" fill="none" xmlns="http://www.w3.org/2000/svg">
<path d="M11.166 12.6035H18.5V11.6715H11.52V9.4035L12.164 9.2035C12.2224 9.18543 12.2767 9.15599 12.3238 9.11686C12.3708 9.07773 12.4096 9.02969 12.438 8.9755C12.4667 8.92146 12.4845 8.86225 12.4901 8.80131C12.4958 8.74037 12.4893 8.67891 12.471 8.6205L12.365 8.2775L8.807 9.3875L8.913 9.7305C8.93118 9.78903 8.96078 9.84338 9.00008 9.89041C9.03939 9.93744 9.08762 9.97622 9.142 10.0045C9.20898 10.0396 9.28339 10.0581 9.359 10.0585C9.40708 10.0573 9.45466 10.0485 9.5 10.0325L10.674 9.6675L10.719 12.2675C10.7473 12.3642 10.8061 12.4492 10.8866 12.5098C10.9672 12.5704 11.0652 12.6032 11.166 12.6035ZM5.166 10.9635C5.308 10.9635 5.406 10.8385 5.428 10.6275L5.634 8.7075C5.64423 8.51005 5.61403 8.31259 5.54525 8.12722C5.47647 7.94185 5.37055 7.77248 5.234 7.6295L3.822 6.3125C3.56016 6.09531 3.23118 5.97552 2.891 5.9735C2.83337 5.97313 2.77581 5.97782 2.719 5.9875L0.818999 6.3265C0.650999 6.3565 0.540999 6.4265 0.509999 6.5355C0.500022 6.60059 0.5084 6.66718 0.534192 6.72777C0.559984 6.78837 0.602168 6.84057 0.655999 6.8785L4.89 10.8275C4.96217 10.9059 5.06088 10.9547 5.167 10.9645L5.166 10.9635ZM7.649 8.7635L15.885 6.2075C15.9436 6.18937 15.9979 6.15979 16.045 6.12048C16.092 6.08117 16.1308 6.03291 16.159 5.9785C16.1876 5.92424 16.2053 5.86487 16.2109 5.80378C16.2166 5.7427 16.2101 5.6811 16.192 5.6225L14.6 0.5155C14.5708 0.420898 14.5122 0.338073 14.4327 0.27908C14.3532 0.220086 14.257 0.188003 14.158 0.1875C14.1112 0.187607 14.0647 0.194685 14.02 0.2085L2.377 3.8275L7.649 8.7665V8.7635ZM12.991 1.8135C13.0603 1.81338 13.1277 1.83546 13.1835 1.87649C13.2393 1.91753 13.2805 1.97535 13.301 2.0415C13.3243 2.11414 13.3213 2.19269 13.2924 2.2633C13.2635 2.33392 13.2106 2.39206 13.143 2.4275L13.089 2.4505L8.171 4.0125C8.13867 4.02277 8.10492 4.02783 8.071 4.0275C8.00174 4.02774 7.93421 4.00585 7.87827 3.96501C7.82232 3.92418 7.78088 3.86654 7.76 3.8005C7.73681 3.7277 7.73993 3.64908 7.76881 3.57834C7.79769 3.50761 7.85049 3.44927 7.918 3.4135L7.973 3.3905L12.891 1.8275C12.9236 1.81867 12.9573 1.81495 12.991 1.8165V1.8135Z" fill="#222222"/>
</svg>
