<svg width="15" height="16" viewBox="0 0 15 16" fill="none" xmlns="http://www.w3.org/2000/svg">
<path d="M14.2593 10.3008L13.2031 9.72949L14.0155 9.52441C14.2718 9.45996 14.4249 9.21094 14.3561 8.9707L14.2312 8.53418C14.1624 8.29395 13.8968 8.15039 13.6406 8.21484L11.4283 8.77148L9.43156 7.6875L11.4251 6.60645L13.6375 7.16309C13.8937 7.22754 14.1593 7.08398 14.228 6.84375L14.353 6.40723C14.4218 6.16699 14.2687 5.91797 14.0124 5.85352L13.2 5.64844L14.2562 5.07715C14.4874 4.95117 14.5655 4.67578 14.4343 4.45898L13.9499 3.67383C13.8156 3.45703 13.5218 3.38379 13.2906 3.50684L12.2344 4.07812L12.4532 3.31641C12.5219 3.07617 12.3688 2.82715 12.1126 2.7627L11.647 2.64551C11.3908 2.58105 11.1252 2.72461 11.0564 2.96484L10.4627 5.03906L8.50039 6.09961V3.8291L10.1784 2.25586C10.3721 2.07422 10.3721 1.77539 10.1784 1.59375L9.82528 1.2627C9.63154 1.08105 9.31282 1.08105 9.11908 1.2627L8.50039 1.83984V0.65625C8.50039 0.398438 8.27541 0.1875 8.00043 0.1875H7.00051C6.72554 0.1875 6.50055 0.398438 6.50055 0.65625V1.83984L5.88498 1.2627C5.69125 1.08105 5.37252 1.08105 5.17879 1.2627L4.82257 1.59375C4.62571 1.77539 4.62571 2.07422 4.82257 2.25586L6.50055 3.8291V6.09961L4.53822 5.03906L3.94452 2.96484C3.87578 2.72461 3.61017 2.58105 3.35394 2.64551L2.88836 2.7627C2.63213 2.82715 2.47902 3.07617 2.54776 3.31641L2.76649 4.07812L1.71033 3.50684C1.4791 3.38086 1.18538 3.45703 1.05101 3.67383L0.566678 4.45605C0.432314 4.67285 0.513558 4.94824 0.744788 5.07422L1.80095 5.64551L0.988518 5.85059C0.729164 5.91504 0.576052 6.16406 0.644797 6.40723L0.769786 6.84375C0.83853 7.08398 1.10413 7.22754 1.36036 7.16309L3.57268 6.60645L5.56626 7.6875L3.57268 8.76855L1.36036 8.21191C1.10413 8.14746 0.83853 8.29102 0.769786 8.53125L0.644797 8.96777C0.576052 9.20801 0.729164 9.45703 0.985393 9.52148L1.79782 9.72656L0.741663 10.3008C0.510433 10.4268 0.432314 10.7021 0.563553 10.9189L1.04789 11.7041C1.18225 11.9209 1.47598 11.9941 1.70721 11.8711L2.76337 11.2998L2.54464 12.0615C2.47589 12.3018 2.62901 12.5508 2.88523 12.6152L3.35082 12.7324C3.60705 12.7969 3.87265 12.6533 3.94139 12.4131L4.53509 10.3389L6.49743 9.27832V11.5488L4.81945 13.1221C4.62259 13.3037 4.62259 13.6025 4.81945 13.7842L5.17254 14.1152C5.36627 14.2969 5.685 14.2969 5.87873 14.1152L6.49431 13.5381V14.7188C6.49431 14.9766 6.71929 15.1875 6.99426 15.1875H7.99418C8.26916 15.1875 8.49414 14.9766 8.49414 14.7188V13.5352L9.10971 14.1123C9.30344 14.2939 9.62217 14.2939 9.8159 14.1123L10.169 13.7812C10.3627 13.5996 10.3627 13.3008 10.169 13.1191L8.50039 11.5459V9.27539L10.4627 10.3359L11.0564 12.4102C11.1252 12.6504 11.3908 12.7939 11.647 12.7295L12.1126 12.6123C12.3688 12.5479 12.5219 12.2988 12.4532 12.0586L12.2344 11.2969L13.2906 11.8682C13.5218 11.9941 13.8156 11.918 13.9499 11.7012L14.4343 10.916C14.5686 10.7021 14.4905 10.4238 14.2593 10.3008Z" fill="#222222"/>
</svg>
