<svg width="24" height="24" viewBox="0 0 18 18" xmlns="http://www.w3.org/2000/svg"><path d="M11.483 2.892a1.093 1.093 0 1 1-1.545 1.545 1.093 1.093 0 0 1 1.545-1.545M13.6 8.62l-.122.121a.836.836 0 0 1-1.183 0L9.788 6.233c-.034.046-1.941 1.959-1.941 1.959l1.725 1.723a.757.757 0 0 1 .224.538v3.67h-.635a.81.81 0 0 1-.81-.811v-2.573L6.305 8.694a.876.876 0 0 1-.196-.15l-.28-.28a.978.978 0 0 1 0-1.382l2.186-2.184a1.174 1.174 0 0 1 1.662 0l1.546 1.544z" style="stroke-width:.0312507;fill:currentColor;fill-opacity:1"/><path d="M7.075 12.365a2.888 2.888 0 1 1-5.775 0 2.888 2.888 0 0 1 5.775 0M16.7 12.365a2.888 2.888 0 1 1-5.775 0 2.888 2.888 0 0 1 5.775 0" fill="none" stroke="#000" stroke-miterlimit="10" stroke-width=".35" style="stroke:currentColor;stroke-opacity:1;stroke-width:.55;stroke-miterlimit:10;stroke-dasharray:none"/></svg>