<svg width="24" height="24" viewBox="0 0 24 24" fill="none" xmlns="http://www.w3.org/2000/svg">
<g clip-path="url(#clip0_1099_47695)">
<path fill-rule="evenodd" clip-rule="evenodd" d="M4 19.3376V16.2444H6.89719V11.3573H4V10.9069C4 9.98953 4.74511 9.24442 5.66245 9.24442H11.0995V6.07146L6.83831 7.29909L6.45459 5.96622L16.7491 3L17.1331 4.33287L12.4865 5.67183V9.24442H17.9242C18.8416 9.24442 19.5867 9.98953 19.5867 10.9069V11.3573H16.6898V16.2444H19.5867V19.3376C19.5867 20.2549 18.8416 21 17.9242 21H5.66245C4.74511 21 4 20.2549 4 19.3376ZM11.0995 16.2444V11.3573H8.23006V16.2444H11.0995ZM15.357 16.2444V11.3573H12.4865V16.2444H15.357Z" fill="#222222"/>
</g>
<defs>
<clipPath id="clip0_1099_47695">
<rect width="24" height="24" fill="white"/>
</clipPath>
</defs>
</svg>
