<svg width="24" height="24" viewBox="0 0 24 24" fill="none" xmlns="http://www.w3.org/2000/svg">
<g clip-path="url(#clip0_1099_47694)">
<path d="M18.7292 19.3636C17.5919 19.3636 16.4546 18.9791 15.4565 18.2836C13.4601 19.6827 10.9074 19.6827 8.911 18.2836C7.91282 18.9791 6.77554 19.3636 5.63827 19.3636H4.00191V21H5.63827C6.76736 21 7.88009 20.7136 8.911 20.19C10.9728 21.2455 13.3946 21.2455 15.4565 20.19C16.4874 20.7218 17.6001 21 18.7292 21H20.3655V19.3636H18.7292ZM5.59736 17.7273H5.63827C6.94736 17.7273 8.10918 17.0073 8.911 16.0909C9.71282 17.0073 10.8746 17.7273 12.1837 17.7273C13.4928 17.7273 14.6546 17.0073 15.4565 16.0909C16.2583 17.0073 17.4201 17.7273 18.7292 17.7273H18.7701L20.3165 12.2618C20.3819 12.0491 20.3655 11.82 20.2674 11.6236C20.1692 11.4273 19.9892 11.28 19.7765 11.2145L18.7292 10.8709V7.09091C18.7292 6.19091 17.9928 5.45455 17.0928 5.45455H14.6383V3H9.72918V5.45455H7.27463C6.37463 5.45455 5.63827 6.19091 5.63827 7.09091V10.8709L4.58282 11.2145C4.37009 11.28 4.19009 11.4273 4.09191 11.6236C3.99372 11.82 3.96918 12.0491 4.04282 12.2618L5.59736 17.7273ZM7.27463 7.09091H17.0928V10.3391L12.1837 8.72727L7.27463 10.3391V7.09091Z" fill="#222222"/>
</g>
<defs>
<clipPath id="clip0_1099_47694">
<rect width="24" height="24" fill="white"/>
</clipPath>
</defs>
</svg>
