<svg width="24" height="24" fill="none" xmlns="http://www.w3.org/2000/svg"><path d="M1.2 24A1.2 1.2 0 0 1 0 22.8V1.2A1.2 1.2 0 0 1 1.2 0h9.6a3.608 3.608 0 0 1 3.396 2.4H20.4A3.6 3.6 0 0 1 24 5.789V15.6a3.6 3.6 0 0 1-3.388 3.6H15.6a3.606 3.606 0 0 1-3.395-2.4H2.4v6A1.2 1.2 0 0 1 1.2 24zM14.4 4.8v10.8a1.2 1.2 0 0 0 1.06 1.193l.14.007h4.8a1.2 1.2 0 0 0 1.193-1.06l.007-.14V6a1.2 1.2 0 0 0-1.06-1.193L20.4 4.8zm-12-2.4v12H12V3.6a1.2 1.2 0 0 0-1.06-1.192L10.8 2.4z" fill="#2E61A7" style="stroke-width:2.21539"/></svg>