<svg width="24" height="24" fill="none" xmlns="http://www.w3.org/2000/svg"><path d="m12 24-.683-.478C4.546 18.856 1.254 14.676 1.254 10.746a10.746 10.746 0 0 1 21.492 0c0 3.84-3.145 7.918-9.613 12.466zm0-21.519a8.324 8.324 0 0 0-8.358 8.265 7.926 7.926 0 0 0 2.073 4.76A31.473 31.473 0 0 0 12 21.113a31.472 31.472 0 0 0 6.285-5.604 7.925 7.925 0 0 0 2.073-4.763A8.324 8.324 0 0 0 12 2.481zm0 11.967a4.776 4.776 0 1 1 0-9.552 4.776 4.776 0 0 1 0 9.552zm0-7.164a2.388 2.388 0 1 0 0 4.776 2.388 2.388 0 0 0 0-4.776z" fill="#2E61A7" style="stroke-width:1.91045"/></svg>