<svg width="24" height="24" viewBox="0 0 24 24" fill="none" xmlns="http://www.w3.org/2000/svg">
<path fill="#fff" d="M21.2287 9.08333H19.0459L18.4393 7.56667C17.8158 6.00734 16.328 5 14.6483 5H10.0181C8.33883 5 6.8506 6.00734 6.2268 7.56667L5.62013 9.08333H3.43773C3.15299 9.08333 2.94409 9.35094 3.01336 9.62693L3.23211 10.5019C3.2806 10.6966 3.4556 10.8333 3.65648 10.8333H4.3882C3.89857 11.261 3.5832 11.8826 3.5832 12.5833V14.3333C3.5832 14.921 3.80779 15.4515 4.16654 15.862V17.8333C4.16654 18.4776 4.68898 19 5.3332 19H6.49987C7.14409 19 7.66654 18.4776 7.66654 17.8333V16.6667H16.9999V17.8333C16.9999 18.4776 17.5223 19 18.1666 19H19.3332C19.9774 19 20.4999 18.4776 20.4999 17.8333V15.862C20.8586 15.4519 21.0832 14.9214 21.0832 14.3333V12.5833C21.0832 11.8826 20.7679 11.261 20.2786 10.8333H21.0103C21.2112 10.8333 21.3862 10.6966 21.4347 10.5019L21.6534 9.62693C21.7223 9.35094 21.5134 9.08333 21.2287 9.08333ZM8.39316 8.43328C8.65894 7.76901 9.30243 7.33333 10.0181 7.33333H14.6483C15.364 7.33333 16.0075 7.76901 16.2733 8.43328L16.9999 10.25H7.66654L8.39316 8.43328ZM6.49987 14.326C5.79987 14.326 5.3332 13.8608 5.3332 13.163C5.3332 12.4652 5.79987 12 6.49987 12C7.19987 12 8.24987 13.0467 8.24987 13.7445C8.24987 14.4423 7.19987 14.326 6.49987 14.326ZM18.1666 14.326C17.4666 14.326 16.4166 14.4423 16.4166 13.7445C16.4166 13.0467 17.4666 12 18.1666 12C18.8666 12 19.3332 12.4652 19.3332 13.163C19.3332 13.8608 18.8666 14.326 18.1666 14.326Z"/>
</svg>
