<svg width="24" height="24" viewBox="0 0 24 24" fill="none" xmlns="http://www.w3.org/2000/svg">
<path fill="#ffffff" d="M12.125 21.8125V16.5625L10.2875 14.8125L8.7125 21.8125H6.875L9.325 9.475L7.75 10.0875V13.0625H6V8.95L10.55 7.025C10.8125 7.025 10.9875 6.9375 11.25 6.9375C11.5513 6.94755 11.8453 7.03288 12.1051 7.18572C12.3649 7.33857 12.5823 7.55405 12.7375 7.8125L13.6125 9.2125C13.9998 9.8623 14.5515 10.3985 15.212 10.7672C15.8726 11.1359 16.6186 11.324 17.375 11.3125V13.0625C16.4634 13.0612 15.5626 12.8654 14.7327 12.4882C13.9028 12.1109 13.1629 11.561 12.5625 10.875L12.0375 13.5L13.875 15.25V21.8125H12.125ZM10.8125 4.75C10.8125 4.40388 10.9151 4.06554 11.1074 3.77775C11.2997 3.48997 11.573 3.26566 11.8928 3.13321C12.2126 3.00076 12.5644 2.9661 12.9039 3.03363C13.2434 3.10115 13.5552 3.26782 13.7999 3.51256C14.0447 3.75731 14.2114 4.06913 14.2789 4.40859C14.3464 4.74806 14.3117 5.09993 14.1793 5.4197C14.0468 5.73947 13.8225 6.01278 13.5347 6.20507C13.247 6.39737 12.9086 6.5 12.5625 6.5C12.0988 6.49862 11.6545 6.3138 11.3266 5.98591C10.9987 5.65802 10.8139 5.2137 10.8125 4.75Z" />
</svg>
