<svg width="24" height="24" viewBox="0 0 24 24" fill="none" xmlns="http://www.w3.org/2000/svg">
<path fill-rule="evenodd" clip-rule="evenodd" d="M11 5C11 4.44772 11.4477 4 12 4C12.5523 4 13 4.44772 13 5V5.60054C15.7759 6.03081 17.9692 8.22405 18.3995 11H19C19.5523 11 20 11.4477 20 12C20 12.5523 19.5523 13 19 13H18.3995C17.9692 15.776 15.776 17.9692 13 18.3995V19C13 19.5523 12.5523 20 12 20C11.4477 20 11 19.5523 11 19V18.3995C8.22405 17.9692 6.03081 15.776 5.60054 13H5C4.44772 13 4 12.5523 4 12C4 11.4477 4.44772 11 5 11H5.60054C6.03081 8.22405 8.22405 6.03081 11 5.60054V5ZM16.9524 12C16.9524 14.7351 14.7351 16.9524 12 16.9524C9.26488 16.9524 7.04762 14.7351 7.04762 12C7.04762 9.26488 9.26488 7.04762 12 7.04762C14.7351 7.04762 16.9524 9.26488 16.9524 12ZM12 15.4286C13.8936 15.4286 15.4286 13.8936 15.4286 12C15.4286 10.1065 13.8936 8.57143 12 8.57143C10.1065 8.57143 8.57143 10.1065 8.57143 12C8.57143 13.8936 10.1065 15.4286 12 15.4286Z" fill="#222222"/>
</svg>
