<svg width="24" height="24" viewBox="0 0 24 24" fill="none" xmlns="http://www.w3.org/2000/svg">
<g clip-path="url(#clip0_1099_47696)">
<path d="M15.5 12C16.0523 12 16.5 11.5523 16.5 11C16.5 10.4477 16.0523 10 15.5 10C14.9477 10 14.5 10.4477 14.5 11C14.5 11.5523 14.9477 12 15.5 12Z" fill="#222222"/>
<path d="M8.5 12C9.05228 12 9.5 11.5523 9.5 11C9.5 10.4477 9.05228 10 8.5 10C7.94772 10 7.5 10.4477 7.5 11C7.5 11.5523 7.94772 12 8.5 12Z" fill="#222222"/>
<path d="M7.509 9.3H16.509V13.8H7.509V9.3ZM17.22 3.72C15.6 3.081 13.674 3 12 3C10.326 3 8.4 3.081 6.78 3.72C4.377 4.656 3 6.645 3 9.174V21H21V9.174C21 6.645 19.623 4.656 17.22 3.72ZM17.4 15.492C17.4 16.797 16.338 17.85 15.033 17.85L16.05 18.858V19.2H14.7L13.35 17.85H10.803L9.453 19.2H7.95V18.858L8.958 17.85C7.662 17.85 6.6 16.788 6.6 15.492V9.3C6.6 6.933 9.3 6.6 12 6.6C14.988 6.6 17.4 6.942 17.4 9.3V15.492Z" fill="#222222"/>
</g>
<defs>
<clipPath id="clip0_1099_47696">
<rect width="24" height="24" fill="white"/>
</clipPath>
</defs>
</svg>
