<svg width="24" height="24" viewBox="0 0 24 24" fill="none" xmlns="http://www.w3.org/2000/svg">
<g clip-path="url(#clip0_1099_47693)">
<path d="M18.6 16.446V8.85C18.6 6.339 16.251 5.79 13.191 5.709L13.875 4.35H16.8V3H7.8V4.35H12.075L11.391 5.718C8.574 5.799 6 6.357 6 8.85V16.446C6 17.751 7.071 18.84 8.331 19.119L6.9 20.55V21H8.907L10.707 19.2H14.1L15.9 21H17.7V20.55L16.35 19.2H16.278C17.799 19.2 18.6 17.967 18.6 16.446ZM12.3 17.85C11.553 17.85 10.95 17.247 10.95 16.5C10.95 15.753 11.553 15.15 12.3 15.15C13.047 15.15 13.65 15.753 13.65 16.5C13.65 17.247 13.047 17.85 12.3 17.85ZM16.8 13.8H7.8V9.3H16.8V13.8Z" fill="#222222"/>
</g>
<defs>
<clipPath id="clip0_1099_47693">
<rect width="24" height="24" fill="white"/>
</clipPath>
</defs>
</svg>
