<svg width="18" height="18" viewBox="0 0 18 18" fill="none" xmlns="http://www.w3.org/2000/svg">
<g clip-path="url(#clip0_1099_47727)">
<path fill-rule="evenodd" clip-rule="evenodd" d="M4.141 9.7752C2.96067 9.7752 2 10.74 2 11.9263C2 13.1119 2.96067 14.0771 4.141 14.0771H13.4497C14.9317 14.0771 16.1369 12.8657 16.1369 11.3767C16.1369 9.88778 14.9317 8.67638 13.4497 8.67638C13.174 8.67638 12.8998 8.71919 12.6356 8.80298L12.4635 8.85798L12.4026 8.68671C11.8338 7.07963 10.3132 6 8.6193 6C6.54842 6 4.82968 7.5591 4.62115 9.62645L4.60186 9.81802L4.41187 9.7944C4.30649 9.78111 4.22041 9.7752 4.141 9.7752" fill="#D6E3F2"/>
</g>
<defs>
<clipPath id="clip0_1099_47727">
<rect width="18" height="10.08" fill="white" transform="translate(0 3.95996)"/>
</clipPath>
</defs>
</svg>
