<svg width="18" height="18" viewBox="0 0 18 18" fill="none" xmlns="http://www.w3.org/2000/svg">
<g clip-path="url(#clip0_1099_47739)">
<path fill-rule="evenodd" clip-rule="evenodd" d="M5.44922 6.03223C6.80961 6.03326 7.91141 7.12628 7.91037 8.47371C7.90934 9.82114 6.8058 10.9125 5.44541 10.9114C4.08503 10.9104 2.98322 9.81737 2.98426 8.46994C2.9853 7.12251 4.08884 6.0312 5.44922 6.03223Z" fill="#F9C900"/>
<path fill-rule="evenodd" clip-rule="evenodd" d="M4.86191 11.726C4.86191 11.7555 4.8581 11.785 4.85014 11.8148L4.44133 13.321C4.39183 13.5034 4.20249 13.6114 4.01833 13.5623C3.83383 13.5133 3.7248 13.3258 3.7743 13.1434L4.1831 11.6372C4.2326 11.4548 4.42195 11.3468 4.6061 11.3955C4.76049 11.4366 4.86191 11.5751 4.86191 11.726Z" fill="#F9C900"/>
<path fill-rule="evenodd" clip-rule="evenodd" d="M3.15101 11.1078C3.15101 11.2 3.11363 11.2919 3.03955 11.3591L1.88166 12.4161C1.74147 12.544 1.52305 12.5351 1.39393 12.3962C1.26447 12.2574 1.27347 12.041 1.41366 11.9128L2.57155 10.8561C2.71209 10.7282 2.93051 10.7368 3.05963 10.876C3.12089 10.9415 3.15101 11.0248 3.15101 11.1078Z" fill="#F9C900"/>
<mask id="mask0_1099_47739" style="mask-type:alpha" maskUnits="userSpaceOnUse" x="0" y="9" width="3" height="2">
<path fill-rule="evenodd" clip-rule="evenodd" d="M0 9.10449V10.179H2.21521V9.10449L0 9.10449L0 9.10449Z" fill="white"/>
</mask>
<g mask="url(#mask0_1099_47739)">
<path fill-rule="evenodd" clip-rule="evenodd" d="M2.21523 9.44703C2.21523 9.59926 2.11173 9.73777 1.95631 9.77755L0.431849 10.1681C0.247349 10.2154 0.0586952 10.1053 0.010926 9.92258C-0.0364971 9.73983 0.0742721 9.55297 0.259118 9.50566L1.78358 9.11549C1.96808 9.06817 2.15639 9.17789 2.20416 9.36097C2.21177 9.38977 2.21523 9.41857 2.21523 9.44703Z" fill="#F9C900"/>
</g>
<path fill-rule="evenodd" clip-rule="evenodd" d="M2.26368 7.53064C2.26368 7.55876 2.26022 7.58721 2.2526 7.61601C2.20518 7.79876 2.01687 7.90881 1.83237 7.86184L0.307216 7.47304C0.122715 7.42607 0.0116001 7.23921 0.0590232 7.05647C0.106446 6.87373 0.294754 6.76367 0.4796 6.81064L2.00441 7.19944C2.16018 7.23921 2.26368 7.37807 2.26368 7.53064Z" fill="#F9C900"/>
<path fill-rule="evenodd" clip-rule="evenodd" d="M3.14245 5.86571C3.14245 5.95142 3.11025 6.03714 3.04518 6.10331C2.9126 6.23908 2.69383 6.24251 2.55675 6.11119L1.42587 5.02605C1.28879 4.89474 1.28533 4.67839 1.41791 4.54262C1.55049 4.40685 1.76926 4.40342 1.90633 4.53474L3.03722 5.61954C3.10749 5.68674 3.14245 5.77622 3.14245 5.86571Z" fill="#F9C900"/>
<path fill-rule="evenodd" clip-rule="evenodd" d="M4.7467 4.91451C4.7467 5.06742 4.64216 5.20662 4.4857 5.24571C4.30085 5.29199 4.11289 5.18091 4.06651 4.99748L3.68158 3.48514C3.6352 3.30171 3.74735 3.11622 3.9322 3.06994C4.11705 3.02399 4.30501 3.13508 4.35139 3.31816L4.73632 4.83051C4.74324 4.85862 4.7467 4.88674 4.7467 4.91451Z" fill="#F9C900"/>
<path fill-rule="evenodd" clip-rule="evenodd" d="M7.05844 3.51403C7.05844 3.54283 7.05463 3.57197 7.04702 3.60112L6.64686 5.10935C6.5984 5.29209 6.4094 5.40112 6.2249 5.35312C6.04075 5.30512 5.93032 5.11792 5.97878 4.93552L6.37894 3.42695C6.4274 3.24455 6.6164 3.13517 6.8009 3.18317C6.95598 3.22363 7.05844 3.36215 7.05844 3.51403Z" fill="#F9C900"/>
<path fill-rule="evenodd" clip-rule="evenodd" d="M9.56241 4.81586C9.56241 4.91118 9.52226 5.00615 9.44368 5.07369L8.25568 6.09746C8.11203 6.22124 7.89361 6.20615 7.76865 6.06386C7.64334 5.92124 7.65857 5.70524 7.80257 5.58112L8.99057 4.55769C9.13422 4.43358 9.3523 4.44866 9.4776 4.59129C9.53472 4.65609 9.56241 4.73632 9.56241 4.81586Z" fill="#F9C900"/>
<path fill-rule="evenodd" clip-rule="evenodd" d="M10.7868 7.09835C10.7868 7.24852 10.6861 7.38601 10.5327 7.42784L9.01448 7.84029C8.83032 7.89035 8.64028 7.78338 8.59009 7.60098C8.53955 7.41858 8.64755 7.23069 8.83171 7.18064L10.3499 6.76818C10.5341 6.71812 10.7238 6.82509 10.7743 7.00749C10.7826 7.03767 10.7868 7.06818 10.7868 7.09835Z" fill="#F9C900"/>
<path fill-rule="evenodd" clip-rule="evenodd" d="M10.7608 9.76502C10.7608 9.79313 10.7573 9.82159 10.7497 9.85039C10.7023 10.0331 10.5139 10.1432 10.3294 10.0962L8.80429 9.70742C8.61979 9.66045 8.50833 9.47393 8.5561 9.29085C8.60353 9.1081 8.79183 8.99805 8.97668 9.04502L10.5015 9.43382C10.6573 9.47359 10.7608 9.61245 10.7608 9.76502Z" fill="#F9C900"/>
<path fill-rule="evenodd" clip-rule="evenodd" d="M9.47117 12.1138C9.47117 12.2026 9.43656 12.291 9.36733 12.3579C9.23094 12.4902 9.01217 12.4878 8.8789 12.3527L7.77814 11.2374C7.64487 11.1023 7.64729 10.886 7.78368 10.754C7.92006 10.6216 8.13883 10.624 8.2721 10.7591L9.37286 11.8744C9.43863 11.941 9.47117 12.0274 9.47117 12.1138Z" fill="#F9C900"/>
<path fill-rule="evenodd" clip-rule="evenodd" d="M7.09387 13.3749C7.09387 13.5257 6.99245 13.6636 6.83841 13.7047C6.65425 13.7537 6.46456 13.6457 6.41506 13.4633L6.00522 11.9575C5.95572 11.7751 6.06475 11.5876 6.24891 11.5382C6.43306 11.4892 6.62275 11.5972 6.67225 11.7796L7.08175 13.2854C7.09006 13.3152 7.09387 13.3454 7.09387 13.3749Z" fill="#F9C900"/>
<mask id="mask1_1099_47739" style="mask-type:alpha" maskUnits="userSpaceOnUse" x="5" y="5" width="13" height="8">
<path fill-rule="evenodd" clip-rule="evenodd" d="M17.8819 12.5519V5.7373H5.94431V12.5519H17.8819Z" fill="white"/>
</mask>
<g mask="url(#mask1_1099_47739)">
<path fill-rule="evenodd" clip-rule="evenodd" d="M16.0742 8.92245C17.0711 8.92245 17.8821 9.73639 17.8821 10.7375C17.8821 11.738 17.0711 12.5519 16.0742 12.5519H8.21335C6.96235 12.5519 5.94431 11.5299 5.94431 10.2736C5.94431 9.01742 6.96235 7.99536 8.21335 7.99536C8.44631 7.99536 8.67789 8.03136 8.90081 8.10233L9.04654 8.14862L9.09777 8.00428C9.57824 6.64828 10.8621 5.7373 12.2924 5.7373C14.0412 5.7373 15.4926 7.0525 15.6688 8.79696L15.6851 8.95845L15.8457 8.93856C15.9343 8.92759 16.007 8.92245 16.0742 8.92245Z" fill="#909090"/>
</g>
<mask id="mask2_1099_47739" style="mask-type:alpha" maskUnits="userSpaceOnUse" x="1" y="7" width="14" height="8">
<path fill-rule="evenodd" clip-rule="evenodd" d="M1.19315 14.8063H14.3813V7.30371H1.19315V14.8063Z" fill="white"/>
</mask>
<g mask="url(#mask2_1099_47739)">
<path fill-rule="evenodd" clip-rule="evenodd" d="M3.19046 10.8105C2.08935 10.8105 1.19315 11.7067 1.19315 12.8086C1.19315 13.9099 2.08935 14.8065 3.19046 14.8065H11.8744C13.257 14.8065 14.3813 13.6812 14.3813 12.2981C14.3813 10.915 13.257 9.78977 11.8744 9.78977C11.6172 9.78977 11.3614 9.82954 11.115 9.90737L10.9543 9.95845L10.8976 9.79937C10.3669 8.30657 8.94838 7.30371 7.36819 7.30371C5.43631 7.30371 3.83292 8.75194 3.63838 10.6723L3.62038 10.8502L3.44315 10.8283C3.34485 10.8159 3.26454 10.8105 3.19046 10.8105Z" fill="#D6E3F2"/>
</g>
</g>
<defs>
<clipPath id="clip0_1099_47739">
<rect width="18" height="11.88" fill="white" transform="translate(0 3.05957)"/>
</clipPath>
</defs>
</svg>
