<svg width="18" height="18" viewBox="0 0 18 18" fill="none" xmlns="http://www.w3.org/2000/svg">
<path fill-rule="evenodd" clip-rule="evenodd" d="M12.1562 4.74882C11.9136 4.74882 11.6783 4.78032 11.4542 4.83882C11.0343 3.64812 9.8999 2.79492 8.56565 2.79492C6.9308 2.79492 5.5952 4.07562 5.50745 5.68842C5.40755 5.67582 5.3063 5.66637 5.20235 5.66637C3.9302 5.66637 2.89925 6.69732 2.89925 7.96947C2.89925 9.24162 3.9302 10.273 5.20235 10.273H12.1562C13.6817 10.273 14.9183 9.03642 14.9183 7.51092C14.9183 5.98542 13.6817 4.74882 12.1562 4.74882Z" fill="#BDBDBD"/>
<path fill-rule="evenodd" clip-rule="evenodd" d="M8.46491 11.3558C8.46491 11.3558 7.63016 11.7671 7.49336 11.8531C7.35611 11.9395 7.30436 11.9791 7.23686 12.0781C7.02536 12.389 7.10636 12.8125 7.41731 13.0235C7.72826 13.235 8.15126 13.1545 8.36276 12.8435C8.43161 12.7423 8.44331 12.6865 8.47841 12.515C8.51306 12.344 8.57156 11.4278 8.57156 11.4278C8.57786 11.3554 8.53016 11.3225 8.46491 11.3558Z" fill="#54ACEE"/>
<path fill-rule="evenodd" clip-rule="evenodd" d="M10.5907 11.3558C10.5907 11.3558 9.75594 11.7671 9.61914 11.8531C9.48234 11.9395 9.43014 11.9791 9.36264 12.0781C9.15159 12.389 9.23214 12.8125 9.54309 13.0235C9.85404 13.235 10.277 13.1545 10.4885 12.8435C10.5574 12.7423 10.5691 12.6865 10.6042 12.515C10.6393 12.344 10.6978 11.4278 10.6978 11.4278C10.7041 11.3554 10.6559 11.3225 10.5907 11.3558Z" fill="#54ACEE"/>
<path fill-rule="evenodd" clip-rule="evenodd" d="M9.46486 13.6048C9.46486 13.6048 8.63011 14.0166 8.49331 14.1021C8.35606 14.1885 8.30431 14.2281 8.23681 14.3271C8.02531 14.638 8.10631 15.0615 8.41726 15.273C8.72821 15.484 9.15121 15.4035 9.36271 15.0925C9.43156 14.9913 9.44326 14.9355 9.47836 14.764C9.51301 14.593 9.57151 13.6773 9.57151 13.6773C9.57781 13.6044 9.53011 13.5715 9.46486 13.6048Z" fill="#54ACEE"/>
<path fill-rule="evenodd" clip-rule="evenodd" d="M11.5906 13.6048C11.5906 13.6048 10.7559 14.0166 10.6191 14.1021C10.4823 14.1885 10.4301 14.2281 10.3626 14.3271C10.1515 14.638 10.2321 15.0615 10.543 15.273C10.854 15.484 11.277 15.4035 11.4885 15.0925C11.5573 14.9913 11.569 14.9355 11.6041 14.764C11.6392 14.593 11.6977 13.6773 11.6977 13.6773C11.704 13.6044 11.6559 13.5715 11.5906 13.6048Z" fill="#54ACEE"/>
</svg>
