<svg width="18" height="18" viewBox="0 0 18 18" fill="none" xmlns="http://www.w3.org/2000/svg">
<path fill-rule="evenodd" clip-rule="evenodd" d="M12.1567 5.02226C11.9142 5.02226 11.6788 5.05376 11.4543 5.11226C11.0349 3.92156 9.89995 3.06836 8.56615 3.06836C6.9313 3.06836 5.5957 4.34906 5.5084 5.96186C5.40805 5.94881 5.30635 5.93981 5.20285 5.93981C3.93115 5.93981 2.89975 6.97076 2.89975 8.24291C2.89975 9.51506 3.93115 10.546 5.20285 10.546H12.1567C13.6822 10.546 14.9188 9.30986 14.9188 7.78436C14.9188 6.25841 13.6822 5.02226 12.1567 5.02226Z" fill="#BDBDBD"/>
<path fill-rule="evenodd" clip-rule="evenodd" d="M12.1866 11.6639C12.1866 11.6639 10.4415 12.5238 10.1562 12.7034C9.86997 12.8829 9.76152 12.9662 9.62067 13.1732C9.17877 13.823 9.34752 14.7077 9.99732 15.1491C10.6467 15.591 11.5314 15.4218 11.9728 14.7725C12.1173 14.561 12.1407 14.4444 12.2145 14.0862C12.2878 13.7285 12.4098 11.8146 12.4098 11.8146C12.4228 11.6625 12.3225 11.5946 12.1866 11.6639Z" fill="#54ACEE"/>
<path fill-rule="evenodd" clip-rule="evenodd" d="M7.99419 13.5967L7.06764 13.234L7.79034 12.55C7.85379 12.4906 7.85559 12.3898 7.79619 12.3272L7.50459 12.019C7.44474 11.956 7.34484 11.9537 7.28184 12.0131L6.62529 12.635L6.45204 11.7472C6.43539 11.6617 6.35214 11.6054 6.26664 11.6221L5.85039 11.7035C5.76534 11.7202 5.70909 11.8034 5.72574 11.8885L5.89899 12.7763L5.05659 12.4465C4.97559 12.415 4.88379 12.455 4.85229 12.536L4.69749 12.9311C4.66554 13.0117 4.70559 13.1035 4.78659 13.1354L5.71314 13.4981L4.99044 14.1821C4.92789 14.242 4.92519 14.3423 4.98504 14.4049L5.27664 14.7131C5.33604 14.7766 5.43594 14.7788 5.49939 14.7194L6.15594 14.0975L6.32919 14.9854C6.34584 15.0704 6.42909 15.1262 6.51414 15.11L6.93084 15.029C7.01589 15.0124 7.07169 14.9287 7.05549 14.8436L6.88224 13.9558L7.72419 14.2856C7.80519 14.3171 7.89744 14.2771 7.92849 14.1965L8.08374 13.801C8.11524 13.72 8.07519 13.6282 7.99419 13.5967Z" fill="#54ACEE"/>
</svg>
