<svg width="18" height="18" viewBox="0 0 18 18" fill="none" xmlns="http://www.w3.org/2000/svg">
<g clip-path="url(#clip0_1099_47726)">
<path fill-rule="evenodd" clip-rule="evenodd" d="M15.9516 7.56668C17.0202 7.56668 17.8896 8.44293 17.8896 9.52072C17.8896 10.5978 17.0202 11.474 15.9516 11.474H7.52522C6.18422 11.474 5.09294 10.3737 5.09294 9.02132C5.09294 7.66892 6.18422 6.56862 7.52522 6.56862C7.77495 6.56862 8.02318 6.60737 8.26214 6.68378L8.41836 6.73361L8.47327 6.57821C8.9883 5.11841 10.3646 4.1377 11.8978 4.1377C13.7723 4.1377 15.3282 5.55358 15.5171 7.43158L15.5345 7.60543L15.7067 7.58402C15.8017 7.57221 15.8796 7.56668 15.9516 7.56668Z" fill="#909090"/>
<path fill-rule="evenodd" clip-rule="evenodd" d="M2.14099 9.59942C0.96066 9.59942 -7.62939e-06 10.5643 -7.62939e-06 11.7506C-7.62939e-06 12.9361 0.96066 13.9013 2.14099 13.9013H11.4497C12.9317 13.9013 14.1369 12.6899 14.1369 11.201C14.1369 9.712 12.9317 8.5006 11.4497 8.5006C11.174 8.5006 10.8998 8.54341 10.6356 8.6272L10.4634 8.6822L10.4026 8.51093C9.83376 6.90385 8.31317 5.82422 6.61929 5.82422C4.54842 5.82422 2.82968 7.38332 2.62114 9.45067L2.60185 9.64224L2.41187 9.61861C2.30649 9.60533 2.2204 9.59942 2.14099 9.59942Z" fill="#D6E3F2"/>
</g>
<defs>
<clipPath id="clip0_1099_47726">
<rect width="18" height="10.08" fill="white" transform="translate(0 3.95996)"/>
</clipPath>
</defs>
</svg>
