<svg width="18" height="18" viewBox="0 0 18 18" fill="none" xmlns="http://www.w3.org/2000/svg">
<path fill-rule="evenodd" clip-rule="evenodd" d="M12.1565 4.8289C11.914 4.8289 11.6791 4.8604 11.4545 4.9189C11.0347 3.7282 9.9002 2.875 8.56595 2.875C6.9311 2.875 5.5955 4.1557 5.5082 5.7685C5.40785 5.7559 5.3066 5.74645 5.20265 5.74645C3.93095 5.74645 2.89955 6.7774 2.89955 8.04955C2.89955 9.3217 3.93095 10.3527 5.20265 10.3527H12.1565C13.682 10.3527 14.9186 9.1165 14.9186 7.591C14.9186 6.06505 13.682 4.8289 12.1565 4.8289Z" fill="#BDBDBD"/>
<path fill-rule="evenodd" clip-rule="evenodd" d="M9.56111 14.9552L9.01796 14.7423L9.44141 14.3418C9.47876 14.3067 9.48011 14.2478 9.44501 14.2109L9.27401 14.03C9.23936 13.9931 9.18041 13.9913 9.14351 14.0268L8.75831 14.3913L8.65661 13.8707C8.64716 13.8207 8.59811 13.7874 8.54816 13.7978L8.30426 13.845C8.25431 13.8549 8.22101 13.9035 8.23091 13.9535L8.33261 14.4746L7.83851 14.2811C7.79081 14.2622 7.73726 14.286 7.71836 14.3333L7.62791 14.565C7.60946 14.6118 7.63286 14.6658 7.68011 14.6843L8.22371 14.8971L7.79981 15.2985C7.76291 15.3336 7.76111 15.3926 7.79666 15.4295L7.96721 15.6099C8.00231 15.6468 8.06126 15.6486 8.09816 15.6135L8.48336 15.2486L8.58506 15.7697C8.59451 15.8196 8.64356 15.852 8.69351 15.8426L8.93741 15.7949C8.98736 15.7854 9.02021 15.7364 9.01076 15.6864L8.90906 15.1662L9.40271 15.3588C9.45041 15.3777 9.50441 15.3543 9.52286 15.3066L9.61376 15.0753C9.63221 15.0276 9.60836 14.9736 9.56111 14.9552Z" fill="#54ACEE"/>
<path fill-rule="evenodd" clip-rule="evenodd" d="M8.56114 12.4662L8.01799 12.2534L8.44144 11.8524C8.47879 11.8178 8.48014 11.7588 8.44504 11.7219L8.27404 11.541C8.23939 11.5041 8.18044 11.5023 8.14354 11.5379L7.75834 11.9024L7.65664 11.3813C7.64719 11.3318 7.59814 11.2985 7.54819 11.3084L7.30429 11.3561C7.25434 11.366 7.22104 11.4146 7.23094 11.4641L7.33264 11.9852L6.83854 11.7917C6.79084 11.7732 6.73729 11.7971 6.71839 11.8439L6.62794 12.0761C6.60949 12.1229 6.63289 12.1769 6.68014 12.1953L7.22374 12.4082L6.79984 12.8096C6.76294 12.8447 6.76114 12.9032 6.79669 12.9405L6.96724 13.121C7.00234 13.1579 7.06129 13.1597 7.09819 13.1246L7.48339 12.7596L7.58509 13.2807C7.59454 13.3302 7.64359 13.3631 7.69354 13.3536L7.93744 13.3059C7.98739 13.296 8.02024 13.2474 8.01079 13.1975L7.90909 12.6768L8.40274 12.8699C8.45044 12.8883 8.50444 12.8654 8.52289 12.8177L8.61379 12.5864C8.63224 12.5387 8.60839 12.4847 8.56114 12.4662Z" fill="#54ACEE"/>
<path fill-rule="evenodd" clip-rule="evenodd" d="M12.1378 14.9552L11.5946 14.7423L12.0181 14.3418C12.0554 14.3067 12.0568 14.2478 12.0217 14.2109L11.8507 14.03C11.816 13.9931 11.7571 13.9913 11.7202 14.0268L11.335 14.3913L11.2337 13.8707C11.2238 13.8207 11.1748 13.7874 11.1253 13.7978L10.8809 13.845C10.831 13.8549 10.7977 13.9035 10.8076 13.9535L10.9093 14.4746L10.4152 14.2811C10.3679 14.2622 10.3139 14.286 10.295 14.3333L10.2046 14.565C10.1861 14.6118 10.2095 14.6658 10.2568 14.6843L10.8004 14.8971L10.3765 15.2985C10.3396 15.3336 10.3378 15.3926 10.3733 15.4295L10.5439 15.6099C10.579 15.6468 10.6379 15.6486 10.6753 15.6135L11.06 15.2486L11.1617 15.7697C11.1716 15.8196 11.2202 15.852 11.2702 15.8426L11.5145 15.7949C11.564 15.7854 11.5969 15.7364 11.5874 15.6864L11.4857 15.1662L11.9798 15.3588C12.0271 15.3777 12.0811 15.3543 12.0995 15.3066L12.1904 15.0753C12.2089 15.0276 12.185 14.9736 12.1378 14.9552Z" fill="#54ACEE"/>
<path fill-rule="evenodd" clip-rule="evenodd" d="M11.1378 12.4662L10.5947 12.2534L11.0181 11.8524C11.0555 11.8178 11.0568 11.7588 11.0217 11.7219L10.8507 11.541C10.8161 11.5041 10.7571 11.5023 10.7202 11.5379L10.335 11.9024L10.2338 11.3813C10.2239 11.3318 10.1748 11.2985 10.1253 11.3084L9.88096 11.3561C9.83101 11.366 9.79771 11.4146 9.80761 11.4641L9.90931 11.9852L9.41521 11.7917C9.36796 11.7732 9.31396 11.7971 9.29506 11.8439L9.20461 12.0761C9.18616 12.1229 9.20956 12.1769 9.25681 12.1953L9.80041 12.4082L9.37651 12.8096C9.33961 12.8447 9.33781 12.9032 9.37336 12.9405L9.54391 13.121C9.57901 13.1579 9.63796 13.1597 9.67531 13.1246L10.0601 12.7596L10.1618 13.2807C10.1717 13.3302 10.2203 13.3631 10.2702 13.3536L10.5146 13.3059C10.5641 13.296 10.5969 13.2474 10.5875 13.1975L10.4858 12.6768L10.9799 12.8699C11.0271 12.8883 11.0811 12.8654 11.0996 12.8177L11.1905 12.5864C11.2089 12.5387 11.1851 12.4847 11.1378 12.4662Z" fill="#54ACEE"/>
</svg>
