<svg width="18" height="18" viewBox="0 0 18 18" fill="none" xmlns="http://www.w3.org/2000/svg">
<g clip-path="url(#clip0_1099_47729)">
<path fill-rule="evenodd" clip-rule="evenodd" d="M11.3301 10.8438C11.3301 10.8438 10.836 12.1888 10.9609 12.7036C11.0643 13.1287 11.4955 13.39 11.9229 13.286C12.3515 13.1817 12.6134 12.7512 12.5104 12.3261C12.3855 11.8117 11.3301 10.8438 11.3301 10.8438Z" fill="#54ACEE"/>
<path fill-rule="evenodd" clip-rule="evenodd" d="M14.3996 10.7871C14.3996 10.7871 13.9056 12.1322 14.0304 12.6466C14.1338 13.0721 14.5651 13.3333 14.9925 13.2294C15.421 13.125 15.683 12.6946 15.58 12.2695C15.4551 11.755 14.3996 10.7871 14.3996 10.7871Z" fill="#54ACEE"/>
<path fill-rule="evenodd" clip-rule="evenodd" d="M2.58931 11.0166C2.58931 11.0166 2.09527 12.3617 2.22012 12.8761C2.32353 13.3016 2.75476 13.5628 3.18216 13.4589C3.61072 13.3545 3.87267 12.9241 3.76965 12.499C3.6448 11.9845 2.58931 11.0166 2.58931 11.0166Z" fill="#54ACEE"/>
<path fill-rule="evenodd" clip-rule="evenodd" d="M4.71737 13.9414C4.71737 13.9414 4.22103 15.2776 4.34512 15.7879C4.44737 16.2099 4.87784 16.4685 5.30563 16.3645C5.73418 16.2601 5.9969 15.8328 5.89427 15.4108C5.77056 14.9001 4.71737 13.9414 4.71737 13.9414Z" fill="#54ACEE"/>
<path fill-rule="evenodd" clip-rule="evenodd" d="M10.2038 13.7656C10.2038 13.7656 9.70746 15.1018 9.83155 15.6121C9.9338 16.0341 10.3643 16.2927 10.7921 16.1887C11.2206 16.0844 11.4833 15.657 11.3807 15.235C11.257 14.7243 10.2038 13.7656 10.2038 13.7656Z" fill="#54ACEE"/>
<path fill-rule="evenodd" clip-rule="evenodd" d="M13.4475 13.6162C13.4475 13.6162 12.9512 14.9524 13.0753 15.4627C13.1775 15.8847 13.608 16.1433 14.0358 16.0393C14.4644 15.9349 14.7271 15.5076 14.6244 15.0856C14.5007 14.5749 13.4475 13.6162 13.4475 13.6162Z" fill="#54ACEE"/>
<path fill-rule="evenodd" clip-rule="evenodd" d="M5.10225 11.8596H7.62722L7.49395 11.4887C7.25305 10.818 7.03437 10.2104 6.96544 10.0201C6.85054 9.70242 6.84595 9.45535 6.9528 9.3065C7.04012 9.1845 7.17876 9.15918 7.21093 9.15918H7.97535C8.45446 9.15918 8.74705 9.63758 8.85161 10.0469C8.88416 10.1747 8.92207 10.3216 8.96344 10.4824C9.13003 11.1284 9.35829 12.0135 9.51684 12.7036C9.62905 13.192 9.51837 13.3965 9.46552 13.4617C9.4165 13.5223 9.34833 13.5515 9.2568 13.5515H6.62918L7.5491 16.1787C7.59161 16.2995 7.5851 16.3663 7.57744 16.3874C7.54259 16.3924 7.41735 16.3636 7.30437 16.2013C6.76935 15.4321 5.42088 13.4429 4.83225 12.5371C4.68978 12.3177 4.64459 12.137 4.7051 12.0281C4.76025 11.9291 4.9234 11.8596 5.10225 11.8596Z" fill="#F9C900"/>
<path fill-rule="evenodd" clip-rule="evenodd" d="M15.8531 6.10017C16.9561 6.10017 17.8534 7.01093 17.8534 8.13117C17.8534 9.25063 16.9561 10.1614 15.8531 10.1614H7.15602C5.77194 10.1614 4.6456 9.01776 4.6456 7.6121C4.6456 6.20644 5.77194 5.0628 7.15602 5.0628C7.41377 5.0628 7.66998 5.10308 7.91662 5.1825L8.07785 5.23429L8.13454 5.07277C8.66611 3.55547 10.0866 2.53613 11.669 2.53613C13.6039 2.53613 15.2097 4.00778 15.4046 5.95975L15.4226 6.14045L15.6003 6.1182C15.6984 6.10592 15.7788 6.10017 15.8531 6.10017Z" fill="#D6E3F2"/>
<path fill-rule="evenodd" clip-rule="evenodd" d="M2.20977 5.70221C0.991517 5.70221 -1.52588e-05 6.70505 -1.52588e-05 7.93807C-1.52588e-05 9.17033 0.991517 10.1736 2.20977 10.1736H11.8176C13.3472 10.1736 14.5911 8.91444 14.5911 7.36683C14.5911 5.81922 13.3472 4.56011 11.8176 4.56011C11.533 4.56011 11.25 4.60461 10.9773 4.6917L10.7996 4.74886L10.7368 4.57085C10.1497 2.90047 8.58024 1.77832 6.83194 1.77832C4.69454 1.77832 2.92058 3.39882 2.70535 5.5476L2.68543 5.74671L2.48935 5.72216C2.38058 5.70835 2.29173 5.70221 2.20977 5.70221Z" fill="#909090"/>
</g>
<defs>
<clipPath id="clip0_1099_47729">
<rect width="18" height="14.94" fill="white" transform="translate(0 1.62012)"/>
</clipPath>
</defs>
</svg>
