<svg width="18" height="18" viewBox="0 0 18 18" fill="none" xmlns="http://www.w3.org/2000/svg">
<path fill-rule="evenodd" clip-rule="evenodd" d="M12.2221 4.88359C11.9796 4.88359 11.7442 4.91509 11.5197 4.97359C11.1003 3.78289 9.96583 2.92969 8.63158 2.92969C6.99673 2.92969 5.66113 4.21039 5.57338 5.82319C5.47303 5.81014 5.37178 5.80114 5.26828 5.80114C3.99613 5.80114 2.96518 6.83209 2.96518 8.10424C2.96518 9.37639 3.99613 10.4078 5.26828 10.4078H12.2221C13.7476 10.4078 14.9842 9.17119 14.9842 7.64569C14.9842 6.11974 13.7476 4.88359 12.2221 4.88359Z" fill="#BDBDBD"/>
<path fill-rule="evenodd" clip-rule="evenodd" d="M8.53954 11.4964C8.53954 11.4964 7.70479 11.9077 7.56799 11.9937C7.43074 12.0801 7.37899 12.1197 7.31149 12.2187C7.10044 12.5296 7.18099 12.9531 7.49194 13.1641C7.80289 13.3756 8.22634 13.2951 8.43739 12.9841C8.50669 12.8829 8.51794 12.8271 8.55304 12.6556C8.58769 12.4846 8.64619 11.5684 8.64619 11.5684C8.65294 11.496 8.60479 11.4631 8.53954 11.4964Z" fill="#54ACEE"/>
<path fill-rule="evenodd" clip-rule="evenodd" d="M6.4847 11.4964C6.4847 11.4964 5.6495 11.9077 5.5127 11.9937C5.3759 12.0801 5.32415 12.1197 5.25665 12.2187C5.0456 12.5296 5.1257 12.9531 5.4371 13.1641C5.7476 13.3756 6.17105 13.2951 6.3821 12.9841C6.4514 12.8829 6.46265 12.8271 6.49775 12.6556C6.53285 12.4846 6.59135 11.5684 6.59135 11.5684C6.59765 11.496 6.5495 11.4631 6.4847 11.4964Z" fill="#54ACEE"/>
<path fill-rule="evenodd" clip-rule="evenodd" d="M10.6662 11.4964C10.6662 11.4964 9.83146 11.9077 9.69511 11.9937C9.55786 12.0801 9.50611 12.1197 9.43861 12.2187C9.22756 12.5296 9.30766 12.9531 9.61861 13.1641C9.92956 13.3756 10.353 13.2951 10.5641 12.9841C10.6334 12.8829 10.6446 12.8271 10.6797 12.6556C10.7148 12.4846 10.7733 11.5684 10.7733 11.5684C10.7796 11.496 10.7315 11.4631 10.6662 11.4964Z" fill="#54ACEE"/>
<path fill-rule="evenodd" clip-rule="evenodd" d="M9.53951 13.7457C9.53951 13.7457 8.70476 14.157 8.56796 14.243C8.43071 14.3289 8.37896 14.369 8.31146 14.468C8.10041 14.7789 8.18096 15.2019 8.49191 15.4134C8.80286 15.6249 9.22631 15.5444 9.43736 15.2334C9.50666 15.1322 9.51791 15.0764 9.55301 14.9049C9.58766 14.7335 9.64616 13.8177 9.64616 13.8177C9.65291 13.7448 9.60476 13.712 9.53951 13.7457Z" fill="#54ACEE"/>
<path fill-rule="evenodd" clip-rule="evenodd" d="M11.6662 13.7457C11.6662 13.7457 10.8314 14.157 10.6951 14.243C10.5578 14.3289 10.5061 14.369 10.4386 14.468C10.2275 14.7789 10.3076 15.2019 10.6186 15.4134C10.9295 15.6249 11.353 15.5444 11.564 15.2334C11.6333 15.1322 11.6446 15.0764 11.6797 14.9049C11.7148 14.7335 11.7733 13.8177 11.7733 13.8177C11.7796 13.7448 11.7314 13.712 11.6662 13.7457Z" fill="#54ACEE"/>
<path fill-rule="evenodd" clip-rule="evenodd" d="M12.8125 11.4964C12.8125 11.4964 11.9777 11.9077 11.8409 11.9937C11.7037 12.0801 11.6519 12.1197 11.5844 12.2187C11.3729 12.5296 11.4535 12.9531 11.7649 13.1641C12.0754 13.3756 12.4988 13.2951 12.7099 12.9841C12.7792 12.8829 12.7904 12.8271 12.8255 12.6556C12.8606 12.4846 12.9191 11.5684 12.9191 11.5684C12.9259 11.496 12.8777 11.4631 12.8125 11.4964Z" fill="#54ACEE"/>
<path fill-rule="evenodd" clip-rule="evenodd" d="M7.4847 13.7455C7.4847 13.7455 6.6495 14.1568 6.5127 14.2428C6.3759 14.3287 6.32415 14.3683 6.25665 14.4678C6.0456 14.7787 6.1257 15.2017 6.4371 15.4132C6.7476 15.6247 7.17105 15.5437 7.3821 15.2332C7.4514 15.132 7.46265 15.0762 7.49775 14.9043C7.53285 14.7333 7.59135 13.8175 7.59135 13.8175C7.59765 13.7446 7.5495 13.7122 7.4847 13.7455Z" fill="#54ACEE"/>
<path fill-rule="evenodd" clip-rule="evenodd" d="M13.8124 13.7455C13.8124 13.7455 12.9777 14.1568 12.8409 14.2428C12.7036 14.3287 12.6519 14.3683 12.5844 14.4678C12.3729 14.7787 12.4534 15.2017 12.7648 15.4132C13.0753 15.6247 13.4988 15.5437 13.7098 15.2332C13.7791 15.132 13.7904 15.0762 13.8255 14.9043C13.8606 14.7333 13.9191 13.8175 13.9191 13.8175C13.9258 13.7446 13.8777 13.7122 13.8124 13.7455Z" fill="#54ACEE"/>
</svg>
