<svg width="18" height="18" viewBox="0 0 18 18" fill="none" xmlns="http://www.w3.org/2000/svg">
<g clip-path="url(#clip0_1099_47728)">
<path fill-rule="evenodd" clip-rule="evenodd" d="M9.10401 6.31055C10.6577 6.31175 11.9161 7.57184 11.9149 9.12513C11.9137 10.6784 10.6533 11.9365 9.09961 11.9353C7.54591 11.9341 6.28748 10.674 6.28868 9.12073C6.28988 7.56744 7.55031 6.30935 9.10401 6.31055Z" fill="#F9C900"/>
<path fill-rule="evenodd" clip-rule="evenodd" d="M8.43321 12.874C8.43321 12.9076 8.42881 12.9421 8.41959 12.9761L7.95284 14.7125C7.89635 14.9228 7.68 15.0477 7.46966 14.9912C7.25932 14.9348 7.13432 14.7185 7.19122 14.5078L7.65797 12.7715C7.71446 12.5612 7.93081 12.4366 8.14114 12.4931C8.31743 12.5404 8.43321 12.6998 8.43321 12.874Z" fill="#F9C900"/>
<path fill-rule="evenodd" clip-rule="evenodd" d="M6.47898 12.1611C6.47898 12.2673 6.43611 12.3734 6.35197 12.4511L5.02944 13.6691C4.86919 13.8169 4.61958 13.8065 4.47215 13.6463C4.32431 13.4865 4.33432 13.237 4.49458 13.0892L5.81711 11.8707C5.97737 11.7233 6.22697 11.7337 6.37441 11.8936C6.44452 11.9697 6.47898 12.0654 6.47898 12.1611Z" fill="#F9C900"/>
<path fill-rule="evenodd" clip-rule="evenodd" d="M5.41018 10.2467C5.41018 10.4221 5.29199 10.5819 5.11451 10.628L3.3733 11.0778C3.16216 11.1323 2.94702 11.0057 2.89253 10.7946C2.83804 10.5839 2.96465 10.3689 3.17579 10.3144L4.91699 9.86418C5.12773 9.80971 5.34288 9.93668 5.39736 10.1474C5.40618 10.1806 5.41018 10.2139 5.41018 10.2467Z" fill="#F9C900"/>
<path fill-rule="evenodd" clip-rule="evenodd" d="M5.46555 8.03785C5.46555 8.07029 5.46154 8.10313 5.45313 8.13598C5.39864 8.34706 5.1835 8.47403 4.97276 8.41956L3.23115 7.97136C3.02001 7.91728 2.89301 7.70219 2.9475 7.49151C3.00158 7.28043 3.21673 7.15346 3.42787 7.20793L5.16947 7.65613C5.34736 7.70179 5.46555 7.86201 5.46555 8.03785Z" fill="#F9C900"/>
<path fill-rule="evenodd" clip-rule="evenodd" d="M6.46924 6.11807C6.46924 6.21661 6.43238 6.31554 6.35826 6.39204C6.20682 6.54825 5.95682 6.55266 5.80057 6.40085L4.50849 5.15037C4.35223 4.99897 4.34783 4.74903 4.49967 4.59282C4.65111 4.43621 4.90072 4.4322 5.05737 4.58361L6.34905 5.83449C6.42918 5.9118 6.46924 6.01473 6.46924 6.11807Z" fill="#F9C900"/>
<path fill-rule="evenodd" clip-rule="evenodd" d="M8.30154 5.02134C8.30154 5.19757 8.18215 5.35819 8.00346 5.40305C7.79232 5.45632 7.57798 5.32815 7.52469 5.11706L7.08519 3.37352C7.0319 3.16203 7.16011 2.94815 7.37125 2.89487C7.58239 2.8416 7.79673 2.96978 7.85002 3.18086L8.28953 4.9244C8.29754 4.95685 8.30154 4.98929 8.30154 5.02134Z" fill="#F9C900"/>
<path fill-rule="evenodd" clip-rule="evenodd" d="M10.942 3.40703C10.942 3.44027 10.9376 3.47392 10.9288 3.50716L10.4717 5.2463C10.4164 5.45659 10.2008 5.58276 9.99011 5.52708C9.77937 5.47181 9.65357 5.25592 9.70886 5.04563L10.166 3.3069C10.2213 3.09621 10.4372 2.97044 10.648 3.02572C10.8251 3.07218 10.942 3.23199 10.942 3.40703Z" fill="#F9C900"/>
<path fill-rule="evenodd" clip-rule="evenodd" d="M13.8021 4.9082C13.8021 5.01834 13.756 5.12769 13.6666 5.2054L12.3097 6.38578C12.1454 6.52838 11.8962 6.51115 11.7532 6.34693C11.6101 6.18271 11.6274 5.93358 11.792 5.79058L13.1486 4.6106C13.3133 4.4676 13.5621 4.48483 13.7051 4.64905C13.7704 4.72395 13.8021 4.81647 13.8021 4.9082Z" fill="#F9C900"/>
<path fill-rule="evenodd" clip-rule="evenodd" d="M15.2005 7.53947C15.2005 7.7125 15.0855 7.87111 14.9104 7.91918L13.176 8.39502C12.9661 8.45269 12.7489 8.32893 12.6912 8.11905C12.6335 7.90876 12.7573 7.69207 12.9673 7.63439L14.7017 7.15855C14.9116 7.10128 15.1287 7.22464 15.1864 7.43452C15.196 7.46977 15.2005 7.50502 15.2005 7.53947Z" fill="#F9C900"/>
<path fill-rule="evenodd" clip-rule="evenodd" d="M15.1707 10.614C15.1707 10.6465 15.1667 10.6793 15.1583 10.7121C15.1038 10.9232 14.8887 11.0502 14.6779 10.9957L12.9363 10.5475C12.7252 10.4935 12.5982 10.2784 12.6526 10.0677C12.7067 9.8566 12.9219 9.72963 13.133 9.7841L14.8746 10.2323C15.0525 10.278 15.1707 10.4382 15.1707 10.614Z" fill="#F9C900"/>
<path fill-rule="evenodd" clip-rule="evenodd" d="M13.6978 13.3207C13.6978 13.4228 13.6582 13.5254 13.5793 13.6023C13.4234 13.7545 13.1738 13.7517 13.0216 13.5959L11.7643 12.3105C11.6121 12.1547 11.6145 11.9052 11.7703 11.753C11.9262 11.6008 12.1758 11.6036 12.328 11.759L13.5853 13.0447C13.6606 13.1216 13.6978 13.221 13.6978 13.3207Z" fill="#F9C900"/>
<path fill-rule="evenodd" clip-rule="evenodd" d="M10.9825 14.7755C10.9825 14.9494 10.8663 15.1084 10.6904 15.1557C10.4801 15.2125 10.2638 15.088 10.2073 14.8777L9.73931 13.1417C9.68242 12.9315 9.80702 12.7148 10.0174 12.6583C10.2277 12.6014 10.444 12.726 10.5009 12.9363L10.9689 14.6726C10.9781 14.707 10.9825 14.7415 10.9825 14.7755Z" fill="#F9C900"/>
</g>
<defs>
<clipPath id="clip0_1099_47728">
<rect width="12.6" height="12.42" fill="white" transform="translate(2.7 2.87988)"/>
</clipPath>
</defs>
</svg>
