<svg width="18" height="18" viewBox="0 0 18 18" fill="none" xmlns="http://www.w3.org/2000/svg">
<path fill-rule="evenodd" clip-rule="evenodd" d="M9.34589 11.513C9.34589 11.513 8.51114 11.9243 8.37434 12.0103C8.23709 12.0967 8.18534 12.1363 8.11784 12.2353C7.90634 12.5462 7.98734 12.9697 8.29829 13.1807C8.60924 13.3922 9.03224 13.3117 9.24374 13.0007C9.31259 12.8995 9.32429 12.8437 9.35894 12.6722C9.39404 12.5012 9.45254 11.585 9.45254 11.585C9.45884 11.5126 9.41114 11.4797 9.34589 11.513Z" fill="#54ACEE"/>
<path fill-rule="evenodd" clip-rule="evenodd" d="M12.3459 11.513C12.3459 11.513 11.5111 11.9243 11.3743 12.0103C11.2371 12.0967 11.1853 12.1363 11.1178 12.2353C10.9063 12.5462 10.9873 12.9697 11.2983 13.1807C11.6092 13.3922 12.0322 13.3117 12.2437 13.0007C12.3126 12.8995 12.3243 12.8437 12.3589 12.6722C12.394 12.5012 12.4525 11.585 12.4525 11.585C12.4588 11.5126 12.4111 11.4797 12.3459 11.513Z" fill="#54ACEE"/>
<path fill-rule="evenodd" clip-rule="evenodd" d="M6.34569 11.513C6.34569 11.513 5.51094 11.9243 5.37414 12.0103C5.23734 12.0967 5.18514 12.1363 5.11764 12.2353C4.90659 12.5462 4.98714 12.9697 5.29809 13.1807C5.60904 13.3922 6.03204 13.3117 6.24354 13.0007C6.31239 12.8995 6.32409 12.8437 6.35919 12.6722C6.39429 12.5012 6.45279 11.585 6.45279 11.585C6.45909 11.5126 6.41094 11.4797 6.34569 11.513Z" fill="#54ACEE"/>
<path fill-rule="evenodd" clip-rule="evenodd" d="M8.21243 10.3557H2.81063C2.71388 10.3557 2.61578 10.3651 2.52083 10.3521C2.23463 10.312 1.99253 10.2 2.00018 9.86335C2.00738 9.52675 2.24228 9.41245 2.54153 9.41155C3.61793 9.4075 4.69388 9.4075 5.77028 9.40795C8.41853 9.4084 11.0677 9.412 13.7159 9.40885C14.5592 9.4075 15.1645 8.8099 15.1541 8.01205C15.1447 7.2592 14.5372 6.66475 13.7794 6.667C13.0175 6.66925 12.4114 7.30375 12.4343 8.0773C12.4375 8.1736 12.4564 8.26945 12.4631 8.36575C12.4838 8.6596 12.3695 8.86885 12.064 8.9134C11.7571 8.95795 11.5762 8.78335 11.5253 8.49895C11.4335 7.98865 11.4745 7.4896 11.7134 7.0162C12.2206 6.0145 13.3024 5.5195 14.39 5.79715C15.4363 6.064 16.1347 7.02835 16.0973 8.1538C16.0622 9.2248 15.2869 10.1347 14.1902 10.2981C13.6219 10.3831 13.0355 10.362 12.4573 10.3651C11.0425 10.3737 9.62723 10.3678 8.21243 10.3678V10.3557Z" fill="#54ACEE"/>
<path fill-rule="evenodd" clip-rule="evenodd" d="M6.4454 8.2645C5.66015 8.2645 4.8749 8.26765 4.0901 8.2627C3.7049 8.26045 3.46685 8.0818 3.46055 7.81045C3.4538 7.5202 3.7013 7.32175 4.0982 7.32085C5.62055 7.3186 7.1429 7.3231 8.66525 7.32085C9.0779 7.31995 9.3713 7.07605 9.40595 6.72505C9.44105 6.37225 9.2156 6.05545 8.86685 5.9677C8.52845 5.88265 8.2211 6.0658 8.06 6.47125C7.9457 6.75835 7.76705 6.9127 7.45025 6.81865C7.1555 6.7309 7.05785 6.46585 7.1753 6.10675C7.37195 5.50285 7.97315 5.04115 8.6117 5.0029C9.29345 4.9624 9.93875 5.34985 10.2128 5.96545C10.6983 7.05625 9.9311 8.2528 8.73005 8.26585C7.96865 8.2744 7.2068 8.26765 6.4454 8.26765V8.2645Z" fill="#54ACEE"/>
</svg>
