<svg width="18" height="18" viewBox="0 0 18 18" fill="none" xmlns="http://www.w3.org/2000/svg">
<path fill-rule="evenodd" clip-rule="evenodd" d="M8.21243 9.35565H2.81063C2.71388 9.35565 2.61578 9.3651 2.52083 9.35205C2.23463 9.312 1.99253 9.19995 2.00018 8.86335C2.00738 8.52675 2.24228 8.41245 2.54153 8.41155C3.61793 8.4075 4.69388 8.4075 5.77028 8.40795C8.41853 8.4084 11.0677 8.412 13.7159 8.40885C14.5592 8.4075 15.1645 7.8099 15.1541 7.01205C15.1447 6.2592 14.5372 5.66475 13.7794 5.667C13.0175 5.66925 12.4114 6.30375 12.4343 7.0773C12.4375 7.1736 12.4564 7.26945 12.4631 7.36575C12.4838 7.6596 12.3695 7.86885 12.064 7.9134C11.7571 7.95795 11.5762 7.78335 11.5253 7.49895C11.4335 6.98865 11.4745 6.4896 11.7134 6.0162C12.2206 5.0145 13.3024 4.5195 14.39 4.79715C15.4363 5.064 16.1347 6.02835 16.0973 7.1538C16.0622 8.2248 15.2869 9.1347 14.1902 9.29805C13.6219 9.3831 13.0355 9.36195 12.4573 9.3651C11.0425 9.37365 9.62723 9.3678 8.21243 9.3678V9.35565Z" fill="#54ACEE"/>
<path fill-rule="evenodd" clip-rule="evenodd" d="M6.4454 7.2645C5.66015 7.2645 4.8749 7.26765 4.0901 7.2627C3.7049 7.26045 3.46685 7.0818 3.46055 6.81045C3.4538 6.5202 3.7013 6.32175 4.0982 6.32085C5.62055 6.3186 7.1429 6.3231 8.66525 6.32085C9.0779 6.31995 9.3713 6.07605 9.40595 5.72505C9.44105 5.37225 9.2156 5.05545 8.86685 4.9677C8.52845 4.88265 8.2211 5.0658 8.06 5.47125C7.9457 5.75835 7.76705 5.9127 7.45025 5.81865C7.1555 5.7309 7.05785 5.46585 7.1753 5.10675C7.37195 4.50285 7.97315 4.04115 8.6117 4.0029C9.29345 3.9624 9.93875 4.34985 10.2128 4.96545C10.6983 6.05625 9.9311 7.2528 8.73005 7.26585C7.96865 7.2744 7.2068 7.26765 6.4454 7.26765V7.2645Z" fill="#54ACEE"/>
<path fill-rule="evenodd" clip-rule="evenodd" d="M9.93791 12.6593L9.39476 12.4464L9.81821 12.0459C9.85556 12.0108 9.85691 11.9519 9.82181 11.915L9.65081 11.7341C9.61616 11.6972 9.55721 11.6954 9.52031 11.7309L9.13511 12.0954L9.03386 11.5748C9.02396 11.5248 8.97491 11.4915 8.92541 11.5019L8.68106 11.5491C8.63111 11.559 8.59781 11.6076 8.60771 11.6576L8.70941 12.1787L8.21531 11.9852C8.16806 11.9663 8.11406 11.9901 8.09516 12.0374L8.00471 12.2691C7.98626 12.3159 8.00966 12.3699 8.05691 12.3884L8.60051 12.6012L8.17661 13.0026C8.13971 13.0377 8.13791 13.0967 8.17346 13.1336L8.34401 13.314C8.37911 13.3509 8.43806 13.3527 8.47541 13.3176L8.86016 12.9527L8.96186 13.4738C8.97176 13.5237 9.02036 13.5561 9.07031 13.5467L9.31466 13.499C9.36416 13.4895 9.39701 13.4405 9.38756 13.3905L9.28586 12.8703L9.77996 13.0629C9.82721 13.0818 9.88121 13.0584 9.89966 13.0107L9.99056 12.7794C10.009 12.7317 9.98516 12.6777 9.93791 12.6593Z" fill="#54ACEE"/>
<path fill-rule="evenodd" clip-rule="evenodd" d="M13.9363 12.6593L13.3932 12.4464L13.8166 12.0459C13.854 12.0108 13.8553 11.9519 13.8202 11.915L13.6492 11.7341C13.6146 11.6972 13.5556 11.6954 13.5187 11.7309L13.1335 12.0954L13.0323 11.5748C13.0224 11.5248 12.9733 11.4915 12.9238 11.5019L12.6795 11.5491C12.6295 11.559 12.5962 11.6076 12.6061 11.6576L12.7078 12.1787L12.2137 11.9852C12.1665 11.9663 12.1125 11.9901 12.0936 12.0374L12.0031 12.2691C11.9847 12.3159 12.0081 12.3699 12.0553 12.3884L12.5989 12.6012L12.175 13.0026C12.1381 13.0377 12.1363 13.0967 12.1719 13.1336L12.3424 13.314C12.3775 13.3509 12.4365 13.3527 12.4738 13.3176L12.8586 12.9527L12.9603 13.4738C12.9702 13.5237 13.0188 13.5561 13.0687 13.5467L13.3131 13.499C13.3626 13.4895 13.3954 13.4405 13.386 13.3905L13.2843 12.8703L13.7784 13.0629C13.8256 13.0818 13.8796 13.0584 13.8981 13.0107L13.989 12.7794C14.0074 12.7317 13.9836 12.6777 13.9363 12.6593Z" fill="#54ACEE"/>
<path fill-rule="evenodd" clip-rule="evenodd" d="M5.93951 12.6596L5.39636 12.4467L5.81981 12.0458C5.85716 12.0111 5.85851 11.9522 5.82341 11.9153L5.65241 11.7344C5.61776 11.6975 5.55881 11.6957 5.52191 11.7312L5.13671 12.0957L5.03546 11.5746C5.02556 11.5251 4.97651 11.4918 4.92701 11.5017L4.68266 11.5494C4.63271 11.5593 4.59941 11.6079 4.60931 11.6574L4.71101 12.1785L4.21691 11.985C4.16966 11.9666 4.11566 11.9904 4.09676 12.0372L4.00631 12.2694C3.98786 12.3162 4.01126 12.3702 4.05851 12.3887L4.60211 12.6015L4.17821 13.0029C4.14131 13.038 4.13951 13.0965 4.17506 13.1339L4.34561 13.3143C4.38071 13.3512 4.43966 13.353 4.47701 13.3179L4.86176 12.953L4.96346 13.4741C4.97336 13.5236 5.02196 13.5564 5.07191 13.547L5.31626 13.4993C5.36576 13.4894 5.39861 13.4408 5.38916 13.3908L5.28746 12.8702L5.78156 13.0632C5.82881 13.0817 5.88281 13.0587 5.90126 13.011L5.99216 12.7797C6.01061 12.732 5.98676 12.678 5.93951 12.6596Z" fill="#54ACEE"/>
</svg>
