<svg width="18" height="18" viewBox="0 0 18 18" fill="none" xmlns="http://www.w3.org/2000/svg">
<g clip-path="url(#clip0_1099_47738)">
<path fill-rule="evenodd" clip-rule="evenodd" d="M5.9692 6.17969C7.45941 6.18083 8.66636 7.39391 8.66522 8.88933C8.66408 10.3848 7.45524 11.5959 5.96503 11.5948C4.47483 11.5936 3.26788 10.3806 3.26901 8.88515C3.27015 7.38972 4.479 6.17855 5.9692 6.17969" fill="#F9C900"/>
<path fill-rule="evenodd" clip-rule="evenodd" d="M5.32588 12.4979C5.32588 12.5307 5.32171 12.5634 5.31299 12.5965L4.86517 14.2681C4.81095 14.4705 4.60353 14.5904 4.40181 14.536C4.1997 14.4816 4.08026 14.2734 4.13448 14.071L4.5823 12.3994C4.63652 12.197 4.84394 12.0771 5.04567 12.1311C5.21478 12.1768 5.32588 12.3305 5.32588 12.4979" fill="#F9C900"/>
<path fill-rule="evenodd" clip-rule="evenodd" d="M3.45165 11.8124C3.45165 11.9147 3.4107 12.0167 3.32955 12.0913L2.06117 13.2644C1.9076 13.4063 1.66833 13.3964 1.5269 13.2423C1.38508 13.0882 1.39494 12.8481 1.54851 12.7058L2.81689 11.5331C2.97084 11.3911 3.21011 11.4006 3.35154 11.5551C3.41866 11.6278 3.45165 11.7203 3.45165 11.8124" fill="#F9C900"/>
<mask id="mask0_1099_47738" style="mask-type:alpha" maskUnits="userSpaceOnUse" x="0" y="9" width="3" height="2">
<path fill-rule="evenodd" clip-rule="evenodd" d="M0 9.58887V10.7814H2.42661V9.58887L0 9.58887L0 9.58887Z" fill="white"/>
</mask>
<g mask="url(#mask0_1099_47738)">
<path fill-rule="evenodd" clip-rule="evenodd" d="M2.42661 9.96903C2.42661 10.138 2.31323 10.2917 2.14298 10.3358L0.473041 10.7693C0.270934 10.8218 0.0642771 10.6996 0.0119494 10.4968C-0.0399992 10.294 0.0813405 10.0866 0.283826 10.0341L1.95377 9.60107C2.15587 9.54856 2.36215 9.67033 2.41448 9.87352C2.42282 9.90548 2.42661 9.93745 2.42661 9.96903" fill="#F9C900"/>
</g>
<path fill-rule="evenodd" clip-rule="evenodd" d="M2.47967 7.84236C2.47967 7.87356 2.47588 7.90515 2.46754 7.93711C2.41559 8.13992 2.20931 8.26207 2.0072 8.20994L0.336507 7.77843C0.1344 7.7263 0.0126812 7.51892 0.0646298 7.31611C0.116578 7.11329 0.322856 6.99115 0.525342 7.04328L2.19566 7.47478C2.36629 7.51892 2.47967 7.67303 2.47967 7.84236" fill="#F9C900"/>
<path fill-rule="evenodd" clip-rule="evenodd" d="M3.44236 5.99415C3.44236 6.08927 3.4071 6.1844 3.33581 6.25784C3.19058 6.40853 2.95093 6.41233 2.80078 6.26659L1.56197 5.06227C1.41181 4.91653 1.40802 4.67642 1.55325 4.52574C1.69848 4.37506 1.93813 4.37125 2.08828 4.51699L3.32709 5.72094C3.40406 5.79552 3.44236 5.89483 3.44236 5.99415" fill="#F9C900"/>
<path fill-rule="evenodd" clip-rule="evenodd" d="M5.19969 4.93855C5.19969 5.10826 5.08517 5.26275 4.91378 5.30613C4.7113 5.3575 4.5054 5.23421 4.45459 5.03064L4.03293 3.35219C3.98212 3.14861 4.10498 2.94276 4.30746 2.89139C4.50995 2.8404 4.71585 2.96368 4.76666 3.16688L5.18831 4.84533C5.1959 4.87653 5.19969 4.90773 5.19969 4.93855" fill="#F9C900"/>
<path fill-rule="evenodd" clip-rule="evenodd" d="M7.732 3.38364C7.732 3.41561 7.72783 3.44795 7.71949 3.48029L7.28115 5.15418C7.22806 5.35699 7.02102 5.478 6.81892 5.42472C6.61719 5.37145 6.49623 5.16369 6.54932 4.96126L6.98766 3.28699C7.04074 3.08456 7.24778 2.96317 7.44988 3.01645C7.61976 3.06135 7.732 3.21508 7.732 3.38364" fill="#F9C900"/>
<path fill-rule="evenodd" clip-rule="evenodd" d="M10.475 4.82904C10.475 4.93482 10.431 5.04023 10.3449 5.11519L9.04354 6.2514C8.88617 6.38877 8.64691 6.37203 8.51002 6.21411C8.37276 6.05582 8.38944 5.81609 8.54718 5.67835L9.84855 4.54251C10.0059 4.40477 10.2448 4.42151 10.3821 4.5798C10.4446 4.65172 10.475 4.74076 10.475 4.82904" fill="#F9C900"/>
<path fill-rule="evenodd" clip-rule="evenodd" d="M11.8161 7.36253C11.8161 7.5292 11.7058 7.68178 11.5378 7.72821L9.8747 8.18597C9.67298 8.24152 9.4648 8.1228 9.40982 7.92037C9.35446 7.71793 9.47277 7.50941 9.67449 7.45386L11.3376 6.9961C11.5393 6.94054 11.7471 7.05926 11.8025 7.2617C11.8116 7.29518 11.8161 7.32905 11.8161 7.36253" fill="#F9C900"/>
<path fill-rule="evenodd" clip-rule="evenodd" d="M11.7876 10.3219C11.7876 10.3531 11.7838 10.3846 11.7754 10.4166C11.7235 10.6194 11.5172 10.7416 11.3151 10.6894L9.64442 10.2579C9.44231 10.2058 9.32021 9.9988 9.37254 9.7956C9.42449 9.59279 9.63077 9.47064 9.83325 9.52277L11.5036 9.95428C11.6742 9.99842 11.7876 10.1525 11.7876 10.3219" fill="#F9C900"/>
<path fill-rule="evenodd" clip-rule="evenodd" d="M10.3751 12.9281C10.3751 13.0267 10.3371 13.1249 10.2613 13.1991C10.1119 13.3459 9.87225 13.3433 9.72626 13.1934L8.52045 11.9555C8.37446 11.8056 8.37712 11.5655 8.52652 11.419C8.67592 11.2721 8.91556 11.2748 9.06155 11.4247L10.2674 12.6625C10.3394 12.7364 10.3751 12.8322 10.3751 12.9281" fill="#F9C900"/>
<path fill-rule="evenodd" clip-rule="evenodd" d="M7.77086 14.3279C7.77086 14.4953 7.65975 14.6483 7.49102 14.694C7.28929 14.7484 7.0815 14.6285 7.02727 14.4261L6.57832 12.7549C6.52409 12.5524 6.64354 12.3443 6.84526 12.2895C7.04699 12.2351 7.25478 12.3549 7.30901 12.5574L7.75758 14.2286C7.76669 14.2617 7.77086 14.2952 7.77086 14.3279" fill="#F9C900"/>
<mask id="mask1_1099_47738" style="mask-type:alpha" maskUnits="userSpaceOnUse" x="3" y="6" width="15" height="9">
<path fill-rule="evenodd" clip-rule="evenodd" d="M3.22868 14.8022H17.6753V6.47559H3.22868V14.8022V14.8022Z" fill="white"/>
</mask>
<g mask="url(#mask1_1099_47738)">
<path fill-rule="evenodd" clip-rule="evenodd" d="M5.41659 10.3675C4.2104 10.3675 3.22868 11.3622 3.22868 12.5851C3.22868 13.8073 4.2104 14.8024 5.41659 14.8024H14.9293C16.4437 14.8024 17.6753 13.5535 17.6753 12.0185C17.6753 10.4835 16.4437 9.2347 14.9293 9.2347C14.6475 9.2347 14.3673 9.27884 14.0973 9.36521L13.9214 9.42191L13.8592 9.24535C13.2779 7.58859 11.724 6.47559 9.993 6.47559C7.87676 6.47559 6.12036 8.08288 5.90726 10.2141L5.88754 10.4116L5.6934 10.3873C5.58571 10.3736 5.49774 10.3675 5.41659 10.3675" fill="#D6E3F2"/>
</g>
</g>
<defs>
<clipPath id="clip0_1099_47738">
<rect width="18" height="12.06" fill="white" transform="translate(0 2.87988)"/>
</clipPath>
</defs>
</svg>
