<svg width="18" height="18" viewBox="0 0 18 18" fill="none" xmlns="http://www.w3.org/2000/svg">
<g clip-path="url(#clip0_1099_47725)">
<path fill-rule="evenodd" clip-rule="evenodd" d="M15.3161 12.6098H2.62392C2.4109 12.6098 2.23843 12.435 2.23843 12.219C2.23843 12.003 2.4109 11.8281 2.62392 11.8281H15.3161C15.5291 11.8281 15.7015 12.003 15.7015 12.219C15.7015 12.435 15.5291 12.6098 15.3161 12.6098Z" fill="#909090"/>
<path fill-rule="evenodd" clip-rule="evenodd" d="M15.3161 14.4663H2.62392C2.4109 14.4663 2.23843 14.2914 2.23843 14.0754C2.23843 13.8594 2.4109 13.6846 2.62392 13.6846H15.3161C15.5291 13.6846 15.7015 13.8594 15.7015 14.0754C15.7015 14.2914 15.5291 14.4663 15.3161 14.4663Z" fill="#909090"/>
<path fill-rule="evenodd" clip-rule="evenodd" d="M11.0177 16.2241H2.62375C2.41073 16.2241 2.23827 16.0492 2.23827 15.8332C2.23827 15.6172 2.41073 15.4424 2.62375 15.4424H11.0177C11.2307 15.4424 11.4032 15.6172 11.4032 15.8332C11.4032 16.0492 11.2307 16.2241 11.0177 16.2241Z" fill="#909090"/>
<path fill-rule="evenodd" clip-rule="evenodd" d="M3.71191 6.04435C2.45939 6.04435 1.43997 7.08797 1.43997 8.37112C1.43997 9.65348 2.45939 10.6975 3.71191 10.6975H13.5899C15.1626 10.6975 16.4415 9.38718 16.4415 7.77665C16.4415 6.16612 15.1626 4.85582 13.5899 4.85582C13.2974 4.85582 13.0064 4.90213 12.726 4.99276L12.5433 5.05225L12.4788 4.867C11.8751 3.12871 10.2615 1.96094 8.46408 1.96094C6.26656 1.96094 4.44271 3.64732 4.22142 5.88346L4.20095 6.09067L3.99935 6.06511C3.88752 6.05074 3.79617 6.04435 3.71191 6.04435Z" fill="#D6E3F2"/>
</g>
<defs>
<clipPath id="clip0_1099_47725">
<rect width="15.12" height="14.58" fill="white" transform="translate(1.44 1.7998)"/>
</clipPath>
</defs>
</svg>
