<?xml version="1.0" encoding="UTF-8" standalone="no"?>
<svg
   width="18"
   height="18"
   viewBox="0 0 18 18"
   fill="none"
   version="1.1"
   id="svg74"
   sodipodi:docname="45.svg"
   inkscape:version="1.1.1 (c3084ef, 2021-09-22)"
   xmlns:inkscape="http://www.inkscape.org/namespaces/inkscape"
   xmlns:sodipodi="http://sodipodi.sourceforge.net/DTD/sodipodi-0.dtd"
   xmlns="http://www.w3.org/2000/svg"
   xmlns:svg="http://www.w3.org/2000/svg">
  <defs
     id="defs78">
    <clipPath
       id="clip0_1099_47728">
      <rect
         width="12.6"
         height="12.42"
         fill="#ffffff"
         transform="translate(2.7,2.87988)"
         id="rect404"
         x="0"
         y="0" />
    </clipPath>
  </defs>
  <sodipodi:namedview
     id="namedview76"
     pagecolor="#ffffff"
     bordercolor="#666666"
     borderopacity="1.0"
     inkscape:pageshadow="2"
     inkscape:pageopacity="0.0"
     inkscape:pagecheckerboard="0"
     showgrid="false"
     inkscape:zoom="41.277778"
     inkscape:cx="9"
     inkscape:cy="9"
     inkscape:window-width="1312"
     inkscape:window-height="969"
     inkscape:window-x="0"
     inkscape:window-y="0"
     inkscape:window-maximized="0"
     inkscape:current-layer="svg74" />
  <g
     clip-path="url(#clip0_1099_47728)"
     id="g402"
     transform="matrix(0.7325823,0,0,0.69240765,0.08794821,2.1082512)">
    <path
       fill-rule="evenodd"
       clip-rule="evenodd"
       d="M 9.10401,6.31055 C 10.6577,6.31175 11.9161,7.57184 11.9149,9.12513 11.9137,10.6784 10.6533,11.9365 9.09961,11.9353 7.54591,11.9341 6.28748,10.674 6.28868,9.12073 6.28988,7.56744 7.55031,6.30935 9.10401,6.31055 Z"
       fill="#f9c900"
       id="path376" />
    <path
       fill-rule="evenodd"
       clip-rule="evenodd"
       d="m 8.43321,12.874 c 0,0.0336 -0.0044,0.0681 -0.01362,0.1021 L 7.95284,14.7125 C 7.89635,14.9228 7.68,15.0477 7.46966,14.9912 7.25932,14.9348 7.13432,14.7185 7.19122,14.5078 l 0.46675,-1.7363 c 0.05649,-0.2103 0.27284,-0.3349 0.48317,-0.2784 0.17629,0.0473 0.29207,0.2067 0.29207,0.3809 z"
       fill="#f9c900"
       id="path378" />
    <path
       fill-rule="evenodd"
       clip-rule="evenodd"
       d="m 6.47898,12.1611 c 0,0.1062 -0.04287,0.2123 -0.12701,0.29 l -1.32253,1.218 C 4.86919,13.8169 4.61958,13.8065 4.47215,13.6463 4.32431,13.4865 4.33432,13.237 4.49458,13.0892 l 1.32253,-1.2185 c 0.16026,-0.1474 0.40986,-0.137 0.5573,0.0229 0.07011,0.0761 0.10457,0.1718 0.10457,0.2675 z"
       fill="#f9c900"
       id="path380" />
    <path
       fill-rule="evenodd"
       clip-rule="evenodd"
       d="m 5.41018,10.2467 c 0,0.1754 -0.11819,0.3352 -0.29567,0.3813 L 3.3733,11.0778 C 3.16216,11.1323 2.94702,11.0057 2.89253,10.7946 2.83804,10.5839 2.96465,10.3689 3.17579,10.3144 l 1.7412,-0.45022 c 0.21074,-0.05447 0.42589,0.0725 0.48037,0.28322 0.00882,0.0332 0.01282,0.0665 0.01282,0.0993 z"
       fill="#f9c900"
       id="path382" />
    <path
       fill-rule="evenodd"
       clip-rule="evenodd"
       d="m 5.46555,8.03785 c 0,0.03244 -0.00401,0.06528 -0.01242,0.09813 C 5.39864,8.34706 5.1835,8.47403 4.97276,8.41956 L 3.23115,7.97136 C 3.02001,7.91728 2.89301,7.70219 2.9475,7.49151 3.00158,7.28043 3.21673,7.15346 3.42787,7.20793 l 1.7416,0.4482 c 0.17789,0.04566 0.29608,0.20588 0.29608,0.38172 z"
       fill="#f9c900"
       id="path384" />
    <path
       fill-rule="evenodd"
       clip-rule="evenodd"
       d="m 6.46924,6.11807 c 0,0.09854 -0.03686,0.19747 -0.11098,0.27397 C 6.20682,6.54825 5.95682,6.55266 5.80057,6.40085 L 4.50849,5.15037 C 4.35223,4.99897 4.34783,4.74903 4.49967,4.59282 4.65111,4.43621 4.90072,4.4322 5.05737,4.58361 L 6.34905,5.83449 C 6.42918,5.9118 6.46924,6.01473 6.46924,6.11807 Z"
       fill="#f9c900"
       id="path386" />
    <path
       fill-rule="evenodd"
       clip-rule="evenodd"
       d="m 8.30154,5.02134 c 0,0.17623 -0.11939,0.33685 -0.29808,0.38171 C 7.79232,5.45632 7.57798,5.32815 7.52469,5.11706 L 7.08519,3.37352 C 7.0319,3.16203 7.16011,2.94815 7.37125,2.89487 7.58239,2.8416 7.79673,2.96978 7.85002,3.18086 L 8.28953,4.9244 c 0.00801,0.03245 0.01201,0.06489 0.01201,0.09694 z"
       fill="#f9c900"
       id="path388" />
    <path
       fill-rule="evenodd"
       clip-rule="evenodd"
       d="m 10.942,3.40703 c 0,0.03324 -0.0044,0.06689 -0.0132,0.10013 L 10.4717,5.2463 C 10.4164,5.45659 10.2008,5.58276 9.99011,5.52708 9.77937,5.47181 9.65357,5.25592 9.70886,5.04563 L 10.166,3.3069 c 0.0553,-0.21069 0.2712,-0.33646 0.482,-0.28118 0.1771,0.04646 0.294,0.20627 0.294,0.38131 z"
       fill="#f9c900"
       id="path390" />
    <path
       fill-rule="evenodd"
       clip-rule="evenodd"
       d="m 13.8021,4.9082 c 0,0.11014 -0.0461,0.21949 -0.1355,0.2972 L 12.3097,6.38578 C 12.1454,6.52838 11.8962,6.51115 11.7532,6.34693 11.6101,6.18271 11.6274,5.93358 11.792,5.79058 L 13.1486,4.6106 c 0.1647,-0.143 0.4135,-0.12577 0.5565,0.03845 0.0653,0.0749 0.097,0.16742 0.097,0.25915 z"
       fill="#f9c900"
       id="path392" />
    <path
       fill-rule="evenodd"
       clip-rule="evenodd"
       d="m 15.2005,7.53947 c 0,0.17303 -0.115,0.33164 -0.2901,0.37971 L 13.176,8.39502 C 12.9661,8.45269 12.7489,8.32893 12.6912,8.11905 12.6335,7.90876 12.7573,7.69207 12.9673,7.63439 l 1.7344,-0.47584 c 0.2099,-0.05727 0.427,0.06609 0.4847,0.27597 0.0096,0.03525 0.0141,0.0705 0.0141,0.10495 z"
       fill="#f9c900"
       id="path394" />
    <path
       fill-rule="evenodd"
       clip-rule="evenodd"
       d="m 15.1707,10.614 c 0,0.0325 -0.004,0.0653 -0.0124,0.0981 -0.0545,0.2111 -0.2696,0.3381 -0.4804,0.2836 l -1.7416,-0.4482 c -0.2111,-0.054 -0.3381,-0.2691 -0.2837,-0.4798 0.0541,-0.2111 0.2693,-0.33807 0.4804,-0.2836 l 1.7416,0.4482 c 0.1779,0.0457 0.2961,0.2059 0.2961,0.3817 z"
       fill="#f9c900"
       id="path396" />
    <path
       fill-rule="evenodd"
       clip-rule="evenodd"
       d="m 13.6978,13.3207 c 0,0.1021 -0.0396,0.2047 -0.1185,0.2816 -0.1559,0.1522 -0.4055,0.1494 -0.5577,-0.0064 l -1.2573,-1.2854 c -0.1522,-0.1558 -0.1498,-0.4053 0.006,-0.5575 0.1559,-0.1522 0.4055,-0.1494 0.5577,0.006 l 1.2573,1.2857 c 0.0753,0.0769 0.1125,0.1763 0.1125,0.276 z"
       fill="#f9c900"
       id="path398" />
    <path
       fill-rule="evenodd"
       clip-rule="evenodd"
       d="m 10.9825,14.7755 c 0,0.1739 -0.1162,0.3329 -0.2921,0.3802 -0.2103,0.0568 -0.4266,-0.0677 -0.4831,-0.278 l -0.46799,-1.736 c -0.05689,-0.2102 0.06771,-0.4269 0.27809,-0.4834 0.2103,-0.0569 0.4266,0.0677 0.4835,0.278 l 0.468,1.7363 c 0.0092,0.0344 0.0136,0.0689 0.0136,0.1029 z"
       fill="#f9c900"
       id="path400" />
  </g>
  <path
     fill-rule="evenodd"
     clip-rule="evenodd"
     d="M8.15506 10.2316H2.75325C2.6565 10.2316 2.5584 10.2411 2.46345 10.228C2.17725 10.188 1.93515 10.0759 1.9428 9.73933C1.95 9.40273 2.1849 9.28843 2.48415 9.28753C3.56055 9.28348 4.6365 9.28348 5.7129 9.28393C8.36116 9.28438 11.0103 9.28798 13.6586 9.28483C14.5019 9.28348 15.1071 8.68588 15.0968 7.88803C15.0873 7.13518 14.4798 6.54073 13.722 6.54298C12.9602 6.54523 12.354 7.17973 12.377 7.95328C12.3801 8.04958 12.399 8.14543 12.4058 8.24173C12.4265 8.53558 12.3122 8.74483 12.0066 8.78938C11.6997 8.83393 11.5188 8.65933 11.468 8.37493C11.3762 7.86463 11.4171 7.36558 11.6561 6.89218C12.1632 5.89048 13.245 5.39548 14.3327 5.67313C15.3789 5.93998 16.0773 6.90433 16.04 8.02978C16.0049 9.10078 15.2295 10.0107 14.1329 10.174C13.5645 10.2591 12.9782 10.2379 12.3999 10.2411C10.9851 10.2496 9.56986 10.2438 8.15506 10.2438V10.2316Z"
     fill="#54ACEE"
     id="path68" />
  <path
     fill-rule="evenodd"
     clip-rule="evenodd"
     d="M8.10767 11.3921C9.41267 11.3921 10.7181 11.3925 12.0231 11.3916C12.8988 11.3916 13.6328 12.0104 13.7043 12.8267C13.7939 13.8549 13.2417 14.4709 12.3282 14.6496C11.4656 14.8179 10.6754 14.2576 10.499 13.3954C10.4454 13.1322 10.5395 12.9396 10.7924 12.8514C11.0444 12.7637 11.241 12.8586 11.3729 13.0859C11.403 13.1376 11.4188 13.1975 11.4417 13.2528C11.5934 13.6159 11.8634 13.7689 12.2081 13.6875C12.5811 13.5988 12.7985 13.3113 12.7625 12.9536C12.7278 12.6066 12.4502 12.3515 12.0677 12.3488C10.9076 12.3416 9.74747 12.3456 8.58737 12.3456C7.10192 12.3461 5.61601 12.3465 4.13101 12.3465C4.05811 12.3465 3.98521 12.351 3.91366 12.3425C3.63241 12.3096 3.42766 12.1796 3.40651 11.8745C3.38896 11.6175 3.62026 11.4096 3.94111 11.4056C4.73761 11.3966 5.53456 11.4015 6.33106 11.4011C6.92326 11.4006 7.51547 11.4006 8.10767 11.4006V11.3921Z"
     fill="#54ACEE"
     id="path70" />
</svg>
