<?xml version="1.0" encoding="UTF-8" standalone="no"?>
<svg
   width="18"
   height="18"
   viewBox="0 0 18 18"
   fill="none"
   version="1.1"
   id="svg699"
   sodipodi:docname="46.svg"
   inkscape:version="1.1.1 (c3084ef, 2021-09-22)"
   xmlns:inkscape="http://www.inkscape.org/namespaces/inkscape"
   xmlns:sodipodi="http://sodipodi.sourceforge.net/DTD/sodipodi-0.dtd"
   xmlns="http://www.w3.org/2000/svg"
   xmlns:svg="http://www.w3.org/2000/svg">
  <defs
     id="defs703" />
  <sodipodi:namedview
     id="namedview701"
     pagecolor="#ffffff"
     bordercolor="#666666"
     borderopacity="1.0"
     inkscape:pageshadow="2"
     inkscape:pageopacity="0.0"
     inkscape:pagecheckerboard="0"
     showgrid="false"
     inkscape:zoom="39.944444"
     inkscape:cx="9"
     inkscape:cy="9.3004172"
     inkscape:window-width="1296"
     inkscape:window-height="969"
     inkscape:window-x="0"
     inkscape:window-y="0"
     inkscape:window-maximized="0"
     inkscape:current-layer="svg699" />
  <path
     fill-rule="evenodd"
     clip-rule="evenodd"
     d="M12.2876 4.92167C12.0451 4.92167 11.8097 4.95317 11.5856 5.01167C11.1658 3.82097 10.0313 2.96777 8.69709 2.96777C7.06224 2.96777 5.72664 4.24847 5.63934 5.86127C5.53899 5.84867 5.43774 5.83922 5.33379 5.83922C4.06209 5.83922 3.03069 6.87062 3.03069 8.14277C3.03069 9.41447 4.06209 10.4459 5.33379 10.4459H12.2876C13.8131 10.4459 15.0497 9.20972 15.0497 7.68377C15.0497 6.15827 13.8131 4.92167 12.2876 4.92167Z"
     fill="#BDBDBD"
     id="path683" />
  <g
     id="g788"
     transform="matrix(1.312136,0,0,1.2028794,-6.8648733,-2.1988345)">
    <path
       fill-rule="evenodd"
       clip-rule="evenodd"
       d="M 12.6755,11.1689 H 9.47964 c -0.05724,0 -0.11527,0.0056 -0.17145,-0.0021 -0.16932,-0.0237 -0.31256,-0.09 -0.30803,-0.2891 0.00426,-0.1992 0.14323,-0.2668 0.32028,-0.2673 0.63683,-0.0024 1.27336,-0.0024 1.91026,-0.0022 1.5667,3e-4 3.1341,0.0024 4.7008,6e-4 0.499,-8e-4 0.8571,-0.3544 0.8509,-0.82641 -0.0056,-0.44541 -0.365,-0.79711 -0.8133,-0.79577 -0.4507,0.00133 -0.8094,0.37672 -0.7958,0.83437 0.0019,0.05698 0.0131,0.11368 0.0171,0.17066 0.0122,0.17385 -0.0554,0.29765 -0.2362,0.32405 -0.1816,0.0263 -0.2886,-0.077 -0.3187,-0.2452 -0.0543,-0.30196 -0.0301,-0.59721 0.1113,-0.87729 0.3001,-0.59263 0.9401,-0.88549 1.5836,-0.72122 0.619,0.15787 1.0322,0.72841 1.0101,1.39426 -0.0208,0.63365 -0.4795,1.17195 -1.1283,1.26865 -0.3363,0.0503 -0.6832,0.0378 -1.0253,0.0396 -0.837,0.0051 -1.6744,0.0016 -2.5114,0.0016 z"
       fill="#54acee"
       id="path685" />
    <path
       fill-rule="evenodd"
       clip-rule="evenodd"
       d="m 12.6475,11.8548 c 0.7721,0 1.5444,2e-4 2.3165,-3e-4 0.5181,0 0.9523,0.3661 0.9946,0.849 0.053,0.6084 -0.2737,0.9728 -0.8141,1.0785 -0.5104,0.0996 -0.9779,-0.2319 -1.0822,-0.742 -0.0317,-0.1557 0.0239,-0.2697 0.1735,-0.3218 0.1491,-0.052 0.2655,0.0042 0.3435,0.1387 0.0178,0.0306 0.0271,0.066 0.0407,0.0987 0.0897,0.2149 0.2495,0.3054 0.4534,0.2572 0.2207,-0.0524 0.3493,-0.2226 0.328,-0.4342 -0.0205,-0.2053 -0.1848,-0.3562 -0.4111,-0.3578 -0.6863,-0.0043 -1.3727,-0.0019 -2.059,-0.0019 -0.8788,3e-4 -1.7579,5e-4 -2.6365,5e-4 -0.0431,0 -0.0863,0.0027 -0.1286,-0.0024 -0.1664,-0.0194 -0.28754,-0.0963 -0.30005,-0.2768 -0.01039,-0.1521 0.12646,-0.2751 0.31625,-0.2775 0.4713,-0.0053 0.9428,-0.0024 1.414,-0.0026 0.3504,-3e-4 0.7007,-3e-4 1.0511,-3e-4 z"
       fill="#54acee"
       id="path687" />
    <path
       fill-rule="evenodd"
       clip-rule="evenodd"
       d="m 11.6301,9.93137 c -0.4645,0 -0.9291,0.00187 -1.3934,-0.00106 C 10.0088,9.92898 9.86794,9.82328 9.86422,9.66274 9.86022,9.49102 10.0067,9.37361 10.2415,9.37308 c 0.9006,-0.00133 1.8013,0.00133 2.702,0 0.2441,-5.3e-4 0.4177,-0.14483 0.4382,-0.35249 C 13.4025,8.81186 13.2691,8.62443 13.0627,8.57252 12.8625,8.5222 12.6807,8.63056 12.5854,8.87043 12.5178,9.04029 12.4121,9.13161 12.2246,9.07596 12.0503,9.02405 11.9925,8.86724 12.062,8.65478 12.1783,8.2975 12.534,8.02434 12.9118,8.00171 c 0.4033,-0.02396 0.7851,0.20527 0.9472,0.56948 0.2873,0.64535 -0.1666,1.35326 -0.8772,1.36098 -0.4505,0.00506 -0.9012,0.00107 -1.3517,0.00107 z"
       fill="#54acee"
       id="path689" />
  </g>
</svg>
