<svg width="18" height="18" viewBox="0 0 18 18" fill="none" xmlns="http://www.w3.org/2000/svg">
<path fill-rule="evenodd" clip-rule="evenodd" d="M11.6369 3.58799C11.6913 3.77879 11.892 3.88994 12.0824 3.83549L12.099 3.83099C12.2894 3.77609 12.401 3.57584 12.3465 3.38504L12.1139 2.57144C12.059 2.38109 11.8587 2.26994 11.6679 2.32439L11.6517 2.32889C11.4609 2.38334 11.3498 2.58404 11.4042 2.77439L11.6369 3.58799Z" fill="#F9C900"/>
<path fill-rule="evenodd" clip-rule="evenodd" d="M10.7775 4.10409L10.1691 3.51594C10.0269 3.37824 9.79743 3.38184 9.65973 3.52449L9.64803 3.53664C9.51033 3.67929 9.51393 3.90834 9.65658 4.04649L10.265 4.63464C10.4072 4.77234 10.6367 4.76829 10.7744 4.62609L10.7865 4.61349C10.9242 4.47084 10.9202 4.24179 10.7775 4.10409" fill="#F9C900"/>
<path fill-rule="evenodd" clip-rule="evenodd" d="M13.6104 3.80528L13.6271 3.80933C13.8192 3.85748 14.0159 3.73958 14.064 3.54698L14.2692 2.72663C14.3174 2.53403 14.1995 2.33738 14.0069 2.28923L13.9907 2.28518C13.7981 2.23703 13.6014 2.35493 13.5537 2.54753L13.3481 3.36833C13.3004 3.56048 13.4183 3.75713 13.6104 3.80528" fill="#F9C900"/>
<path fill-rule="evenodd" clip-rule="evenodd" d="M13.4645 4.42425C12.3058 4.13445 11.1335 4.773 10.7303 5.8692C10.7533 5.86875 10.7753 5.8674 10.7983 5.8674C12.457 5.8674 13.8479 7.03335 14.1962 8.589C14.6543 8.2803 15.0049 7.8105 15.1493 7.2327C15.4598 5.9916 14.7052 4.7343 13.4645 4.42425" fill="#F9C900"/>
<path fill-rule="evenodd" clip-rule="evenodd" d="M17.0268 7.32242L16.206 7.11722C16.0138 7.06907 15.8172 7.18697 15.769 7.37912L15.7645 7.39577C15.7164 7.58837 15.8347 7.78502 16.0269 7.83272L16.8477 8.03792C17.0403 8.08607 17.2369 7.96817 17.2846 7.77602L17.2891 7.75937C17.3368 7.56722 17.2189 7.37057 17.0268 7.32242" fill="#F9C900"/>
<path fill-rule="evenodd" clip-rule="evenodd" d="M16.0501 3.42821L16.038 3.41651C15.8953 3.27836 15.6663 3.28241 15.5281 3.42506L14.9404 4.03301C14.8023 4.17566 14.8063 4.40471 14.949 4.54286L14.9611 4.55456C15.1033 4.69226 15.3328 4.68866 15.4705 4.54601L16.0587 3.93761C16.1964 3.79496 16.1928 3.56591 16.0501 3.42821" fill="#F9C900"/>
<path fill-rule="evenodd" clip-rule="evenodd" d="M16.1487 9.29745L15.5403 8.7093C15.3981 8.5716 15.1686 8.5752 15.0309 8.71785L15.0192 8.73C14.8815 8.87265 14.8851 9.1017 15.0278 9.23985L15.6357 9.828C15.7784 9.96525 16.0079 9.96165 16.1456 9.81945L16.1577 9.80685C16.2954 9.6642 16.2914 9.43515 16.1487 9.29745" fill="#F9C900"/>
<path fill-rule="evenodd" clip-rule="evenodd" d="M15.7435 5.86753C15.798 6.05833 15.9982 6.16948 16.189 6.11503L17.0022 5.88238C17.193 5.82793 17.3046 5.62723 17.2501 5.43643L17.2452 5.42023C17.1907 5.22988 16.9905 5.11828 16.7997 5.17318L15.9861 5.40583C15.7957 5.46028 15.6841 5.66053 15.7386 5.85133L15.7435 5.86753Z" fill="#F9C900"/>
<path fill-rule="evenodd" clip-rule="evenodd" d="M10.7982 6.45721C10.5439 6.45721 10.2978 6.49006 10.0629 6.55171C9.62278 5.30386 8.43433 4.41016 7.03663 4.41016C5.32348 4.41016 3.92443 5.75206 3.83263 7.44181C3.72778 7.42831 3.62158 7.41841 3.51313 7.41841C2.18023 7.41841 1.09978 8.49886 1.09978 9.83176C1.09978 11.1642 2.18023 12.2451 3.51313 12.2451H10.7982C12.3327 12.2451 13.5846 11.0499 13.6827 9.54016C13.6867 9.47716 13.6921 9.41461 13.6921 9.35116C13.6921 7.75231 12.3961 6.45721 10.7982 6.45721" fill="#BDBDBD"/>
<path fill-rule="evenodd" clip-rule="evenodd" d="M12.1607 13.7817H2.29974C2.13424 13.7817 2.00024 13.6068 2.00024 13.3909C2.00024 13.1749 2.13424 13 2.29974 13H12.1607C12.3263 13 12.4602 13.1749 12.4602 13.3909C12.4602 13.6068 12.3263 13.7817 12.1607 13.7817" fill="#909090"/>
<path fill-rule="evenodd" clip-rule="evenodd" d="M10.218 15.6382H2.24247C2.10862 15.6382 2.00024 15.4633 2.00024 15.2473C2.00024 15.0313 2.10862 14.8564 2.24247 14.8564H10.218C10.3519 14.8564 10.4602 15.0313 10.4602 15.2473C10.4602 15.4633 10.3519 15.6382 10.218 15.6382" fill="#909090"/>
<path fill-rule="evenodd" clip-rule="evenodd" d="M9.81679 17.396H2.34321C2.15355 17.396 2 17.2211 2 17.0051C2 16.7891 2.15355 16.6143 2.34321 16.6143H9.81679C10.0064 16.6143 10.16 16.7891 10.16 17.0051C10.16 17.2211 10.0064 17.396 9.81679 17.396" fill="#909090"/>
</svg>
