<svg width="18" height="18" viewBox="0 0 18 18" fill="none" xmlns="http://www.w3.org/2000/svg">
<path fill-rule="evenodd" clip-rule="evenodd" d="M12.1573 4.74882C11.9147 4.74882 11.6794 4.78032 11.4553 4.83882C11.0354 3.64812 9.90098 2.79492 8.56673 2.79492C6.93188 2.79492 5.59628 4.07562 5.50853 5.68842C5.40863 5.67582 5.30738 5.66637 5.20343 5.66637C3.93128 5.66637 2.90033 6.69732 2.90033 7.96947C2.90033 9.24162 3.93128 10.273 5.20343 10.273H12.1573C13.6828 10.273 14.9194 9.03642 14.9194 7.51092C14.9194 5.98542 13.6828 4.74882 12.1573 4.74882Z" fill="#BDBDBD"/>
<path fill-rule="evenodd" clip-rule="evenodd" d="M7.44327 11.3558C7.44327 11.3558 6.60852 11.7671 6.47172 11.8531C6.33447 11.9395 6.28272 11.9791 6.21522 12.0781C6.00372 12.389 6.08472 12.8125 6.39567 13.0235C6.70662 13.235 7.12962 13.1545 7.34112 12.8435C7.40997 12.7423 7.42167 12.6865 7.45632 12.515C7.49142 12.344 7.54992 11.4278 7.54992 11.4278C7.55622 11.3554 7.50852 11.3225 7.44327 11.3558Z" fill="#54ACEE"/>
<path fill-rule="evenodd" clip-rule="evenodd" d="M9.57104 11.3558C9.57104 11.3558 8.73629 11.7671 8.59949 11.8531C8.46269 11.9395 8.41049 11.9791 8.34299 12.0781C8.13194 12.389 8.21249 12.8125 8.52344 13.0235C8.83439 13.235 9.25739 13.1545 9.46889 12.8435C9.53774 12.7423 9.54944 12.6865 9.58454 12.515C9.61964 12.344 9.67814 11.4278 9.67814 11.4278C9.68444 11.3554 9.63629 11.3225 9.57104 11.3558Z" fill="#54ACEE"/>
<path fill-rule="evenodd" clip-rule="evenodd" d="M8.44324 13.6048C8.44324 13.6048 7.60849 14.0166 7.47169 14.1021C7.33444 14.1885 7.28269 14.2281 7.21519 14.3271C7.00369 14.638 7.08469 15.0615 7.39564 15.273C7.70659 15.484 8.12959 15.4035 8.34109 15.0925C8.40994 14.9913 8.42164 14.9355 8.45629 14.764C8.49139 14.593 8.54989 13.6773 8.54989 13.6773C8.55619 13.6044 8.50849 13.5715 8.44324 13.6048Z" fill="#54ACEE"/>
<path fill-rule="evenodd" clip-rule="evenodd" d="M10.5711 13.6048C10.5711 13.6048 9.73634 14.0166 9.59954 14.1021C9.46274 14.1885 9.41054 14.2281 9.34304 14.3271C9.132 14.638 9.21255 15.0615 9.52349 15.273C9.83444 15.484 10.2574 15.4035 10.4689 15.0925C10.5378 14.9913 10.5495 14.9355 10.5846 14.764C10.6197 14.593 10.6782 13.6773 10.6782 13.6773C10.6845 13.6044 10.6363 13.5715 10.5711 13.6048Z" fill="#54ACEE"/>
<path fill-rule="evenodd" clip-rule="evenodd" d="M11.7605 11.3559C11.7605 11.3559 10.9258 11.7672 10.789 11.8531C10.6522 11.9391 10.6 11.9787 10.5329 12.0781C10.3214 12.3891 10.402 12.8125 10.7129 13.0236C11.0239 13.2351 11.4473 13.1541 11.6584 12.8436C11.7272 12.7423 11.7389 12.6865 11.774 12.5146C11.8091 12.3436 11.8676 11.4279 11.8676 11.4279C11.8739 11.355 11.8258 11.3226 11.7605 11.3559Z" fill="#54ACEE"/>
<path fill-rule="evenodd" clip-rule="evenodd" d="M12.7606 13.6049C12.7606 13.6049 11.9258 14.0166 11.789 14.1021C11.6522 14.1881 11.6 14.2281 11.533 14.3271C11.3215 14.6381 11.402 15.0615 11.713 15.273C12.0239 15.4841 12.4474 15.4035 12.6584 15.0926C12.7273 14.9913 12.739 14.9355 12.7741 14.7641C12.8092 14.5931 12.8677 13.6769 12.8677 13.6769C12.874 13.604 12.8258 13.5716 12.7606 13.6049Z" fill="#54ACEE"/>
</svg>
