<svg width="18" height="18" viewBox="0 0 18 18" fill="none" xmlns="http://www.w3.org/2000/svg">
<path fill-rule="evenodd" clip-rule="evenodd" d="M12.1565 4.47245C11.9139 4.47245 11.679 4.50395 11.4545 4.56245C11.0346 3.37175 9.90017 2.51855 8.56592 2.51855C6.93107 2.51855 5.59547 3.79925 5.50817 5.41206C5.40782 5.39945 5.30657 5.39001 5.20262 5.39001C3.93092 5.39001 2.89952 6.42141 2.89952 7.69356C2.89952 8.96526 3.93092 9.99666 5.20262 9.99666H12.1565C13.682 9.99666 14.9186 8.76051 14.9186 7.23455C14.9186 5.70905 13.682 4.47245 12.1565 4.47245Z" fill="#BDBDBD"/>
<path fill-rule="evenodd" clip-rule="evenodd" d="M10.9759 14.506L10.4327 14.2931L10.8562 13.8926C10.8931 13.8575 10.8949 13.7986 10.8598 13.7617L10.6888 13.5808C10.6541 13.5439 10.5952 13.5421 10.5583 13.5776L10.1731 13.9421L10.0714 13.4215C10.0619 13.3715 10.0129 13.3382 9.96292 13.3486L9.71902 13.3958C9.66907 13.4057 9.63577 13.4543 9.64567 13.5043L9.74737 14.0254L9.25327 13.8319C9.20557 13.813 9.15202 13.8368 9.13312 13.8841L9.04267 14.1158C9.02422 14.1626 9.04762 14.2166 9.09487 14.2351L9.63847 14.4479L9.21457 14.8493C9.17767 14.8844 9.17587 14.9434 9.21142 14.9803L9.38197 15.1607C9.41707 15.1976 9.47602 15.1994 9.51292 15.1643L9.89812 14.7994L9.99982 15.3205C10.0093 15.3704 10.0583 15.4028 10.1083 15.3934L10.3522 15.3457C10.4021 15.3362 10.435 15.2872 10.4255 15.2372L10.3238 14.717L10.8175 14.9096C10.8652 14.9285 10.9192 14.9051 10.9376 14.8574L11.0285 14.6261C11.047 14.5784 11.0231 14.5244 10.9759 14.506Z" fill="#54ACEE"/>
<path fill-rule="evenodd" clip-rule="evenodd" d="M9.97592 12.017L9.43277 11.8042L9.85622 11.4032C9.89312 11.3686 9.89492 11.3096 9.85982 11.2727L9.68882 11.0918C9.65417 11.0549 9.59522 11.0531 9.55832 11.0887L9.17312 11.4532L9.07142 10.9321C9.06197 10.8826 9.01292 10.8493 8.96297 10.8592L8.71907 10.9069C8.66912 10.9168 8.63582 10.9654 8.64572 11.0149L8.74742 11.536L8.25332 11.3425C8.20562 11.324 8.15207 11.3479 8.13317 11.3947L8.04272 11.6269C8.02427 11.6737 8.04767 11.7277 8.09492 11.7461L8.63852 11.959L8.21462 12.3604C8.17772 12.3955 8.17592 12.454 8.21147 12.4913L8.38202 12.6718C8.41712 12.7087 8.47607 12.7105 8.51297 12.6754L8.89817 12.3104L8.99987 12.8315C9.00932 12.881 9.05837 12.9139 9.10832 12.9044L9.35222 12.8567C9.40217 12.8468 9.43502 12.7982 9.42557 12.7483L9.32387 12.2276L9.81752 12.4207C9.86522 12.4391 9.91922 12.4162 9.93767 12.3685L10.0286 12.1372C10.047 12.0895 10.0232 12.0355 9.97592 12.017Z" fill="#54ACEE"/>
<path fill-rule="evenodd" clip-rule="evenodd" d="M13.5269 14.506L12.9837 14.2931L13.4072 13.8926C13.4445 13.8575 13.4459 13.7986 13.4108 13.7617L13.2398 13.5808C13.2051 13.5439 13.1462 13.5421 13.1093 13.5776L12.7241 13.9421L12.6224 13.4215C12.6129 13.3715 12.5639 13.3382 12.5139 13.3486L12.27 13.3958C12.2201 13.4057 12.1868 13.4543 12.1967 13.5043L12.2984 14.0254L11.8043 13.8319C11.7566 13.813 11.703 13.8368 11.6841 13.8841L11.5937 14.1158C11.5752 14.1626 11.5986 14.2166 11.6459 14.2351L12.1895 14.4479L11.7656 14.8493C11.7287 14.8844 11.7269 14.9434 11.7624 14.9803L11.933 15.1607C11.9681 15.1976 12.027 15.1994 12.0639 15.1643L12.4491 14.7994L12.5508 15.3205C12.5603 15.3704 12.6093 15.4028 12.6593 15.3934L12.9032 15.3457C12.9531 15.3362 12.986 15.2872 12.9765 15.2372L12.8748 14.717L13.3685 14.9096C13.4162 14.9285 13.4702 14.9051 13.4886 14.8574L13.5795 14.6261C13.598 14.5784 13.5741 14.5244 13.5269 14.506Z" fill="#54ACEE"/>
<path fill-rule="evenodd" clip-rule="evenodd" d="M12.5269 12.017L11.9838 11.8042L12.4072 11.4032C12.4446 11.3686 12.4459 11.3096 12.4108 11.2727L12.2398 11.0918C12.2052 11.0549 12.1462 11.0531 12.1093 11.0887L11.7241 11.4532L11.6224 10.9321C11.613 10.8826 11.5639 10.8493 11.514 10.8592L11.2701 10.9069C11.2201 10.9168 11.1868 10.9654 11.1967 11.0149L11.2984 11.536L10.8043 11.3425C10.7566 11.324 10.7031 11.3479 10.6842 11.3947L10.5937 11.6269C10.5753 11.6737 10.5987 11.7277 10.6459 11.7461L11.1895 11.959L10.7656 12.3604C10.7287 12.3955 10.7269 12.454 10.7625 12.4913L10.933 12.6718C10.9681 12.7087 11.0271 12.7105 11.064 12.6754L11.4492 12.3104L11.5509 12.8315C11.5603 12.881 11.6094 12.9139 11.6593 12.9044L11.9032 12.8567C11.9532 12.8468 11.986 12.7982 11.9766 12.7483L11.8749 12.2276L12.3685 12.4207C12.4162 12.4391 12.4702 12.4162 12.4887 12.3685L12.5796 12.1372C12.598 12.0895 12.5742 12.0355 12.5269 12.017Z" fill="#54ACEE"/>
<path fill-rule="evenodd" clip-rule="evenodd" d="M8.36473 14.4838L7.82158 14.271L8.24503 13.87C8.28193 13.8349 8.28373 13.776 8.24863 13.7395L8.07763 13.5586C8.04253 13.5217 7.98403 13.5199 7.94713 13.555L7.56193 13.92L7.46023 13.3989C7.45078 13.3494 7.40173 13.3161 7.35178 13.326L7.10788 13.3732C7.05793 13.3836 7.02463 13.4322 7.03453 13.4817L7.13623 14.0028L6.64213 13.8093C6.59443 13.7908 6.54043 13.8147 6.52198 13.8615L6.43153 14.0932C6.41263 14.1405 6.43648 14.1945 6.48373 14.2129L7.02688 14.4258L6.60343 14.8272C6.56653 14.8618 6.56473 14.9208 6.59983 14.9581L6.77083 15.1386C6.80593 15.1755 6.86488 15.1768 6.90178 15.1422L7.28698 14.7768L7.38868 15.2979C7.39813 15.3478 7.44718 15.3807 7.49713 15.3712L7.74103 15.3235C7.79098 15.3136 7.82383 15.265 7.81393 15.2151L7.71268 14.6944L8.20633 14.8875C8.25403 14.9059 8.30803 14.883 8.32648 14.8353L8.41738 14.604C8.43583 14.5558 8.41198 14.5023 8.36473 14.4838Z" fill="#54ACEE"/>
<path fill-rule="evenodd" clip-rule="evenodd" d="M7.3647 11.9951L6.82155 11.7827L7.245 11.3817C7.2819 11.3466 7.2837 11.2877 7.2486 11.2508L7.0776 11.0703C7.0425 11.0334 6.984 11.0316 6.9471 11.0667L6.5619 11.4312L6.4602 10.9106C6.45075 10.8606 6.4017 10.8278 6.35175 10.8377L6.10785 10.8849C6.0579 10.8948 6.0246 10.9434 6.0345 10.9934L6.1362 11.5145L5.6421 11.321C5.5944 11.3021 5.5404 11.3259 5.52195 11.3732L5.4315 11.6049C5.4126 11.6522 5.43645 11.7057 5.4837 11.7246L6.02685 11.9375L5.6034 12.3384C5.5665 12.3735 5.5647 12.4325 5.5998 12.4694L5.7708 12.6498C5.8059 12.6867 5.86485 12.6885 5.90175 12.6534L6.28695 12.2885L6.38865 12.8096C6.3981 12.8595 6.44715 12.8924 6.4971 12.8825L6.741 12.8348C6.79095 12.8253 6.8238 12.7763 6.8139 12.7263L6.71265 12.2061L7.2063 12.3992C7.254 12.4176 7.308 12.3942 7.32645 12.3465L7.41735 12.1152C7.4358 12.0675 7.41195 12.0135 7.3647 11.9951Z" fill="#54ACEE"/>
</svg>
