<svg width="18" height="18" viewBox="0 0 18 18" fill="none" xmlns="http://www.w3.org/2000/svg">
<path fill-rule="evenodd" clip-rule="evenodd" d="M12.6066 4.74882C12.3641 4.74882 12.1287 4.78032 11.9046 4.83882C11.4848 3.64812 10.3503 2.79492 9.01609 2.79492C7.38124 2.79492 6.04564 4.07562 5.95789 5.68842C5.85799 5.67582 5.75674 5.66637 5.65279 5.66637C4.38064 5.66637 3.34969 6.69732 3.34969 7.96947C3.34969 9.24162 4.38064 10.273 5.65279 10.273H12.6066C14.1321 10.273 15.3687 9.03642 15.3687 7.51092C15.3687 5.98542 14.1321 4.74882 12.6066 4.74882" fill="#BDBDBD"/>
<path fill-rule="evenodd" clip-rule="evenodd" d="M8.34564 11.4124C8.34564 11.4124 7.51089 11.8237 7.3741 11.9097C7.23685 11.9961 7.1851 12.0357 7.1176 12.1347C6.90655 12.4456 6.9871 12.8691 7.29805 13.0801C7.60899 13.2916 8.03244 13.2111 8.24349 12.9001C8.31234 12.7989 8.32404 12.7431 8.35914 12.5716C8.39379 12.4006 8.45274 11.4844 8.45274 11.4844C8.45859 11.412 8.41089 11.3791 8.34564 11.4124" fill="#54ACEE"/>
<path fill-rule="evenodd" clip-rule="evenodd" d="M11.0499 11.4124C11.0499 11.4124 10.2151 11.8242 10.0783 11.9097C9.94107 11.9961 9.88932 12.0357 9.82182 12.1347C9.61077 12.4456 9.69132 12.8691 10.0023 13.0806C10.3132 13.2916 10.7367 13.2111 10.9477 12.9001C11.0166 12.7989 11.0283 12.7431 11.0634 12.5716C11.098 12.4006 11.157 11.4849 11.157 11.4849C11.1628 11.412 11.1151 11.3791 11.0499 11.4124" fill="#54ACEE"/>
</svg>
