<svg width="18" height="18" viewBox="0 0 18 18" fill="none" xmlns="http://www.w3.org/2000/svg">
<path fill-rule="evenodd" clip-rule="evenodd" d="M12.2876 4.92167C12.0451 4.92167 11.8097 4.95317 11.5856 5.01167C11.1658 3.82097 10.0313 2.96777 8.69709 2.96777C7.06224 2.96777 5.72664 4.24847 5.63934 5.86127C5.53899 5.84867 5.43774 5.83922 5.33379 5.83922C4.06209 5.83922 3.03069 6.87062 3.03069 8.14277C3.03069 9.41447 4.06209 10.4459 5.33379 10.4459H12.2876C13.8131 10.4459 15.0497 9.20972 15.0497 7.68377C15.0497 6.15827 13.8131 4.92167 12.2876 4.92167Z" fill="#BDBDBD"/>
<path fill-rule="evenodd" clip-rule="evenodd" d="M11.1068 12.1593L10.5636 11.9464L10.9871 11.5459C11.0244 11.5108 11.0258 11.4519 10.9907 11.415L10.8197 11.2341C10.785 11.1972 10.7261 11.1954 10.6892 11.2309L10.304 11.5954L10.2027 11.0748C10.1928 11.0248 10.1438 10.9915 10.0943 11.0019L9.84994 11.0491C9.79999 11.059 9.76714 11.1076 9.77659 11.1576L9.87829 11.6787L9.38419 11.4852C9.33694 11.4663 9.28294 11.4901 9.26449 11.5374L9.17359 11.7691C9.15514 11.8159 9.17854 11.8699 9.22624 11.8884L9.76939 12.1012L9.34549 12.5026C9.30859 12.5377 9.30724 12.5967 9.34234 12.6336L9.51334 12.814C9.54799 12.8509 9.60694 12.8527 9.64429 12.8176L10.029 12.4527L10.1307 12.9738C10.1406 13.0237 10.1892 13.0561 10.2392 13.0467L10.4835 12.999C10.5335 12.9895 10.5663 12.9405 10.5564 12.8905L10.4552 12.3703L10.9488 12.5629C10.9961 12.5818 11.0501 12.5584 11.0685 12.5107L11.1594 12.2794C11.1779 12.2317 11.154 12.1777 11.1068 12.1593Z" fill="#54ACEE"/>
<path fill-rule="evenodd" clip-rule="evenodd" d="M7.93956 12.1596L7.39641 11.9467L7.81986 11.5458C7.85721 11.5111 7.85856 11.4522 7.82346 11.4153L7.65246 11.2344C7.61781 11.1975 7.55886 11.1957 7.52196 11.2312L7.13676 11.5957L7.03551 11.0746C7.02561 11.0251 6.97656 10.9918 6.92706 11.0017L6.68271 11.0494C6.63276 11.0593 6.59991 11.1079 6.60936 11.1574L6.71106 11.6785L6.21696 11.485C6.16971 11.4666 6.11571 11.4904 6.09726 11.5372L6.00636 11.7694C5.98791 11.8162 6.01131 11.8702 6.05901 11.8887L6.60216 12.1015L6.17826 12.5029C6.14136 12.538 6.14001 12.5965 6.17511 12.6339L6.34611 12.8143C6.38076 12.8512 6.43971 12.853 6.47706 12.8179L6.86181 12.453L6.96351 12.9741C6.97341 13.0236 7.02201 13.0564 7.07196 13.047L7.31631 12.9993C7.36626 12.9894 7.39911 12.9408 7.38921 12.8908L7.28796 12.3702L7.78161 12.5632C7.82886 12.5817 7.88286 12.5587 7.90131 12.511L7.99221 12.2797C8.01066 12.232 7.98681 12.178 7.93956 12.1596Z" fill="#54ACEE"/>
</svg>
