<?xml version="1.0" encoding="UTF-8" standalone="no"?>
<svg
   xmlns:dc="http://purl.org/dc/elements/1.1/"
   xmlns:cc="http://creativecommons.org/ns#"
   xmlns:rdf="http://www.w3.org/1999/02/22-rdf-syntax-ns#"
   xmlns:svg="http://www.w3.org/2000/svg"
   xmlns="http://www.w3.org/2000/svg"
   xmlns:sodipodi="http://sodipodi.sourceforge.net/DTD/sodipodi-0.dtd"
   xmlns:inkscape="http://www.inkscape.org/namespaces/inkscape"
   width="24"
   height="24"
   viewBox="0 0 6.3499998 6.3499998"
   version="1.1"
   id="svg2712"
   inkscape:version="1.0.1 (c497b03c, 2020-09-10)"
   sodipodi:docname="ico-traffico.svg">
  <defs
     id="defs2706" />
  <sodipodi:namedview
     id="base"
     pagecolor="#ffffff"
     bordercolor="#666666"
     borderopacity="1.0"
     inkscape:pageopacity="0.0"
     inkscape:pageshadow="2"
     inkscape:zoom="35.833333"
     inkscape:cx="10.437209"
     inkscape:cy="13.506977"
     inkscape:document-units="mm"
     inkscape:current-layer="layer1"
     inkscape:document-rotation="0"
     showgrid="false"
     units="px"
     inkscape:window-width="1680"
     inkscape:window-height="1050"
     inkscape:window-x="0"
     inkscape:window-y="0"
     inkscape:window-maximized="0" />
  <metadata
     id="metadata2709">
    <rdf:RDF>
      <cc:Work
         rdf:about="">
        <dc:format>image/svg+xml</dc:format>
        <dc:type
           rdf:resource="http://purl.org/dc/dcmitype/StillImage" />
        <dc:title></dc:title>
      </cc:Work>
    </rdf:RDF>
  </metadata>
  <g
     inkscape:label="Layer 1"
     inkscape:groupmode="layer"
     id="layer1">
    <g
       id="g8202"
       transform="matrix(0.39483213,0,0,0.39483213,-6.3043833,-5.6710493)"
       style="fill:#008bff;fill-opacity:1">
      <path
         fill="#ffffff"
         d="m 27.063,28.303 c -1.072,0 -2.148,0 -3.224,0 -0.125,0 -0.125,0 -0.126,0.125 0,0.148 0.002,0.297 -0.003,0.442 -0.011,0.239 -0.196,0.456 -0.434,0.472 -0.254,0.018 -0.512,0.02 -0.765,0 -0.242,-0.018 -0.432,-0.25 -0.433,-0.492 0,-1.39 0,-2.779 0.002,-4.168 0,-0.072 0.027,-0.147 0.054,-0.219 0.357,-0.98 0.716,-1.959 1.074,-2.938 0.139,-0.379 0.429,-0.587 0.832,-0.587 2.013,-10e-4 4.026,-10e-4 6.041,0 0.401,0 0.694,0.204 0.83,0.576 0.368,1.006 0.735,2.014 1.103,3.021 0.021,0.056 0.03,0.119 0.03,0.179 0.003,1.351 -0.005,2.703 0.006,4.054 0.003,0.32 -0.19,0.578 -0.547,0.594 -0.215,0.009 -0.431,0.002 -0.644,-0.016 -0.25,-0.021 -0.438,-0.229 -0.445,-0.479 -0.007,-0.152 -0.007,-0.306 -0.002,-0.458 0.002,-0.081 -0.025,-0.105 -0.107,-0.104 -1.082,0 -2.162,-0.002 -3.242,-0.002 z M 23.16,24.1 c 2.607,0 5.197,0 7.798,0 -0.015,-0.053 -0.026,-0.092 -0.039,-0.13 -0.25,-0.714 -0.503,-1.429 -0.75,-2.145 -0.03,-0.095 -0.079,-0.124 -0.175,-0.124 -1.956,0.002 -3.91,0.002 -5.864,0 -0.099,0 -0.145,0.029 -0.177,0.124 -0.235,0.68 -0.474,1.358 -0.712,2.037 -0.027,0.075 -0.05,0.149 -0.081,0.238 z m 0.844,1.035 c -0.069,0.008 -0.14,0.012 -0.208,0.026 -0.571,0.132 -0.822,0.782 -0.479,1.245 0.236,0.318 0.691,0.431 1.06,0.255 0.289,-0.138 0.458,-0.366 0.473,-0.688 0.023,-0.517 -0.437,-0.854 -0.846,-0.838 z m 6.112,0 c -0.068,0.008 -0.14,0.012 -0.207,0.026 -0.539,0.122 -0.806,0.714 -0.529,1.177 0.199,0.337 0.63,0.488 1.015,0.361 0.33,-0.11 0.563,-0.409 0.567,-0.73 0.011,-0.464 -0.362,-0.828 -0.846,-0.834 z"
         id="path7625"
         style="fill:#008bff;fill-opacity:1" />
      <path
         fill="#ffffff"
         d="m 17.049,21.319 c 1.82,0 3.624,0 5.442,0 -0.061,0.168 -0.115,0.319 -0.17,0.47 -0.324,0.885 -0.648,1.771 -0.971,2.656 -0.019,0.052 -0.028,0.11 -0.028,0.165 -0.003,0.256 0,0.513 0,0.768 0,0.135 0,0.135 -0.132,0.135 -1.153,0 -2.307,0 -3.461,0 -0.127,0 -0.127,0 -0.127,0.127 -0.001,0.15 0.002,0.301 -0.004,0.45 -0.01,0.229 -0.195,0.445 -0.424,0.462 -0.256,0.02 -0.517,0.02 -0.773,0.002 -0.245,-0.019 -0.433,-0.252 -0.433,-0.503 -10e-4,-1.386 -10e-4,-2.772 0,-4.158 0,-0.043 0.008,-0.088 0.022,-0.129 0.37,-1.016 0.74,-2.031 1.112,-3.045 0.138,-0.375 0.435,-0.572 0.853,-0.572 1.922,0 3.844,0 5.766,0 0.129,0 0.26,0.001 0.388,0.016 0.322,0.037 0.556,0.205 0.67,0.51 0.193,0.514 0.38,1.031 0.568,1.546 0.008,0.021 0.01,0.044 0.016,0.07 -0.013,0.004 -0.023,0.011 -0.034,0.011 -0.257,0 -0.513,-0.001 -0.769,0.002 -0.065,0 -0.077,-0.043 -0.091,-0.088 -0.137,-0.393 -0.279,-0.785 -0.411,-1.181 -0.032,-0.096 -0.08,-0.123 -0.177,-0.123 -1.955,0.002 -3.908,0.002 -5.863,0 -0.099,0 -0.144,0.029 -0.176,0.124 -0.247,0.716 -0.5,1.431 -0.75,2.146 -0.015,0.038 -0.024,0.078 -0.043,0.139 z m 0.842,1.024 c -0.066,0.009 -0.134,0.013 -0.2,0.026 -0.576,0.128 -0.831,0.784 -0.485,1.248 0.235,0.317 0.689,0.429 1.053,0.257 0.288,-0.136 0.461,-0.363 0.479,-0.685 0.028,-0.522 -0.436,-0.861 -0.847,-0.846 z"
         id="path7627"
         style="fill:#008bff;fill-opacity:1" />
      <path
         fill="#ffffff"
         d="m 25.553,18.617 c 1.809,0 3.6,0 5.405,0 -0.013,-0.046 -0.019,-0.075 -0.028,-0.104 -0.257,-0.734 -0.516,-1.469 -0.77,-2.204 -0.026,-0.074 -0.064,-0.099 -0.143,-0.099 -1.972,0.002 -3.943,0.002 -5.915,0 -0.083,0 -0.119,0.033 -0.146,0.106 -0.127,0.372 -0.26,0.743 -0.387,1.115 -0.02,0.06 -0.047,0.083 -0.113,0.082 -0.257,-0.003 -0.517,-0.001 -0.787,-0.001 0.013,-0.041 0.022,-0.071 0.033,-0.1 0.168,-0.461 0.336,-0.921 0.505,-1.382 0.138,-0.378 0.429,-0.585 0.833,-0.586 2.014,-0.001 4.025,-0.001 6.04,0 0.397,0 0.69,0.203 0.825,0.57 0.371,1.013 0.738,2.025 1.107,3.038 0.016,0.041 0.026,0.085 0.026,0.128 0.002,1.08 0.002,2.161 -0.011,3.245 -0.057,-0.156 -0.113,-0.313 -0.172,-0.469 -0.127,-0.35 -0.258,-0.7 -0.387,-1.05 -0.08,-0.22 -0.229,-0.382 -0.436,-0.489 -0.059,-0.03 -0.084,-0.068 -0.098,-0.132 -0.063,-0.338 -0.41,-0.624 -0.756,-0.636 -0.342,-0.013 -0.615,0.106 -0.802,0.398 -0.037,0.056 -0.06,0.121 -0.081,0.185 -0.017,0.053 -0.043,0.074 -0.101,0.073 -0.235,-0.003 -0.472,-0.001 -0.706,-0.001 -0.744,0 -1.488,-10e-4 -2.233,0.002 -0.073,0 -0.106,-0.022 -0.132,-0.092 -0.179,-0.498 -0.361,-0.995 -0.544,-1.49 -0.002,-0.03 -0.011,-0.057 -0.026,-0.107 z"
         id="path7629"
         style="fill:#008bff;fill-opacity:1" />
    </g>
  </g>
</svg>
