<?xml version="1.0" encoding="UTF-8" standalone="no"?>
<svg
   xmlns:dc="http://purl.org/dc/elements/1.1/"
   xmlns:cc="http://creativecommons.org/ns#"
   xmlns:rdf="http://www.w3.org/1999/02/22-rdf-syntax-ns#"
   xmlns:svg="http://www.w3.org/2000/svg"
   xmlns="http://www.w3.org/2000/svg"
   xmlns:sodipodi="http://sodipodi.sourceforge.net/DTD/sodipodi-0.dtd"
   xmlns:inkscape="http://www.inkscape.org/namespaces/inkscape"
   width="24"
   height="24"
   viewBox="0 0 6.3499998 6.3499998"
   version="1.1"
   id="svg2712"
   inkscape:version="1.0.1 (c497b03c, 2020-09-10)"
   sodipodi:docname="ico-chiusura.svg">
  <defs
     id="defs2706" />
  <sodipodi:namedview
     id="base"
     pagecolor="#ffffff"
     bordercolor="#666666"
     borderopacity="1.0"
     inkscape:pageopacity="0.0"
     inkscape:pageshadow="2"
     inkscape:zoom="35.833333"
     inkscape:cx="12"
     inkscape:cy="12"
     inkscape:document-units="mm"
     inkscape:current-layer="layer1"
     inkscape:document-rotation="0"
     showgrid="false"
     units="px"
     inkscape:window-width="1680"
     inkscape:window-height="1050"
     inkscape:window-x="0"
     inkscape:window-y="0"
     inkscape:window-maximized="0" />
  <metadata
     id="metadata2709">
    <rdf:RDF>
      <cc:Work
         rdf:about="">
        <dc:format>image/svg+xml</dc:format>
        <dc:type
           rdf:resource="http://purl.org/dc/dcmitype/StillImage" />
        <dc:title></dc:title>
      </cc:Work>
    </rdf:RDF>
  </metadata>
  <g
     inkscape:label="Layer 1"
     inkscape:groupmode="layer"
     id="layer1">
    <g
       id="g3890"
       style="fill:#008bff;fill-opacity:1"
       transform="matrix(1.4300774,0,0,1.4300774,-14.771989,-13.187064)">
      <g
         transform="matrix(0.03475788,0,0,-0.03475788,-108.76359,134.90373)"
         id="g6"
         style="fill:#008bff;fill-opacity:1;stroke:none">
        <path
           inkscape:connector-curvature="0"
           d="m 3430.9873,3605.3178 c 0,-0.125 -0.2749,-0.25 -0.6,-0.25 -1.45,0 -2.725,-0.95 -3.55,-2.625 -0.45,-0.95 -0.4749,-1.675 -0.4749,-17.125 v -16.125 l 0.6,-1.3 c 0.35,-0.725 0.6999,-1.325 0.7749,-1.325 0.075,0 0.4,-0.225 0.7,-0.5 0.7,-0.65 2.55,-1 5.3251,-1 h 2.2249 v -33.25 -33.25 h 7.5 7.5 v 10 10 h 39.25 39.25 v -10 -10 h 7.5 7.5 v 33.25 33.25 h 2.2251 c 2.7749,0 4.6249,0.35 5.3249,1 0.3,0.275 0.625,0.5 0.7,0.5 0.075,0 0.425,0.6 0.7751,1.325 l 0.6,1.3 v 16.125 c 0,15.45 -0.025,16.175 -0.4751,17.125 -0.8249,1.675 -2.1,2.625 -3.55,2.625 -0.3249,0 -0.6,0.125 -0.6,0.25 0,0.175 -19.9249,0.25 -59.25,0.25 -39.325,0 -59.25,-0.075 -59.25,-0.25 z m 26.9,-7.175 c -0.075,-0.25 -2.2749,-6.175 -4.85,-13.2 l -4.7249,-12.75 -7.1501,-0.075 c -3.9499,-0.025 -7.175,0.025 -7.175,0.1251 0,0.1249 2.175,6.0749 4.8,13.25 l 4.8251,13.0749 h 7.2 c 6.75,0 7.2,-0.025 7.0749,-0.4249 z m 29.5,-0.125 c -0.075,-0.325 -2.25,-6.275 -4.8,-13.25 l -4.675,-12.7 h -7.225 c -3.95,0 -7.2,0.075 -7.2,0.2 0,0.1 2.175,6.05 4.8,13.225 l 4.8251,13.075 h 7.2249 7.2 z m 29.5,0 c -0.075,-0.325 -2.25,-6.275 -4.8,-13.25 l -4.675,-12.7 h -7.225 c -3.95,0 -7.2,0.075 -7.2,0.2 0,0.1 2.175,6.05 4.8,13.225 l 4.8251,13.075 h 7.2249 7.2 z m 29.5,0 c -0.075,-0.325 -2.25,-6.275 -4.8,-13.25 l -4.675,-12.7 h -7.25 c -6.775,0 -7.225,0.025 -7.0499,0.45 0.1,0.225 2.2249,6 4.75,12.8 2.5249,6.8 4.65,12.575 4.75,12.825 0.1749,0.4 0.75,0.425 7.2999,0.425 h 7.125 z m -16.9,-49.45 v -16.5 h -39.25 -39.25 v 16.5 16.5 h 39.25 39.25 z"
           id="path8"
           style="fill:#008bff;fill-opacity:1" />
      </g>
    </g>
  </g>
</svg>
