<?xml version="1.0" encoding="UTF-8" standalone="no"?>
<svg
   xmlns:dc="http://purl.org/dc/elements/1.1/"
   xmlns:cc="http://creativecommons.org/ns#"
   xmlns:rdf="http://www.w3.org/1999/02/22-rdf-syntax-ns#"
   xmlns:svg="http://www.w3.org/2000/svg"
   xmlns="http://www.w3.org/2000/svg"
   xmlns:sodipodi="http://sodipodi.sourceforge.net/DTD/sodipodi-0.dtd"
   xmlns:inkscape="http://www.inkscape.org/namespaces/inkscape"
   width="24"
   height="24"
   viewBox="0 0 6.3499998 6.3499998"
   version="1.1"
   id="svg2712"
   inkscape:version="1.0.1 (c497b03c, 2020-09-10)"
   sodipodi:docname="ico-vento.svg">
  <defs
     id="defs2706" />
  <sodipodi:namedview
     id="base"
     pagecolor="#ffffff"
     bordercolor="#666666"
     borderopacity="1.0"
     inkscape:pageopacity="0.0"
     inkscape:pageshadow="2"
     inkscape:zoom="35.833333"
     inkscape:cx="10.437209"
     inkscape:cy="13.506977"
     inkscape:document-units="mm"
     inkscape:current-layer="layer1"
     inkscape:document-rotation="0"
     showgrid="false"
     units="px"
     inkscape:window-width="1680"
     inkscape:window-height="1050"
     inkscape:window-x="0"
     inkscape:window-y="0"
     inkscape:window-maximized="0" />
  <metadata
     id="metadata2709">
    <rdf:RDF>
      <cc:Work
         rdf:about="">
        <dc:format>image/svg+xml</dc:format>
        <dc:type
           rdf:resource="http://purl.org/dc/dcmitype/StillImage" />
        <dc:title></dc:title>
      </cc:Work>
    </rdf:RDF>
  </metadata>
  <g
     inkscape:label="Layer 1"
     inkscape:groupmode="layer"
     id="layer1">
    <g
       id="g8825"
       transform="matrix(0.44527251,0,0,0.44527251,-7.9352014,-7.1586548)"
       style="fill:#008bff;fill-opacity:1">
      <path
         fill="#ffffff"
         d="m 17.822,23.718 c 0,-0.349 0,-0.676 0,-1.02 0.069,0 0.132,0 0.194,0 4.002,0 8.005,0 12.009,0 0.539,0 0.979,-0.371 1.043,-0.878 0.068,-0.541 -0.266,-1.015 -0.807,-1.145 -0.574,-0.138 -1.183,0.306 -1.23,0.896 -0.002,0.031 -0.002,0.061 -0.006,0.097 -0.34,0 -0.672,0 -1.004,0 -0.01,-0.838 0.543,-1.666 1.431,-1.935 1.226,-0.37 2.438,0.42 2.612,1.696 0.149,1.097 -0.648,2.131 -1.746,2.258 -0.151,0.018 -0.307,0.028 -0.459,0.028 -3.938,0.001 -7.878,0.001 -11.817,0.001 -0.069,0.002 -0.137,0.002 -0.22,0.002 z"
         id="path8248"
         style="fill:#008bff;fill-opacity:1" />
      <path
         fill="#ffffff"
         d="m 17.821,25.756 c 0,-0.344 0,-0.672 0,-1.018 0.063,0 0.119,0 0.175,0 2.469,0 4.937,0 7.406,0 1.022,0 1.82,0.633 2.052,1.627 0.262,1.119 -0.574,2.275 -1.714,2.429 -1.041,0.138 -2.06,-0.56 -2.27,-1.608 -0.026,-0.129 -0.035,-0.26 -0.053,-0.4 0.351,0 0.682,0 1.013,0 0.067,0.543 0.327,0.865 0.789,0.984 0.537,0.14 1.09,-0.188 1.231,-0.729 0.142,-0.539 -0.173,-1.101 -0.704,-1.246 -0.096,-0.026 -0.197,-0.034 -0.299,-0.034 -2.466,-0.004 -4.935,-0.004 -7.403,-0.004 -0.068,-0.001 -0.136,-0.001 -0.223,-0.001 z"
         id="path8250"
         style="fill:#008bff;fill-opacity:1" />
      <path
         fill="#ffffff"
         d="m 24.436,19.633 c -0.337,0 -0.665,0 -1.008,0 0.009,-0.457 0.135,-0.871 0.417,-1.223 0.527,-0.656 1.213,-0.932 2.042,-0.753 0.861,0.187 1.389,0.744 1.574,1.597 0.248,1.128 -0.58,2.259 -1.732,2.396 -0.142,0.017 -0.285,0.027 -0.429,0.027 -2.426,0.002 -4.852,0.002 -7.278,0.002 -0.063,0 -0.125,0 -0.197,0 0,-0.34 0,-0.667 0,-1.02 0.058,0 0.119,0 0.181,0 2.479,0 4.958,0 7.438,0 0.535,0 0.982,-0.38 1.039,-0.882 0.063,-0.551 -0.283,-1.032 -0.828,-1.148 -0.602,-0.128 -1.167,0.331 -1.219,1.004 z"
         id="path8252"
         style="fill:#008bff;fill-opacity:1" />
    </g>
  </g>
</svg>
