<?xml version="1.0" encoding="UTF-8" standalone="no"?>
<svg
   xmlns:dc="http://purl.org/dc/elements/1.1/"
   xmlns:cc="http://creativecommons.org/ns#"
   xmlns:rdf="http://www.w3.org/1999/02/22-rdf-syntax-ns#"
   xmlns:svg="http://www.w3.org/2000/svg"
   xmlns="http://www.w3.org/2000/svg"
   xmlns:sodipodi="http://sodipodi.sourceforge.net/DTD/sodipodi-0.dtd"
   xmlns:inkscape="http://www.inkscape.org/namespaces/inkscape"
   width="24"
   height="24"
   viewBox="0 0 6.3499998 6.3499998"
   version="1.1"
   id="svg2712"
   inkscape:version="1.0.1 (c497b03c, 2020-09-10)"
   sodipodi:docname="ico-lavori.svg">
  <defs
     id="defs2706" />
  <sodipodi:namedview
     id="base"
     pagecolor="#ffffff"
     bordercolor="#666666"
     borderopacity="1.0"
     inkscape:pageopacity="0.0"
     inkscape:pageshadow="2"
     inkscape:zoom="35.833333"
     inkscape:cx="10.353488"
     inkscape:cy="10.213953"
     inkscape:document-units="mm"
     inkscape:current-layer="layer1"
     inkscape:document-rotation="0"
     showgrid="false"
     units="px"
     inkscape:window-width="1680"
     inkscape:window-height="1050"
     inkscape:window-x="0"
     inkscape:window-y="0"
     inkscape:window-maximized="0" />
  <metadata
     id="metadata2709">
    <rdf:RDF>
      <cc:Work
         rdf:about="">
        <dc:format>image/svg+xml</dc:format>
        <dc:type
           rdf:resource="http://purl.org/dc/dcmitype/StillImage" />
        <dc:title></dc:title>
      </cc:Work>
    </rdf:RDF>
  </metadata>
  <g
     inkscape:label="Layer 1"
     inkscape:groupmode="layer"
     id="layer1">
    <g
       id="g5711"
       transform="matrix(1.4344521,0,0,1.4344521,1.088456,-2.7245181)"
       style="fill:#008bff;fill-opacity:1">
      <path
         fill="#FFFFFF"
         d="m 1.4430998,2.1453111 c -0.068262,0.018785 -0.1209146,0.051858 -0.1767417,0.1074208 -0.2301875,0.2307167 -0.1190625,0.626798 0.19685,0.7011459 0.22225,0.052388 0.4455584,-0.080963 0.5040314,-0.2987146 0.014288,-0.053181 0.014288,-0.1629833 0,-0.2177521 C 1.949777,2.3696778 1.9132645,2.3090882 1.856379,2.2527319 1.8002873,2.1963757 1.7399623,2.1595986 1.672229,2.1421361 1.6140206,2.127584 1.5002498,2.1281132 1.4430998,2.1453111 Z"
         id="path5094"
         style="fill:#008bff;stroke-width:0.264583;fill-opacity:1" />
      <path
         fill="#FFFFFF"
         d="m 0.12653315,2.5202257 c -0.0650875,0.0037 -0.2301875,0.024077 -0.25982084,0.032544 -0.041275,0.011113 -0.0703792,0.039688 -0.10107083,0.1016 -0.0478896,0.09525 -0.1143,0.3225271 -0.16298333,0.5617104 -0.008996,0.042863 -0.0169333,0.082021 -0.0193146,0.087048 -0.001058,0.00635 -0.0169333,-0.00132 -0.0473604,-0.024342 -0.10318751,-0.079904 -0.18415001,-0.084137 -0.18415001,-0.010319 0,0.036248 0.0404813,0.093927 0.1254125,0.1772708 0.0526521,0.050006 0.0865188,0.091546 0.12038542,0.1465792 l 0.0478896,0.076464 -0.0425979,0.028046 c -0.0238125,0.014552 -0.0566208,0.039688 -0.0735542,0.055033 -0.0600604,0.05424 -0.0555625,0.00609 -0.0563563,0.6302375 l -5.2912e-4,0.5572137 -0.1158875,0.4397375 c -0.12329584,0.4696354 -0.12832292,0.4976813 -0.10345209,0.5688542 0.0441854,0.130175 0.26722918,0.1762125 0.38020626,0.078052 0.0470958,-0.040746 0.0529167,-0.058473 0.20240625,-0.6212417 l 0.14366875,-0.5461 -0.006879,-0.2915707 c -0.003704,-0.1608667 -0.00635,-0.2928938 -0.005821,-0.2928938 0.001588,-5.292e-4 0.22304375,0.2696104 0.42730211,0.5201708 l 0.065088,0.080169 -0.22198544,0.4572 c -0.12117917,0.2510896 -0.22463125,0.473075 -0.22965833,0.4923896 -0.0132292,0.051858 -0.004498,0.1166812 0.0209021,0.1571625 0.0399521,0.065352 0.13414375,0.1124479 0.22436667,0.1124479 0.061648,0 0.090752,-0.010848 0.1362604,-0.053181 0.03175,-0.028575 0.055033,-0.071702 0.2420937,-0.4487334 0.2042584,-0.4103687 0.3177646,-0.6498166 0.3447521,-0.7289271 0.00953,-0.027252 0.012435,-0.049742 0.00953,-0.067204 -0.00582,-0.033867 -0.051594,-0.1330854 -0.087313,-0.1878541 -0.017462,-0.027252 -0.02196,-0.039158 -0.012965,-0.032808 0.00794,0.00556 0.23151048,0.1854729 0.49794588,0.4003145 l 0.4839183,0.3902596 -0.039687,0.015875 c -0.087048,0.035719 -0.1561042,0.095515 -0.1926167,0.1672166 -0.015875,0.031221 -0.019844,0.034396 -0.048683,0.038894 -0.069585,0.010583 -0.1500188,0.0635 -0.1883833,0.1240896 -0.00926,0.01614 -0.021961,0.046567 -0.027781,0.070379 -0.00609,0.02249 -0.012435,0.042862 -0.014288,0.044185 -0.00185,0.00212 -0.027517,0.00609 -0.057679,0.010319 -0.1661588,0.019579 -0.266965,0.077787 -0.34104838,0.1931455 -0.014288,0.022754 -0.026458,0.043656 -0.026458,0.045773 0,0.00185 0.61594998,0.0037 1.36842508,0.0037 h 1.3692187 v -0.015346 c 0,-0.029104 -0.040217,-0.099483 -0.07911,-0.1378479 -0.047096,-0.04736 -0.1153583,-0.080963 -0.1846792,-0.091546 -0.027517,-0.0045 -0.056621,-0.009 -0.065352,-0.010054 -0.00953,-0.00159 -0.020902,-0.014817 -0.028575,-0.032015 -0.00661,-0.016669 -0.023283,-0.039423 -0.036777,-0.0508 -0.020108,-0.020108 -0.07911,-0.045773 -0.1029229,-0.045773 -0.00741,0 -0.011377,-0.01905 -0.014288,-0.071702 C 3.1509853,5.5258923 3.1316707,5.4750923 3.0821936,5.4266735 3.032452,5.3785194 2.9922353,5.3634381 2.891429,5.358411 L 2.812583,5.353651 2.786918,5.316345 C 2.751729,5.263161 2.6781749,5.1906652 2.6263165,5.1570631 2.5670499,5.1184339 2.5133395,5.0996485 2.4442832,5.0914464 2.3035249,5.075836 2.1744082,5.1213444 2.0725436,5.2242673 L 2.0225374,5.2734798 1.480406,4.8332131 C 1.1822206,4.5905903 0.93801022,4.3910944 0.93801022,4.3879194 0.93748102,4.3852736 0.94965192,4.3611965 0.96526232,4.3365903 1.1171331,4.0876174 1.3409706,3.6756611 1.4076456,3.5222028 1.4716748,3.3756236 1.475379,3.3380528 1.439131,3.2502111 1.383304,3.115009 1.2015352,2.8525424 1.0382873,2.6694507 0.92848522,2.5456257 0.90917062,2.5366299 0.72634352,2.5234007 0.63506232,2.5157278 0.2305144,2.5141403 0.12653315,2.5202257 Z m 0.0971021,0.5535083 c -0.0410104,0.044185 -0.10768544,0.1143 -0.14843127,0.1571625 l -0.0727604,0.077258 0.0177271,-0.084667 c 0.009525,-0.046567 0.0243417,-0.1153583 0.0330729,-0.1529292 l 0.0150812,-0.067733 0.0674687,-0.00291 c 0.0381,-5.291e-4 0.0894292,-0.00291 0.11535834,-0.00397 l 0.046567,-0.00132 z m 0.47016457,0.84455 c -0.045508,0.086519 -0.090752,0.1695979 -0.098954,0.1846792 l -0.01561,0.027781 -0.1127125,-0.095779 -0.1132417,-0.096573 0.046567,-0.020108 c 0.025929,-0.010848 0.1195917,-0.051594 0.20955,-0.090752 0.089165,-0.038894 0.1635125,-0.06985 0.1653646,-0.068527 0.00159,0.00159 -0.03519,0.07329 -0.0809634,0.1592788 z"
         id="path5096"
         style="fill:#008bff;stroke-width:0.264583;fill-opacity:1" />
    </g>
  </g>
</svg>
