<?xml version="1.0" encoding="UTF-8" standalone="no"?>
<svg
   xmlns:dc="http://purl.org/dc/elements/1.1/"
   xmlns:cc="http://creativecommons.org/ns#"
   xmlns:rdf="http://www.w3.org/1999/02/22-rdf-syntax-ns#"
   xmlns:svg="http://www.w3.org/2000/svg"
   xmlns="http://www.w3.org/2000/svg"
   xmlns:sodipodi="http://sodipodi.sourceforge.net/DTD/sodipodi-0.dtd"
   xmlns:inkscape="http://www.inkscape.org/namespaces/inkscape"
   width="24"
   height="24"
   viewBox="0 0 6.3499999 6.3500002"
   version="1.1"
   id="svg872"
   inkscape:version="1.0.1 (c497b03c, 2020-09-10)"
   sodipodi:docname="ico-attenzione.svg">
  <defs
     id="defs866" />
  <sodipodi:namedview
     id="base"
     pagecolor="#ffffff"
     bordercolor="#666666"
     borderopacity="1.0"
     inkscape:pageopacity="0.0"
     inkscape:pageshadow="2"
     inkscape:zoom="16.003276"
     inkscape:cx="7.7920463"
     inkscape:cy="9.8115084"
     inkscape:document-units="mm"
     inkscape:current-layer="layer1"
     inkscape:document-rotation="0"
     showgrid="false"
     units="px"
     inkscape:window-width="1680"
     inkscape:window-height="1050"
     inkscape:window-x="0"
     inkscape:window-y="0"
     inkscape:window-maximized="0" />
  <metadata
     id="metadata869">
    <rdf:RDF>
      <cc:Work
         rdf:about="">
        <dc:format>image/svg+xml</dc:format>
        <dc:type
           rdf:resource="http://purl.org/dc/dcmitype/StillImage" />
        <dc:title></dc:title>
      </cc:Work>
    </rdf:RDF>
  </metadata>
  <g
     inkscape:label="Layer 1"
     inkscape:groupmode="layer"
     id="layer1">
    <g
       id="g2071"
       transform="matrix(1.477423,0,0,1.477423,-7.8168544,3.5413953)">
      <path
         fill="#ffffff"
         d="m 7.3818443,-2.1570714 c -0.039952,0.00635 -0.095515,0.024342 -0.1262062,0.040481 -0.027252,0.014817 -0.061119,0.042333 -0.080433,0.064823 -0.016669,0.019315 -1.820598,3.1236708 -1.8430876,3.171825 -0.055562,0.1166812 -0.055033,0.2788708 0.00185,0.3913187 0.039952,0.07964 0.1039813,0.1283229 0.1902354,0.1463146 0.035719,0.00767 0.063765,0.00767 1.9161126,0.00767 1.8489083,0 1.8801292,0 1.9153187,-0.00714 C 9.4876631,1.6307036 9.5707423,1.5246057 9.5868819,1.361887 9.5945548,1.281189 9.5800027,1.185939 9.5482527,1.1203224 9.5405798,1.1031245 9.123861,0.38530985 8.6232694,-0.47458595 7.764961,-1.949638 7.7123089,-2.039861 7.6874381,-2.0655255 7.6178527,-2.1361693 7.4895298,-2.1747985 7.3818443,-2.1570714 Z m 0.1370542,0.9945688 c 0.065088,0.014552 0.1113896,0.041275 0.1539875,0.085725 0.059002,0.062177 0.08255,0.14710826 0.07329,0.26828746 -0.00397,0.051594 -0.00873,0.089165 -0.024606,0.1822979 -0.00794,0.04789 -0.1283229,0.9345084 -0.1283229,0.9464146 0,0.00291 -0.045508,0.00397 -0.1571625,0.00397 H 7.279186 l -0.00212,-0.012965 c -0.00106,-0.00635 -0.027517,-0.20928541 -0.059531,-0.45085001 -0.031485,-0.2413 -0.062971,-0.4765146 -0.070908,-0.5230813 -0.024871,-0.1550458 -0.026194,-0.2420937 -0.00556,-0.31115 C 7.187104,-1.1228144 7.3477066,-1.2029831 7.518892,-1.1625018 Z m -0.00635,1.69227505 c 0.096837,0.022225 0.1793875,0.086254 0.2209271,0.1719791 0.024077,0.049742 0.029898,0.075406 0.029898,0.1299104 0,0.036512 -0.00185,0.052917 -0.0082,0.0762 C 7.7194527,1.0332744 7.6122964,1.1229682 7.4768298,1.1404307 7.3993068,1.1507494 7.3074964,1.1274661 7.2434673,1.0814286 7.1207006,0.99305785 7.0773089,0.84092245 7.1373693,0.70889535 c 0.024606,-0.0547688 0.075142,-0.1095375 0.1288521,-0.1415521 0.033867,-0.019579 0.088106,-0.038629 0.127,-0.043656 0.032015,-0.0045 0.086519,-0.00212 0.1193271,0.00609 z"
         id="path1485"
         style="fill:#008bff;fill-opacity:1;stroke-width:0.264583" />
    </g>
  </g>
</svg>
