<?xml version="1.0" encoding="UTF-8" standalone="no"?>
<svg
   xmlns:dc="http://purl.org/dc/elements/1.1/"
   xmlns:cc="http://creativecommons.org/ns#"
   xmlns:rdf="http://www.w3.org/1999/02/22-rdf-syntax-ns#"
   xmlns:svg="http://www.w3.org/2000/svg"
   xmlns="http://www.w3.org/2000/svg"
   xmlns:sodipodi="http://sodipodi.sourceforge.net/DTD/sodipodi-0.dtd"
   xmlns:inkscape="http://www.inkscape.org/namespaces/inkscape"
   width="90.708664"
   height="90.708664"
   viewBox="0 0 24 24"
   version="1.1"
   id="svg2712"
   inkscape:version="1.0.1 (c497b03c, 2020-09-10)"
   sodipodi:docname="ico-catene.svg">
  <defs
     id="defs2706" />
  <sodipodi:namedview
     id="base"
     pagecolor="#ffffff"
     bordercolor="#666666"
     borderopacity="1.0"
     inkscape:pageopacity="0.0"
     inkscape:pageshadow="2"
     inkscape:zoom="24.350757"
     inkscape:cx="42.592557"
     inkscape:cy="48.712906"
     inkscape:document-units="mm"
     inkscape:current-layer="layer1"
     inkscape:document-rotation="0"
     showgrid="false"
     units="px"
     inkscape:window-width="1680"
     inkscape:window-height="1022"
     inkscape:window-x="0"
     inkscape:window-y="28"
     inkscape:window-maximized="0" />
  <metadata
     id="metadata2709">
    <rdf:RDF>
      <cc:Work
         rdf:about="">
        <dc:format>image/svg+xml</dc:format>
        <dc:type
           rdf:resource="http://purl.org/dc/dcmitype/StillImage" />
        <dc:title></dc:title>
      </cc:Work>
    </rdf:RDF>
  </metadata>
  <g
     inkscape:label="Layer 1"
     inkscape:groupmode="layer"
     id="layer1">
    <g
       id="g3282"
       transform="matrix(1.5272703,0,0,1.5272703,-10.244859,-10.244953)"
       style="fill:#008bff;fill-opacity:1">
      <path
         fill="#ffffff"
         d="m 13.971274,16.344725 c -0.06429,-0.111125 -0.123825,-0.214048 -0.186796,-0.323057 0.117739,-0.06853 0.229394,-0.133614 0.341048,-0.198437 0.06826,-0.03969 0.137583,-0.07699 0.203994,-0.120385 0.01984,-0.01296 0.04207,-0.04127 0.04233,-0.06244 0.0024,-0.234157 0.0013,-0.469107 0.0011,-0.703792 0,-0.0079 -0.004,-0.01614 -0.0077,-0.03228 -0.02196,0.0085 -0.04154,0.01429 -0.05874,0.02381 -0.192353,0.110331 -0.383646,0.221985 -0.576792,0.331258 -0.03757,0.02117 -0.0463,0.04895 -0.0463,0.0889 0.0016,0.181769 -0.0011,0.362479 0.0016,0.543983 7.94e-4,0.05318 -0.01667,0.0717 -0.06959,0.06932 -0.08281,-0.0032 -0.166158,-0.0021 -0.249237,-2.64e-4 -0.04233,2.64e-4 -0.05609,-0.01667 -0.05556,-0.05715 0.0019,-0.102394 7.94e-4,-0.204788 7.94e-4,-0.307446 0,-0.02275 0,-0.04604 0,-0.09207 -0.161402,0.09207 -0.307452,0.175154 -0.460646,0.261673 -0.05794,-0.101336 -0.115094,-0.19738 -0.167746,-0.296334 -0.0056,-0.01032 0.01138,-0.0418 0.02593,-0.05106 0.109272,-0.06615 0.220662,-0.128323 0.330993,-0.192882 0.02196,-0.01217 0.0426,-0.02699 0.07805,-0.04974 -0.135995,-0.07964 -0.261673,-0.152665 -0.394758,-0.230188 0.06244,-0.108744 0.122502,-0.212989 0.186002,-0.32385 0.09234,0.05318 0.179123,0.102129 0.265113,0.152136 0.09419,0.05424 0.187325,0.110331 0.283633,0.160602 0.0217,0.01164 0.0598,0.01297 0.08043,0.0011 0.197115,-0.110333 0.392377,-0.224104 0.58764,-0.336817 0.01429,-0.0085 0.02593,-0.0209 0.0426,-0.03439 -0.01799,-0.01349 -0.03043,-0.02514 -0.04472,-0.03307 -0.191558,-0.111125 -0.38391,-0.221192 -0.575204,-0.333375 -0.03783,-0.02196 -0.06747,-0.02196 -0.105304,7.93e-4 -0.155575,0.09234 -0.313531,0.180975 -0.470694,0.271463 -0.01826,0.01058 -0.03704,0.01931 -0.06376,0.0336 -0.06138,-0.106627 -0.121709,-0.210608 -0.186003,-0.321733 0.130175,-0.07541 0.255853,-0.148432 0.395288,-0.229394 -0.07885,-0.04657 -0.142081,-0.0844 -0.205581,-0.121444 -0.06826,-0.03942 -0.136525,-0.07937 -0.205052,-0.117739 -0.02884,-0.01614 -0.04127,-0.03334 -0.02196,-0.06615 0.05424,-0.09128 0.106892,-0.183886 0.1651,-0.283634 0.148431,0.0852 0.294746,0.169069 0.453231,0.259821 0.0034,-0.04101 0.0074,-0.0672 0.0077,-0.0934 5.3e-4,-0.102394 0.0013,-0.205052 -5.29e-4,-0.307181 -7.93e-4,-0.0418 0.01535,-0.05662 0.05636,-0.05583 0.0852,0.0019 0.170656,0.0021 0.255587,-7.94e-4 0.04868,-0.0016 0.06244,0.01746 0.06218,0.06403 -0.0019,0.185473 -0.0027,0.371211 0.0011,0.556683 5.29e-4,0.02805 0.02064,0.06747 0.04339,0.08123 0.192088,0.115094 0.386556,0.225955 0.580231,0.337609 0.01429,0.0077 0.03016,0.01217 0.05477,0.0217 0.0032,-0.03043 0.0079,-0.05503 0.0079,-0.07858 5.3e-4,-0.209286 -0.0011,-0.418042 0.0013,-0.627327 5.28e-4,-0.05371 -0.01693,-0.08546 -0.06429,-0.111655 -0.172244,-0.09684 -0.3429,-0.197379 -0.524669,-0.302683 0.06138,-0.106892 0.121708,-0.211137 0.186531,-0.323056 0.129382,0.07355 0.255059,0.144992 0.392377,0.223044 0.0045,-0.0381 0.0087,-0.06218 0.0087,-0.08599 0.0011,-0.123825 0.0018,-0.24765 0,-0.37121 -7.93e-4,-0.0463 0.01455,-0.06562 0.06218,-0.06429 0.08334,0.0021 0.166688,0.0021 0.249767,0 0.04736,-0.0011 0.06323,0.0172 0.06218,0.06403 -0.0021,0.123825 -5.29e-4,0.247385 -5.29e-4,0.37121 0,0.02302 0,0.04604 0,0.09049 0.139435,-0.07938 0.265642,-0.150548 0.400314,-0.226748 0.06271,0.107156 0.122503,0.211138 0.186796,0.321998 -0.115887,0.06747 -0.226748,0.132556 -0.338931,0.197644 -0.068,0.03969 -0.137848,0.07726 -0.203994,0.120121 -0.02011,0.01296 -0.0418,0.04101 -0.04233,0.06244 -0.0029,0.236802 -0.0013,0.473604 -7.94e-4,0.710142 0,0.0061 0.0042,0.01191 0.0077,0.02593 0.02408,-0.01005 0.04763,-0.01693 0.06826,-0.0291 0.184415,-0.106098 0.369094,-0.214313 0.554832,-0.318559 0.04313,-0.02434 0.05874,-0.05371 0.05821,-0.102129 -0.0021,-0.178858 0.0011,-0.358246 -0.0011,-0.537368 -0.0013,-0.05345 0.01667,-0.07144 0.06985,-0.06906 0.08096,0.0034 0.162189,0.0032 0.242887,5.29e-4 0.04921,-0.0019 0.06297,0.01773 0.06138,0.06377 -0.0027,0.123296 -7.94e-4,0.246592 -7.94e-4,0.392906 0.160338,-0.09181 0.306652,-0.175154 0.457465,-0.261673 0.06297,0.108215 0.122502,0.210873 0.18706,0.322792 -0.14896,0.08678 -0.294745,0.17145 -0.455877,0.265112 0.1397,0.08255 0.265642,0.156105 0.396875,0.233098 -0.06138,0.107157 -0.120379,0.210344 -0.18335,0.319882 -0.02275,-0.01138 -0.04339,-0.02037 -0.06271,-0.03096 -0.159544,-0.09155 -0.318294,-0.182034 -0.475721,-0.275696 -0.03837,-0.02249 -0.06826,-0.02196 -0.105304,2.64e-4 -0.186002,0.109009 -0.372534,0.2159 -0.558536,0.32385 -0.01932,0.01111 -0.03731,0.02567 -0.06562,0.04577 0.11483,0.06668 0.219075,0.127794 0.323586,0.188119 0.09948,0.05794 0.201083,0.112448 0.29845,0.173302 0.04339,0.02672 0.07461,0.02381 0.116416,-0.0011 0.153988,-0.09128 0.310357,-0.179386 0.465403,-0.26855 0.01773,-0.01058 0.03731,-0.01984 0.06323,-0.03387 0.06112,0.106892 0.121444,0.211137 0.185473,0.321998 -0.130704,0.07567 -0.256381,0.148696 -0.395817,0.229658 0.159809,0.0934 0.303742,0.178065 0.45429,0.266171 -0.06297,0.110331 -0.123031,0.214577 -0.185473,0.322792 -0.151871,-0.08652 -0.296598,-0.169863 -0.45376,-0.259027 -0.0027,0.03757 -0.0056,0.05927 -0.0056,0.08149 -5.3e-4,0.102658 -0.0024,0.204787 0.0011,0.306652 0.0011,0.05001 -0.01349,0.07011 -0.06456,0.06773 -0.08123,-0.0032 -0.162719,-0.0027 -0.243417,7.94e-4 -0.04974,0.0021 -0.06747,-0.01535 -0.06668,-0.06588 0.0027,-0.182827 0,-0.366977 0.0011,-0.550334 0,-0.03969 -0.01085,-0.06826 -0.04763,-0.0889 -0.194204,-0.110331 -0.388144,-0.223308 -0.581819,-0.334698 -0.01429,-0.0082 -0.03043,-0.01191 -0.05424,-0.02037 -0.0027,0.02778 -0.0056,0.04815 -0.0056,0.06826 0,0.215371 0.0016,0.431006 -0.0016,0.645848 0,0.04974 0.01905,0.07699 0.06059,0.100277 0.174096,0.09922 0.346869,0.200554 0.528373,0.305329 -0.0598,0.101865 -0.115623,0.201613 -0.175683,0.298715 -0.0056,0.0079 -0.0426,0.0061 -0.05874,-0.0026 -0.09366,-0.05106 -0.184937,-0.1053 -0.27807,-0.158216 -0.01879,-0.01164 -0.03969,-0.01958 -0.06985,-0.0336 -0.0026,0.0336 -0.0056,0.05636 -0.0056,0.07858 0,0.125677 -0.0019,0.251619 2.64e-4,0.377825 0.0011,0.04366 -0.01561,0.06059 -0.05953,0.06059 -0.08493,-0.0021 -0.170656,-0.0021 -0.255852,0 -0.04551,5.29e-4 -0.059,-0.01852 -0.05821,-0.06165 0.0016,-0.125942 5.29e-4,-0.251354 2.65e-4,-0.377561 0,-0.02275 -0.0026,-0.04498 -0.005,-0.0852 -0.137848,0.07726 -0.264319,0.149225 -0.397404,0.225161 z"
         id="path2127"
         style="stroke-width:0.264583;fill:#008bff;fill-opacity:1" />
    </g>
  </g>
</svg>
