<?xml version="1.0" encoding="UTF-8" standalone="no"?>
<svg
   xmlns:dc="http://purl.org/dc/elements/1.1/"
   xmlns:cc="http://creativecommons.org/ns#"
   xmlns:rdf="http://www.w3.org/1999/02/22-rdf-syntax-ns#"
   xmlns:svg="http://www.w3.org/2000/svg"
   xmlns="http://www.w3.org/2000/svg"
   xmlns:sodipodi="http://sodipodi.sourceforge.net/DTD/sodipodi-0.dtd"
   xmlns:inkscape="http://www.inkscape.org/namespaces/inkscape"
   width="24"
   height="24"
   viewBox="0 0 6.3499998 6.3499998"
   version="1.1"
   id="svg2712"
   inkscape:version="1.0.1 (c497b03c, 2020-09-10)"
   sodipodi:docname="ico-neve.svg">
  <defs
     id="defs2706" />
  <sodipodi:namedview
     id="base"
     pagecolor="#ffffff"
     bordercolor="#666666"
     borderopacity="1.0"
     inkscape:pageopacity="0.0"
     inkscape:pageshadow="2"
     inkscape:zoom="35.833333"
     inkscape:cx="10.437209"
     inkscape:cy="13.506977"
     inkscape:document-units="mm"
     inkscape:current-layer="layer1"
     inkscape:document-rotation="0"
     showgrid="false"
     units="px"
     inkscape:window-width="1680"
     inkscape:window-height="1050"
     inkscape:window-x="0"
     inkscape:window-y="0"
     inkscape:window-maximized="0" />
  <metadata
     id="metadata2709">
    <rdf:RDF>
      <cc:Work
         rdf:about="">
        <dc:format>image/svg+xml</dc:format>
        <dc:type
           rdf:resource="http://purl.org/dc/dcmitype/StillImage" />
        <dc:title></dc:title>
      </cc:Work>
    </rdf:RDF>
  </metadata>
  <g
     inkscape:label="Layer 1"
     inkscape:groupmode="layer"
     id="layer1">
    <g
       id="g6966"
       transform="matrix(0.34439398,0,0,0.34439398,-5.2160696,-4.4639885)"
       style="fill:#008bff;fill-opacity:1">
      <path
         fill="#ffffff"
         d="m 15.963,31.396 c 0.38,-0.653 0.731,-1.264 1.087,-1.871 0.539,-0.926 1.083,-1.844 1.617,-2.771 0.081,-0.139 0.164,-0.198 0.33,-0.194 0.424,0.014 0.848,0.004 1.324,0.004 -0.109,0.268 -0.207,0.508 -0.307,0.746 -0.546,1.295 -1.095,2.586 -1.637,3.881 -0.063,0.154 -0.144,0.211 -0.313,0.209 -0.681,-0.013 -1.362,-0.004 -2.101,-0.004 z"
         id="path6347"
         style="fill:#008bff;fill-opacity:1" />
      <path
         fill="#ffffff"
         d="m 32.749,31.396 c -0.702,0 -1.399,0.006 -2.099,-0.013 -0.088,-10e-4 -0.213,-0.108 -0.25,-0.198 -0.488,-1.127 -0.963,-2.26 -1.439,-3.391 -0.168,-0.396 -0.333,-0.795 -0.518,-1.23 0.515,0 0.988,-0.002 1.461,0.006 0.048,0 0.111,0.052 0.14,0.097 0.908,1.56 1.813,3.114 2.722,4.672 0.002,0.005 -0.002,0.015 -0.017,0.057 z"
         id="path6349"
         style="fill:#008bff;fill-opacity:1" />
      <path
         fill="#ffffff"
         d="m 23.328,30.113 c 0.706,0 1.393,0 2.109,0 0.039,0.416 0.076,0.83 0.113,1.266 -0.781,0 -1.539,0 -2.332,0 0.038,-0.419 0.075,-0.835 0.11,-1.266 z"
         id="path6351"
         style="fill:#008bff;fill-opacity:1" />
      <path
         fill="#ffffff"
         d="m 23.487,28.066 c 0.61,0 1.188,0 1.792,0 0.021,0.299 0.045,0.584 0.07,0.895 -0.646,0 -1.27,0 -1.927,0 0.022,-0.293 0.043,-0.58 0.065,-0.895 z"
         id="path6353"
         style="fill:#008bff;fill-opacity:1" />
      <path
         fill="#ffffff"
         d="m 25.157,26.581 c 0.016,0.229 0.03,0.435 0.046,0.655 -0.544,0 -1.072,0 -1.63,0 0.012,-0.213 0.024,-0.424 0.038,-0.655 0.517,0 1.014,0 1.546,0 z"
         id="path6355"
         style="fill:#008bff;fill-opacity:1" />
      <path
         fill="#ffffff"
         d="m 22.724,22.854 c -0.165,-0.284 -0.317,-0.548 -0.479,-0.827 0.301,-0.175 0.588,-0.342 0.874,-0.509 0.175,-0.102 0.353,-0.197 0.522,-0.308 0.051,-0.034 0.107,-0.107 0.108,-0.16 0.006,-0.601 0.003,-1.204 0.003,-1.805 0,-0.02 -0.01,-0.041 -0.02,-0.082 -0.056,0.021 -0.107,0.036 -0.151,0.061 -0.493,0.282 -0.983,0.568 -1.478,0.848 -0.096,0.055 -0.119,0.125 -0.119,0.228 0.003,0.465 -0.003,0.929 0.003,1.395 0.002,0.136 -0.042,0.184 -0.178,0.176 -0.211,-0.008 -0.426,-0.005 -0.639,0 -0.109,0 -0.144,-0.043 -0.143,-0.146 0.005,-0.262 0.002,-0.525 0.002,-0.788 0,-0.059 0,-0.118 0,-0.236 -0.414,0.236 -0.788,0.449 -1.181,0.671 -0.148,-0.259 -0.295,-0.505 -0.43,-0.759 -0.014,-0.027 0.029,-0.108 0.066,-0.131 0.28,-0.17 0.566,-0.33 0.849,-0.495 0.056,-0.031 0.109,-0.068 0.2,-0.127 -0.349,-0.205 -0.671,-0.391 -1.011,-0.59 0.16,-0.279 0.314,-0.546 0.476,-0.83 0.237,0.136 0.459,0.263 0.68,0.389 0.242,0.14 0.48,0.284 0.727,0.412 0.055,0.031 0.153,0.033 0.206,0.002 0.505,-0.282 1.005,-0.573 1.506,-0.863 0.037,-0.021 0.067,-0.053 0.109,-0.088 -0.046,-0.035 -0.078,-0.064 -0.114,-0.085 -0.491,-0.285 -0.984,-0.567 -1.474,-0.854 -0.097,-0.057 -0.173,-0.057 -0.27,10e-4 -0.399,0.236 -0.804,0.464 -1.207,0.696 -0.047,0.026 -0.095,0.049 -0.164,0.086 -0.157,-0.272 -0.311,-0.54 -0.476,-0.824 0.333,-0.193 0.655,-0.381 1.013,-0.588 -0.202,-0.12 -0.364,-0.217 -0.527,-0.311 -0.175,-0.102 -0.351,-0.203 -0.526,-0.302 -0.073,-0.042 -0.105,-0.085 -0.056,-0.169 0.139,-0.234 0.274,-0.472 0.423,-0.728 0.38,0.218 0.755,0.434 1.161,0.666 0.009,-0.105 0.02,-0.173 0.02,-0.239 0.001,-0.262 0.003,-0.526 -0.001,-0.788 -0.002,-0.106 0.04,-0.145 0.145,-0.144 0.218,0.005 0.438,0.006 0.655,-10e-4 0.125,-0.005 0.16,0.044 0.159,0.164 -0.005,0.476 -0.006,0.952 0.003,1.426 0.002,0.072 0.053,0.173 0.111,0.208 0.492,0.295 0.991,0.579 1.487,0.865 0.037,0.021 0.077,0.032 0.14,0.056 0.008,-0.078 0.02,-0.141 0.02,-0.202 0.002,-0.537 -0.002,-1.072 0.004,-1.607 0.001,-0.137 -0.044,-0.22 -0.165,-0.286 -0.442,-0.249 -0.879,-0.506 -1.345,-0.776 0.158,-0.274 0.313,-0.541 0.478,-0.828 0.332,0.188 0.654,0.371 1.005,0.571 0.011,-0.097 0.022,-0.159 0.022,-0.22 0.003,-0.318 0.005,-0.635 0,-0.952 -0.002,-0.119 0.038,-0.167 0.16,-0.165 0.213,0.006 0.427,0.006 0.64,0 0.122,-0.003 0.162,0.044 0.159,0.164 -0.005,0.317 -0.001,0.634 -0.001,0.951 0,0.059 0,0.118 0,0.232 0.357,-0.204 0.682,-0.386 1.025,-0.582 0.16,0.275 0.313,0.542 0.479,0.825 -0.297,0.173 -0.582,0.34 -0.869,0.506 -0.174,0.102 -0.354,0.198 -0.522,0.308 -0.051,0.033 -0.106,0.104 -0.107,0.16 -0.006,0.607 -0.004,1.213 -0.003,1.82 0,0.016 0.011,0.03 0.021,0.066 0.062,-0.025 0.121,-0.044 0.174,-0.074 0.475,-0.272 0.945,-0.549 1.423,-0.816 0.11,-0.063 0.149,-0.138 0.149,-0.262 -0.006,-0.458 0.002,-0.919 -0.004,-1.377 -0.004,-0.137 0.043,-0.183 0.18,-0.176 0.207,0.008 0.416,0.007 0.621,10e-4 0.125,-0.005 0.162,0.045 0.158,0.163 -0.007,0.316 -0.002,0.632 -0.002,1.007 0.411,-0.235 0.785,-0.449 1.174,-0.67 0.16,0.276 0.313,0.54 0.479,0.827 -0.381,0.222 -0.757,0.439 -1.167,0.679 0.357,0.212 0.68,0.401 1.016,0.598 -0.158,0.274 -0.308,0.539 -0.471,0.82 -0.057,-0.03 -0.109,-0.052 -0.161,-0.079 -0.405,-0.236 -0.813,-0.467 -1.218,-0.708 -0.1,-0.057 -0.176,-0.055 -0.271,0.002 -0.478,0.278 -0.955,0.553 -1.433,0.83 -0.049,0.028 -0.095,0.065 -0.167,0.117 0.292,0.171 0.561,0.328 0.827,0.483 0.255,0.148 0.517,0.289 0.767,0.445 0.11,0.068 0.19,0.06 0.299,-0.004 0.396,-0.233 0.795,-0.459 1.192,-0.688 0.046,-0.027 0.095,-0.051 0.162,-0.087 0.155,0.274 0.312,0.542 0.476,0.825 -0.334,0.194 -0.656,0.381 -1.015,0.59 0.408,0.238 0.778,0.455 1.164,0.681 -0.162,0.283 -0.315,0.549 -0.476,0.827 -0.391,-0.222 -0.762,-0.435 -1.162,-0.664 -0.008,0.095 -0.016,0.151 -0.016,0.208 -0.003,0.263 -0.007,0.525 0.002,0.787 0.004,0.127 -0.035,0.179 -0.166,0.172 -0.207,-0.008 -0.416,-0.006 -0.623,0.002 -0.127,0.006 -0.173,-0.038 -0.172,-0.168 0.006,-0.47 0,-0.941 0.004,-1.411 0,-0.102 -0.029,-0.175 -0.123,-0.228 -0.498,-0.282 -0.994,-0.572 -1.492,-0.858 -0.034,-0.02 -0.078,-0.03 -0.139,-0.052 -0.006,0.071 -0.014,0.123 -0.014,0.174 0,0.553 0.004,1.105 -0.004,1.657 0,0.127 0.049,0.197 0.154,0.257 0.445,0.253 0.889,0.513 1.354,0.783 -0.152,0.26 -0.295,0.517 -0.449,0.765 -0.015,0.021 -0.111,0.018 -0.15,-0.006 -0.239,-0.131 -0.476,-0.271 -0.713,-0.405 -0.049,-0.029 -0.104,-0.05 -0.18,-0.086 -0.006,0.086 -0.013,0.145 -0.013,0.201 0,0.322 -0.004,0.645 0,0.969 0.003,0.112 -0.039,0.155 -0.151,0.153 -0.218,-0.004 -0.437,-0.004 -0.656,0 -0.117,0.002 -0.151,-0.047 -0.149,-0.158 0.004,-0.321 0.001,-0.645 0.001,-0.967 0,-0.059 -0.007,-0.115 -0.013,-0.219 -0.346,0.203 -0.67,0.388 -1.011,0.582 z"
         id="path6357"
         style="fill:#008bff;fill-opacity:1" />
    </g>
  </g>
</svg>
