<?xml version="1.0" encoding="UTF-8" standalone="no"?>
<svg
   xmlns:dc="http://purl.org/dc/elements/1.1/"
   xmlns:cc="http://creativecommons.org/ns#"
   xmlns:rdf="http://www.w3.org/1999/02/22-rdf-syntax-ns#"
   xmlns:svg="http://www.w3.org/2000/svg"
   xmlns="http://www.w3.org/2000/svg"
   xmlns:sodipodi="http://sodipodi.sourceforge.net/DTD/sodipodi-0.dtd"
   xmlns:inkscape="http://www.inkscape.org/namespaces/inkscape"
   width="24"
   height="24"
   viewBox="0 0 6.3499998 6.3499998"
   version="1.1"
   id="svg2712"
   inkscape:version="1.0.1 (c497b03c, 2020-09-10)"
   sodipodi:docname="ico-incidente.svg">
  <defs
     id="defs2706" />
  <sodipodi:namedview
     id="base"
     pagecolor="#ffffff"
     bordercolor="#666666"
     borderopacity="1.0"
     inkscape:pageopacity="0.0"
     inkscape:pageshadow="2"
     inkscape:zoom="35.833333"
     inkscape:cx="12"
     inkscape:cy="12"
     inkscape:document-units="mm"
     inkscape:current-layer="layer1"
     inkscape:document-rotation="0"
     showgrid="false"
     units="px"
     inkscape:window-width="1680"
     inkscape:window-height="1050"
     inkscape:window-x="0"
     inkscape:window-y="0"
     inkscape:window-maximized="0" />
  <metadata
     id="metadata2709">
    <rdf:RDF>
      <cc:Work
         rdf:about="">
        <dc:format>image/svg+xml</dc:format>
        <dc:type
           rdf:resource="http://purl.org/dc/dcmitype/StillImage" />
        <dc:title></dc:title>
      </cc:Work>
    </rdf:RDF>
  </metadata>
  <g
     inkscape:label="Layer 1"
     inkscape:groupmode="layer"
     id="layer1">
    <g
       id="g5072"
       transform="matrix(1.0477163,0,0,1.0477163,-2.5496731,-0.68528636)">
      <path
         fill="#ffffff"
         d="m 2.6361868,5.3311642 c -0.055298,0.00767 -0.1063625,-0.030692 -0.1143,-0.085725 L 2.4374847,4.6456288 C 2.4155243,4.4882017 2.4872263,4.3392413 2.6107868,4.2551038 L 2.8547326,3.261858 2.9544805,3.247835 3.1545055,3.219789 4.1538367,3.0792952 l 0.1997604,-0.02831 0.099748,-0.014023 0.5085292,0.8876771 c 0.141552,0.046302 0.2513541,0.170127 0.2738436,0.3270249 l 0.084138,0.600075 c 0.00741,0.055298 -0.030956,0.106098 -0.08599,0.1137709 l -0.099483,0.014023 0.028046,0.2005542 C 5.1780389,5.2901539 5.1013099,5.3922831 4.990979,5.4076289 4.8803831,5.4232389 4.778254,5.3467749 4.7629081,5.2361789 L 4.7348617,5.0364184 3.1359847,5.2615788 3.1640305,5.4610747 C 3.1796409,5.5716705 3.1026472,5.6737997 2.9923159,5.6894101 2.8819847,5.7050205 2.7798555,5.6280267 2.7642451,5.5174309 L 2.7361992,5.3174059 Z M 2.921143,4.1704372 4.6404054,3.9288726 4.3162909,3.3626642 3.0769826,3.5367601 Z m 0.00979,0.176477 C 2.8206013,4.3622601 2.7221763,4.4932288 2.7377867,4.6035601 2.7531326,4.7138913 2.8838367,4.8125809 2.994168,4.7969705 3.1044992,4.7810955 3.2029242,4.6506559 3.1873138,4.5403247 3.1717034,4.4299934 3.0412638,4.3315684 2.930933,4.3469142 Z M 4.6798284,4.1011163 C 4.5694971,4.1169913 4.4710721,4.2474309 4.4866825,4.3580267 4.5022929,4.4686226 4.6329971,4.566783 4.7433284,4.5511726 4.8536596,4.5355622 4.9520846,4.4051226 4.9364742,4.2947913 4.9211284,4.1841955 4.7904242,4.0857705 4.6798284,4.1011163 Z M 5.693447,4.950958 C 5.6384137,4.9432851 5.5997845,4.8919559 5.607722,4.8369226 L 5.6918595,4.2371122 C 5.7140845,4.0794205 5.8241512,3.9561247 5.9654387,3.909558 l 0.5085291,-0.8874125 0.1002771,0.014023 0.1997604,0.028046 0.9990667,0.1407583 0.2002896,0.028046 0.1000125,0.014288 0.2442104,0.9932459 C 8.4403512,4.3241607 8.5125824,4.473386 8.4903574,4.6308131 L 8.4062199,5.230358 c -0.00767,0.055298 -0.059002,0.093663 -0.1143,0.085725 L 8.192172,5.3017955 8.1643908,5.5015559 C 8.1482512,5.6121517 8.0466512,5.6891455 7.9365845,5.6732705 7.8259887,5.6579247 7.7489949,5.5560601 7.7648699,5.4454642 L 7.7929158,5.2454392 6.1935095,5.0202788 6.1654637,5.2203038 C 6.1495887,5.3311642 6.0479887,5.408158 5.9376574,5.392283 5.8273262,5.376408 5.7503324,5.2745434 5.7659428,5.1644767 l 0.028046,-0.200025 z M 6.2877012,3.9132622 8.0069637,4.1548267 7.8511241,3.5214142 6.6120803,3.3470538 Z M 6.2482783,4.0860351 C 6.1376824,4.0704247 6.0075074,4.1688497 5.9916324,4.2789163 5.9757574,4.3895122 6.074447,4.5199517 6.1845137,4.5355622 6.2951095,4.5514372 6.4252845,4.4527476 6.4414241,4.3424163 6.4570345,4.2320851 6.3588741,4.1016455 6.2482783,4.0860351 Z M 7.9974387,4.331833 C 7.8865783,4.3162226 7.7564033,4.4146476 7.7405283,4.5249788 7.7249178,4.6355747 7.8233428,4.7660142 7.9334095,4.7818892 8.0437408,4.7974997 8.1744449,4.6985455 8.1900553,4.5884788 8.2061949,4.477883 8.1075053,4.3471788 7.9974387,4.331833 Z M 4.4202721,1.8513642 4.7679346,1.677533 5.1161262,3.5907351 Z M 5.2468303,1.677533 H 5.5944928 L 5.2904866,3.5907351 Z M 6.1599074,1.8513642 6.5075699,2.0254601 5.6378845,3.7648309 Z"
         id="path4486"
         style="fill:#008bff;fill-opacity:1;stroke-width:0.264583" />
    </g>
  </g>
</svg>
