<?xml version="1.0" encoding="utf-8"?>
<!-- Generator: Adobe Illustrator 16.0.0, SVG Export Plug-In . SVG Version: 6.00 Build 0)  -->
<!DOCTYPE svg PUBLIC "-//W3C//DTD SVG 1.1//EN" "http://www.w3.org/Graphics/SVG/1.1/DTD/svg11.dtd">
<svg version="1.1" id="Layer_1" xmlns="http://www.w3.org/2000/svg" xmlns:xlink="http://www.w3.org/1999/xlink" x="0px" y="0px"
	 width="48px" height="48px" viewBox="0 0 48 48" enable-background="new 0 0 48 48" xml:space="preserve">
<path fill="#4388C8" stroke="#FFFFFF" stroke-width="1.9842" stroke-miterlimit="10" d="M40.07,21.573
	c-0.297,5.333-2.536,9.818-5.797,13.871c-2.672,3.32-5.842,6.101-9.371,8.476c-0.307,0.205-0.551,0.381-0.961,0.097
	c-5.191-3.6-9.681-7.865-12.711-13.484c-1.804-3.346-2.741-6.91-2.43-10.757c0.533-6.592,5.493-12.23,12.101-13.705
	c8.47-1.89,16.769,3.328,18.689,11.792C39.865,19.071,39.916,20.334,40.07,21.573z"/>
<path fill="#FFFFFF" d="M15.963,31.396c0.38-0.653,0.731-1.264,1.087-1.871c0.539-0.926,1.083-1.844,1.617-2.771
	c0.081-0.139,0.164-0.198,0.33-0.194c0.424,0.014,0.848,0.004,1.324,0.004c-0.109,0.268-0.207,0.508-0.307,0.746
	c-0.546,1.295-1.095,2.586-1.637,3.881c-0.063,0.154-0.144,0.211-0.313,0.209C17.383,31.387,16.702,31.396,15.963,31.396z"/>
<path fill="#FFFFFF" d="M32.749,31.396c-0.702,0-1.399,0.006-2.099-0.013c-0.088-0.001-0.213-0.108-0.25-0.198
	c-0.488-1.127-0.963-2.26-1.439-3.391c-0.168-0.396-0.333-0.795-0.518-1.23c0.515,0,0.988-0.002,1.461,0.006
	c0.048,0,0.111,0.052,0.14,0.097c0.908,1.56,1.813,3.114,2.722,4.672C32.768,31.344,32.764,31.354,32.749,31.396z"/>
<path fill="#FFFFFF" d="M23.328,30.113c0.706,0,1.393,0,2.109,0c0.039,0.416,0.076,0.83,0.113,1.266c-0.781,0-1.539,0-2.332,0
	C23.256,30.96,23.293,30.544,23.328,30.113z"/>
<path fill="#FFFFFF" d="M23.487,28.066c0.61,0,1.188,0,1.792,0c0.021,0.299,0.045,0.584,0.07,0.895c-0.646,0-1.27,0-1.927,0
	C23.444,28.668,23.465,28.381,23.487,28.066z"/>
<path fill="#FFFFFF" d="M25.157,26.581c0.016,0.229,0.03,0.435,0.046,0.655c-0.544,0-1.072,0-1.63,0
	c0.012-0.213,0.024-0.424,0.038-0.655C24.128,26.581,24.625,26.581,25.157,26.581z"/>
<path fill="#FFFFFF" d="M22.724,22.854c-0.165-0.284-0.317-0.548-0.479-0.827c0.301-0.175,0.588-0.342,0.874-0.509
	c0.175-0.102,0.353-0.197,0.522-0.308c0.051-0.034,0.107-0.107,0.108-0.16c0.006-0.601,0.003-1.204,0.003-1.805
	c0-0.02-0.01-0.041-0.02-0.082c-0.056,0.021-0.107,0.036-0.151,0.061c-0.493,0.282-0.983,0.568-1.478,0.848
	c-0.096,0.055-0.119,0.125-0.119,0.228c0.003,0.465-0.003,0.929,0.003,1.395c0.002,0.136-0.042,0.184-0.178,0.176
	c-0.211-0.008-0.426-0.005-0.639,0c-0.109,0-0.144-0.043-0.143-0.146c0.005-0.262,0.002-0.525,0.002-0.788c0-0.059,0-0.118,0-0.236
	c-0.414,0.236-0.788,0.449-1.181,0.671c-0.148-0.259-0.295-0.505-0.43-0.759c-0.014-0.027,0.029-0.108,0.066-0.131
	c0.28-0.17,0.566-0.33,0.849-0.495c0.056-0.031,0.109-0.068,0.2-0.127c-0.349-0.205-0.671-0.391-1.011-0.59
	c0.16-0.279,0.314-0.546,0.476-0.83c0.237,0.136,0.459,0.263,0.68,0.389c0.242,0.14,0.48,0.284,0.727,0.412
	c0.055,0.031,0.153,0.033,0.206,0.002c0.505-0.282,1.005-0.573,1.506-0.863c0.037-0.021,0.067-0.053,0.109-0.088
	c-0.046-0.035-0.078-0.064-0.114-0.085c-0.491-0.285-0.984-0.567-1.474-0.854c-0.097-0.057-0.173-0.057-0.27,0.001
	c-0.399,0.236-0.804,0.464-1.207,0.696c-0.047,0.026-0.095,0.049-0.164,0.086c-0.157-0.272-0.311-0.54-0.476-0.824
	c0.333-0.193,0.655-0.381,1.013-0.588c-0.202-0.12-0.364-0.217-0.527-0.311c-0.175-0.102-0.351-0.203-0.526-0.302
	c-0.073-0.042-0.105-0.085-0.056-0.169c0.139-0.234,0.274-0.472,0.423-0.728c0.38,0.218,0.755,0.434,1.161,0.666
	c0.009-0.105,0.02-0.173,0.02-0.239c0.001-0.262,0.003-0.526-0.001-0.788c-0.002-0.106,0.04-0.145,0.145-0.144
	c0.218,0.005,0.438,0.006,0.655-0.001c0.125-0.005,0.16,0.044,0.159,0.164c-0.005,0.476-0.006,0.952,0.003,1.426
	c0.002,0.072,0.053,0.173,0.111,0.208c0.492,0.295,0.991,0.579,1.487,0.865c0.037,0.021,0.077,0.032,0.14,0.056
	c0.008-0.078,0.02-0.141,0.02-0.202c0.002-0.537-0.002-1.072,0.004-1.607c0.001-0.137-0.044-0.22-0.165-0.286
	c-0.442-0.249-0.879-0.506-1.345-0.776c0.158-0.274,0.313-0.541,0.478-0.828c0.332,0.188,0.654,0.371,1.005,0.571
	c0.011-0.097,0.022-0.159,0.022-0.22c0.003-0.318,0.005-0.635,0-0.952c-0.002-0.119,0.038-0.167,0.16-0.165
	c0.213,0.006,0.427,0.006,0.64,0c0.122-0.003,0.162,0.044,0.159,0.164c-0.005,0.317-0.001,0.634-0.001,0.951
	c0,0.059,0,0.118,0,0.232c0.357-0.204,0.682-0.386,1.025-0.582c0.16,0.275,0.313,0.542,0.479,0.825
	c-0.297,0.173-0.582,0.34-0.869,0.506c-0.174,0.102-0.354,0.198-0.522,0.308c-0.051,0.033-0.106,0.104-0.107,0.16
	c-0.006,0.607-0.004,1.213-0.003,1.82c0,0.016,0.011,0.03,0.021,0.066c0.062-0.025,0.121-0.044,0.174-0.074
	c0.475-0.272,0.945-0.549,1.423-0.816c0.11-0.063,0.149-0.138,0.149-0.262c-0.006-0.458,0.002-0.919-0.004-1.377
	c-0.004-0.137,0.043-0.183,0.18-0.176c0.207,0.008,0.416,0.007,0.621,0.001c0.125-0.005,0.162,0.045,0.158,0.163
	c-0.007,0.316-0.002,0.632-0.002,1.007c0.411-0.235,0.785-0.449,1.174-0.67c0.16,0.276,0.313,0.54,0.479,0.827
	c-0.381,0.222-0.757,0.439-1.167,0.679c0.357,0.212,0.68,0.401,1.016,0.598c-0.158,0.274-0.308,0.539-0.471,0.82
	c-0.057-0.03-0.109-0.052-0.161-0.079c-0.405-0.236-0.813-0.467-1.218-0.708c-0.1-0.057-0.176-0.055-0.271,0.002
	c-0.478,0.278-0.955,0.553-1.433,0.83c-0.049,0.028-0.095,0.065-0.167,0.117c0.292,0.171,0.561,0.328,0.827,0.483
	c0.255,0.148,0.517,0.289,0.767,0.445c0.11,0.068,0.19,0.06,0.299-0.004c0.396-0.233,0.795-0.459,1.192-0.688
	c0.046-0.027,0.095-0.051,0.162-0.087c0.155,0.274,0.312,0.542,0.476,0.825c-0.334,0.194-0.656,0.381-1.015,0.59
	c0.408,0.238,0.778,0.455,1.164,0.681c-0.162,0.283-0.315,0.549-0.476,0.827c-0.391-0.222-0.762-0.435-1.162-0.664
	c-0.008,0.095-0.016,0.151-0.016,0.208c-0.003,0.263-0.007,0.525,0.002,0.787c0.004,0.127-0.035,0.179-0.166,0.172
	c-0.207-0.008-0.416-0.006-0.623,0.002c-0.127,0.006-0.173-0.038-0.172-0.168c0.006-0.47,0-0.941,0.004-1.411
	c0-0.102-0.029-0.175-0.123-0.228c-0.498-0.282-0.994-0.572-1.492-0.858c-0.034-0.02-0.078-0.03-0.139-0.052
	c-0.006,0.071-0.014,0.123-0.014,0.174c0,0.553,0.004,1.105-0.004,1.657c0,0.127,0.049,0.197,0.154,0.257
	c0.445,0.253,0.889,0.513,1.354,0.783c-0.152,0.26-0.295,0.517-0.449,0.765c-0.015,0.021-0.111,0.018-0.15-0.006
	c-0.239-0.131-0.476-0.271-0.713-0.405c-0.049-0.029-0.104-0.05-0.18-0.086c-0.006,0.086-0.013,0.145-0.013,0.201
	c0,0.322-0.004,0.645,0,0.969c0.003,0.112-0.039,0.155-0.151,0.153c-0.218-0.004-0.437-0.004-0.656,0
	c-0.117,0.002-0.151-0.047-0.149-0.158c0.004-0.321,0.001-0.645,0.001-0.967c0-0.059-0.007-0.115-0.013-0.219
	C23.389,22.475,23.065,22.66,22.724,22.854z"/>
</svg>
