<?xml version="1.0" encoding="utf-8"?>
<!-- Generator: Adobe Illustrator 16.0.0, SVG Export Plug-In . SVG Version: 6.00 Build 0)  -->
<!DOCTYPE svg PUBLIC "-//W3C//DTD SVG 1.1//EN" "http://www.w3.org/Graphics/SVG/1.1/DTD/svg11.dtd">
<svg version="1.1" id="Layer_1" xmlns="http://www.w3.org/2000/svg" xmlns:xlink="http://www.w3.org/1999/xlink" x="0px" y="0px"
	 width="48px" height="48px" viewBox="0 0 48 48" enable-background="new 0 0 48 48" xml:space="preserve">
<path fill="#4388C8" stroke="#FFFFFF" stroke-width="1.9843" stroke-miterlimit="10" d="M40.07,21.573
	c-0.297,5.333-2.536,9.818-5.797,13.871c-2.672,3.32-5.842,6.101-9.371,8.476c-0.307,0.205-0.551,0.381-0.961,0.097
	c-5.191-3.6-9.681-7.865-12.711-13.484c-1.804-3.346-2.741-6.91-2.43-10.757c0.533-6.592,5.493-12.23,12.101-13.705
	c8.47-1.89,16.769,3.328,18.689,11.792C39.865,19.071,39.916,20.334,40.07,21.573z"/>
<path fill="#FFFFFF" d="M24.187,13.844c-0.151,0.024-0.361,0.092-0.477,0.153c-0.103,0.056-0.231,0.16-0.304,0.245
	c-0.063,0.073-6.881,11.806-6.966,11.988c-0.21,0.441-0.208,1.054,0.007,1.479c0.151,0.301,0.393,0.485,0.719,0.553
	c0.135,0.029,0.241,0.029,7.242,0.029c6.988,0,7.106,0,7.239-0.027c0.499-0.104,0.813-0.505,0.874-1.12
	c0.029-0.305-0.026-0.665-0.146-0.913c-0.029-0.065-1.604-2.778-3.496-6.028c-3.244-5.575-3.443-5.916-3.537-6.013
	C25.079,13.923,24.594,13.777,24.187,13.844z M24.705,17.603c0.246,0.055,0.421,0.156,0.582,0.324
	c0.223,0.235,0.312,0.556,0.277,1.014c-0.015,0.195-0.033,0.337-0.093,0.689c-0.03,0.181-0.485,3.532-0.485,3.577
	c0,0.011-0.172,0.015-0.594,0.015h-0.593l-0.008-0.049c-0.004-0.024-0.104-0.791-0.225-1.704c-0.119-0.912-0.238-1.801-0.268-1.977
	c-0.094-0.586-0.099-0.915-0.021-1.176C23.451,17.753,24.058,17.45,24.705,17.603z M24.681,23.999
	c0.366,0.084,0.678,0.326,0.835,0.65c0.091,0.188,0.113,0.285,0.113,0.491c0,0.138-0.007,0.2-0.031,0.288
	c-0.135,0.474-0.54,0.813-1.052,0.879c-0.293,0.039-0.64-0.049-0.882-0.223c-0.464-0.334-0.628-0.909-0.401-1.408
	c0.093-0.207,0.284-0.414,0.487-0.535c0.128-0.074,0.333-0.146,0.48-0.165C24.351,23.959,24.557,23.968,24.681,23.999z"/>
</svg>
