<?xml version="1.0" encoding="utf-8"?>
<!-- Generator: Adobe Illustrator 16.0.0, SVG Export Plug-In . SVG Version: 6.00 Build 0)  -->
<!DOCTYPE svg PUBLIC "-//W3C//DTD SVG 1.1//EN" "http://www.w3.org/Graphics/SVG/1.1/DTD/svg11.dtd">
<svg version="1.1" id="Layer_1" xmlns="http://www.w3.org/2000/svg" xmlns:xlink="http://www.w3.org/1999/xlink" x="0px" y="0px"
	 width="48px" height="48px" viewBox="0 0 48 48" enable-background="new 0 0 48 48" xml:space="preserve">
<path fill="#4388C8" stroke="#FFFFFF" stroke-width="1.9842" stroke-miterlimit="10" d="M40.07,21.573
	c-0.297,5.333-2.536,9.818-5.797,13.871c-2.672,3.32-5.842,6.101-9.371,8.476c-0.307,0.205-0.551,0.381-0.961,0.097
	c-5.191-3.6-9.681-7.865-12.711-13.484c-1.804-3.346-2.741-6.91-2.43-10.757c0.533-6.592,5.493-12.23,12.101-13.705
	c8.47-1.89,16.769,3.328,18.689,11.792C39.865,19.071,39.916,20.334,40.07,21.573z"/>
<path fill="#FFFFFF" d="M31.23,25.8H17.58c-0.377,0-0.683-0.306-0.683-0.683s0.306-0.683,0.683-0.683h13.65
	c0.377,0,0.684,0.306,0.684,0.683S31.607,25.8,31.23,25.8z M31.23,23.069H17.58c-0.377,0-0.683-0.306-0.683-0.683
	c0-0.377,0.306-0.684,0.683-0.684h13.65c0.377,0,0.684,0.306,0.684,0.684C31.914,22.764,31.607,23.069,31.23,23.069z M27.818,18.974
	c-0.547,0-1.053,0.164-1.479,0.44c-0.421-1.814-2.039-3.171-3.982-3.171c-2.262,0-4.095,1.834-4.095,4.096h-1.365
	c0-3.016,2.445-5.461,5.46-5.461c2.049,0,3.833,1.13,4.766,2.8c0.229-0.039,0.457-0.07,0.693-0.07c1.783,0,3.295,1.141,3.857,2.73
	H30.18C29.708,19.523,28.828,18.974,27.818,18.974z M17.58,27.164h13.65c0.377,0,0.684,0.307,0.684,0.684s-0.307,0.682-0.684,0.682
	H17.58c-0.377,0-0.683-0.305-0.683-0.682S17.203,27.164,17.58,27.164z"/>
</svg>
