<?xml version="1.0" encoding="utf-8"?>
<!-- Generator: Adobe Illustrator 16.0.0, SVG Export Plug-In . SVG Version: 6.00 Build 0)  -->
<!DOCTYPE svg PUBLIC "-//W3C//DTD SVG 1.1//EN" "http://www.w3.org/Graphics/SVG/1.1/DTD/svg11.dtd">
<svg version="1.1" id="Layer_1" xmlns="http://www.w3.org/2000/svg" xmlns:xlink="http://www.w3.org/1999/xlink" x="0px" y="0px"
	 width="48px" height="48px" viewBox="0 0 48 48" enable-background="new 0 0 48 48" xml:space="preserve">
<path fill="#4388C8" stroke="#FFFFFF" stroke-width="1.9842" stroke-miterlimit="10" d="M40.07,21.573
	c-0.297,5.333-2.536,9.818-5.797,13.871c-2.672,3.32-5.842,6.101-9.371,8.476c-0.307,0.205-0.551,0.381-0.961,0.097
	c-5.191-3.6-9.681-7.865-12.711-13.484c-1.804-3.346-2.741-6.91-2.43-10.757c0.533-6.592,5.493-12.23,12.101-13.705
	c8.47-1.89,16.769,3.328,18.689,11.792C39.865,19.071,39.916,20.334,40.07,21.573z"/>
<path fill="#FFFFFF" d="M27.063,28.303c-1.072,0-2.148,0-3.224,0c-0.125,0-0.125,0-0.126,0.125c0,0.148,0.002,0.297-0.003,0.442
	c-0.011,0.239-0.196,0.456-0.434,0.472c-0.254,0.018-0.512,0.02-0.765,0c-0.242-0.018-0.432-0.25-0.433-0.492
	c0-1.39,0-2.779,0.002-4.168c0-0.072,0.027-0.147,0.054-0.219c0.357-0.98,0.716-1.959,1.074-2.938
	c0.139-0.379,0.429-0.587,0.832-0.587c2.013-0.001,4.026-0.001,6.041,0c0.401,0,0.694,0.204,0.83,0.576
	c0.368,1.006,0.735,2.014,1.103,3.021c0.021,0.056,0.03,0.119,0.03,0.179c0.003,1.351-0.005,2.703,0.006,4.054
	c0.003,0.32-0.19,0.578-0.547,0.594c-0.215,0.009-0.431,0.002-0.644-0.016c-0.25-0.021-0.438-0.229-0.445-0.479
	c-0.007-0.152-0.007-0.306-0.002-0.458c0.002-0.081-0.025-0.105-0.107-0.104C29.223,28.305,28.143,28.303,27.063,28.303z
	 M23.16,24.1c2.607,0,5.197,0,7.798,0c-0.015-0.053-0.026-0.092-0.039-0.13c-0.25-0.714-0.503-1.429-0.75-2.145
	c-0.03-0.095-0.079-0.124-0.175-0.124c-1.956,0.002-3.91,0.002-5.864,0c-0.099,0-0.145,0.029-0.177,0.124
	c-0.235,0.68-0.474,1.358-0.712,2.037C23.214,23.937,23.191,24.011,23.16,24.1z M24.004,25.135c-0.069,0.008-0.14,0.012-0.208,0.026
	c-0.571,0.132-0.822,0.782-0.479,1.245c0.236,0.318,0.691,0.431,1.06,0.255c0.289-0.138,0.458-0.366,0.473-0.688
	C24.873,25.456,24.413,25.119,24.004,25.135z M30.116,25.135c-0.068,0.008-0.14,0.012-0.207,0.026
	c-0.539,0.122-0.806,0.714-0.529,1.177c0.199,0.337,0.63,0.488,1.015,0.361c0.33-0.11,0.563-0.409,0.567-0.73
	C30.973,25.505,30.6,25.141,30.116,25.135z"/>
<path fill="#FFFFFF" d="M17.049,21.319c1.82,0,3.624,0,5.442,0c-0.061,0.168-0.115,0.319-0.17,0.47
	c-0.324,0.885-0.648,1.771-0.971,2.656c-0.019,0.052-0.028,0.11-0.028,0.165c-0.003,0.256,0,0.513,0,0.768
	c0,0.135,0,0.135-0.132,0.135c-1.153,0-2.307,0-3.461,0c-0.127,0-0.127,0-0.127,0.127c-0.001,0.15,0.002,0.301-0.004,0.45
	c-0.01,0.229-0.195,0.445-0.424,0.462c-0.256,0.02-0.517,0.02-0.773,0.002c-0.245-0.019-0.433-0.252-0.433-0.503
	c-0.001-1.386-0.001-2.772,0-4.158c0-0.043,0.008-0.088,0.022-0.129c0.37-1.016,0.74-2.031,1.112-3.045
	c0.138-0.375,0.435-0.572,0.853-0.572c1.922,0,3.844,0,5.766,0c0.129,0,0.26,0.001,0.388,0.016c0.322,0.037,0.556,0.205,0.67,0.51
	c0.193,0.514,0.38,1.031,0.568,1.546c0.008,0.021,0.01,0.044,0.016,0.07C25.35,20.293,25.34,20.3,25.329,20.3
	c-0.257,0-0.513-0.001-0.769,0.002c-0.065,0-0.077-0.043-0.091-0.088c-0.137-0.393-0.279-0.785-0.411-1.181
	c-0.032-0.096-0.08-0.123-0.177-0.123c-1.955,0.002-3.908,0.002-5.863,0c-0.099,0-0.144,0.029-0.176,0.124
	c-0.247,0.716-0.5,1.431-0.75,2.146C17.077,21.218,17.068,21.258,17.049,21.319z M17.891,22.343c-0.066,0.009-0.134,0.013-0.2,0.026
	c-0.576,0.128-0.831,0.784-0.485,1.248c0.235,0.317,0.689,0.429,1.053,0.257c0.288-0.136,0.461-0.363,0.479-0.685
	C18.766,22.667,18.302,22.328,17.891,22.343z"/>
<path fill="#FFFFFF" d="M25.553,18.617c1.809,0,3.6,0,5.405,0c-0.013-0.046-0.019-0.075-0.028-0.104
	c-0.257-0.734-0.516-1.469-0.77-2.204c-0.026-0.074-0.064-0.099-0.143-0.099c-1.972,0.002-3.943,0.002-5.915,0
	c-0.083,0-0.119,0.033-0.146,0.106c-0.127,0.372-0.26,0.743-0.387,1.115c-0.02,0.06-0.047,0.083-0.113,0.082
	c-0.257-0.003-0.517-0.001-0.787-0.001c0.013-0.041,0.022-0.071,0.033-0.1c0.168-0.461,0.336-0.921,0.505-1.382
	c0.138-0.378,0.429-0.585,0.833-0.586c2.014-0.001,4.025-0.001,6.04,0c0.397,0,0.69,0.203,0.825,0.57
	c0.371,1.013,0.738,2.025,1.107,3.038c0.016,0.041,0.026,0.085,0.026,0.128c0.002,1.08,0.002,2.161-0.011,3.245
	c-0.057-0.156-0.113-0.313-0.172-0.469c-0.127-0.35-0.258-0.7-0.387-1.05c-0.08-0.22-0.229-0.382-0.436-0.489
	c-0.059-0.03-0.084-0.068-0.098-0.132c-0.063-0.338-0.41-0.624-0.756-0.636c-0.342-0.013-0.615,0.106-0.802,0.398
	c-0.037,0.056-0.06,0.121-0.081,0.185c-0.017,0.053-0.043,0.074-0.101,0.073c-0.235-0.003-0.472-0.001-0.706-0.001
	c-0.744,0-1.488-0.001-2.233,0.002c-0.073,0-0.106-0.022-0.132-0.092c-0.179-0.498-0.361-0.995-0.544-1.49
	C25.577,18.694,25.568,18.667,25.553,18.617z"/>
</svg>
