<?xml version="1.0" encoding="utf-8"?>
<!-- Generator: Adobe Illustrator 16.0.0, SVG Export Plug-In . SVG Version: 6.00 Build 0)  -->
<!DOCTYPE svg PUBLIC "-//W3C//DTD SVG 1.1//EN" "http://www.w3.org/Graphics/SVG/1.1/DTD/svg11.dtd">
<svg version="1.1" id="Layer_1" xmlns="http://www.w3.org/2000/svg" xmlns:xlink="http://www.w3.org/1999/xlink" x="0px" y="0px"
	 width="48px" height="48px" viewBox="0 0 48 48" enable-background="new 0 0 48 48" xml:space="preserve">
<path fill="#4388C8" stroke="#FFFFFF" stroke-width="1.9843" stroke-miterlimit="10" d="M40.07,21.573
	c-0.297,5.333-2.536,9.818-5.797,13.871c-2.672,3.32-5.842,6.101-9.371,8.476c-0.307,0.205-0.551,0.381-0.961,0.097
	c-5.191-3.6-9.681-7.865-12.711-13.484c-1.804-3.346-2.741-6.91-2.43-10.757c0.533-6.592,5.493-12.23,12.101-13.705
	c8.47-1.89,16.769,3.328,18.689,11.792C39.865,19.071,39.916,20.334,40.07,21.573z"/>
<path fill="#FFFFFF" d="M13.778,26.699c-0.209,0.029-0.402-0.116-0.432-0.324l-0.319-2.267c-0.083-0.595,0.188-1.158,0.655-1.476
	l0.922-3.754l0.377-0.053l0.756-0.106l3.777-0.531l0.755-0.107l0.377-0.053l1.922,3.355c0.535,0.175,0.95,0.643,1.035,1.236
	l0.318,2.268c0.028,0.209-0.117,0.401-0.325,0.43L23.22,25.37l0.106,0.758c0.059,0.416-0.231,0.802-0.648,0.86
	c-0.418,0.059-0.804-0.23-0.862-0.648l-0.106-0.755l-6.043,0.851l0.106,0.754c0.059,0.418-0.232,0.804-0.649,0.863
	c-0.417,0.059-0.803-0.232-0.862-0.65l-0.106-0.756L13.778,26.699z M14.855,22.312l6.498-0.913l-1.225-2.14l-4.684,0.658
	L14.855,22.312z M14.892,22.979c-0.417,0.058-0.789,0.553-0.73,0.97c0.058,0.417,0.552,0.79,0.969,0.731
	c0.417-0.06,0.789-0.553,0.73-0.97S15.309,22.921,14.892,22.979z M21.502,22.05c-0.417,0.06-0.789,0.553-0.73,0.971
	s0.553,0.789,0.97,0.73s0.789-0.552,0.73-0.969C22.414,22.364,21.92,21.992,21.502,22.05z M25.333,25.262
	c-0.208-0.029-0.354-0.223-0.324-0.431l0.318-2.267c0.084-0.596,0.5-1.062,1.034-1.238l1.922-3.354l0.379,0.053l0.755,0.106
	l3.776,0.532l0.757,0.106l0.378,0.054l0.923,3.754c0.464,0.316,0.737,0.88,0.653,1.475l-0.318,2.266
	c-0.029,0.209-0.223,0.354-0.432,0.324l-0.377-0.054l-0.105,0.755c-0.061,0.418-0.445,0.709-0.861,0.649
	c-0.418-0.058-0.709-0.443-0.649-0.861l0.106-0.756l-6.045-0.851l-0.106,0.756c-0.06,0.419-0.444,0.71-0.861,0.65
	s-0.708-0.445-0.649-0.861l0.106-0.756L25.333,25.262z M27.579,21.34l6.498,0.913l-0.589-2.394L28.805,19.2L27.579,21.34z
	 M27.43,21.993c-0.418-0.059-0.91,0.313-0.97,0.729c-0.06,0.418,0.313,0.911,0.729,0.97c0.418,0.06,0.91-0.313,0.971-0.73
	C28.219,22.545,27.848,22.052,27.43,21.993z M34.041,22.922c-0.419-0.059-0.911,0.313-0.971,0.73
	c-0.059,0.418,0.313,0.911,0.729,0.971c0.417,0.059,0.911-0.315,0.97-0.731C34.83,23.474,34.457,22.98,34.041,22.922z
	 M20.521,13.547l1.314-0.657l1.316,7.231L20.521,13.547z M23.645,12.89h1.314l-1.149,7.231L23.645,12.89z M27.096,13.547
	l1.314,0.658l-3.287,6.574L27.096,13.547z"/>
</svg>
