<?xml version="1.0" encoding="UTF-8" standalone="no"?>
<!-- Generator: Adobe Illustrator 16.0.0, SVG Export Plug-In . SVG Version: 6.00 Build 0)  -->

<svg
   xmlns:dc="http://purl.org/dc/elements/1.1/"
   xmlns:cc="http://creativecommons.org/ns#"
   xmlns:rdf="http://www.w3.org/1999/02/22-rdf-syntax-ns#"
   xmlns:svg="http://www.w3.org/2000/svg"
   xmlns="http://www.w3.org/2000/svg"
   xmlns:sodipodi="http://sodipodi.sourceforge.net/DTD/sodipodi-0.dtd"
   xmlns:inkscape="http://www.inkscape.org/namespaces/inkscape"
   version="1.1"
   id="Layer_1"
   x="0px"
   y="0px"
   width="48px"
   height="48px"
   viewBox="0 0 48 48"
   enable-background="new 0 0 48 48"
   xml:space="preserve"
   inkscape:version="0.91 r13725"
   sodipodi:docname="marker_road_closed.svg"
   inkscape:export-filename="S:\Castelli\marker_road_closed.png"
   inkscape:export-xdpi="91"
   inkscape:export-ydpi="91"><metadata
     id="metadata21"><rdf:RDF><cc:Work
         rdf:about=""><dc:format>image/svg+xml</dc:format><dc:type
           rdf:resource="http://purl.org/dc/dcmitype/StillImage" /><dc:title></dc:title></cc:Work></rdf:RDF></metadata><defs
     id="defs19" /><sodipodi:namedview
     pagecolor="#ffffff"
     bordercolor="#666666"
     borderopacity="1"
     objecttolerance="10"
     gridtolerance="10"
     guidetolerance="10"
     inkscape:pageopacity="0"
     inkscape:pageshadow="2"
     inkscape:window-width="1920"
     inkscape:window-height="1017"
     id="namedview17"
     showgrid="false"
     inkscape:zoom="4.9166667"
     inkscape:cx="23.922275"
     inkscape:cy="21.528006"
     inkscape:window-x="-8"
     inkscape:window-y="-8"
     inkscape:window-maximized="1"
     inkscape:current-layer="Layer_1" /><path
     fill="#4388C8"
     stroke="#FFFFFF"
     stroke-width="1.9842"
     stroke-miterlimit="10"
     d="M40.07,21.573  c-0.297,5.333-2.536,9.818-5.797,13.871c-2.672,3.32-5.842,6.101-9.371,8.476c-0.307,0.205-0.551,0.381-0.961,0.097  c-5.191-3.6-9.681-7.865-12.711-13.484c-1.804-3.346-2.741-6.91-2.43-10.757c0.533-6.592,5.493-12.23,12.101-13.705  c8.47-1.89,16.769,3.328,18.689,11.792C39.865,19.071,39.916,20.334,40.07,21.573z"
     id="path3" /><g
     transform="matrix(0.13136837,0,0,-0.13136837,-433.76791,489.16737)"
     id="g6"
     style="fill:#1effff;fill-opacity:1;stroke:none"><path
       inkscape:connector-curvature="0"
       d="m 3430.9873,3605.3178 c 0,-0.125 -0.2749,-0.25 -0.6,-0.25 -1.45,0 -2.725,-0.95 -3.55,-2.625 -0.45,-0.95 -0.4749,-1.675 -0.4749,-17.125 l 0,-16.125 0.6,-1.3 c 0.35,-0.725 0.6999,-1.325 0.7749,-1.325 0.075,0 0.4,-0.225 0.7,-0.5 0.7,-0.65 2.55,-1 5.3251,-1 l 2.2249,0 0,-33.25 0,-33.25 7.5,0 7.5,0 0,10 0,10 39.25,0 39.25,0 0,-10 0,-10 7.5,0 7.5,0 0,33.25 0,33.25 2.2251,0 c 2.7749,0 4.6249,0.35 5.3249,1 0.3,0.275 0.625,0.5 0.7,0.5 0.075,0 0.425,0.6 0.7751,1.325 l 0.6,1.3 0,16.125 c 0,15.45 -0.025,16.175 -0.4751,17.125 -0.8249,1.675 -2.1,2.625 -3.55,2.625 -0.3249,0 -0.6,0.125 -0.6,0.25 0,0.175 -19.9249,0.25 -59.25,0.25 -39.325,0 -59.25,-0.075 -59.25,-0.25 z m 26.9,-7.175 c -0.075,-0.25 -2.2749,-6.175 -4.85,-13.2 l -4.7249,-12.75 -7.1501,-0.075 c -3.9499,-0.025 -7.175,0.025 -7.175,0.1251 0,0.1249 2.175,6.0749 4.8,13.25 l 4.8251,13.0749 7.2,0 c 6.75,0 7.2,-0.025 7.0749,-0.4249 z m 29.5,-0.125 c -0.075,-0.325 -2.25,-6.275 -4.8,-13.25 l -4.675,-12.7 -7.225,0 c -3.95,0 -7.2,0.075 -7.2,0.2 0,0.1 2.175,6.05 4.8,13.225 l 4.8251,13.075 7.2249,0 7.2,0 -0.15,-0.55 z m 29.5,0 c -0.075,-0.325 -2.25,-6.275 -4.8,-13.25 l -4.675,-12.7 -7.225,0 c -3.95,0 -7.2,0.075 -7.2,0.2 0,0.1 2.175,6.05 4.8,13.225 l 4.8251,13.075 7.2249,0 7.2,0 -0.15,-0.55 z m 29.5,0 c -0.075,-0.325 -2.25,-6.275 -4.8,-13.25 l -4.675,-12.7 -7.25,0 c -6.775,0 -7.225,0.025 -7.0499,0.45 0.1,0.225 2.2249,6 4.75,12.8 2.5249,6.8 4.65,12.575 4.75,12.825 0.1749,0.4 0.75,0.425 7.2999,0.425 l 7.125,0 -0.15,-0.55 z m -16.9,-49.45 0,-16.5 -39.25,0 -39.25,0 0,16.5 0,16.5 39.25,0 39.25,0 0,-16.5 z"
       id="path8"
       style="fill:#fdffff;fill-opacity:1" /></g></svg>