<?xml version="1.0" encoding="utf-8"?>
<!-- Generator: Adobe Illustrator 16.0.0, SVG Export Plug-In . SVG Version: 6.00 Build 0)  -->
<!DOCTYPE svg PUBLIC "-//W3C//DTD SVG 1.1//EN" "http://www.w3.org/Graphics/SVG/1.1/DTD/svg11.dtd">
<svg version="1.1" id="Layer_1" xmlns="http://www.w3.org/2000/svg" xmlns:xlink="http://www.w3.org/1999/xlink" x="0px" y="0px"
	 width="48px" height="48px" viewBox="0 0 48 48" enable-background="new 0 0 48 48" xml:space="preserve">
<path fill="#4388C8" stroke="#FFFFFF" stroke-width="1.9842" stroke-miterlimit="10" d="M40.07,21.573
	c-0.297,5.333-2.536,9.818-5.797,13.871c-2.672,3.32-5.842,6.101-9.371,8.476c-0.307,0.205-0.551,0.381-0.961,0.097
	c-5.191-3.6-9.681-7.865-12.711-13.484c-1.804-3.346-2.741-6.91-2.43-10.757c0.533-6.592,5.493-12.23,12.101-13.705
	c8.47-1.89,16.769,3.328,18.689,11.792C39.865,19.071,39.916,20.334,40.07,21.573z"/>
<path fill="#FFFFFF" d="M17.822,23.718c0-0.349,0-0.676,0-1.02c0.069,0,0.132,0,0.194,0c4.002,0,8.005,0,12.009,0
	c0.539,0,0.979-0.371,1.043-0.878c0.068-0.541-0.266-1.015-0.807-1.145c-0.574-0.138-1.183,0.306-1.23,0.896
	c-0.002,0.031-0.002,0.061-0.006,0.097c-0.34,0-0.672,0-1.004,0c-0.01-0.838,0.543-1.666,1.431-1.935
	c1.226-0.37,2.438,0.42,2.612,1.696c0.149,1.097-0.648,2.131-1.746,2.258c-0.151,0.018-0.307,0.028-0.459,0.028
	c-3.938,0.001-7.878,0.001-11.817,0.001C17.973,23.718,17.905,23.718,17.822,23.718z"/>
<path fill="#FFFFFF" d="M17.821,25.756c0-0.344,0-0.672,0-1.018c0.063,0,0.119,0,0.175,0c2.469,0,4.937,0,7.406,0
	c1.022,0,1.82,0.633,2.052,1.627c0.262,1.119-0.574,2.275-1.714,2.429c-1.041,0.138-2.06-0.56-2.27-1.608
	c-0.026-0.129-0.035-0.26-0.053-0.4c0.351,0,0.682,0,1.013,0c0.067,0.543,0.327,0.865,0.789,0.984
	c0.537,0.14,1.09-0.188,1.231-0.729c0.142-0.539-0.173-1.101-0.704-1.246c-0.096-0.026-0.197-0.034-0.299-0.034
	c-2.466-0.004-4.935-0.004-7.403-0.004C17.976,25.756,17.908,25.756,17.821,25.756z"/>
<path fill="#FFFFFF" d="M24.436,19.633c-0.337,0-0.665,0-1.008,0c0.009-0.457,0.135-0.871,0.417-1.223
	c0.527-0.656,1.213-0.932,2.042-0.753c0.861,0.187,1.389,0.744,1.574,1.597c0.248,1.128-0.58,2.259-1.732,2.396
	c-0.142,0.017-0.285,0.027-0.429,0.027c-2.426,0.002-4.852,0.002-7.278,0.002c-0.063,0-0.125,0-0.197,0c0-0.34,0-0.667,0-1.02
	c0.058,0,0.119,0,0.181,0c2.479,0,4.958,0,7.438,0c0.535,0,0.982-0.38,1.039-0.882c0.063-0.551-0.283-1.032-0.828-1.148
	C25.053,18.501,24.488,18.96,24.436,19.633z"/>
</svg>
