<?xml version="1.0" encoding="utf-8"?>
<!-- Generator: Adobe Illustrator 16.0.0, SVG Export Plug-In . SVG Version: 6.00 Build 0)  -->
<!DOCTYPE svg PUBLIC "-//W3C//DTD SVG 1.1//EN" "http://www.w3.org/Graphics/SVG/1.1/DTD/svg11.dtd">
<svg version="1.1" id="Layer_1" xmlns="http://www.w3.org/2000/svg" xmlns:xlink="http://www.w3.org/1999/xlink" x="0px" y="0px"
	 width="48px" height="48px" viewBox="0 0 48 48" enable-background="new 0 0 48 48" xml:space="preserve">
<path fill="#4388C8" stroke="#FFFFFF" stroke-width="1.9842" stroke-miterlimit="10" d="M40.07,21.573
	c-0.297,5.333-2.536,9.818-5.797,13.871c-2.672,3.32-5.842,6.101-9.371,8.476c-0.307,0.205-0.551,0.381-0.961,0.097
	c-5.191-3.6-9.681-7.865-12.711-13.484c-1.804-3.346-2.741-6.91-2.43-10.757c0.533-6.592,5.493-12.23,12.101-13.705
	c8.47-1.89,16.769,3.328,18.689,11.792C39.865,19.071,39.916,20.334,40.07,21.573z"/>
<path id="Temporale" fill="#FFFFFF" d="M28.543,26.85c-0.1,0-0.229,0-0.376,0l1.269-1.563c1.127-0.375,1.939-1.436,1.939-2.688
	c0-1.564-1.268-2.832-2.832-2.832c-0.566,0-1.092,0.17-1.535,0.457c-0.435-1.882-2.115-3.29-4.13-3.29
	c-2.346,0-4.248,1.902-4.248,4.249c0,1.929,1.286,3.555,3.046,4.074l-0.478,1.337c-2.309-0.716-3.986-2.867-3.986-5.411
	c0-3.128,2.537-5.666,5.665-5.666c2.126,0,3.977,1.173,4.945,2.905c0.234-0.04,0.474-0.072,0.72-0.072
	c2.347,0,4.249,1.901,4.249,4.249C32.792,24.945,30.889,26.85,28.543,26.85z M24.294,21.892h3.54l-2.123,3.54h2.479l-4.604,5.666
	l1.275-4.248h-2.338L24.294,21.892z"/>
</svg>
