<?xml version="1.0" encoding="utf-8"?>
<!-- Generator: Adobe Illustrator 16.0.0, SVG Export Plug-In . SVG Version: 6.00 Build 0)  -->
<!DOCTYPE svg PUBLIC "-//W3C//DTD SVG 1.1//EN" "http://www.w3.org/Graphics/SVG/1.1/DTD/svg11.dtd">
<svg version="1.1" id="Layer_1" xmlns="http://www.w3.org/2000/svg" xmlns:xlink="http://www.w3.org/1999/xlink" x="0px" y="0px"
	 width="48px" height="48px" viewBox="0 0 48 48" enable-background="new 0 0 48 48" xml:space="preserve">
<path fill="#4388C8" stroke="#FFFFFF" stroke-width="1.9842" stroke-miterlimit="10" d="M40.07,21.573
	c-0.297,5.333-2.536,9.818-5.797,13.871c-2.672,3.32-5.842,6.102-9.371,8.477c-0.307,0.205-0.551,0.381-0.961,0.098
	c-5.191-3.601-9.681-7.865-12.711-13.484c-1.804-3.346-2.741-6.91-2.43-10.757c0.533-6.592,5.493-12.23,12.101-13.705
	c8.47-1.89,16.769,3.328,18.689,11.792C39.865,19.071,39.916,20.334,40.07,21.573z"/>
<path fill="#FFFFFF" d="M25.521,14.957c-0.258,0.071-0.457,0.196-0.668,0.406c-0.87,0.872-0.45,2.369,0.744,2.65
	c0.84,0.198,1.684-0.306,1.905-1.129c0.054-0.201,0.054-0.616,0-0.823c-0.066-0.256-0.204-0.485-0.419-0.698
	c-0.212-0.213-0.44-0.352-0.696-0.418C26.167,14.89,25.737,14.892,25.521,14.957z"/>
<path fill="#FFFFFF" d="M20.545,16.374c-0.246,0.014-0.87,0.091-0.982,0.123c-0.156,0.042-0.266,0.15-0.382,0.384
	c-0.181,0.36-0.432,1.219-0.616,2.123c-0.034,0.162-0.064,0.31-0.073,0.329c-0.004,0.024-0.064-0.005-0.179-0.092
	c-0.39-0.302-0.696-0.318-0.696-0.039c0,0.137,0.153,0.355,0.474,0.67c0.199,0.189,0.327,0.346,0.455,0.554l0.181,0.289
	l-0.161,0.106c-0.09,0.055-0.214,0.15-0.278,0.208c-0.227,0.205-0.21,0.023-0.213,2.382l-0.002,2.106l-0.438,1.662
	c-0.466,1.775-0.485,1.881-0.391,2.15c0.167,0.492,1.01,0.666,1.437,0.295c0.178-0.154,0.2-0.221,0.765-2.348l0.543-2.064
	l-0.026-1.102c-0.014-0.608-0.024-1.107-0.022-1.107c0.006-0.002,0.843,1.019,1.615,1.966l0.246,0.303L20.963,27
	c-0.458,0.949-0.849,1.788-0.868,1.861c-0.05,0.196-0.017,0.441,0.079,0.594c0.151,0.247,0.507,0.425,0.848,0.425
	c0.233,0,0.343-0.041,0.515-0.201c0.12-0.108,0.208-0.271,0.915-1.696c0.772-1.551,1.201-2.456,1.303-2.755
	c0.036-0.103,0.047-0.188,0.036-0.254c-0.022-0.128-0.195-0.503-0.33-0.71c-0.066-0.103-0.083-0.148-0.049-0.124
	c0.03,0.021,0.875,0.701,1.882,1.513l1.829,1.475l-0.15,0.06c-0.329,0.135-0.59,0.361-0.728,0.632
	c-0.06,0.118-0.075,0.13-0.184,0.147c-0.263,0.04-0.567,0.24-0.712,0.469c-0.035,0.061-0.083,0.176-0.105,0.266
	c-0.023,0.085-0.047,0.162-0.054,0.167c-0.007,0.008-0.104,0.023-0.218,0.039c-0.628,0.074-1.009,0.294-1.289,0.73
	c-0.054,0.086-0.1,0.165-0.1,0.173c0,0.007,2.328,0.014,5.172,0.014h5.175v-0.058c0-0.11-0.152-0.376-0.299-0.521
	c-0.178-0.179-0.436-0.306-0.698-0.346c-0.104-0.017-0.214-0.034-0.247-0.038c-0.036-0.006-0.079-0.056-0.108-0.121
	c-0.025-0.063-0.088-0.149-0.139-0.192c-0.076-0.076-0.299-0.173-0.389-0.173c-0.028,0-0.043-0.072-0.054-0.271
	c-0.02-0.371-0.093-0.563-0.28-0.746c-0.188-0.182-0.34-0.239-0.721-0.258l-0.298-0.018l-0.097-0.141
	c-0.133-0.201-0.411-0.475-0.607-0.602c-0.224-0.146-0.427-0.217-0.688-0.248c-0.532-0.059-1.02,0.113-1.405,0.502l-0.189,0.186
	l-2.049-1.664c-1.127-0.917-2.05-1.671-2.05-1.683c-0.002-0.01,0.044-0.101,0.103-0.194c0.574-0.941,1.42-2.498,1.672-3.078
	c0.242-0.554,0.256-0.696,0.119-1.028c-0.211-0.511-0.898-1.503-1.515-2.195c-0.415-0.468-0.488-0.502-1.179-0.552
	C22.467,16.357,20.938,16.351,20.545,16.374z M20.912,18.466c-0.155,0.167-0.407,0.432-0.561,0.594l-0.275,0.292l0.067-0.32
	c0.036-0.176,0.092-0.436,0.125-0.578l0.057-0.256l0.255-0.011c0.144-0.002,0.338-0.011,0.436-0.015l0.176-0.005L20.912,18.466z
	 M22.689,21.658c-0.172,0.327-0.343,0.641-0.374,0.698l-0.059,0.105l-0.426-0.362l-0.428-0.365l0.176-0.076
	c0.098-0.041,0.452-0.195,0.792-0.343c0.337-0.147,0.618-0.264,0.625-0.259C23.001,21.062,22.862,21.333,22.689,21.658z"/>
</svg>
