<?xml version="1.0" encoding="utf-8"?>
<!-- Generator: Adobe Illustrator 16.0.0, SVG Export Plug-In . SVG Version: 6.00 Build 0)  -->
<!DOCTYPE svg PUBLIC "-//W3C//DTD SVG 1.1//EN" "http://www.w3.org/Graphics/SVG/1.1/DTD/svg11.dtd">
<svg version="1.1" id="Layer_1" xmlns="http://www.w3.org/2000/svg" xmlns:xlink="http://www.w3.org/1999/xlink" x="0px" y="0px"
	 width="48px" height="48px" viewBox="0 0 48 48" enable-background="new 0 0 48 48" xml:space="preserve">
<path fill="#4388C8" stroke="#FFFFFF" stroke-width="1.9842" stroke-miterlimit="10" d="M40.07,21.573
	c-0.297,5.333-2.536,9.818-5.797,13.871c-2.672,3.32-5.842,6.101-9.371,8.476c-0.307,0.205-0.551,0.381-0.961,0.097
	c-5.191-3.6-9.681-7.865-12.711-13.484c-1.804-3.346-2.741-6.91-2.43-10.757c0.533-6.592,5.493-12.23,12.101-13.705
	c8.47-1.89,16.769,3.328,18.689,11.792C39.865,19.071,39.916,20.334,40.07,21.573z"/>
<path fill="#FFFFFF" d="M21.938,29.191c-0.243-0.42-0.468-0.809-0.706-1.221c0.445-0.259,0.867-0.505,1.289-0.75
	c0.258-0.15,0.52-0.291,0.771-0.455c0.075-0.049,0.159-0.156,0.16-0.236c0.009-0.885,0.005-1.773,0.004-2.66
	c0-0.03-0.015-0.061-0.029-0.122c-0.083,0.032-0.157,0.054-0.222,0.09c-0.727,0.417-1.45,0.839-2.18,1.252
	c-0.142,0.08-0.175,0.185-0.175,0.336c0.006,0.687-0.004,1.37,0.006,2.056c0.003,0.201-0.063,0.271-0.263,0.262
	c-0.313-0.012-0.628-0.008-0.942-0.001c-0.16,0.001-0.212-0.063-0.21-0.216c0.007-0.387,0.003-0.774,0.003-1.162
	c0-0.086,0-0.174,0-0.348c-0.61,0.348-1.162,0.662-1.741,0.989c-0.219-0.383-0.435-0.746-0.634-1.12
	c-0.021-0.039,0.043-0.158,0.098-0.193c0.413-0.25,0.834-0.485,1.251-0.729c0.083-0.046,0.161-0.102,0.295-0.188
	c-0.514-0.301-0.989-0.577-1.492-0.87c0.236-0.411,0.463-0.805,0.703-1.224c0.349,0.201,0.677,0.386,1.002,0.575
	c0.356,0.205,0.708,0.417,1.072,0.607c0.082,0.044,0.226,0.049,0.304,0.004c0.745-0.417,1.483-0.847,2.221-1.273
	c0.054-0.032,0.098-0.079,0.161-0.13c-0.068-0.051-0.115-0.095-0.169-0.125c-0.724-0.42-1.451-0.836-2.174-1.26
	c-0.143-0.083-0.255-0.083-0.398,0.003c-0.588,0.349-1.185,0.684-1.779,1.026c-0.069,0.04-0.14,0.073-0.241,0.127
	c-0.232-0.403-0.46-0.796-0.703-1.216c0.492-0.285,0.967-0.561,1.494-0.867c-0.298-0.176-0.537-0.319-0.777-0.459
	c-0.258-0.149-0.516-0.3-0.775-0.445c-0.109-0.061-0.156-0.126-0.083-0.25c0.205-0.345,0.404-0.695,0.624-1.072
	c0.561,0.322,1.114,0.639,1.713,0.982c0.013-0.155,0.028-0.254,0.029-0.353c0.002-0.387,0.005-0.775-0.002-1.161
	c-0.003-0.158,0.058-0.214,0.213-0.211c0.322,0.007,0.645,0.008,0.966-0.003c0.184-0.006,0.236,0.066,0.235,0.242
	c-0.007,0.701-0.01,1.403,0.004,2.104c0.002,0.106,0.078,0.255,0.164,0.307c0.726,0.435,1.461,0.854,2.193,1.276
	c0.054,0.029,0.114,0.046,0.207,0.082c0.012-0.115,0.03-0.208,0.03-0.297c0.002-0.791-0.004-1.58,0.005-2.371
	c0.002-0.203-0.064-0.323-0.243-0.422c-0.651-0.366-1.296-0.746-1.983-1.144c0.232-0.404,0.46-0.798,0.705-1.221
	c0.489,0.278,0.964,0.548,1.483,0.843c0.017-0.144,0.033-0.235,0.033-0.325c0.004-0.468,0.007-0.936,0-1.403
	c-0.003-0.175,0.055-0.248,0.235-0.243c0.315,0.008,0.63,0.008,0.944,0c0.179-0.004,0.239,0.065,0.235,0.242
	c-0.008,0.468-0.002,0.935-0.002,1.403c0,0.087,0,0.174,0,0.342c0.527-0.3,1.004-0.569,1.513-0.857
	c0.237,0.405,0.463,0.798,0.706,1.217c-0.438,0.255-0.857,0.501-1.281,0.747c-0.257,0.15-0.521,0.292-0.771,0.454
	c-0.076,0.049-0.158,0.155-0.16,0.236c-0.011,0.895-0.005,1.79-0.003,2.684c0,0.023,0.016,0.045,0.029,0.098
	c0.091-0.038,0.18-0.064,0.258-0.11c0.697-0.401,1.395-0.81,2.097-1.204c0.163-0.092,0.222-0.203,0.22-0.386
	c-0.008-0.676,0.004-1.354-0.004-2.031c-0.005-0.202,0.063-0.27,0.264-0.261c0.306,0.013,0.613,0.012,0.918,0.002
	c0.186-0.007,0.238,0.067,0.232,0.241c-0.01,0.466-0.003,0.932-0.003,1.485c0.606-0.347,1.159-0.662,1.729-0.989
	c0.238,0.409,0.463,0.797,0.707,1.22c-0.563,0.328-1.114,0.648-1.723,1.002c0.528,0.312,1.004,0.59,1.5,0.881
	c-0.232,0.405-0.455,0.795-0.693,1.209c-0.086-0.043-0.164-0.077-0.237-0.117c-0.603-0.346-1.203-0.688-1.798-1.042
	c-0.145-0.085-0.258-0.083-0.398,0.001c-0.703,0.412-1.408,0.816-2.111,1.224c-0.073,0.042-0.141,0.097-0.248,0.173
	c0.434,0.252,0.828,0.483,1.223,0.711c0.376,0.219,0.76,0.425,1.128,0.655c0.164,0.101,0.282,0.09,0.44-0.004
	c0.582-0.345,1.173-0.678,1.759-1.015c0.067-0.04,0.141-0.075,0.239-0.128c0.231,0.404,0.459,0.798,0.701,1.217
	c-0.494,0.286-0.969,0.562-1.496,0.868c0.604,0.353,1.148,0.673,1.717,1.006c-0.238,0.417-0.465,0.811-0.701,1.22
	c-0.574-0.327-1.121-0.642-1.715-0.979c-0.01,0.142-0.021,0.224-0.021,0.308c-0.002,0.388-0.009,0.774,0.004,1.159
	c0.004,0.189-0.051,0.265-0.244,0.256c-0.307-0.012-0.615-0.01-0.92,0.003c-0.188,0.008-0.255-0.058-0.252-0.249
	c0.01-0.691,0-1.387,0.004-2.08c0-0.15-0.041-0.258-0.18-0.336c-0.734-0.417-1.467-0.844-2.199-1.265
	c-0.054-0.031-0.115-0.045-0.205-0.077c-0.01,0.105-0.021,0.182-0.021,0.258c0,0.814,0.006,1.629-0.006,2.441
	c0,0.188,0.072,0.291,0.229,0.379c0.658,0.375,1.311,0.758,1.997,1.154c-0.226,0.385-0.437,0.762-0.664,1.129
	c-0.021,0.03-0.161,0.023-0.222-0.01c-0.354-0.193-0.699-0.398-1.051-0.598c-0.071-0.044-0.15-0.074-0.264-0.127
	c-0.01,0.127-0.021,0.213-0.021,0.297c0,0.475-0.007,0.951,0.001,1.428c0.004,0.165-0.059,0.229-0.225,0.229
	c-0.321-0.008-0.645-0.008-0.967,0c-0.172,0.002-0.223-0.07-0.22-0.233c0.006-0.476,0.002-0.95,0.001-1.427
	c0-0.086-0.01-0.17-0.019-0.322C22.919,28.632,22.441,28.904,21.938,29.191z"/>
</svg>
